<svg width="471" height="361" viewBox="0 0 471 361" fill="none" xmlns="http://www.w3.org/2000/svg">
<path d="M263.203 336.841L0 184.8L207.797 64.7615L471 216.803L263.203 336.841Z" fill="url(#paint0_linear_34_11798)"/>
<path d="M0 184.801V209.849L263.203 360.849V336.842L0 184.801Z" fill="url(#paint1_linear_34_11798)"/>
<path d="M263.205 336.841V360.848L471.002 240.81V216.802L263.205 336.841Z" fill="url(#paint2_linear_34_11798)"/>
<path d="M115.194 53.5378L72.7773 77.8746V166.175L115.237 141.647L115.194 53.5378Z" fill="#EFE8DF"/>
<path d="M72.7784 77.8743L70.3164 76.4196L112.563 51.9873L115.195 53.5376L72.7784 77.8743Z" fill="#E5D8C6"/>
<path d="M70.3164 76.4197V164.752L72.7784 166.175V77.8744L70.3164 76.4197Z" fill="#CBBBA0"/>
<path d="M203.148 84.7342L194.807 79.9136L191.623 83.4282L196.441 88.8753L203.148 84.7342Z" fill="#513E35"/>
<path d="M197.831 89.5554C196.165 90.8402 194.35 91.9338 192.451 92.8151C192.228 92.9213 191.994 93.0169 191.75 92.9956C191.527 92.9744 191.336 92.847 191.156 92.7302C188.195 90.7658 185.234 88.8015 182.263 86.8265C182.114 86.7203 181.945 86.6035 181.902 86.423C181.87 86.2637 181.944 86.1045 182.029 85.9558C182.793 84.5542 183.706 83.227 184.767 82.0271C184.98 81.7935 185.202 81.5493 185.489 81.4325C186.009 81.2201 186.603 81.4431 187.113 81.6661C189.002 82.4731 191.198 83.0464 192.939 84.1507C193.491 84.5011 198.298 89.1943 197.831 89.5447V89.5554Z" fill="#2A98C4"/>
<path d="M182.24 84.9369C185.647 85.9031 189.52 84.4378 191.685 81.6452C193.85 78.8527 194.338 74.924 193.234 71.558C192.767 70.1458 192.014 68.7973 190.857 67.8735C189.849 67.0772 188.597 66.6418 187.334 66.387C185.732 66.0472 184.002 65.9729 182.495 66.6418C181.253 67.194 180.266 68.2239 179.46 69.3282C177.507 71.9934 176.159 75.3062 176.669 78.6297C177.115 81.5603 179.396 84.1405 182.24 84.9581V84.9369Z" fill="#E8CDC1"/>
<path d="M197.204 78.0236C199.008 73.702 198.318 68.2443 194.933 65.0057C194.095 64.1987 193.087 63.5298 191.962 63.2537C189.616 62.6697 187.144 63.8059 184.745 63.4873C180.851 62.9777 178.113 62.7228 176.203 66.7896C174.515 70.3785 174.473 74.4346 175.078 78.2572C175.279 79.5101 175.715 81.0285 176.956 81.2727C176.362 76.7919 178.325 72.0562 181.923 69.3167C185.563 74.6895 186.305 80.848 187.165 87.0914C191.442 85.9659 195.506 82.0903 197.204 78.0236Z" fill="#7A6056"/>
<path d="M186.443 81.655C186.443 82.4938 185.647 83.1628 184.682 83.1628C183.716 83.1628 182.92 82.4832 182.92 81.655C182.92 80.8268 183.716 80.1472 184.682 80.1472C185.647 80.1472 186.443 80.8268 186.443 81.655Z" fill="#DADADA"/>
<path d="M194.347 79.0649C194.347 80.9337 193.508 82.4521 192.479 82.4521C191.45 82.4521 190.611 80.9337 190.611 79.0649C190.611 77.1961 191.45 75.6777 192.479 75.6777C193.508 75.6777 194.347 77.1961 194.347 79.0649Z" fill="#3C3C3B"/>
<path d="M191.907 79.8196C189.975 81.2955 187.513 82.0388 185.094 81.8795" stroke="#3C3C3B" stroke-width="0.8" stroke-miterlimit="10" stroke-linecap="round"/>
<path d="M276.871 127.323L268.53 122.503L265.336 126.017L270.164 131.464L276.871 127.323Z" fill="#513E35"/>
<path d="M271.556 132.134C269.889 133.419 268.075 134.512 266.175 135.394C265.952 135.5 265.719 135.595 265.475 135.574C265.252 135.553 265.061 135.425 264.88 135.309C261.92 133.344 258.959 131.38 255.987 129.405C255.839 129.299 255.669 129.182 255.627 129.001C255.595 128.842 255.669 128.683 255.754 128.534C256.518 127.133 257.431 125.805 258.492 124.605C258.704 124.372 258.927 124.128 259.214 124.011C259.734 123.798 260.328 124.021 260.837 124.244C262.726 125.051 264.923 125.625 266.663 126.729C267.215 127.079 272.022 131.773 271.556 132.123V132.134Z" fill="#2A98C4"/>
<path d="M255.711 128.056C256.348 128.342 257.017 128.544 257.707 128.64C259.712 128.916 261.739 128.3 263.607 127.504C264.965 126.92 266.324 126.197 267.162 124.976C267.905 123.883 268.138 122.513 268.17 121.196C268.223 119.041 267.714 117.108 267.035 115.091C266.44 113.307 266.164 111.736 264.562 110.461C263.554 109.665 262.302 109.24 261.039 108.975C259.436 108.635 257.707 108.561 256.2 109.23C254.958 109.782 253.971 110.812 253.165 111.916C250.108 116.078 249.111 121.196 252.464 125.497C253.324 126.59 254.438 127.504 255.69 128.077L255.711 128.056Z" fill="#E8CDC1"/>
<path d="M270.929 120.613C272.573 116.217 272.043 110.833 268.658 107.595C267.246 106.236 265.389 105.418 263.426 105.355C261.218 105.291 258.958 105.96 256.782 105.333C255.169 104.866 253.79 103.656 253.111 102.116C250.235 103.38 248.866 107.022 249.683 110.058C250.5 113.085 253.142 115.41 256.114 116.419C257.918 117.034 259.913 117.215 261.717 116.599C261.781 117.714 262.492 118.659 263.022 119.647C264.126 121.685 264.487 124.117 264.02 126.389C264.54 125.157 265.177 123.968 265.909 122.843C266.132 122.503 266.471 122.121 266.864 122.227C267.108 122.301 267.257 122.535 267.373 122.768C267.745 123.543 267.936 124.403 267.936 125.264C269.262 124.011 270.281 122.397 270.95 120.613H270.929Z" fill="#302E29"/>
<path d="M260.168 124.244C260.168 125.082 259.372 125.751 258.406 125.751C257.44 125.751 256.645 125.072 256.645 124.244C256.645 123.415 257.44 122.736 258.406 122.736C259.372 122.736 260.168 123.415 260.168 124.244Z" fill="#DADADA"/>
<path d="M268.066 121.653C268.066 123.522 267.227 125.04 266.198 125.04C265.168 125.04 264.33 123.522 264.33 121.653C264.33 119.785 265.168 118.266 266.198 118.266C267.227 118.266 268.066 119.785 268.066 121.653Z" fill="#3C3C3B"/>
<path d="M265.633 122.408C263.702 123.884 261.24 124.627 258.82 124.468" stroke="#3C3C3B" stroke-width="0.8" stroke-miterlimit="10" stroke-linecap="round"/>
<path d="M350.476 169.847L342.145 165.026L338.951 168.551L343.769 173.998L350.476 169.847Z" fill="#513E35"/>
<path d="M345.171 174.669C343.505 175.953 341.69 177.047 339.79 177.928C339.568 178.035 339.334 178.13 339.09 178.109C338.867 178.088 338.676 177.96 338.496 177.843C335.535 175.879 332.574 173.915 329.603 171.94C329.454 171.834 329.284 171.717 329.242 171.536C329.21 171.377 329.284 171.218 329.369 171.069C330.133 169.667 331.046 168.34 332.107 167.14C332.319 166.907 332.542 166.663 332.829 166.546C333.349 166.333 333.943 166.556 334.452 166.779C336.341 167.586 338.538 168.16 340.279 169.264C340.83 169.614 345.638 174.308 345.171 174.658V174.669Z" fill="#2A98C4"/>
<path d="M329.57 170.061C332.977 171.027 336.85 169.562 339.015 166.769C341.18 163.966 341.668 160.048 340.565 156.682C340.098 155.27 339.344 153.921 338.187 152.998C337.179 152.201 335.927 151.766 334.664 151.511C333.062 151.171 331.332 151.097 329.825 151.766C328.583 152.318 327.596 153.348 326.79 154.452C324.837 157.117 323.49 160.43 323.999 163.754C324.445 166.684 326.726 169.265 329.57 170.082V170.061Z" fill="#E8CDC1"/>
<path d="M345.849 162.85C345.679 162.15 345.223 161.523 344.586 161.194C346.602 160.058 346.762 156.703 344.851 155.386C345.807 153.496 344.374 150.863 342.273 150.629C342.411 149.599 341.838 148.516 340.914 148.049C339.991 147.582 338.771 147.783 338.038 148.527C337.837 147.401 336.553 146.743 335.417 146.849C334.462 146.944 333.369 148.187 332.594 148.166C331.756 148.144 331.162 146.913 330.132 146.785C329.124 146.658 328.063 147.146 327.501 147.996C326.429 147.327 324.932 147.454 323.988 148.293C323.043 149.132 322.736 150.608 323.277 151.744C322.067 152.54 321.208 154.006 321.483 155.428C321.759 156.851 323.468 157.913 324.752 157.255C325.028 158.338 325.951 159.219 327.034 159.463C328.116 159.707 329.326 159.283 330.037 158.423C330.525 159.325 331.066 160.27 331.979 160.727C332.891 161.183 334.271 160.812 334.462 159.803C334.473 160.716 334.6 161.704 335.237 162.351C335.874 162.999 337.168 163.031 337.561 162.203C337.126 163.339 337.412 164.602 337.699 165.781L338.113 167.469C338.293 168.223 338.548 169.062 339.216 169.455C339.885 169.848 341.01 169.232 340.734 168.51C340.734 169.189 341.562 169.635 342.209 169.434C342.856 169.232 343.249 168.552 343.345 167.883C343.429 167.214 343.27 166.546 343.111 165.887C344.257 166.046 345.478 165.282 345.828 164.178C345.966 163.753 345.966 163.307 345.86 162.872L345.849 162.85Z" fill="#B17F4A"/>
<path d="M333.771 166.77C333.771 167.609 332.975 168.278 332.01 168.278C331.044 168.278 330.248 167.598 330.248 166.77C330.248 165.942 331.044 165.262 332.01 165.262C332.975 165.262 333.771 165.942 333.771 166.77Z" fill="#DADADA"/>
<path d="M341.677 164.189C341.677 166.058 340.839 167.576 339.809 167.576C338.78 167.576 337.941 166.058 337.941 164.189C337.941 162.32 338.78 160.802 339.809 160.802C340.839 160.802 341.677 162.32 341.677 164.189Z" fill="#3C3C3B"/>
<path d="M339.237 164.944C337.305 166.42 334.843 167.163 332.424 167.004" stroke="#3C3C3B" stroke-width="0.8" stroke-miterlimit="10" stroke-linecap="round"/>
<path d="M166.112 24.1465L123.695 48.4833V136.773L166.155 112.245L166.112 24.1465Z" fill="#EFE8DF"/>
<path d="M123.685 48.6315L121.021 47.1025L163.481 22.5852L166.113 24.1461L123.685 48.6315Z" fill="#E5D8C6"/>
<path d="M239.73 66.4929L197.154 91.0845L197.271 179.311L239.73 154.783V66.4929Z" fill="#EFE8DF"/>
<path d="M197.154 91.0839L194.66 89.6398L237.056 65.1226L239.73 66.4923L197.154 91.0839Z" fill="#E5D8C6"/>
<path d="M313.311 109.145L270.852 133.672V221.973L313.311 197.445V109.145Z" fill="#EFE8DF"/>
<path d="M270.853 133.672L268.381 132.217L310.639 107.785L313.313 109.144L270.853 133.672Z" fill="#E5D8C6"/>
<path d="M115.195 53.5359L335.982 181.081V269.381L115.195 141.836V53.5359Z" fill="#BAA991"/>
<path d="M112.531 52.0076L121.021 47.1021L344.471 176.176L335.981 181.082L112.531 52.0076Z" fill="#E5D8C6"/>
<path d="M188.822 144.937L120.883 105.692L95.4141 120.409L163.343 159.654L188.822 144.937Z" fill="#DB846A"/>
<path d="M95.4141 120.409V159.653L97.4516 160.832V121.587L95.4141 120.409Z" fill="#CE5F34"/>
<path d="M97.4531 160.832L122.54 145.892V136.081L97.4531 121.587V160.832Z" fill="#AA3F1F"/>
<path d="M97.4531 121.587V125.675L163.344 163.773V159.653L97.4531 121.587Z" fill="#CE5F34"/>
<path d="M132.322 123.828V127.035L136.535 129.668V125.644L132.322 123.828Z" fill="#878787"/>
<path d="M118.336 116.162V86.728L152.305 106.35V136.378L118.336 116.162Z" fill="#9D9D9C"/>
<path d="M119.811 114.591V89.7866L150.013 107.296V132.599L119.811 114.591Z" fill="#3C3C3B"/>
<path d="M118.336 86.728L121.467 85.0291L155.436 104.715V133.979L152.305 136.378V106.35L118.336 86.728Z" fill="#C6C6C6"/>
<path d="M136.535 129.667L137.331 129.21V127.458L136.535 126.991V129.667Z" fill="#706F6F"/>
<path d="M188.823 95.8821L146.363 120.41V208.71L188.823 184.183V95.8821Z" fill="#EFE8DF"/>
<path d="M146.364 120.409L143.902 118.955L186.149 94.5225L188.824 95.8816L146.364 120.409Z" fill="#E5D8C6"/>
<path d="M143.902 118.954V207.286L146.364 208.709V120.409L143.902 118.954Z" fill="#CBBBA0"/>
<path d="M171.027 203.368L196.115 188.428V178.617L171.027 164.124V203.368Z" fill="#AA3F1F"/>
<path d="M262.397 187.473L194.468 148.229L168.988 162.945L236.927 202.19L262.397 187.473Z" fill="#DB846A"/>
<path d="M168.988 162.945V202.19L171.026 203.369V164.124L168.988 162.945Z" fill="#CE5F34"/>
<path d="M171.027 164.124V168.212L236.929 206.309V202.19L171.027 164.124Z" fill="#CE5F34"/>
<path d="M205.908 166.375V169.571L210.121 172.205V168.18L205.908 166.375Z" fill="#878787"/>
<path d="M191.924 158.698V129.265L225.883 148.887V178.915L191.924 158.698Z" fill="#9D9D9C"/>
<path d="M193.389 157.127V132.323L223.602 149.833V175.136L193.389 157.127Z" fill="#3C3C3B"/>
<path d="M191.924 129.266L195.044 127.578L229.013 147.253V176.517L225.883 178.916V148.888L191.924 129.266Z" fill="#C6C6C6"/>
<path d="M210.123 172.206L210.908 171.749V169.997L210.123 169.53V172.206Z" fill="#706F6F"/>
<path d="M262.395 138.547L219.936 163.075V251.375L262.395 226.847V138.547Z" fill="#EFE8DF"/>
<path d="M219.937 163.074L217.475 161.609L259.722 137.187L262.396 138.546L219.937 163.074Z" fill="#E5D8C6"/>
<path d="M217.475 161.61V249.953L219.937 251.376V163.075L217.475 161.61Z" fill="#CBBBA0"/>
<path d="M98.2051 33.9158V73.1604L140.664 97.6883V58.4437L98.2051 33.9158Z" fill="#302E29"/>
<path d="M98.2051 73.1609L104.243 91.0843L106.705 78.0665L98.2051 73.1609Z" fill="#302E29"/>
<path d="M116.67 55.2367V74.3706L114.123 72.8522V74.1263L110.303 71.8435V70.5693L107.756 69.0509V49.917L110.303 51.4354V50.1612L114.123 52.4441V53.7183L116.67 55.2367ZM114.123 54.9925L110.303 52.7096V69.2951L114.123 71.578V54.9925Z" fill="#EDEDED"/>
<path d="M127.195 73.6274V75.5387L128.469 76.3032V80.1257L129.742 80.8902V83.4386L127.195 81.9202V79.3718L125.922 78.6073V74.7848L123.375 73.2664V79.6479L120.828 78.1295V56.4473L123.375 57.9657V70.718L125.922 72.2364V69.6881L127.195 70.4526V67.9042L129.742 69.4226V71.971L128.469 71.2065V74.3919L127.195 73.6274Z" fill="#EDEDED"/>
<path d="M175.154 78.5732V117.818L217.614 142.346V103.101L175.154 78.5732Z" fill="#302E29"/>
<path d="M175.154 117.818L181.193 135.742L183.655 122.724L175.154 117.818Z" fill="#302E29"/>
<path d="M180.555 109.323L183.738 111.224V114.409L180.555 112.508V109.323Z" fill="#EDEDED"/>
<path d="M188.525 114.081L191.709 115.981V119.167L188.525 117.266V114.081Z" fill="#EDEDED"/>
<path d="M196.494 118.826L199.678 120.727V123.912L196.494 122.012V118.826Z" fill="#EDEDED"/>
<path d="M211.319 110.448V120.652L208.772 119.134V123.912L206.225 122.394V116.331L208.772 117.849V110.193L206.225 108.675V112.497L203.678 110.979V105.882L206.225 107.401V106.127L208.772 107.645V108.919L211.319 110.438V110.448ZM205.896 124.432L209.079 126.333V129.518L205.896 127.618V124.432Z" fill="#EDEDED"/>
<path d="M175.379 0V39.2446L217.838 63.7725V24.5279L175.379 0Z" fill="#302E29"/>
<path d="M175.379 39.2451L181.407 57.1579L183.869 44.1507L175.379 39.2451Z" fill="#302E29"/>
<path d="M180.779 30.75L183.963 32.6506V35.8361L180.779 33.9354V30.75Z" fill="#EDEDED"/>
<path d="M188.75 35.4968L191.934 37.3975V40.5829L188.75 38.6823V35.4968Z" fill="#EDEDED"/>
<path d="M196.719 40.2532L199.902 42.1538V45.3393L196.719 43.4386V40.2532Z" fill="#EDEDED"/>
<path d="M211.533 31.8644V42.0684L208.986 40.55V45.3282L206.439 43.8098V37.7468L208.986 39.2652V31.6095L206.439 30.0912V33.9137L203.893 32.3953V27.2986L206.439 28.817V27.5428L208.986 29.0612V30.3354L211.533 31.8538V31.8644ZM206.121 45.8485L209.305 47.7491V50.9346L206.121 49.0339V45.8485Z" fill="#EDEDED"/>
<path d="M252.326 44.6609V83.9055L294.785 108.433V69.1888L252.326 44.6609Z" fill="#302E29"/>
<path d="M252.326 83.906L258.354 101.819L260.816 88.8116L252.326 83.906Z" fill="#302E29"/>
<path d="M261.982 78.0117L265.166 79.9124V83.0978L261.982 81.1972V78.0117Z" fill="#EDEDED"/>
<path d="M269.951 82.7573L273.135 84.658V87.8434L269.951 85.9428V82.7573Z" fill="#EDEDED"/>
<path d="M277.912 87.5149L281.096 89.4155V92.601L277.912 90.7003V87.5149Z" fill="#EDEDED"/>
<path d="M328.332 88.323V127.568L370.791 152.096V112.851L328.332 88.323Z" fill="#302E29"/>
<path d="M328.332 127.568L334.36 145.481L336.822 132.474L328.332 127.568Z" fill="#302E29"/>
<path d="M344.569 108.349V127.483L342.022 125.964V127.239L338.201 124.956V123.682L335.654 122.163V103.029L338.201 104.548V103.274L342.022 105.556V106.831L344.569 108.349ZM342.022 108.105L338.201 105.822V122.407L342.022 124.69V108.105Z" fill="#EDEDED"/>
<path d="M355.086 126.74V128.651L356.359 129.415V133.238L357.633 134.003V136.551L355.086 135.032V132.484L353.813 131.72V127.897L351.266 126.379V132.76L348.719 131.242V109.56L351.266 111.078V123.83L353.813 125.349V122.8L355.086 123.565V121.017L357.633 122.535V125.083L356.359 124.319V127.504L355.086 126.74Z" fill="#EDEDED"/>
<path d="M180.131 226.643C186.76 226.643 192.134 223.686 192.134 220.038C192.134 216.391 186.76 213.434 180.131 213.434C173.503 213.434 168.129 216.391 168.129 220.038C168.129 223.686 173.503 226.643 180.131 226.643Z" fill="#3C3C3B"/>
<path d="M180.131 201.351V220.039" stroke="#9D9D9C" stroke-width="1.6" stroke-miterlimit="10" stroke-linecap="round"/>
<path d="M189.035 171.048L195.19 166.376L212.011 175.932L205.834 180.901L189.035 171.048Z" fill="#9D9D9C"/>
<path d="M212.01 175.933V177.345L205.834 180.902L212.01 175.933Z" fill="#C6C6C6"/>
<path d="M194.446 167.915L190.785 170.835L205.536 179.329L208.921 176.208L194.446 167.915Z" fill="#575756"/>
<path d="M194.012 167.596L209.548 176.6" stroke="#9D9D9C" stroke-width="0.4" stroke-miterlimit="10"/>
<path d="M193.246 168.339L208.782 177.354" stroke="#9D9D9C" stroke-width="0.4" stroke-miterlimit="10"/>
<path d="M192.473 169.126L208.009 178.141" stroke="#9D9D9C" stroke-width="0.4" stroke-miterlimit="10"/>
<path d="M191.699 169.879L207.235 178.884" stroke="#9D9D9C" stroke-width="0.4" stroke-miterlimit="10"/>
<path d="M208.103 174.975L203.699 179.042" stroke="#9D9D9C" stroke-width="0.4" stroke-miterlimit="10"/>
<path d="M206.949 174.223L202.545 178.279" stroke="#9D9D9C" stroke-width="0.4" stroke-miterlimit="10"/>
<path d="M205.74 173.607L201.336 177.663" stroke="#9D9D9C" stroke-width="0.4" stroke-miterlimit="10"/>
<path d="M204.582 172.843L200.178 176.91" stroke="#9D9D9C" stroke-width="0.4" stroke-miterlimit="10"/>
<path d="M203.404 172.205L199 176.272" stroke="#9D9D9C" stroke-width="0.4" stroke-miterlimit="10"/>
<path d="M202.246 171.451L197.842 175.518" stroke="#9D9D9C" stroke-width="0.4" stroke-miterlimit="10"/>
<path d="M201.015 170.813L196.611 174.88" stroke="#9D9D9C" stroke-width="0.4" stroke-miterlimit="10"/>
<path d="M199.849 170.061L195.445 174.117" stroke="#9D9D9C" stroke-width="0.4" stroke-miterlimit="10"/>
<path d="M198.394 169.571L193.99 173.638" stroke="#9D9D9C" stroke-width="0.4" stroke-miterlimit="10"/>
<path d="M197.239 168.818L192.824 172.884" stroke="#9D9D9C" stroke-width="0.4" stroke-miterlimit="10"/>
<path d="M195.859 168.02L191.455 172.087" stroke="#9D9D9C" stroke-width="0.4" stroke-miterlimit="10"/>
<path d="M196.558 209.38C197.248 209.274 198.054 209.263 198.532 209.762C198.988 210.24 198.956 211.036 198.617 211.61C198.288 212.183 197.715 212.576 197.152 212.916C195.921 213.67 194.616 214.296 193.289 214.848C192.228 215.284 190.965 215.751 189.925 215.018C189.766 214.901 189.617 214.763 189.511 214.593C189.342 214.307 189.32 213.956 189.32 213.616C189.32 213.149 189.32 212.502 189.639 212.13C189.862 211.875 190.116 211.588 190.371 211.355C191.995 209.89 194.488 209.667 196.547 209.359L196.558 209.38Z" fill="#262B2D"/>
<path d="M192.728 212.364C192.547 212.523 192.346 212.661 192.133 212.778C191.284 213.213 190.128 213.128 189.491 212.417C189.12 209.38 188.992 202.935 188.833 199.877C188.706 197.424 188.048 194.96 188.387 192.497C188.684 190.31 189.99 188.759 191.953 187.846C192.76 187.464 193.64 187.146 194.351 187.899C194.648 188.218 194.818 188.643 194.903 189.078C195.009 189.62 194.946 190.14 194.924 190.681C194.903 191.276 194.85 191.86 194.797 192.455C194.733 193.145 194.776 193.846 194.755 194.536C194.712 195.99 194.585 197.445 194.532 198.9C194.468 200.726 194.319 205.94 194.235 207.755C194.192 208.711 194.139 209.677 193.842 210.59C193.619 211.27 193.248 211.918 192.728 212.385V212.364Z" fill="#343C3F"/>
<path d="M192.663 191.786C193.693 191.255 194.849 190.512 194.902 189.354C194.934 188.558 194.382 187.836 193.682 187.454C192.992 187.071 192.175 186.976 191.379 186.933C187.633 186.732 183.908 187.57 180.364 188.781C178.507 189.418 176.65 190.172 175.196 191.488C173.742 192.805 172.744 194.769 173.052 196.702C173.827 201.586 177.987 199.463 180.682 198.05C184.672 195.959 188.662 193.878 192.663 191.786Z" fill="#343C3F"/>
<path d="M204.921 213.487C205.611 213.381 206.417 213.371 206.895 213.87C207.351 214.348 207.319 215.144 206.98 215.717C206.651 216.291 206.078 216.684 205.515 217.023C204.284 217.777 202.979 218.404 201.653 218.956C200.591 219.391 199.328 219.858 198.288 219.126C198.129 219.009 197.981 218.871 197.875 218.701C197.705 218.414 197.684 218.064 197.684 217.724C197.684 217.257 197.684 216.609 198.002 216.238C198.225 215.983 198.48 215.696 198.734 215.462C200.358 213.997 202.852 213.774 204.91 213.466L204.921 213.487Z" fill="#262B2D"/>
<path d="M201.079 216.471C200.899 216.631 200.697 216.769 200.485 216.885C199.636 217.321 198.479 217.236 197.843 216.524C197.471 213.488 197.344 207.042 197.185 203.984C197.057 201.532 196.399 199.068 196.739 196.605C197.036 194.417 198.341 192.867 200.305 191.954C201.111 191.572 201.992 191.253 202.703 192.007C203 192.326 203.17 192.75 203.255 193.186C203.361 193.727 203.297 194.247 203.276 194.789C203.255 195.384 203.202 195.968 203.149 196.562C203.085 197.252 203.127 197.953 203.106 198.643C203.064 200.098 202.936 201.553 202.883 203.007C202.82 204.834 202.671 210.047 202.586 211.863C202.544 212.819 202.491 213.785 202.194 214.698C201.971 215.378 201.599 216.025 201.079 216.492V216.471Z" fill="#3E484C"/>
<path d="M182.996 209.899L199.986 200.088L180.131 188.61L182.996 209.899Z" fill="#513E35"/>
<path d="M183.008 209.899L199.987 200.087V204.101L183.008 214.018V209.899Z" fill="#705F57"/>
<path d="M201.017 195.893C202.046 195.363 203.203 194.619 203.256 193.462C203.288 192.666 202.736 191.944 202.036 191.561C201.346 191.179 200.529 191.083 199.733 191.041C195.987 190.839 192.262 191.678 188.717 192.889C186.86 193.526 185.003 194.28 183.549 195.596C182.095 196.913 181.098 198.877 181.406 200.81C182.18 205.683 186.34 203.57 189.036 202.158C193.026 200.066 197.016 197.985 201.017 195.893Z" fill="#3E484C"/>
<path d="M206.12 174.413C206.407 174.36 206.725 174.338 206.958 174.508C207.075 174.593 207.15 174.721 207.213 174.859C207.744 175.921 207.51 177.312 206.672 178.161C206.301 178.533 205.844 178.787 205.388 179.021C204.369 179.552 203.255 180.009 202.119 179.87C202.045 179.87 201.96 179.849 201.896 179.807C201.833 179.764 201.78 179.69 201.737 179.626C200.145 177.004 203.934 174.806 206.12 174.413Z" fill="#E8CDC1"/>
<path d="M196.877 170.826C197.068 170.603 197.248 170.337 197.206 170.05C197.185 169.902 197.121 169.774 197.036 169.658C196.378 168.67 195.062 168.16 193.916 168.468C193.417 168.606 192.961 168.872 192.526 169.148C191.56 169.764 190.605 170.496 190.149 171.548C190.117 171.622 190.085 171.696 190.096 171.771C190.096 171.855 190.138 171.93 190.17 171.994C191.645 174.691 195.444 172.514 196.877 170.815V170.826Z" fill="#E8CDC1"/>
<path d="M182.233 174.858C182.424 175.018 182.625 175.188 182.87 175.219C183.199 175.262 183.506 175.071 183.772 174.88C185.968 173.34 188.133 171.737 190.245 170.07C190.468 169.889 190.723 169.709 191.009 169.751C191.306 169.794 191.497 170.07 191.656 170.314C192.208 171.195 192.707 172.119 193.132 173.064C193.227 173.276 193.323 173.521 193.28 173.754C193.216 174.062 192.93 174.253 192.665 174.423C189.555 176.356 186.446 178.288 183.326 180.231C182.774 180.571 182.18 180.921 181.532 180.858C180.991 180.805 180.535 180.454 180.11 180.125C178.72 179.053 177.394 177.863 175.865 176.971C174.751 176.324 172.979 176.09 172.47 174.752C172.194 174.03 172.342 173.16 172.83 172.565C173.064 172.289 173.35 172.066 173.658 171.885C177.022 169.932 179.824 172.788 182.233 174.848V174.858Z" fill="#2A98C4"/>
<path d="M172.682 169.752C174.423 169.423 176.185 169.986 177.872 170.548C180.727 171.493 183.698 172.353 185.162 175.114C186.786 178.172 187.115 181.4 187.285 184.819C187.455 188.228 187.614 191.647 187.784 195.055C187.805 195.575 187.837 196.106 187.667 196.595C187.2 197.975 184.918 198.899 183.666 199.504C181.448 200.566 178.53 200.576 176.195 199.971C173.096 199.175 170.327 196.977 169.074 194.025C168.109 191.753 168.056 189.215 168.013 186.752C167.939 182.557 166.665 170.888 172.693 169.763L172.682 169.752Z" fill="#36A9E1"/>
<path d="M163.564 169.285L183.09 180.604C183.09 180.604 186.38 200.067 185.796 208.286L183.005 209.9L163.564 198.719C163.564 198.719 163.606 180.243 161.961 170.868C161.728 169.53 162.63 169.285 163.564 169.285Z" fill="#634E42"/>
<path d="M163.562 198.72V203.084L183.004 214.02V209.901L163.562 198.72Z" fill="#634E42"/>
<path d="M183.007 209.9C183.007 209.9 183.155 189.672 181.033 183.291C181.033 183.291 180.258 180.53 183.081 180.605C183.081 180.605 186.371 199.855 185.787 208.286L182.996 209.9H183.007Z" fill="#705F57"/>
<path d="M176.172 172.841C176.172 172.841 176.236 172.905 176.268 172.926C176.682 173.276 177.17 173.542 177.69 173.68C178.136 173.807 178.602 173.839 179.059 173.871C179.589 173.903 180.173 173.892 180.555 173.52C181.33 172.756 180.958 170.675 180.969 169.709C180.969 169.624 180.969 169.528 180.916 169.454C180.852 169.369 180.746 169.337 180.651 169.305C179.282 168.933 177.891 168.732 176.48 168.689C175.557 168.657 175.567 168.625 175.801 169.432C176.013 170.165 176.013 170.983 175.865 171.726C175.833 171.885 175.801 172.034 175.811 172.193C175.833 172.448 175.992 172.65 176.183 172.83L176.172 172.841Z" fill="#E8CDC1"/>
<path d="M185.947 164.21C185.692 166.79 184.227 169.434 181.776 170.294C181.023 170.559 180.216 170.644 179.42 170.666C178.561 170.697 177.669 170.644 176.863 170.336C174.868 169.561 173.796 167.278 173.721 165.134C173.637 162.978 174.379 160.801 175.748 159.145C177.117 157.489 179.123 156.352 181.245 156.034C183.198 155.736 184.599 156.002 185.14 157.945C185.703 159.973 186.148 162.086 185.936 164.199L185.947 164.21Z" fill="#E8CDC1"/>
<path d="M167.98 157.732C168.755 155.194 170.516 152.997 173.063 152.073C173.573 151.892 174.114 151.765 174.56 151.467C175.058 151.138 175.398 150.618 175.844 150.225C176.724 149.439 177.945 149.174 179.123 149.11C181.861 148.972 184.875 150.087 186.095 152.54C186.944 154.26 186.785 156.288 187.082 158.178C187.029 157.817 183.399 158.624 183.081 158.773C183.389 159.622 184.004 162.022 182.933 162.755C181.797 163.519 181.415 161.533 180.237 163.445C179.346 164.878 180.014 166.694 179.155 168.117C178.497 169.21 177.075 169.603 175.791 169.582C172.172 169.518 168.861 166.715 167.884 163.222C167.386 161.449 167.449 159.505 167.991 157.732H167.98Z" fill="#F9B233"/>
<path d="M189.152 162.223C189.152 162.966 188.568 163.561 187.846 163.561C187.125 163.561 186.541 162.956 186.541 162.223C186.541 161.49 187.125 160.885 187.846 160.885C188.568 160.885 189.152 161.49 189.152 162.223Z" fill="#DADADA"/>
<path d="M183.008 163.423C183.008 164.751 182.297 165.834 181.427 165.834C180.557 165.834 179.846 164.751 179.846 163.423C179.846 162.096 180.557 161.013 181.427 161.013C182.297 161.013 183.008 162.096 183.008 163.423Z" fill="#3C3C3B"/>
<path d="M182.021 164.304C184.006 164.379 186.012 163.784 187.625 162.637" stroke="#3C3C3B" stroke-width="0.8" stroke-miterlimit="10" stroke-linecap="round"/>
<path d="M192.984 181.072C193.175 181.231 193.376 181.401 193.62 181.433C193.949 181.476 194.257 181.285 194.522 181.093C196.719 179.554 198.884 177.95 200.996 176.294C201.219 176.113 201.473 175.933 201.76 175.975C202.057 176.018 202.248 176.294 202.407 176.538C202.959 177.42 203.458 178.343 203.882 179.288C203.978 179.501 204.073 179.745 204.031 179.978C203.967 180.286 203.681 180.478 203.415 180.647C200.306 182.58 197.197 184.512 194.077 186.456C193.525 186.795 192.931 187.146 192.283 187.082C191.742 187.029 191.286 186.679 190.861 186.349C189.025 184.927 187.317 183.366 185.194 182.484C183.465 181.762 182.085 180.063 181.544 178.301C181.31 177.536 181.225 176.708 181.406 175.933C181.597 175.158 182.085 174.425 182.796 174.075C184.069 173.438 185.608 174.096 186.722 174.967C187.89 175.88 188.516 177.048 189.471 178.11C190.458 179.203 191.848 180.117 192.973 181.083L192.984 181.072Z" fill="#36A9E1"/>
<path d="M174.262 153.06C174.548 153.368 174.697 153.793 174.75 154.207C174.92 155.449 174.315 156.766 173.253 157.435C173.052 157.562 172.818 157.679 172.585 157.669C172.288 157.669 172.012 157.467 171.842 157.223C171.672 156.978 171.598 156.681 171.545 156.384C171.418 155.683 171.439 154.95 171.693 154.292C172.054 153.358 173.307 152.041 174.262 153.06Z" fill="#E94E1B"/>
<path d="M171.885 148.919C170.824 147.932 169.306 147.475 167.884 147.709C166.388 147.953 165.083 148.93 164.213 150.172C163.342 151.414 162.897 152.901 162.684 154.398C162.525 155.534 162.493 156.702 162.122 157.785C161.751 158.868 160.933 159.898 159.809 160.111C160.785 161.565 162.653 162.16 164.404 162.149C166.844 162.149 169.264 161.141 170.983 159.421C173.583 156.819 174.942 151.744 171.885 148.909V148.919Z" fill="#F9B233"/>
<path d="M118.548 177.504C118.548 181.157 113.178 184.109 106.545 184.109C99.9127 184.109 94.543 181.146 94.543 177.504C94.543 173.862 99.9127 170.9 106.545 170.9C113.178 170.9 118.548 173.862 118.548 177.504Z" fill="#3C3C3B"/>
<path d="M106.547 158.817V177.505" stroke="#9D9D9C" stroke-width="1.6" stroke-miterlimit="10" stroke-linecap="round"/>
<path d="M115.451 128.513L121.606 123.83L138.437 133.397L132.261 138.366L115.451 128.513Z" fill="#9D9D9C"/>
<path d="M138.436 133.396V134.809L132.26 138.366L138.436 133.396Z" fill="#C6C6C6"/>
<path d="M120.864 125.381L117.203 128.301L131.954 136.795L135.35 133.673L120.864 125.381Z" fill="#575756"/>
<path d="M120.438 125.062L135.974 134.066" stroke="#9D9D9C" stroke-width="0.4" stroke-miterlimit="10"/>
<path d="M119.664 125.805L135.2 134.82" stroke="#9D9D9C" stroke-width="0.4" stroke-miterlimit="10"/>
<path d="M118.889 126.59L134.425 135.605" stroke="#9D9D9C" stroke-width="0.4" stroke-miterlimit="10"/>
<path d="M118.123 127.344L133.659 136.348" stroke="#9D9D9C" stroke-width="0.4" stroke-miterlimit="10"/>
<path d="M134.531 132.441L130.127 136.497" stroke="#9D9D9C" stroke-width="0.4" stroke-miterlimit="10"/>
<path d="M133.374 131.687L128.959 135.743" stroke="#9D9D9C" stroke-width="0.4" stroke-miterlimit="10"/>
<path d="M132.165 131.071L127.75 135.127" stroke="#9D9D9C" stroke-width="0.4" stroke-miterlimit="10"/>
<path d="M130.998 130.307L126.594 134.374" stroke="#9D9D9C" stroke-width="0.4" stroke-miterlimit="10"/>
<path d="M129.83 129.671L125.426 133.738" stroke="#9D9D9C" stroke-width="0.4" stroke-miterlimit="10"/>
<path d="M128.664 128.915L124.26 132.971" stroke="#9D9D9C" stroke-width="0.4" stroke-miterlimit="10"/>
<path d="M127.431 128.279L123.027 132.346" stroke="#9D9D9C" stroke-width="0.4" stroke-miterlimit="10"/>
<path d="M126.275 127.525L121.871 131.581" stroke="#9D9D9C" stroke-width="0.4" stroke-miterlimit="10"/>
<path d="M124.812 127.037L120.408 131.104" stroke="#9D9D9C" stroke-width="0.4" stroke-miterlimit="10"/>
<path d="M123.654 126.282L119.25 130.349" stroke="#9D9D9C" stroke-width="0.4" stroke-miterlimit="10"/>
<path d="M122.285 125.486L117.881 129.553" stroke="#9D9D9C" stroke-width="0.4" stroke-miterlimit="10"/>
<path d="M122.986 166.844C123.675 166.738 124.482 166.727 124.959 167.226C125.416 167.704 125.384 168.5 125.044 169.073C124.715 169.647 124.142 170.04 123.58 170.38C122.349 171.133 121.044 171.76 119.717 172.312C118.656 172.747 117.393 173.215 116.353 172.482C116.194 172.365 116.045 172.227 115.939 172.057C115.769 171.771 115.748 171.42 115.748 171.08C115.748 170.613 115.748 169.965 116.066 169.594C116.289 169.339 116.544 169.052 116.799 168.819C118.422 167.353 120.916 167.13 122.975 166.822L122.986 166.844Z" fill="#262B2D"/>
<path d="M119.153 169.827C118.973 169.987 118.771 170.125 118.559 170.242C117.71 170.677 116.553 170.592 115.917 169.881C115.545 166.844 115.418 160.399 115.259 157.341C115.131 154.888 114.473 152.424 114.813 149.961C115.11 147.774 116.416 146.223 118.379 145.31C119.185 144.928 120.066 144.609 120.777 145.363C121.074 145.682 121.244 146.107 121.329 146.542C121.435 147.083 121.371 147.604 121.35 148.145C121.329 148.74 121.276 149.324 121.223 149.918C121.159 150.609 121.202 151.309 121.18 152C121.138 153.454 121.011 154.909 120.958 156.364C120.894 158.19 120.745 163.403 120.66 165.219C120.618 166.175 120.565 167.141 120.268 168.054C120.045 168.734 119.673 169.381 119.153 169.849V169.827Z" fill="#343C3F"/>
<path d="M119.091 149.25C120.12 148.719 121.277 147.975 121.33 146.818C121.362 146.022 120.81 145.3 120.11 144.917C119.42 144.535 118.603 144.44 117.807 144.397C114.061 144.195 110.336 145.034 106.792 146.245C104.934 146.882 103.077 147.636 101.623 148.952C100.17 150.269 99.172 152.233 99.4797 154.166C100.254 159.04 104.414 156.927 107.11 155.514C111.1 153.423 115.09 151.341 119.091 149.25Z" fill="#343C3F"/>
<path d="M131.337 170.954C132.027 170.847 132.833 170.837 133.311 171.336C133.767 171.814 133.735 172.61 133.396 173.183C133.056 173.757 132.494 174.15 131.931 174.489C130.7 175.243 129.395 175.87 128.069 176.422C127.007 176.857 125.744 177.324 124.705 176.592C124.545 176.475 124.397 176.337 124.291 176.167C124.121 175.88 124.1 175.53 124.1 175.19C124.1 174.723 124.1 174.075 124.418 173.704C124.641 173.449 124.896 173.162 125.15 172.929C126.774 171.463 129.268 171.24 131.326 170.932L131.337 170.954Z" fill="#262B2D"/>
<path d="M127.505 173.937C127.325 174.097 127.123 174.235 126.911 174.351C126.062 174.787 124.905 174.702 124.268 173.99C123.897 170.954 123.77 164.508 123.61 161.45C123.483 158.998 122.825 156.534 123.165 154.071C123.462 151.883 124.767 150.333 126.73 149.42C127.537 149.038 128.418 148.719 129.129 149.473C129.426 149.792 129.596 150.216 129.681 150.652C129.787 151.193 129.723 151.714 129.702 152.255C129.681 152.85 129.627 153.434 129.574 154.028C129.511 154.718 129.553 155.419 129.532 156.109C129.489 157.564 129.362 159.019 129.309 160.474C129.245 162.3 129.097 167.513 129.012 169.329C128.969 170.285 128.916 171.251 128.619 172.164C128.396 172.844 128.025 173.491 127.505 173.959V173.937Z" fill="#3E484C"/>
<path d="M109.423 167.364L126.402 157.553L106.547 146.075L109.423 167.364Z" fill="#513E35"/>
<path d="M109.432 167.365L126.4 157.553V161.567L109.432 171.484V167.365Z" fill="#705F57"/>
<path d="M127.443 153.36C128.472 152.829 129.629 152.085 129.682 150.928C129.714 150.132 129.162 149.41 128.461 149.027C127.772 148.645 126.954 148.549 126.159 148.507C122.412 148.305 118.688 149.144 115.143 150.355C113.286 150.992 111.429 151.746 109.975 153.062C108.521 154.379 107.524 156.343 107.831 158.276C108.606 163.149 112.766 161.036 115.461 159.624C119.452 157.532 123.442 155.451 127.443 153.36Z" fill="#3E484C"/>
<path d="M132.536 131.868C132.823 131.815 133.141 131.794 133.375 131.964C133.491 132.049 133.566 132.176 133.629 132.314C134.16 133.376 133.926 134.767 133.088 135.616C132.717 135.988 132.26 136.243 131.804 136.487C130.785 137.018 129.671 137.474 128.535 137.336C128.461 137.336 128.376 137.315 128.313 137.273C128.249 137.23 128.196 137.156 128.153 137.092C126.561 134.47 130.35 132.272 132.536 131.879V131.868Z" fill="#E8CDC1"/>
<path d="M123.303 128.289C123.494 128.066 123.674 127.801 123.632 127.514C123.611 127.366 123.547 127.238 123.462 127.121C122.804 126.134 121.488 125.624 120.342 125.932C119.843 126.07 119.387 126.336 118.952 126.612C117.986 127.228 117.031 127.96 116.575 129.011C116.543 129.086 116.511 129.16 116.522 129.234C116.522 129.319 116.564 129.394 116.596 129.457C118.071 132.154 121.87 129.978 123.303 128.279V128.289Z" fill="#E8CDC1"/>
<path d="M108.649 132.325C108.84 132.484 109.041 132.654 109.286 132.686C109.615 132.728 109.922 132.537 110.188 132.346C112.384 130.806 114.549 129.203 116.661 127.536C116.884 127.355 117.139 127.175 117.425 127.217C117.722 127.26 117.913 127.536 118.072 127.78C118.624 128.661 119.123 129.585 119.548 130.53C119.643 130.742 119.739 130.987 119.696 131.22C119.632 131.528 119.346 131.719 119.081 131.889C115.971 133.822 112.862 135.754 109.742 137.697C109.19 138.037 108.596 138.387 107.948 138.324C107.407 138.271 106.951 137.92 106.526 137.591C105.136 136.519 103.81 135.329 102.282 134.438C101.167 133.79 99.395 133.556 98.8856 132.218C98.6097 131.496 98.7583 130.626 99.2464 130.031C99.4799 129.755 99.7664 129.532 100.074 129.351C103.438 127.398 106.24 130.254 108.649 132.314V132.325Z" fill="#2A98C4"/>
<path d="M99.1063 127.216C100.847 126.887 102.608 127.449 104.296 128.012C107.15 128.957 110.122 129.817 111.586 132.578C113.21 135.636 113.539 138.864 113.709 142.283C113.878 145.691 114.038 149.11 114.207 152.519C114.229 153.039 114.261 153.57 114.091 154.058C113.624 155.439 111.342 156.363 110.09 156.968C107.872 158.03 104.954 158.04 102.619 157.435C99.5202 156.628 96.7504 154.441 95.4982 151.489C94.5325 149.217 94.4794 146.679 94.437 144.215C94.3627 140.021 93.0892 128.352 99.1169 127.226L99.1063 127.216Z" fill="#36A9E1"/>
<path d="M89.9815 126.75L109.508 138.069C109.508 138.069 112.798 157.532 112.214 165.751L109.423 167.365L89.9815 156.184C89.9815 156.184 90.024 137.708 88.3791 128.332C88.1456 126.994 89.0477 126.75 89.9815 126.75Z" fill="#634E42"/>
<path d="M89.9805 156.173V160.548L109.433 171.484V167.364L89.9805 156.173Z" fill="#634E42"/>
<path d="M109.434 167.365C109.434 167.365 109.583 147.137 107.461 140.756C107.461 140.756 106.686 137.995 109.509 138.069C109.509 138.069 112.798 157.32 112.215 165.751L109.424 167.365H109.434Z" fill="#705F57"/>
<path d="M102.472 130.456C102.472 130.573 102.483 130.7 102.557 130.785C102.61 130.859 102.695 130.902 102.78 130.934C103.746 131.358 104.807 131.55 105.857 131.486C106.208 131.465 106.568 131.412 106.844 131.199C107.322 130.828 107.375 130.137 107.375 129.522C107.375 128.736 107.386 127.939 107.396 127.154C107.396 127.069 107.396 126.973 107.343 126.899C107.28 126.814 107.173 126.782 107.078 126.75C105.911 126.432 103.364 125.603 102.313 126.602C101.432 127.43 102.43 129.373 102.483 130.435L102.472 130.456Z" fill="#E8CDC1"/>
<path d="M112.363 121.674C112.108 124.254 110.643 126.898 108.192 127.758C107.439 128.023 106.632 128.108 105.836 128.129C104.977 128.161 104.085 128.108 103.279 127.8C101.284 127.025 100.212 124.742 100.137 122.597C100.053 120.442 100.795 118.265 102.164 116.609C103.533 114.952 105.539 113.816 107.661 113.498C109.614 113.2 111.015 113.466 111.556 115.409C112.119 117.437 112.564 119.55 112.352 121.663L112.363 121.674Z" fill="#E8CDC1"/>
<path d="M94.758 115.197C94.8853 114.91 95.0764 114.645 95.3098 114.433C94.5776 113.764 94.2911 112.649 94.5988 111.704C94.9172 110.759 95.8086 110.047 96.7955 109.952C96.6151 109.474 96.7955 108.922 97.1139 108.529C97.4323 108.136 97.878 107.871 98.3131 107.605C99.0135 107.191 99.7775 106.766 100.584 106.862C101.21 106.936 101.762 107.329 102.271 107.711C102.473 106.798 103.269 106.034 104.192 105.874C105.115 105.715 106.113 106.161 106.612 106.957C106.76 106.352 107.312 105.906 107.917 105.768C108.522 105.63 109.159 105.768 109.721 106.012C110.315 106.278 110.867 106.703 111.122 107.297C111.387 107.892 111.292 108.667 110.782 109.07C111.175 108.837 111.716 108.954 112.066 109.262C112.417 109.559 112.618 110.005 112.756 110.451C112.915 110.96 113.011 111.502 112.894 112.012C112.777 112.521 112.395 113.01 111.875 113.116C112.226 114.241 111.292 115.569 110.114 115.622C110.252 116.556 109.711 117.554 109.7 118.531C109.7 118.935 109.711 119.359 109.562 119.731C109.413 120.103 109.031 120.432 108.639 120.368C108.702 119.965 108.204 119.646 107.8 119.742C107.397 119.837 107.111 120.177 106.888 120.527C105.826 122.109 105.349 124.021 105.253 125.921C105.222 126.495 105.222 127.111 104.882 127.578C104.542 128.045 103.927 128.257 103.343 128.236C99.0771 128.236 97.2094 123.883 95.7768 120.612C95.4478 119.869 95.1294 119.009 95.4796 118.287C94.5457 117.607 94.2804 116.227 94.7474 115.197H94.758Z" fill="#513B31"/>
<path d="M115.577 119.689C115.577 120.432 114.994 121.027 114.272 121.027C113.55 121.027 112.967 120.422 112.967 119.689C112.967 118.956 113.55 118.351 114.272 118.351C114.994 118.351 115.577 118.956 115.577 119.689Z" fill="#DADADA"/>
<path d="M107.853 123.297C108.726 123.297 109.434 122.218 109.434 120.887C109.434 119.556 108.726 118.477 107.853 118.477C106.979 118.477 106.271 119.556 106.271 120.887C106.271 122.218 106.979 123.297 107.853 123.297Z" fill="#3C3C3B"/>
<path d="M108.447 121.768C110.432 121.842 112.437 121.248 114.05 120.101" stroke="#3C3C3B" stroke-width="0.8" stroke-miterlimit="10" stroke-linecap="round"/>
<path d="M119.398 138.535C119.589 138.694 119.79 138.864 120.034 138.896C120.363 138.938 120.671 138.747 120.937 138.556C123.133 137.017 125.298 135.413 127.41 133.746C127.633 133.566 127.887 133.385 128.174 133.428C128.471 133.47 128.662 133.746 128.821 133.99C129.373 134.872 129.872 135.795 130.296 136.74C130.392 136.953 130.487 137.197 130.445 137.431C130.381 137.739 130.095 137.93 129.83 138.1C126.72 140.032 123.611 141.965 120.491 143.908C119.939 144.247 119.345 144.598 118.697 144.534C118.156 144.481 117.7 144.131 117.275 143.802C115.439 142.379 113.731 140.818 111.608 139.937C109.879 139.214 108.499 137.516 107.958 135.753C107.724 134.988 107.639 134.16 107.82 133.385C108.011 132.61 108.499 131.877 109.21 131.527C110.484 130.89 112.022 131.548 113.137 132.419C114.304 133.332 114.93 134.5 115.885 135.562C116.872 136.656 118.262 137.569 119.387 138.535H119.398Z" fill="#36A9E1"/>
<path d="M335.983 230.138L268.043 190.894L242.574 205.611L310.503 244.855L335.983 230.138Z" fill="#DB846A"/>
<path d="M244.613 206.789V210.877L310.504 248.964V244.855L244.613 206.789Z" fill="#CE5F34"/>
<path d="M242.574 205.611V244.855L244.612 246.034V206.789L242.574 205.611Z" fill="#CE5F34"/>
<path d="M244.613 246.033L269.7 231.094V221.283L244.613 206.789V246.033Z" fill="#AA3F1F"/>
<path d="M279.48 209.029V212.236L283.694 214.869V210.845L279.48 209.029Z" fill="#878787"/>
<path d="M265.494 201.363V171.93L299.464 191.552V221.569L265.494 201.363Z" fill="#9D9D9C"/>
<path d="M266.969 199.792V174.988L297.182 192.498V217.79L266.969 199.792Z" fill="#3C3C3B"/>
<path d="M265.494 171.93L268.625 170.231L302.594 189.917V219.18L299.464 221.569V191.552L265.494 171.93Z" fill="#C6C6C6"/>
<path d="M283.693 214.869L284.489 214.412V212.66L283.693 212.193V214.869Z" fill="#706F6F"/>
<path d="M251.158 122.246V161.491L293.617 186.019V146.774L251.158 122.246Z" fill="#302E29"/>
<path d="M251.158 161.491L257.197 179.404L259.648 166.397L251.158 161.491Z" fill="#302E29"/>
<path d="M261.707 156.075L264.891 157.975V161.161L261.707 159.26V156.075Z" fill="#EDEDED"/>
<path d="M269.678 160.832L272.861 162.733V165.918L269.678 164.018V160.832Z" fill="#EDEDED"/>
<path d="M277.646 165.578L280.83 167.479V170.664L277.646 168.764V165.578Z" fill="#EDEDED"/>
<path d="M344.474 176.177V264.478L335.984 269.383V181.083L344.474 176.177Z" fill="#EFE8DF"/>
<path d="M335.983 181.084L293.523 205.612V293.913L335.983 269.385V181.084Z" fill="#EFE8DF"/>
<path d="M293.525 205.612L291.062 204.146L333.31 179.725L335.984 181.084L293.525 205.612Z" fill="#E5D8C6"/>
<path d="M291.062 204.147V292.49L293.525 293.913V205.613L291.062 204.147Z" fill="#CBBBA0"/>
<path d="M386.888 151.682L344.439 176.21V264.51L386.888 239.983V151.682Z" fill="#EFE8DF"/>
<path d="M344.441 176.21L341.979 174.755L384.215 150.323L386.889 151.682L344.441 176.21Z" fill="#E5D8C6"/>
<path d="M378.063 192.148L305.964 234.015L305.656 209.817L377.755 167.949L378.063 192.148Z" fill="white" stroke="#DB846A" stroke-width="2.4" stroke-miterlimit="10"/>
<path d="M314.901 214.531L314.869 212.068L313.097 213.098L313.214 222.229L314.986 221.199L314.954 218.386L316.132 217.695L316.174 221.21L314.986 221.9V222.601L313.224 223.631V222.93L312.036 223.62L311.908 213.087L313.097 212.397V211.696L314.858 210.666V211.367L316.047 210.677L316.089 213.841L314.911 214.531H314.901Z" fill="#3C3C3B"/>
<path d="M321.842 210.147L321.948 218.578L320.759 219.268L320.696 214.352L318.924 215.382L318.987 220.298L317.809 220.988L317.703 212.557L318.297 212.218L318.276 210.105L318.87 209.765L318.849 208.363L320.621 207.333L320.643 208.735L321.237 208.395L321.258 210.508L321.852 210.168L321.842 210.147ZM320.653 210.837L320.059 211.177L320.027 209.064L319.433 209.404L319.465 211.517L318.87 211.857L318.902 213.97L320.675 212.94L320.643 210.827L320.653 210.837Z" fill="#3C3C3B"/>
<path d="M327.402 213.991L327.424 215.393L323.879 217.452L323.73 205.507L324.919 204.817L325.046 215.35L327.413 213.98L327.402 213.991Z" fill="#3C3C3B"/>
<path d="M332.506 211.027L332.527 212.429L328.983 214.489L328.834 202.543L330.012 201.853L330.139 212.386L332.506 211.017V211.027Z" fill="#3C3C3B"/>
<path d="M342.045 198.775L342.014 196.312L340.241 197.342L340.358 206.473L342.13 205.443L342.098 202.64L343.276 201.95L343.319 205.465L342.13 206.155V206.856L340.369 207.886V207.185L339.18 207.875L339.053 197.342L340.241 196.652V195.951L342.003 194.921V195.622L343.192 194.932L343.234 198.096L342.056 198.786L342.045 198.775Z" fill="#3C3C3B"/>
<path d="M346.23 193.858L346.272 197.372L348.341 196.172L348.363 197.574L346.293 198.774L346.346 202.989L348.713 201.62L348.734 203.021L345.19 205.081L345.041 193.136L348.585 191.076L348.607 192.477L346.24 193.847L346.23 193.858Z" fill="#3C3C3B"/>
<path d="M355.087 187.306L355.236 199.252L354.047 199.942L354.026 197.829L353.432 198.169L353.4 196.066L352.222 196.756L352.19 193.943L351.596 194.282L351.681 201.312L350.492 202.002L350.344 190.056L351.532 189.366L351.554 191.469L352.148 191.129L352.18 193.231L353.358 192.541L353.389 195.355L353.984 195.015L353.899 187.986L355.087 187.296V187.306Z" fill="#3C3C3B"/>
<path d="M361.168 185.183L359.396 186.213L359.523 196.746L358.335 197.436L358.208 186.903L356.435 187.933L356.414 186.532L361.147 183.781L361.168 185.183Z" fill="#3C3C3B"/>
<path d="M363.687 183.718L363.729 187.233L365.798 186.033L365.82 187.435L363.75 188.634L363.803 192.85L366.17 191.48L366.191 192.882L362.647 194.942L362.498 182.996L366.043 180.936L366.064 182.338L363.697 183.708L363.687 183.718Z" fill="#3C3C3B"/>
<path d="M371.432 183.474V184.525L372.037 184.185L372.101 189.452L370.912 190.142L370.848 184.876L369.076 185.906L369.14 191.172L367.951 191.862L367.803 179.917L370.764 178.197V178.898L371.952 178.207L372.016 183.124L371.421 183.463L371.432 183.474ZM370.838 183.474L370.785 179.609L369.013 180.639L369.066 184.504L370.838 183.474Z" fill="#3C3C3B"/>
<path d="M265.708 262.704C265.708 266.357 260.338 269.309 253.706 269.309C247.073 269.309 241.703 266.346 241.703 262.704C241.703 259.062 247.073 256.1 253.706 256.1C260.338 256.1 265.708 259.062 265.708 262.704Z" fill="#3C3C3B"/>
<path d="M253.707 244.016V262.704" stroke="#9D9D9C" stroke-width="1.6" stroke-miterlimit="10" stroke-linecap="round"/>
<path d="M262.609 213.713L268.764 209.03L285.595 218.597L279.419 223.566L262.609 213.713Z" fill="#9D9D9C"/>
<path d="M285.596 218.596V219.998L279.42 223.566L285.596 218.596Z" fill="#C6C6C6"/>
<path d="M268.023 210.581L264.361 213.501L279.112 221.995L282.508 218.874L268.023 210.581Z" fill="#575756"/>
<path d="M267.598 210.262L283.134 219.266" stroke="#9D9D9C" stroke-width="0.4" stroke-miterlimit="10"/>
<path d="M266.822 211.005L282.358 220.01" stroke="#9D9D9C" stroke-width="0.4" stroke-miterlimit="10"/>
<path d="M266.047 211.79L281.583 220.805" stroke="#9D9D9C" stroke-width="0.4" stroke-miterlimit="10"/>
<path d="M265.283 212.544L280.819 221.549" stroke="#9D9D9C" stroke-width="0.4" stroke-miterlimit="10"/>
<path d="M281.689 217.641L277.285 221.697" stroke="#9D9D9C" stroke-width="0.4" stroke-miterlimit="10"/>
<path d="M280.532 216.877L276.117 220.944" stroke="#9D9D9C" stroke-width="0.4" stroke-miterlimit="10"/>
<path d="M279.324 216.261L274.92 220.328" stroke="#9D9D9C" stroke-width="0.4" stroke-miterlimit="10"/>
<path d="M278.154 215.506L273.75 219.573" stroke="#9D9D9C" stroke-width="0.4" stroke-miterlimit="10"/>
<path d="M276.99 214.87L272.586 218.937" stroke="#9D9D9C" stroke-width="0.4" stroke-miterlimit="10"/>
<path d="M275.833 214.115L271.418 218.171" stroke="#9D9D9C" stroke-width="0.4" stroke-miterlimit="10"/>
<path d="M274.59 213.479L270.186 217.535" stroke="#9D9D9C" stroke-width="0.4" stroke-miterlimit="10"/>
<path d="M273.433 212.725L269.029 216.781" stroke="#9D9D9C" stroke-width="0.4" stroke-miterlimit="10"/>
<path d="M271.979 212.237L267.564 216.304" stroke="#9D9D9C" stroke-width="0.4" stroke-miterlimit="10"/>
<path d="M270.812 211.481L266.408 215.538" stroke="#9D9D9C" stroke-width="0.4" stroke-miterlimit="10"/>
<path d="M269.443 210.686L265.039 214.753" stroke="#9D9D9C" stroke-width="0.4" stroke-miterlimit="10"/>
<path d="M270.144 252.044C270.834 251.937 271.64 251.927 272.118 252.426C272.574 252.904 272.542 253.7 272.203 254.273C271.874 254.847 271.3 255.24 270.738 255.579C269.507 256.333 268.202 256.96 266.875 257.512C265.814 257.947 264.551 258.415 263.511 257.682C263.352 257.565 263.203 257.427 263.097 257.257C262.927 256.97 262.906 256.62 262.906 256.28C262.906 255.813 262.906 255.165 263.225 254.794C263.447 254.539 263.702 254.252 263.957 254.019C265.581 252.553 268.074 252.33 270.133 252.022L270.144 252.044Z" fill="#262B2D"/>
<path d="M266.312 255.026C266.131 255.186 265.93 255.324 265.717 255.441C264.868 255.876 263.712 255.791 263.075 255.08C262.704 252.043 262.576 245.598 262.417 242.539C262.29 240.087 261.632 237.623 261.971 235.16C262.268 232.973 263.574 231.422 265.537 230.509C266.343 230.127 267.224 229.808 267.935 230.562C268.232 230.881 268.402 231.306 268.487 231.741C268.593 232.282 268.53 232.803 268.508 233.344C268.487 233.939 268.434 234.523 268.381 235.117C268.317 235.808 268.36 236.508 268.339 237.199C268.296 238.653 268.169 240.108 268.116 241.563C268.052 243.389 267.903 248.602 267.819 250.418C267.776 251.374 267.723 252.34 267.426 253.253C267.203 253.933 266.832 254.58 266.312 255.048V255.026Z" fill="#343C3F"/>
<path d="M266.249 234.449C267.279 233.918 268.435 233.174 268.488 232.017C268.52 231.221 267.968 230.499 267.268 230.116C266.578 229.734 265.761 229.639 264.965 229.596C261.219 229.394 257.494 230.233 253.95 231.444C252.093 232.081 250.235 232.835 248.782 234.151C247.328 235.468 246.33 237.432 246.638 239.365C247.413 244.239 251.573 242.126 254.268 240.713C258.258 238.622 262.248 236.54 266.249 234.449Z" fill="#343C3F"/>
<path d="M278.495 256.154C279.185 256.047 279.992 256.037 280.469 256.536C280.926 257.014 280.894 257.81 280.554 258.383C280.225 258.957 279.652 259.35 279.09 259.689C277.859 260.443 276.553 261.07 275.227 261.622C274.166 262.057 272.903 262.524 271.863 261.792C271.704 261.675 271.555 261.537 271.449 261.367C271.279 261.08 271.258 260.73 271.258 260.39C271.258 259.923 271.258 259.275 271.576 258.904C271.799 258.649 272.054 258.362 272.308 258.128C273.932 256.663 276.426 256.44 278.485 256.132L278.495 256.154Z" fill="#262B2D"/>
<path d="M274.663 259.137C274.483 259.297 274.281 259.435 274.069 259.551C273.22 259.987 272.063 259.902 271.427 259.19C271.055 256.154 270.928 249.708 270.769 246.65C270.641 244.198 269.983 241.734 270.323 239.271C270.62 237.083 271.925 235.533 273.889 234.62C274.695 234.238 275.576 233.919 276.287 234.673C276.584 234.992 276.754 235.416 276.839 235.852C276.945 236.393 276.881 236.914 276.86 237.455C276.839 238.05 276.786 238.634 276.733 239.228C276.669 239.918 276.711 240.619 276.69 241.309C276.648 242.764 276.52 244.219 276.467 245.673C276.404 247.5 276.255 252.713 276.17 254.529C276.128 255.485 276.075 256.451 275.777 257.364C275.555 258.044 275.183 258.691 274.663 259.159V259.137Z" fill="#3E484C"/>
<path d="M256.583 252.553L273.562 242.742L253.707 231.275L256.583 252.553Z" fill="#513E35"/>
<path d="M256.592 252.554L273.561 242.743V246.767L256.592 256.684V252.554Z" fill="#705F57"/>
<path d="M274.601 238.559C275.63 238.029 276.787 237.285 276.84 236.128C276.872 235.332 276.32 234.61 275.62 234.227C274.93 233.845 274.113 233.749 273.317 233.707C269.571 233.505 265.846 234.344 262.301 235.555C260.444 236.192 258.587 236.946 257.133 238.262C255.679 239.579 254.682 241.543 254.989 243.476C255.764 248.349 259.924 246.236 262.62 244.824C266.61 242.732 270.6 240.651 274.601 238.559Z" fill="#3E484C"/>
<path d="M279.696 217.067C279.983 217.014 280.301 216.993 280.535 217.163C280.651 217.248 280.726 217.375 280.789 217.513C281.32 218.575 281.086 219.966 280.248 220.815C279.877 221.187 279.42 221.442 278.964 221.686C277.945 222.217 276.831 222.673 275.696 222.535C275.621 222.535 275.536 222.514 275.473 222.472C275.409 222.429 275.356 222.355 275.313 222.291C273.722 219.669 277.51 217.471 279.696 217.078V217.067Z" fill="#E8CDC1"/>
<path d="M270.461 213.478C270.652 213.255 270.832 212.989 270.79 212.703C270.769 212.554 270.705 212.426 270.62 212.31C269.962 211.322 268.646 210.812 267.5 211.12C267.001 211.258 266.545 211.524 266.11 211.8C265.144 212.416 264.189 213.148 263.733 214.2C263.701 214.274 263.669 214.348 263.68 214.423C263.68 214.508 263.722 214.582 263.754 214.646C265.229 217.343 269.028 215.166 270.461 213.467V213.478Z" fill="#E8CDC1"/>
<path d="M255.807 217.524C255.998 217.684 256.2 217.854 256.444 217.885C256.773 217.928 257.08 217.737 257.346 217.546C259.543 216.006 261.707 214.403 263.819 212.736C264.042 212.555 264.297 212.375 264.583 212.417C264.88 212.46 265.071 212.736 265.231 212.98C265.782 213.861 266.281 214.785 266.706 215.73C266.801 215.942 266.897 216.187 266.854 216.42C266.791 216.728 266.504 216.919 266.239 217.089C263.129 219.022 260.02 220.954 256.9 222.897C256.348 223.237 255.754 223.587 255.107 223.524C254.565 223.471 254.109 223.12 253.685 222.791C252.294 221.719 250.968 220.529 249.44 219.638C248.325 218.99 246.553 218.756 246.044 217.418C245.768 216.696 245.916 215.826 246.405 215.231C246.638 214.955 246.925 214.732 247.232 214.551C250.596 212.598 253.398 215.454 255.807 217.514V217.524Z" fill="#2A98C4"/>
<path d="M246.266 212.416C248.007 212.087 249.768 212.649 251.456 213.212C254.31 214.157 257.282 215.017 258.746 217.778C260.37 220.836 260.699 224.064 260.869 227.483C261.039 230.891 261.198 234.31 261.368 237.719C261.389 238.239 261.421 238.77 261.251 239.258C260.784 240.639 258.502 241.563 257.25 242.168C255.032 243.23 252.114 243.24 249.779 242.635C246.68 241.828 243.911 239.641 242.658 236.689C241.693 234.417 241.64 231.879 241.597 229.415C241.523 225.221 240.249 213.552 246.277 212.426L246.266 212.416Z" fill="#36A9E1"/>
<path d="M237.14 211.938L256.666 223.256C256.666 223.256 259.956 242.719 259.372 250.938L256.581 252.552L237.14 241.371C237.14 241.371 237.182 222.895 235.537 213.52C235.304 212.182 236.206 211.938 237.14 211.938Z" fill="#634E42"/>
<path d="M237.139 241.372V245.746L256.591 256.683V252.553L237.139 241.372Z" fill="#634E42"/>
<path d="M256.593 252.552C256.593 252.552 256.741 232.324 254.619 225.943C254.619 225.943 253.844 223.182 256.667 223.257C256.667 223.257 259.957 242.507 259.373 250.938L256.582 252.552H256.593Z" fill="#705F57"/>
<path d="M249.63 215.655C249.63 215.772 249.641 215.899 249.715 215.984C249.768 216.058 249.853 216.101 249.938 216.133C250.904 216.557 251.965 216.749 253.016 216.685C253.366 216.664 253.727 216.611 254.003 216.398C254.48 216.027 254.533 215.336 254.533 214.72C254.533 213.935 254.544 213.138 254.554 212.353C254.554 212.268 254.554 212.172 254.501 212.098C254.438 212.013 254.332 211.981 254.236 211.949C253.069 211.631 250.522 210.802 249.471 211.801C248.59 212.629 249.588 214.572 249.641 215.634L249.63 215.655Z" fill="#E8CDC1"/>
<path d="M259.523 206.874C259.268 209.454 257.804 212.098 255.352 212.958C254.599 213.224 253.792 213.309 252.996 213.33C252.126 213.362 251.245 213.309 250.439 213.001C248.444 212.226 247.372 209.943 247.298 207.798C247.213 205.642 247.956 203.466 249.325 201.809C250.693 200.153 252.699 199.017 254.822 198.698C256.774 198.401 258.175 198.666 258.716 200.609C259.279 202.637 259.724 204.75 259.512 206.863L259.523 206.874Z" fill="#E8CDC1"/>
<path d="M242.723 200.758C242.723 200.089 242.754 199.42 242.935 198.783C243.625 196.299 246.225 194.897 248.676 194.069C251.117 193.251 253.812 192.646 255.574 190.756C255.829 191.552 255.924 192.412 255.85 193.251C256.211 192.805 256.763 192.518 257.325 192.465C258.153 194.387 258.991 196.575 258.535 198.698C258.344 199.58 257.866 199.972 257.484 200.694C257.007 201.586 256.911 202.754 256.901 203.752C256.901 204.156 256.911 204.581 256.763 204.952C256.614 205.324 256.232 205.653 255.839 205.589C255.903 205.186 255.404 204.867 255.001 204.963C254.598 205.058 254.311 205.398 254.088 205.749C253.027 207.331 252.55 209.242 252.454 211.143C252.422 211.716 252.422 212.332 252.083 212.799C251.743 213.266 251.127 213.479 250.544 213.457C247.912 213.394 246.182 211.812 244.834 209.635C243.285 207.14 242.744 203.657 242.744 200.769L242.723 200.758Z" fill="#93583B"/>
<path d="M262.738 204.889C262.738 205.633 262.154 206.227 261.432 206.227C260.711 206.227 260.127 205.622 260.127 204.889C260.127 204.157 260.711 203.552 261.432 203.552C262.154 203.552 262.738 204.157 262.738 204.889Z" fill="#DADADA"/>
<path d="M256.594 206.088C256.594 207.415 255.883 208.498 255.013 208.498C254.143 208.498 253.432 207.415 253.432 206.088C253.432 204.761 254.143 203.677 255.013 203.677C255.883 203.677 256.594 204.761 256.594 206.088Z" fill="#3C3C3B"/>
<path d="M255.607 206.969C257.592 207.043 259.598 206.449 261.211 205.302" stroke="#3C3C3B" stroke-width="0.8" stroke-miterlimit="10" stroke-linecap="round"/>
<path d="M266.558 223.735C266.749 223.894 266.951 224.064 267.195 224.096C267.524 224.138 267.831 223.947 268.097 223.756C270.293 222.216 272.458 220.613 274.57 218.946C274.793 218.766 275.048 218.585 275.334 218.628C275.631 218.67 275.822 218.946 275.981 219.19C276.533 220.072 277.032 220.995 277.457 221.94C277.552 222.153 277.648 222.397 277.605 222.631C277.541 222.939 277.255 223.13 276.99 223.3C273.88 225.232 270.771 227.165 267.651 229.108C267.099 229.447 266.505 229.798 265.857 229.734C265.316 229.681 264.86 229.331 264.435 229.001C262.6 227.579 260.891 226.018 258.769 225.136C257.039 224.414 255.659 222.716 255.118 220.953C254.884 220.188 254.8 219.36 254.98 218.585C255.171 217.81 255.659 217.077 256.37 216.727C257.644 216.09 259.182 216.748 260.297 217.619C261.464 218.532 262.09 219.7 263.045 220.762C264.032 221.855 265.422 222.769 266.547 223.735H266.558Z" fill="#36A9E1"/>
<defs>
<linearGradient id="paint0_linear_34_11798" x1="0" y1="200.801" x2="471" y2="200.801" gradientUnits="userSpaceOnUse">
<stop stop-color="#A70E13"/>
<stop offset="0.66" stop-color="#F04E3E"/>
<stop offset="1" stop-color="#F68C59"/>
</linearGradient>
<linearGradient id="paint1_linear_34_11798" x1="21.5533" y1="163.235" x2="241.253" y2="382.812" gradientUnits="userSpaceOnUse">
<stop stop-color="#5E0000"/>
<stop offset="1" stop-color="#CE181E"/>
</linearGradient>
<linearGradient id="paint2_linear_34_11798" x1="372.298" y1="297.83" x2="361.9" y2="279.826" gradientUnits="userSpaceOnUse">
<stop stop-color="#A70E13"/>
<stop offset="0.66" stop-color="#F04E3E"/>
<stop offset="1" stop-color="#F68C59"/>
</linearGradient>
</defs>
</svg>
