<svg width="382" height="374" viewBox="0 0 382 374" fill="none" xmlns="http://www.w3.org/2000/svg">
<path opacity="0.3" d="M57.7901 258.776L0 225.469L82.8246 177.737L140.625 211.034L57.7901 258.776Z" fill="black"/>
<path d="M57.7901 258.209L0 224.912L82.8246 177.17L140.625 210.477L57.7901 258.209Z" fill="url(#paint0_linear_34_11800)"/>
<path d="M88.6563 186.299H79.457V191.603H88.6563V186.299Z" fill="#F6F6F6"/>
<path d="M126.85 212.548L95.2109 194.316L97.2989 193.13L128.907 211.362L126.85 212.548Z" fill="#E0DEDC"/>
<path d="M102.756 203.149L91.3242 196.566L93.3915 195.379L104.834 201.962L102.756 203.149Z" fill="#E0DEDC"/>
<path d="M75.4055 193.936H63.9219V200.56H75.4055V193.936Z" fill="#FFEC7A"/>
<path d="M74.2696 194.597H65.0703V199.901H74.2696V194.597Z" fill="url(#paint1_linear_34_11800)"/>
<path d="M112.45 220.855L80.8105 202.622L82.8881 201.426L114.507 219.647L112.45 220.855Z" fill="#E0DEDC"/>
<path d="M100.874 218.678L76.9355 204.872L79.0028 203.675L102.962 217.481L100.874 218.678Z" fill="#E0DEDC"/>
<path d="M9.45703 223.944L14.191 226.678L25.2302 220.312L20.4962 217.578L9.45703 223.944Z" fill="#FDB053"/>
<path d="M15.918 227.68L20.6623 230.394L29.0347 225.575L24.311 222.851L15.918 227.68Z" fill="#FDB053"/>
<path d="M22.3887 231.394L27.1227 234.128L32.6423 230.94L27.9082 228.216L22.3887 231.394Z" fill="#FDB053"/>
<path d="M28.8574 235.13L33.5914 237.854L40.5891 233.819L35.8551 231.095L28.8574 235.13Z" fill="#FDB053"/>
<path d="M35.3184 238.852L40.0524 241.576L45.5823 238.409L40.8379 235.664L35.3184 238.852Z" fill="#FA5C52"/>
<path d="M41.7871 242.568L46.5211 245.313L50.7177 242.899L45.9733 240.164L41.7871 242.568Z" fill="#C84030"/>
<path d="M48.248 246.302L52.9924 249.036L57.1683 246.612L52.4446 243.888L48.248 246.302Z" fill="#AB281F"/>
<path d="M58.1711 248.048L54.7188 250.039L59.4424 252.763L62.9051 250.782L58.1711 248.048Z" fill="#8A1C14"/>
<path d="M52.1557 199.2L52.9929 198.457L52.5691 196.992L48.0625 195.486V196.827L52.1557 199.2Z" fill="#D8D1C7"/>
<path d="M57.9529 199.2L58.9866 197.064L52.1543 197.859V199.2H57.9529Z" fill="#B5AFA7"/>
<path d="M57.9543 197.859H52.1557L48.0625 195.486V192.153L52.1557 189.79H57.9543L62.0475 192.153V195.486L57.9543 197.859Z" fill="#E6E1DD"/>
<path d="M62.0482 196.838V195.486L57.9551 197.859V199.2L62.0482 196.838Z" fill="#A39C95"/>
<path d="M54.3353 195.103L55.0588 191.388L54.8728 97.9787L53.25 97.7104V194.474L54.3353 195.103Z" fill="#EFC58B"/>
<path d="M55.8657 195.103L56.9614 97.7104L54.3359 98.3399V195.103H55.8657Z" fill="#D9AF6F"/>
<path d="M55.8651 98.34H54.3353L53.25 97.7106V96.8232L54.3353 96.1938H55.8651L56.9607 96.8232V97.7106L55.8651 98.34Z" fill="#F7E6BB"/>
<path d="M56.9609 194.474V97.7104L55.8652 98.3399V195.103L56.9609 194.474Z" fill="#C79D5C"/>
<path d="M55.8672 98.3409L56.9628 97.7012L122.154 152.335L121.068 152.965L81.8939 133.484L55.8672 98.3409Z" fill="#87102B"/>
<path d="M55.8672 132.453V98.3418L121.068 152.966L55.8672 132.453Z" fill="#FFEC7A"/>
<path d="M60 113.447V122.919L64.5686 125.54L65.747 124.869V122.227L64.9614 120.876L65.747 120.442V118.1L64.5686 116.068L60 113.447ZM64.6203 123.682L64.1035 123.992L61.1163 122.269V119.534L64.1448 121.268L64.6203 122.114V123.682ZM64.6203 119.256L63.7521 119.761L61.1267 118.245V115.376L64.1138 117.099L64.6307 117.987V119.256H64.6203Z" fill="url(#paint2_linear_34_11800)"/>
<path d="M67.0391 117.502V126.964L68.1554 127.614V123.198L69.5508 124.002L71.7627 129.677L72.8997 130.338L70.6981 124.642L71.9385 125.364L73.1065 124.704V122.341L71.9385 120.319L67.0391 117.492V117.502ZM71.9901 123.528L71.5043 123.837L68.1554 121.908V119.431L71.4837 121.351L71.9901 122.217V123.528Z" fill="url(#paint3_linear_34_11800)"/>
<path d="M77.0036 123.249L74.0371 130.998L75.2154 131.689L76.0423 129.512L79.1846 131.328L80.0218 134.454L81.1898 135.125L78.213 123.94L77.014 123.249H77.0036ZM76.4558 128.459L77.6135 125.457L78.7608 129.79L76.4558 128.459Z" fill="url(#paint4_linear_34_11800)"/>
<path d="M86.7692 135.734L83.3376 126.901L82.2109 126.251V135.713L83.3273 136.353V129.501L86.7692 138.344L87.8856 138.984V129.522L86.7692 128.882V135.734Z" fill="url(#paint5_linear_34_11800)"/>
<path d="M93.8811 132.978L89.3125 130.347V139.809L93.8811 142.44L95.0595 141.78V135.011L93.8811 132.989V132.978ZM93.9431 140.593L93.4367 140.903L90.4392 139.179V132.287L93.4367 134.02L93.9431 134.908V140.603V140.593Z" fill="url(#paint6_linear_34_11800)"/>
<path d="M26.0385 215.464L26.8757 214.721L26.4416 213.256L21.9453 211.75V213.111L26.0385 215.464Z" fill="#D8D1C7"/>
<path d="M31.8254 215.463L32.8694 213.328L26.0371 214.122V215.463H31.8254Z" fill="#B5AFA7"/>
<path d="M31.8268 214.122H26.0385L21.9453 211.749V208.417L26.0385 206.054H31.8268L35.9303 208.417V211.749L31.8268 214.122Z" fill="#E6E1DD"/>
<path d="M35.9297 213.111V211.75L31.8262 214.123V215.464L35.9297 213.111Z" fill="#A39C95"/>
<path d="M28.2187 211.356L28.9319 207.662L28.7458 114.253L27.123 113.974V210.737L28.2187 211.356Z" fill="#EFC58B"/>
<path d="M29.7485 211.356L30.8442 113.974L28.2188 114.604V211.356H29.7485Z" fill="#D9AF6F"/>
<path d="M29.7485 114.604H28.2187L27.123 113.974V113.087L28.2187 112.458H29.7485L30.8441 113.087V113.974L29.7485 114.604Z" fill="#F7E6BB"/>
<path d="M30.8437 210.737V113.974L29.748 114.604V211.356L30.8437 210.737Z" fill="#C79D5C"/>
<path d="M29.75 114.603L30.8456 113.964L96.0365 168.598L94.9409 169.238L55.7664 149.747L29.75 114.603Z" fill="#D66B24"/>
<path d="M29.75 148.716V114.604L94.9409 169.238L29.75 148.716Z" fill="#F6F6F6"/>
<path d="M33.8848 129.711V139.183L38.4431 141.803L39.6214 141.143V138.502L38.8462 137.15L39.6214 136.717V134.374L38.4431 132.342L33.8848 129.711ZM38.4947 139.957L37.9883 140.266L34.9907 138.533V135.798L38.0193 137.532L38.4947 138.388V139.957ZM38.4947 135.52L37.6368 136.025L34.9907 134.509V131.64L37.9883 133.374L38.4947 134.261V135.52Z" fill="url(#paint7_linear_34_11800)"/>
<path d="M40.9238 133.777V143.249L42.0505 143.889V139.472L43.4459 140.277L45.6475 145.963L46.7845 146.613L44.5829 140.927L45.8232 141.65L46.9912 140.989V138.626L45.8232 136.604L40.9238 133.777ZM45.8749 139.803L45.3994 140.112L42.0608 138.183V135.706L45.3788 137.626L45.8852 138.492V139.803H45.8749Z" fill="url(#paint8_linear_34_11800)"/>
<path d="M50.8987 139.513L47.9219 147.262L49.1002 147.943L49.9374 145.776L53.0797 147.592L53.9066 150.718L55.0746 151.389L52.0977 140.204L50.8987 139.513ZM50.3509 144.723L51.5086 141.721L52.6559 146.054L50.3509 144.723Z" fill="url(#paint9_linear_34_11800)"/>
<path d="M60.654 152.008L57.2224 143.165L56.0957 142.515V151.977L57.212 152.627V145.765L60.654 154.608L61.7703 155.248V145.786L60.654 145.146V152.008Z" fill="url(#paint10_linear_34_11800)"/>
<path d="M67.7667 149.244L63.2188 146.623V156.085L67.7667 158.706L68.945 158.035V151.277L67.7667 149.244ZM67.8287 156.859L67.3119 157.168L64.3247 155.445V148.563L67.3119 150.296L67.8287 151.184V156.879V156.859Z" fill="url(#paint11_linear_34_11800)"/>
<path opacity="0.3" d="M135.921 272.399L43.5664 219.167L116.024 177.41L208.378 230.641L135.911 272.409L135.921 272.399Z" fill="black"/>
<path d="M135.868 271.831L207.312 230.652V228.588L183.818 239.732L151.413 259.037L132.922 268.086L135.868 271.831Z" fill="#CC934C"/>
<path d="M44.7852 219.352L135.868 271.83V269.776L116.85 250.234L79.3497 228.246L44.7852 217.288V219.352Z" fill="#E3BD5E"/>
<path d="M135.868 269.777L44.7949 217.289L116.25 176.109L207.323 228.598L135.868 269.787V269.777Z" fill="#FBE979"/>
<path d="M187.892 227.029L186.59 225.636L190.156 223.583L192.058 224.676L188.585 227.339L187.892 227.029Z" fill="#F4EFE9"/>
<path d="M192.057 224.677L190.145 223.583L192.667 219.239H194.579L194.961 220.385L192.057 224.677Z" fill="#E6E1DD"/>
<path d="M194.578 220.323L192.666 219.239V215.133H194.578L194.961 215.979L194.578 220.323Z" fill="#D8D1C7"/>
<path d="M184.46 226.864L182.568 225.78V225.058H184.46L185.08 226.162L184.46 226.864Z" fill="#D8D1C7"/>
<path d="M194.578 216.226V220.322L192.056 224.676L188.49 226.74L185.978 225.296L184.459 226.162V226.864L187.87 228.824L192.676 226.059L196.077 220.178V214.637L194.578 216.226Z" fill="#A39C95"/>
<path d="M175.488 219.867L174.176 218.484L177.742 216.431L179.633 217.525L176.171 220.176L175.488 219.867Z" fill="#F4EFE9"/>
<path d="M179.634 217.526L177.742 216.432L180.254 212.078H182.156L182.549 213.223L179.634 217.526Z" fill="#E6E1DD"/>
<path d="M182.154 213.17L180.252 212.076V207.959H182.154L182.547 208.826L182.154 213.17Z" fill="#D8D1C7"/>
<path d="M172.056 219.712L170.154 218.618V217.906H172.056L172.666 219L172.056 219.712Z" fill="#D8D1C7"/>
<path d="M182.153 209.074V213.17L179.631 217.524L176.075 219.578L173.564 218.133L172.055 219V219.712L175.445 221.672L180.251 218.907L183.662 213.026V207.485L182.153 209.074Z" fill="#A39C95"/>
<path d="M163.075 212.718L161.752 211.336L165.318 209.272L167.23 210.366L163.757 213.028L163.075 212.718Z" fill="#F4EFE9"/>
<path d="M167.231 210.365L165.318 209.271L167.83 204.927H169.742L170.135 206.073L167.231 210.365Z" fill="#E6E1DD"/>
<path d="M169.74 206.01L167.828 204.927V200.81H169.74L170.133 201.656L169.74 206.01Z" fill="#D8D1C7"/>
<path d="M159.643 212.562L157.73 211.458V210.746H159.643L160.253 211.85L159.643 212.562Z" fill="#D8D1C7"/>
<path d="M169.741 201.914V206.01L167.229 210.365L163.653 212.428L161.152 210.973L159.643 211.851V212.562L163.033 214.513L167.85 211.737L171.24 205.866V200.325L169.741 201.914Z" fill="#A39C95"/>
<path d="M150.651 205.556L149.338 204.163L152.904 202.11L154.795 203.224L151.333 205.866L150.651 205.556Z" fill="#F4EFE9"/>
<path d="M154.794 203.224L152.902 202.11L155.414 197.766H157.316L157.698 198.922L154.794 203.224Z" fill="#E6E1DD"/>
<path d="M157.316 198.859L155.414 197.765V193.669H157.316L157.698 194.505L157.316 198.859Z" fill="#D8D1C7"/>
<path d="M147.218 205.401L145.316 204.297V203.585H147.218L147.838 204.689L147.218 205.401Z" fill="#D8D1C7"/>
<path d="M157.315 194.753V198.86L154.793 203.224L151.238 205.267L148.726 203.812L147.217 204.689V205.401L150.617 207.362L155.424 204.586L158.824 198.705V193.164L157.315 194.753Z" fill="#A39C95"/>
<path d="M138.225 198.407L136.912 197.024L140.478 194.96L142.39 196.064L138.917 198.706L138.225 198.407Z" fill="#F4EFE9"/>
<path d="M142.391 196.066L140.479 194.962L143.001 190.607H144.902L145.285 191.763L142.391 196.066Z" fill="#E6E1DD"/>
<path d="M144.902 191.7L143 190.606V186.5H144.902L145.284 187.356L144.902 191.7Z" fill="#D8D1C7"/>
<path d="M134.804 198.252L132.902 197.148V196.436H134.804L135.414 197.54L134.804 198.252Z" fill="#D8D1C7"/>
<path d="M144.901 187.593V191.7L142.39 196.064L138.824 198.107L136.301 196.663L134.803 197.54V198.252L138.203 200.192L142.999 197.426L146.41 191.555V186.015L144.901 187.593Z" fill="#A39C95"/>
<path d="M125.812 191.245L124.51 189.852L128.076 187.799L129.967 188.903L126.494 191.565L125.812 191.245Z" fill="#F4EFE9"/>
<path d="M129.966 188.904L128.074 187.799L130.586 183.456H132.488L132.87 184.601L129.966 188.904Z" fill="#E6E1DD"/>
<path d="M132.49 184.539L130.588 183.455V179.349H132.49L132.872 180.205L132.49 184.539Z" fill="#D8D1C7"/>
<path d="M122.38 191.09L120.479 189.997V189.274H122.38L123.001 190.389L122.38 191.09Z" fill="#D8D1C7"/>
<path d="M132.488 180.442V184.539L129.966 188.903L126.41 190.956L123.888 189.512L122.379 190.389V191.091L125.79 193.041L130.596 190.265L133.987 184.394V178.853L132.488 180.442Z" fill="#A39C95"/>
<path d="M47.0488 217.29L135.868 268.478L149.161 259.129L47.0488 213.173V217.29Z" fill="#F4EFE9"/>
<path d="M135.868 264.361L155.166 255.724L193.441 233.128L205.059 224.481L116.24 173.293L47.0488 213.173L135.868 264.361Z" fill="url(#paint12_linear_34_11800)"/>
<path d="M135.869 268.478L205.06 228.588V224.482L135.869 264.361V268.478Z" fill="#D1D1D1"/>
<path d="M110.411 207.507L92.7148 197.303L110.421 187.098L128.117 197.303L110.411 207.507Z" fill="#F6F6F6"/>
<path d="M86.0791 221.53L68.373 211.336L86.0791 201.131L103.775 211.336L86.0791 221.53Z" fill="#FFEC7A"/>
<path d="M134.629 222.86L127.745 222.839L114.391 215.142L138.453 201.275L151.808 208.972L151.839 212.944L145.885 216.38L141.348 216.36V218.991L134.639 222.86H134.629ZM132.717 220.188L136.696 217.897L136.738 216.257L127.89 211.159L120.944 215.163L129.709 220.219L132.717 220.198V220.188ZM143.973 213.708L147.188 211.851L147.219 210.117L138.453 205.061L131.177 209.261L138.898 213.708H143.973Z" fill="#FFEC7A"/>
<path d="M136.055 246.934L129.171 246.913L115.816 239.216L139.879 225.348L153.234 233.045L153.265 237.018L147.311 240.454L142.773 240.433V243.064L136.065 246.934H136.055ZM134.143 244.261L138.122 241.971L138.163 240.33L129.316 235.233L122.37 239.236L131.135 244.292L134.143 244.272V244.261ZM145.399 237.781L148.613 235.924L148.644 234.191L139.879 229.135L132.603 233.334L140.324 237.781H145.399Z" fill="#F6F6F6"/>
<path d="M185.018 219.993H183.457L182.361 220.622V221.509L183.457 222.149H185.018L186.113 221.509V220.622L185.018 219.993Z" fill="#685750"/>
<path d="M171.055 212.841L169.959 213.46V214.358L171.055 214.998H172.595L173.69 214.358V213.46L172.595 212.841H171.055Z" fill="#685750"/>
<path d="M158.64 205.681L157.523 206.31V207.208L158.64 207.837H160.19L161.276 207.208V206.31L160.19 205.681H158.64Z" fill="#685750"/>
<path d="M146.217 198.531L145.121 199.15V200.058L146.217 200.677H147.767L148.863 200.058V199.15L147.767 198.531H146.217Z" fill="#685750"/>
<path d="M133.812 191.379L132.717 191.998V192.895L133.812 193.525H135.353L136.448 192.895V191.998L135.353 191.379H133.812Z" fill="#685750"/>
<path d="M121.389 184.219L120.293 184.848V185.746L121.389 186.375H122.939L124.035 185.746V184.848L122.939 184.219H121.389Z" fill="#685750"/>
<path d="M184.46 222.036L182.568 220.942V220.241H184.46L185.08 221.334L184.46 222.036Z" fill="#D8D1C7"/>
<path d="M184.46 221.335L182.568 220.242L185.959 214.36H187.871L188.512 215.454L184.46 221.335Z" fill="#E6E1DD"/>
<path d="M187.871 215.454L185.959 214.36L190.776 211.584L192.678 212.678L189.205 215.34L187.871 215.454Z" fill="#F4EFE9"/>
<path d="M196.077 214.638L192.676 212.677L187.87 215.453L184.459 221.334V222.036L185.978 221.169L188.49 216.825L192.056 214.772L194.578 216.227L195.498 215.938L196.077 214.638Z" fill="#A39C95"/>
<path d="M172.056 214.883L170.154 213.79V213.078H172.056L172.666 214.171L172.056 214.883Z" fill="#D8D1C7"/>
<path d="M172.056 214.171L170.154 213.078L173.545 207.207H175.446L176.098 208.29L172.056 214.171Z" fill="#E6E1DD"/>
<path d="M175.447 208.29L173.545 207.207L178.362 204.421L180.253 205.525L176.791 208.177L175.447 208.29Z" fill="#F4EFE9"/>
<path d="M183.662 207.484L180.251 205.524L175.445 208.289L172.055 214.17V214.882L173.564 214.016L176.075 209.672L179.631 207.618L182.153 209.073L183.073 208.784L183.662 207.484Z" fill="#A39C95"/>
<path d="M159.643 207.735L157.73 206.631V205.919H159.643L160.253 207.023L159.643 207.735Z" fill="#D8D1C7"/>
<path d="M159.643 207.025L157.73 205.921L161.131 200.04H163.033L163.694 201.134L159.643 207.025Z" fill="#E6E1DD"/>
<path d="M163.033 201.132L161.131 200.038L165.948 197.273L167.849 198.357L164.376 201.019L163.033 201.132Z" fill="#F4EFE9"/>
<path d="M171.24 200.328L167.85 198.357L163.033 201.132L159.643 207.024V207.736L161.152 206.859L163.653 202.515L167.229 200.462L169.741 201.917L170.661 201.617L171.24 200.328Z" fill="#A39C95"/>
<path d="M147.218 200.563L145.316 199.48V198.758H147.218L147.838 199.862L147.218 200.563Z" fill="#D8D1C7"/>
<path d="M147.218 199.861L145.316 198.757L148.717 192.876H150.619L151.28 193.99L147.218 199.861Z" fill="#E6E1DD"/>
<path d="M150.619 193.99L148.717 192.876L153.523 190.121L155.425 191.204L151.962 193.867L150.619 193.99Z" fill="#F4EFE9"/>
<path d="M158.824 193.166L155.424 191.205L150.617 193.991L147.217 199.862V200.564L148.726 199.697L151.238 195.363L154.793 193.3L157.315 194.755L158.246 194.466L158.824 193.166Z" fill="#A39C95"/>
<path d="M134.804 193.414L132.902 192.32V191.608H134.804L135.414 192.712L134.804 193.414Z" fill="#D8D1C7"/>
<path d="M134.804 192.715L132.902 191.611L136.293 185.729H138.205L138.856 186.823L134.804 192.715Z" fill="#E6E1DD"/>
<path d="M138.205 186.822L136.293 185.728L141.099 182.963L143.001 184.056L139.549 186.698L138.205 186.822Z" fill="#F4EFE9"/>
<path d="M146.41 186.016L142.999 184.056L138.203 186.821L134.803 192.713V193.414L136.301 192.537L138.824 188.193L142.39 186.15L144.901 187.595L145.821 187.306L146.41 186.016Z" fill="#A39C95"/>
<path d="M122.38 186.253L120.479 185.169V184.447H122.38L123.001 185.551L122.38 186.253Z" fill="#D8D1C7"/>
<path d="M122.38 185.552L120.479 184.448L123.889 178.577H125.791L126.443 179.671L122.38 185.552Z" fill="#E6E1DD"/>
<path d="M125.791 179.67L123.889 178.576L128.685 175.811L130.597 176.904L127.124 179.546L125.791 179.67Z" fill="#F4EFE9"/>
<path d="M133.987 178.854L130.596 176.904L125.79 179.669L122.379 185.55V186.252L123.888 185.385L126.41 181.041L129.966 178.988L132.488 180.443L133.397 180.154L133.987 178.854Z" fill="#A39C95"/>
<path opacity="0.3" d="M89.5534 313.403L84.7367 313.093L62.0486 323.545L81.8012 303.982L80.5609 301.279L61.9762 295.047L57.2836 295.759L21.334 331.377L22.564 334.07L32.1974 337.299L28.8898 338.816L28.3523 341.592L41.7791 351.28L46.6062 351.579L102.443 325.856L102.98 323.081L89.5534 313.403Z" fill="black"/>
<path d="M61.9762 294.551L57.2835 295.263L21.334 330.881L22.564 333.574L41.159 339.806L45.8413 339.094L81.8012 303.476L80.5608 300.783L61.9762 294.551Z" fill="url(#paint13_linear_34_11800)"/>
<path d="M71.9103 311.823L49.832 304.425L56.6126 297.718L78.6909 305.116L71.9103 311.823Z" fill="#FFEC7A"/>
<path d="M63.5269 320.128L41.459 312.72L48.2292 306.013L70.3075 313.422L63.5269 320.128Z" fill="#B31630"/>
<path d="M55.1525 328.425L33.0742 321.016L39.8445 314.32L61.9228 321.718L55.1525 328.425Z" fill="#87102B"/>
<path d="M46.7736 336.731L24.6953 329.323L31.4656 322.616L53.5542 330.024L46.7736 336.731Z" fill="#6E081F"/>
<path d="M89.5546 312.906L84.7379 312.597L28.891 338.32L28.3535 341.095L41.7803 350.784L46.6074 351.083L102.444 325.36L102.981 322.595L89.5546 312.906Z" fill="url(#paint14_linear_34_11800)"/>
<path d="M88.0041 331.086L72.0449 319.592L82.5673 314.742L98.5161 326.237L88.0041 331.086Z" fill="#FFEC7A"/>
<path d="M74.9815 337.092L59.043 325.577L69.555 320.738L85.5038 332.242L74.9815 337.092Z" fill="#F6F6F6"/>
<path d="M61.9665 343.077L46.0176 331.583L56.5399 326.733L72.4888 338.227L61.9665 343.077Z" fill="#FF9F3D"/>
<path d="M48.9547 349.071L33.0059 337.577L43.5179 332.728L59.4771 344.222L48.9547 349.071Z" fill="#FF8E1C"/>
<path d="M282.902 275.502L280.68 274.233V273.583L282.902 274.862V275.502Z" fill="#EFCFA3"/>
<path opacity="0.3" d="M193.309 244.622L287.844 299.101L291.514 296.976L196.988 242.496L193.309 244.622Z" fill="black"/>
<path d="M226.313 176.668L223.977 180.713V181.992L225.765 183.024L228.111 177.71L227.388 176.565L226.313 176.668Z" fill="#E6E1DD"/>
<path d="M228.112 177.711L225.766 181.746V183.025L226.189 182.778L229.197 177.598L228.567 177.288L228.112 177.711Z" fill="#A39C95"/>
<path d="M239.014 183.994L236.678 188.028V189.308L238.476 190.339L240.802 185.026L240.089 183.891L239.014 183.994Z" fill="#E6E1DD"/>
<path d="M240.802 185.025L238.477 189.06V190.339L238.9 190.102L241.888 184.912L241.257 184.602L240.802 185.025Z" fill="#A39C95"/>
<path d="M251.719 191.309L249.383 195.354V196.633L251.171 197.665L253.517 192.351L252.804 191.206L251.719 191.309Z" fill="#E6E1DD"/>
<path d="M253.516 192.351L251.17 196.385V197.665L251.604 197.417L254.602 192.238L253.971 191.918L253.516 192.351Z" fill="#A39C95"/>
<path d="M264.424 198.635L262.078 202.68V203.949L263.877 204.981L266.213 199.667L265.499 198.532L264.424 198.635Z" fill="#E6E1DD"/>
<path d="M266.213 199.666L263.877 203.711V204.98L264.311 204.743L267.309 199.563L266.668 199.243L266.213 199.666Z" fill="#A39C95"/>
<path d="M289.593 296.481L288.125 297.327L285.148 254.115L288.125 226.597L289.593 225.761V296.481Z" fill="#D1D1D1"/>
<path d="M288.124 297.327L195.242 243.807V173.077L288.124 226.597V297.327Z" fill="url(#paint15_linear_34_11800)"/>
<path d="M212.938 190.555V206.404L220.576 210.81L222.55 209.695V205.279L221.248 203.019L222.55 202.287V198.366L220.576 194.971L212.938 190.576V190.555ZM220.679 207.704L219.832 208.22L214.819 205.331V200.749L219.873 203.669L220.679 205.093V207.714V207.704ZM220.679 200.285L219.232 201.131L214.819 198.583V193.785L219.832 196.674L220.679 198.16V200.275V200.285Z" fill="#FFEC7A"/>
<path d="M224.731 197.355V213.214L226.602 214.287V206.899L228.938 208.251L232.638 217.774L234.54 218.868L230.84 209.355L232.928 210.552L234.881 209.448V205.475L232.928 202.091L224.721 197.365L224.731 197.355ZM233.021 207.456L232.215 207.972L226.612 204.742V200.595L232.194 203.804L233.031 205.248V207.446L233.021 207.456Z" fill="#F6F6F6"/>
<path d="M241.423 206.972L236.441 219.952L238.405 221.097L239.801 217.455L245.062 220.488L246.457 225.73L248.411 226.855L243.418 208.127L241.413 206.972H241.423ZM240.504 215.701L242.436 210.676L244.369 217.93L240.504 215.701Z" fill="#F6F6F6"/>
<path d="M257.777 227.896L252.03 213.09L250.139 211.996V227.855L252.02 228.938V217.434L257.777 232.251L259.648 233.334V217.475L257.777 216.402V227.896Z" fill="#F6F6F6"/>
<path d="M269.693 223.274L262.055 218.868V234.727L269.693 239.122L271.667 238.008V226.668L269.693 223.274ZM269.797 236.027L268.949 236.543L263.936 233.654V222.118L268.949 225.007L269.797 226.493V236.027Z" fill="#F6F6F6"/>
<path d="M212.938 213.368V229.227L220.576 233.633L222.55 232.519V228.092L221.248 225.843L222.55 225.11V221.19L220.576 217.795L212.938 213.389V213.368ZM220.679 230.527L219.832 231.043L214.819 228.154V223.573L219.873 226.483L220.679 227.896V230.517V230.527ZM220.679 223.109L219.232 223.955L214.819 221.417V216.619L219.832 219.508L220.679 220.993V223.109Z" fill="#F6F6F6"/>
<path d="M224.731 220.168V236.017L226.602 237.1V229.712L228.938 231.064L232.638 240.587L234.54 241.681L230.84 232.158L232.928 233.365L234.881 232.25V228.288L232.928 224.894L224.721 220.168H224.731ZM233.021 230.259L232.215 230.775L226.612 227.545V223.398L232.194 226.606L233.031 228.051V230.249L233.021 230.259Z" fill="#FFEC7A"/>
<path d="M241.423 229.785L236.441 242.765L238.405 243.9L239.801 240.268L245.062 243.302L246.457 248.543L248.411 249.668L243.418 230.941L241.413 229.785H241.423ZM240.504 238.514L242.436 233.479L244.369 240.743L240.504 238.514Z" fill="#FFEC7A"/>
<path d="M257.777 250.709L252.03 235.903L250.139 234.809V250.668L252.02 251.741V240.247L257.777 255.064L259.648 256.147V240.288L257.777 239.205V250.709Z" fill="#FFEC7A"/>
<path d="M269.693 246.077L262.055 241.681V257.53L269.693 261.936L271.667 260.821V249.482L269.693 246.077ZM269.797 258.83L268.949 259.346L263.936 256.457V244.921L268.949 247.81L269.797 249.296V258.83Z" fill="#FFEC7A"/>
<path d="M244.73 255.538V264.865L249.227 267.455L250.384 266.805V264.205L249.62 262.874L250.384 262.441V260.129L249.227 258.128L244.73 255.538ZM249.278 265.629L248.772 265.928L245.826 264.236V261.543L248.803 263.256L249.278 264.092V265.639V265.629ZM249.278 261.264L248.421 261.77L245.826 260.274V257.447L248.772 259.149L249.278 260.026V261.264Z" fill="#F6F6F6"/>
<path d="M251.676 259.542V268.87L252.782 269.51V265.166L254.156 265.95L256.337 271.553L257.454 272.203L255.283 266.6L256.513 267.302L257.66 266.652V264.32L256.513 262.328L251.686 259.553L251.676 259.542ZM256.555 265.486L256.079 265.785L252.782 263.886V261.451L256.058 263.34L256.555 264.196V265.486Z" fill="#F6F6F6"/>
<path d="M261.497 265.205L258.572 272.84L259.73 273.511L260.546 271.375L263.647 273.16L264.464 276.245L265.611 276.905L262.686 265.886L261.497 265.205ZM260.96 270.333L262.107 267.382L263.244 271.643L260.96 270.333Z" fill="#F6F6F6"/>
<path d="M271.119 277.506L267.739 268.797L266.623 268.157V277.485L267.729 278.125V271.356L271.119 280.075L272.215 280.715V271.387L271.119 270.747V277.506Z" fill="#F6F6F6"/>
<path d="M278.127 274.782L273.631 272.202V281.53L278.127 284.12L279.295 283.449V276.783L278.127 274.782ZM278.189 282.293L277.683 282.592L274.737 280.89V274.101L277.683 275.803L278.189 276.68V282.293Z" fill="#F6F6F6"/>
<path d="M205.309 232.82V242.147L209.805 244.737L210.963 244.077V241.476L210.198 240.145L210.963 239.712V237.401L209.805 235.399L205.309 232.82ZM209.867 242.911L209.36 243.21L206.415 241.507V238.814L209.391 240.527L209.867 241.363V242.911ZM209.867 238.546L209.009 239.052L206.415 237.556V234.739L209.36 236.441L209.867 237.308V238.556V238.546Z" fill="#FFEC7A"/>
<path d="M212.254 236.824V246.141L213.36 246.781V242.437L214.735 243.232L216.905 248.834L218.032 249.485L215.851 243.882L217.081 244.583L218.239 243.933V241.601L217.081 239.61L212.254 236.835V236.824ZM217.133 242.757L216.657 243.056L213.36 241.158V238.723L216.636 240.611L217.133 241.457V242.747V242.757Z" fill="#FFEC7A"/>
<path d="M222.076 242.487L219.15 250.122L220.308 250.793L221.135 248.646L224.225 250.432L225.042 253.517L226.189 254.187L223.264 243.168L222.076 242.487ZM221.548 247.615L222.675 244.653L223.812 248.925L221.538 247.615H221.548Z" fill="#FFEC7A"/>
<path d="M231.697 254.798L228.317 246.089L227.201 245.439V254.777L228.307 255.406V248.648L231.697 257.357L232.803 257.996V248.658L231.697 248.029V254.798Z" fill="#FFEC7A"/>
<path d="M238.705 252.074L234.209 249.484V258.812L238.705 261.402L239.863 260.752V254.076L238.705 252.074ZM238.767 259.575L238.261 259.874L235.315 258.172V251.383L238.261 253.085L238.767 253.962V259.565V259.575Z" fill="#FFEC7A"/>
<path d="M290.418 214.008L197.557 160.478L194.188 162.418L194.684 166.803L250.024 196.922L289.912 220.89L290.418 214.008Z" fill="#FFEC7A"/>
<path d="M287.049 215.938L194.188 162.418V173.696L287.049 227.216V215.938Z" fill="#F6F6F6"/>
<path d="M290.418 225.285L287.049 227.214V215.937L290.418 214.007V225.285Z" fill="#FF8E1C"/>
<path d="M260.517 207.32L258.719 206.278V204.277L260.517 205.319V207.32Z" fill="#17435C"/>
<path d="M266.212 199.666L264.424 198.634V193.764L265.333 194.363L266.212 194.796V199.666Z" fill="#D8D1C7"/>
<path d="M267.308 199.563V194.682L264.311 192.959L260.073 195.404L257.086 200.574V205.454L260.073 207.188L260.518 206.93V205.671L258.161 204.319V200.46L260.528 196.385L263.867 194.465L266.213 195.827V199.666L267.308 199.563Z" fill="#A39C95"/>
<path d="M257.086 205.455L255.287 204.423V199.543H257.086V200.575V205.455Z" fill="#D8D1C7"/>
<path d="M257.086 200.573L255.287 199.542L258.285 194.362H260.073V195.404L257.086 200.573Z" fill="#E6E1DD"/>
<path d="M260.071 195.404L258.283 194.362L262.511 191.917L264.309 192.959L260.071 195.404Z" fill="#F4EFE9"/>
<path d="M247.812 199.993L246.014 198.962V196.96L247.812 197.992V199.993Z" fill="#17435C"/>
<path d="M253.517 192.349L251.719 191.307V186.426L252.618 187.035L253.517 187.468V192.349Z" fill="#D8D1C7"/>
<path d="M254.605 192.235V187.355L251.608 185.632L247.37 188.077L244.383 193.247V198.137L247.37 199.86L247.814 199.603V198.354L245.468 196.992V193.133L247.814 189.068L251.153 187.149L253.52 188.5V192.349L254.605 192.235Z" fill="#A39C95"/>
<path d="M244.381 198.137L242.582 197.095V192.214H244.381V193.246V198.137Z" fill="#D8D1C7"/>
<path d="M244.381 193.247L242.582 192.216L245.58 187.036H247.368V188.078L244.381 193.247Z" fill="#E6E1DD"/>
<path d="M247.366 188.077L245.578 187.035L249.806 184.6L251.604 185.632L247.366 188.077Z" fill="#F4EFE9"/>
<path d="M235.123 192.669L233.324 191.627V189.635L235.123 190.678V192.669Z" fill="#17435C"/>
<path d="M240.806 185.023L239.018 183.992V179.111L239.917 179.72L240.806 180.143V185.023Z" fill="#D8D1C7"/>
<path d="M241.892 184.912V180.042L238.905 178.308L234.667 180.754L231.67 185.933V190.814L234.667 192.537L235.122 192.279V191.02L232.766 189.669V185.82L235.122 181.744L238.451 179.825L240.807 181.177V185.025L241.892 184.912Z" fill="#A39C95"/>
<path d="M231.669 190.812L229.881 189.78V184.89H231.669V185.932V190.812Z" fill="#D8D1C7"/>
<path d="M231.669 185.932L229.881 184.89L232.878 179.721H234.667V180.753L231.669 185.932Z" fill="#E6E1DD"/>
<path d="M234.665 180.753L232.877 179.721L237.104 177.276L238.903 178.307L234.665 180.753Z" fill="#F4EFE9"/>
<path d="M222.407 185.345L220.619 184.313V182.322L222.407 183.353V185.345Z" fill="#17435C"/>
<path d="M228.113 177.708L226.314 176.666V171.785L227.214 172.394L228.113 172.828V177.708Z" fill="#D8D1C7"/>
<path d="M229.199 177.596V172.715L226.191 170.992L221.964 173.437L218.977 178.607V183.487L221.964 185.221L222.408 184.952V183.704L220.062 182.342V178.504L222.408 174.418L225.747 172.498L228.114 173.86V177.709L229.199 177.596Z" fill="#A39C95"/>
<path d="M218.976 183.487L217.188 182.455V177.564H218.976V178.606V183.487Z" fill="#D8D1C7"/>
<path d="M218.976 178.606L217.188 177.564L220.164 172.395H221.963V173.437L218.976 178.606Z" fill="#E6E1DD"/>
<path d="M221.965 173.437L220.166 172.395L224.414 169.95L226.192 170.992L221.965 173.437Z" fill="#F4EFE9"/>
<path opacity="0.3" d="M82.7512 256.177L37.468 282.241L36.5894 282.736L36.6411 282.87L35.0286 283.809L34.1914 284.284L34.6255 285.202L36.0416 286.038L37.6437 286.275L38.481 285.79L40.0934 284.862L40.3208 284.913L41.2407 284.387L86.5033 258.344L91.6197 253.278L82.7512 256.177Z" fill="black"/>
<path d="M89.5733 252.39L89.2012 251.957L91.6199 251.307L89.5733 252.39Z" fill="#836E69"/>
<path d="M89.8513 253.061L89.6445 252.514L91.6188 251.307L89.8513 253.061Z" fill="#403531"/>
<path d="M89.8513 252.617H89.6343L89.5723 252.174L91.6188 251.307L89.8513 252.617Z" fill="#685750"/>
<path d="M85.737 257.157L83.6181 255.568L83.5664 253.433L85.8301 253.061L89.5718 252.174L89.8509 252.618L86.998 255.156L85.737 257.157Z" fill="#EFC58B"/>
<path d="M85.7363 257.158V255.704L89.8502 252.618V253.062L85.7363 257.158Z" fill="#C79D5C"/>
<path d="M84.8378 254.165L83.5664 253.432L89.1997 251.957L89.5718 252.173L84.8378 254.165Z" fill="#F7E6BB"/>
<path d="M45.7998 278.722L44.9005 277.153L43.6292 276.431L42.7402 276.947V278.423L43.6292 279.96L44.9005 280.693L45.7998 280.187V278.722Z" fill="#785B56"/>
<path d="M44.9003 277.155L43.6289 276.432L83.5683 253.433L84.8396 254.166L45.0863 277.196L44.9003 277.155Z" fill="#FA5C52"/>
<path d="M45.7996 278.723L44.9004 277.155L84.8398 254.166L85.739 255.704L45.9754 278.806L45.7996 278.723Z" fill="#C84030"/>
<path d="M45.8008 280.188V278.723L85.7401 255.703V257.158L45.8008 280.188Z" fill="#991F16"/>
<path d="M40.4847 281.765L39.6062 280.228L38.3245 279.495L37.4355 280.011V281.487L38.3245 283.034L39.6062 283.767L40.4847 283.241V281.765Z" fill="#D8D1C7"/>
<path d="M39.6059 280.228L38.3242 279.495L43.6267 276.431L44.8981 277.153L39.7506 280.238L39.6059 280.228Z" fill="#E6E1DD"/>
<path d="M40.4841 281.765L39.6055 280.228L44.8976 277.153L45.7969 278.721L40.6598 281.848L40.4841 281.765Z" fill="#D1D1D1"/>
<path d="M40.4844 283.241V281.766L45.7972 278.722V280.187L40.4844 283.241Z" fill="#A39C95"/>
<path d="M37.8076 283.242L36.9807 281.808L35.8023 281.168L34.9961 281.632V282.984L35.8023 284.387L36.9807 285.068L37.8076 284.583V283.242Z" fill="#C26A5E"/>
<path d="M36.9791 281.808L35.8008 281.168L38.2608 279.744L39.4288 280.404L37.1445 281.849L36.9791 281.808Z" fill="#FCA48F"/>
<path d="M37.8074 283.243L36.9805 281.809L39.4302 280.406L40.2674 281.85L37.9624 283.315L37.8074 283.243Z" fill="#D57A70"/>
<path d="M37.8086 284.583V283.242L40.2686 281.849V283.18L37.8086 284.583Z" fill="#A6495D"/>
<path d="M49.4887 274.544L48.207 273.811L50.1709 272.697L51.4216 273.43L49.6438 274.565L49.4887 274.544Z" fill="#8CCCCB"/>
<path d="M50.3669 276.082L49.4883 274.544L51.4212 273.43L52.2997 274.978L50.5219 276.164L50.3669 276.082Z" fill="#389998"/>
<path d="M50.3672 277.557V276.081L52.3001 274.977V276.412L50.3672 277.557Z" fill="#3E6669"/>
<path opacity="0.3" d="M73.388 273.667L28.1151 299.72L27.2365 300.216L27.2985 300.36L25.6757 301.289L24.8281 301.774L25.2726 302.692L26.699 303.518L28.2908 303.755L29.128 303.27L30.7405 302.352L30.9679 302.393L31.8878 301.867L77.1504 275.834L82.2668 270.758L73.388 273.667Z" fill="black"/>
<path d="M80.2178 269.871L79.8457 269.437L82.2644 268.798L80.2178 269.871Z" fill="#836E69"/>
<path d="M80.4972 270.562L80.3008 269.995L82.2647 268.798L80.4972 270.562Z" fill="#403531"/>
<path d="M80.4959 270.108H80.2788L80.2168 269.654L82.2634 268.798L80.4959 270.108Z" fill="#685750"/>
<path d="M76.3841 274.649L74.2651 273.05L74.2031 270.904L76.4771 270.542L80.2188 269.655L80.4979 270.109L77.6554 272.627L76.3841 274.649Z" fill="#EFC58B"/>
<path d="M76.3848 274.649V273.194L80.4986 270.109V270.563L76.3848 274.649Z" fill="#C79D5C"/>
<path d="M75.4848 271.656L74.2031 270.903L79.8467 269.438L80.2188 269.655L75.4848 271.656Z" fill="#F7E6BB"/>
<path d="M36.4443 296.201L35.545 294.633L34.284 293.921L33.3848 294.427V295.902L34.284 297.45L35.545 298.172L36.4443 297.667V296.201Z" fill="#785B56"/>
<path d="M35.5462 294.633L34.2852 293.922L74.2039 270.902L75.4856 271.655L35.7219 294.675L35.5462 294.633Z" fill="#FFEC7A"/>
<path d="M36.4442 296.202L35.5449 294.633L75.4843 271.655L76.3836 273.192L36.6199 296.294L36.4442 296.202Z" fill="#F6F6F6"/>
<path d="M36.4453 297.667V296.202L76.3847 273.193V274.648L36.4453 297.667Z" fill="#FF8E1C"/>
<path d="M31.1332 299.246L30.2546 297.708L28.9729 296.986L28.084 297.492V298.967L28.9729 300.505L30.2546 301.258L31.1332 300.721V299.246Z" fill="#D8D1C7"/>
<path d="M30.2544 297.709L28.9727 296.986L34.2855 293.922L35.5465 294.634L30.4094 297.729L30.2544 297.709Z" fill="#E6E1DD"/>
<path d="M31.1325 299.245L30.2539 297.708L35.5461 294.633L36.4453 296.202L31.3082 299.328L31.1325 299.245Z" fill="#D1D1D1"/>
<path d="M31.1328 300.721V299.246L36.4457 296.202V297.667L31.1328 300.721Z" fill="#A39C95"/>
<path d="M28.456 300.722L27.6291 299.298L26.4508 298.648L25.6445 299.113V300.464L26.4508 301.867L27.6291 302.548L28.456 302.074V300.722Z" fill="#C26A5E"/>
<path d="M27.6276 299.298L26.4492 298.648L28.9093 297.224L30.0669 297.895L27.7929 299.329L27.6276 299.298Z" fill="#FCA48F"/>
<path d="M28.4558 300.722L27.6289 299.299L30.0683 297.895L30.9055 299.329L28.6109 300.795L28.4558 300.722Z" fill="#D57A70"/>
<path d="M28.457 302.073V300.722L30.9067 299.329V300.66L28.457 302.073Z" fill="#A6495D"/>
<path d="M40.1372 292.025L38.8555 291.292L40.8194 290.178L42.0701 290.91L40.3025 292.045L40.1372 292.025Z" fill="#8CCCCB"/>
<path d="M41.0256 293.573L40.1367 292.025L42.0696 290.911L42.9482 292.469L41.1807 293.645L41.0256 293.573Z" fill="#389998"/>
<path d="M41.0254 295.038V293.573L42.9479 292.469V293.903L41.0254 295.038Z" fill="#3E6669"/>
<path d="M124.327 286.966L92.0156 268.342L124.327 249.718L156.638 268.342L124.327 286.966Z" fill="#FFEC7A"/>
<path d="M124.327 308.407L92.0156 289.793V268.342L124.327 286.966V308.407Z" fill="#F6F6F6"/>
<path d="M156.637 289.793L124.326 308.407V286.966L156.637 268.342V289.793Z" fill="#FF8E1C"/>
<path d="M124.325 277.598L90.6289 258.179L124.325 238.76L158.011 258.179L124.325 277.598Z" fill="#FFEC7A"/>
<path d="M125.027 266.464H119.477L108.717 260.242L128.108 249.068L138.868 255.269L138.888 258.467L134.092 261.233H130.433V263.338L125.027 266.454V266.464ZM123.487 264.307L126.702 262.461L126.733 261.129L119.601 257.023L113.999 260.252L121.069 264.328H123.487V264.307ZM132.552 259.066L135.147 257.57L135.167 256.177L128.097 252.101L122.237 255.485L128.459 259.076H132.552V259.066Z" fill="#6E081F"/>
<path d="M124.325 288.752L90.6289 269.334V258.18L124.325 277.598V288.752Z" fill="#B31630"/>
<path d="M158.012 269.334L124.326 288.752V277.598L158.012 258.18V269.334Z" fill="#6E081F"/>
<path d="M132.263 333.409L102.98 316.539L132.263 299.659L161.546 316.539L132.263 333.409Z" fill="#FFEC7A"/>
<path d="M132.263 352.847L102.98 335.967V316.538L132.263 333.408V352.847Z" fill="#B31630"/>
<path d="M161.544 335.968L132.262 352.848V333.409L161.544 316.528V335.968Z" fill="#6E081F"/>
<path d="M132.262 324.927L101.729 307.324L132.262 289.722L162.795 307.324L132.262 324.927Z" fill="#FFEC7A"/>
<path d="M132.975 314.897H127.941L118.184 309.263L135.755 299.131L145.513 304.754L145.533 307.654L141.182 310.161H137.864V312.07L132.964 314.897H132.975ZM131.579 312.947L134.484 311.275L134.515 310.079L128.055 306.354L122.98 309.274L129.388 312.968H131.579V312.947ZM139.797 308.201L142.143 306.849L142.164 305.58L135.755 301.886L130.442 304.95L136.086 308.201H139.797Z" fill="#6E081F"/>
<path d="M132.262 335.018L101.729 317.425V307.324L132.262 324.927V335.018Z" fill="#F6F6F6"/>
<path d="M162.795 317.425L132.262 335.018V324.927L162.795 307.324V317.425Z" fill="#FF8E1C"/>
<path d="M356.229 331.231L356.239 341.044L349.521 355.489L346.348 345.346L356.229 331.231Z" fill="#B2B2B2"/>
<path d="M331.165 366.063L349.522 355.487L349.512 345.675L348.002 344.963L329.066 355.869L331.165 366.063Z" fill="#C6C6C6"/>
<path d="M306.088 369.945L331.164 366.066V356.253L305.034 358.317L304.734 364.91L306.088 369.945Z" fill="#DADADA"/>
<path d="M281.013 366.066L306.089 369.945V360.133L279.648 353.901L281.013 366.066Z" fill="#EDEDED"/>
<path d="M255.938 341.033V331.231L263.741 343.438L264.413 352.982L262.656 355.489L255.938 341.033Z" fill="#EDEDED"/>
<path d="M262.656 355.489V345.677L273.313 348.38L281.013 356.253V366.065L262.656 355.489Z" fill="#F6F6F6"/>
<path d="M306.089 360.132L281.013 356.252L262.656 345.676L255.938 331.231L262.656 316.765L281.003 306.189L306.089 302.32L331.165 306.189L349.522 316.765L356.23 331.231L349.512 345.676L331.165 356.252L306.089 360.132Z" fill="url(#paint16_linear_34_11800)"/>
<path d="M342.287 343.271L326.989 352.083L306.079 355.312L285.199 352.083L269.891 343.25L264.289 331.209L269.881 319.178L285.179 310.356L306.089 307.127L326.979 310.356L342.287 319.189L347.879 331.219L342.287 343.271Z" fill="#F6F6F6"/>
<path d="M335.226 340.92L322.895 348.008L306.078 350.609L289.271 348.008L276.95 340.92L272.443 331.221L276.95 321.532L289.271 314.433L306.088 311.833L322.905 314.433L335.226 321.522L339.733 331.211L335.226 340.92Z" fill="url(#paint17_linear_34_11800)"/>
<path d="M328.766 338.763L319.174 344.293L306.088 346.326L292.992 344.283L283.41 338.773L279.906 331.22L283.41 323.688L293.002 318.157L306.088 316.125L319.184 318.147L328.766 323.667L332.28 331.23L328.766 338.763Z" fill="#F6F6F6"/>
<path d="M322.275 336.607L315.422 340.548L306.088 341.993L296.744 340.548L289.902 336.607L287.4 331.221L289.902 325.835L296.744 321.893L306.088 320.448L315.432 321.893L322.265 325.835L324.766 331.221L322.275 336.607Z" fill="url(#paint18_linear_34_11800)"/>
<path d="M315.62 334.399L311.589 336.721L306.09 337.556L300.591 336.71L296.56 334.389L295.092 331.231L296.56 328.064L300.591 325.732L306.1 324.886L311.578 325.732L315.62 328.043L317.087 331.221L315.62 334.399Z" fill="#F6F6F6"/>
<path opacity="0.3" d="M305.138 326.949H302.058L299.877 328.208V329.982L306.823 333.986H309.913L312.094 332.727V330.952L305.138 326.949Z" fill="black"/>
<path d="M304.652 330.467L304.456 330.178L304.373 319.21L306.678 320.108V329.301L304.652 330.467Z" fill="#6E081F"/>
<path d="M308.797 332.85L308.6 332.572L308.518 321.366L310.823 321.067V331.684L308.797 332.85Z" fill="#6E081F"/>
<path d="M310.286 321.809L309.883 314.38L310.007 311.14L312.312 310.067V320.643L310.286 321.809Z" fill="#6E081F"/>
<path d="M310.287 311.234L309.677 310.729L309.553 310.12L311.692 308.995L312.313 310.068L310.287 311.234Z" fill="#87102B"/>
<path d="M309.676 310.172H309.149L308.674 309.667L310.824 308.501L311.692 308.996L309.676 310.172Z" fill="#FFEC7A"/>
<path d="M308.798 309.666L306.42 307.757L306.234 306.303L306.917 305.364L308.26 305.137L310.824 308.5L308.798 309.666Z" fill="#87102B"/>
<path d="M301.499 305.693L300.703 305.456L300.486 304.878L302.512 303.712L303.381 304.208L301.499 305.693Z" fill="#FFEC7A"/>
<path d="M303.929 304.983L302.73 305.581L301.365 305.375L303.381 304.209L305.955 303.817L303.929 304.983Z" fill="#87102B"/>
<path d="M307.867 305.364L307.546 303.94L307.453 302.732L309.882 301.546V304.198L307.867 305.364Z" fill="#6E081F"/>
<path d="M307.867 302.711L306.347 301.545L305.82 299.915L308.26 298.729L309.882 301.545L307.867 302.711Z" fill="#87102B"/>
<path d="M306.235 299.895H305.077L303.93 298.564L305.956 297.398L308.261 298.729L306.235 299.895Z" fill="#FFEC7A"/>
<path d="M306.233 299.896L303.928 298.565L302.295 299.504V302.155L303.928 304.983L304.869 306.118L306.233 306.303L307.866 305.364V302.713L306.233 299.896Z" fill="#B31630"/>
<path d="M308.797 309.667L308.188 310.017V320.593L308.797 321.656L309.676 322.162L310.286 321.811V311.235L309.676 310.172L308.797 309.667Z" fill="#B31630"/>
<path d="M300.487 304.879L299.877 305.23V315.806L300.487 316.869L301.365 317.375L301.975 317.024V306.437L301.365 305.375L300.487 304.879Z" fill="#B31630"/>
<path d="M305.512 318.448V330.963L306.473 332.625L307.837 333.409L308.799 332.852V320.346L305.512 318.448Z" fill="#B31630"/>
<path d="M301.365 316.063V328.568L302.327 330.24L303.691 331.024L304.652 330.467V317.961L301.365 316.063Z" fill="#B31630"/>
<path d="M303.929 304.981L301.365 305.373V316.063L302.988 318.88L307.174 321.284L308.797 320.345V309.666L306.234 306.302L303.929 304.981Z" fill="#B31630"/>
<path opacity="0.3" d="M344.631 301.432H341.995L340.145 302.505V304.021L346.057 307.426L348.682 307.437L350.543 306.364V304.847L344.631 301.432Z" fill="black"/>
<path d="M344.208 304.436L344.043 304.188L343.971 294.85L345.935 295.614V303.445L344.208 304.436Z" fill="#D1D1D1"/>
<path d="M347.74 306.467L347.575 306.219L347.492 296.685L349.466 296.427V305.476L347.74 306.467Z" fill="#D1D1D1"/>
<path d="M349.003 297.058L348.662 290.743L348.765 287.988L350.729 287.07V296.067L349.003 297.058Z" fill="#D1D1D1"/>
<path d="M349.003 288.059L348.476 287.626L348.383 287.099L350.202 286.16L350.729 287.068L349.003 288.059Z" fill="#E0DEDC"/>
<path d="M348.476 287.153H348.042L347.629 286.719L349.469 285.729L350.203 286.162L348.476 287.153Z" fill="url(#paint19_linear_34_11800)"/>
<path d="M347.74 286.719L345.714 285.099L345.549 283.86L346.138 283.066L347.275 282.87L349.466 285.728L347.74 286.719Z" fill="#E0DEDC"/>
<path d="M341.52 283.345L340.848 283.139L340.662 282.644L342.388 281.653L343.132 282.076L341.52 283.345Z" fill="url(#paint20_linear_34_11800)"/>
<path d="M343.596 282.735L342.572 283.24L341.404 283.075L343.13 282.074L345.311 281.734L343.596 282.735Z" fill="#E0DEDC"/>
<path d="M346.935 283.066L346.676 281.849L346.594 280.817L348.661 279.806V282.076L346.935 283.066Z" fill="#D1D1D1"/>
<path d="M346.935 280.795L345.653 279.804L345.209 278.421L347.276 277.41L348.661 279.804L346.935 280.795Z" fill="#E0DEDC"/>
<path d="M345.549 278.402H344.567L343.596 277.267L345.311 276.277L347.275 277.412L345.549 278.402Z" fill="url(#paint21_linear_34_11800)"/>
<path d="M343.597 277.267L342.201 278.072V280.331L343.597 282.735L344.392 283.705L345.55 283.86L346.935 283.066V280.796L345.55 278.402L343.597 277.267Z" fill="#F4EFE9"/>
<path d="M347.742 286.719L347.215 287.029V296.026L347.742 296.934L348.476 297.357L349.003 297.058V288.06L348.476 287.152L347.742 286.719Z" fill="#F4EFE9"/>
<path d="M340.661 282.643L340.145 282.943V291.95L340.661 292.858L341.406 293.281L341.933 292.982V283.985L341.406 283.077L340.661 282.643Z" fill="#F4EFE9"/>
<path d="M344.941 294.2V304.849L345.758 306.273L346.916 306.943L347.743 306.469V295.82L344.941 294.2Z" fill="#F4EFE9"/>
<path d="M341.404 292.167V302.815L342.231 304.239L343.389 304.91L344.205 304.435V293.787L341.404 292.167Z" fill="#F4EFE9"/>
<path d="M343.596 282.736L341.404 283.076V292.167L342.789 294.571L346.355 296.614L347.74 295.819V286.719L345.549 283.861L343.596 282.736Z" fill="#F4EFE9"/>
<path opacity="0.3" d="M375.765 313.483H373.14L371.279 314.556V316.062L377.202 319.478H379.827L381.688 318.405V316.888L375.765 313.483Z" fill="black"/>
<path d="M375.353 316.475L375.188 316.238L375.115 306.89L377.079 307.664V315.485L375.353 316.475Z" fill="#D1D1D1"/>
<path d="M378.874 318.509L378.709 318.271L378.637 308.738L380.601 308.469V317.518L378.874 318.509Z" fill="#D1D1D1"/>
<path d="M380.148 309.108L379.807 302.783L379.91 300.028L381.874 299.109V308.107L380.148 309.108Z" fill="#D1D1D1"/>
<path d="M380.148 300.101L379.621 299.678L379.518 299.151L381.347 298.202L381.874 299.11L380.148 300.101Z" fill="#E0DEDC"/>
<path d="M379.621 299.194H379.177L378.773 298.771L380.603 297.78L381.347 298.203L379.621 299.194Z" fill="url(#paint22_linear_34_11800)"/>
<path d="M378.876 298.77L376.861 297.14L376.695 295.912L377.274 295.107L378.421 294.921L380.602 297.779L378.876 298.77Z" fill="#E0DEDC"/>
<path d="M372.665 295.386L371.982 295.18L371.807 294.695L373.533 293.704L374.277 294.127L372.665 295.386Z" fill="url(#paint23_linear_34_11800)"/>
<path d="M374.732 294.776L373.719 295.281L372.551 295.116L374.277 294.126L376.458 293.785L374.732 294.776Z" fill="#E0DEDC"/>
<path d="M378.081 295.107L377.823 293.9L377.74 292.868L379.807 291.857V294.117L378.081 295.107Z" fill="#D1D1D1"/>
<path d="M378.08 292.847L376.799 291.856L376.344 290.463L378.421 289.452L379.806 291.856L378.08 292.847Z" fill="#E0DEDC"/>
<path d="M376.694 290.443H375.712L374.73 289.318L376.457 288.328L378.42 289.453L376.694 290.443Z" fill="url(#paint24_linear_34_11800)"/>
<path d="M376.695 290.443L374.731 289.318L373.346 290.113V292.383L374.731 294.776L375.527 295.746L376.695 295.911L378.08 295.107V292.847L376.695 290.443Z" fill="#F4EFE9"/>
<path d="M378.876 298.77L378.359 299.069V308.077L378.876 308.975L379.62 309.408L380.148 309.109V300.101L379.62 299.193L378.876 298.77Z" fill="#F4EFE9"/>
<path d="M371.806 294.695L371.279 294.994V304.002L371.806 304.899L372.551 305.333L373.078 305.023V296.026L372.551 295.118L371.806 294.695Z" fill="#F4EFE9"/>
<path d="M376.076 306.252V316.9L376.903 318.314L378.061 318.984L378.877 318.51V307.861L376.076 306.252Z" fill="#F4EFE9"/>
<path d="M372.551 304.218V314.866L373.367 316.28L374.535 316.951L375.352 316.476V305.828L372.551 304.218Z" fill="#F4EFE9"/>
<path d="M374.732 294.778L372.551 295.118V304.219L373.936 306.612L377.492 308.666L378.877 307.861V298.771L376.696 295.913L374.732 294.778Z" fill="#F4EFE9"/>
<path opacity="0.3" d="M362.812 288.968H360.187L358.326 290.041V291.548L364.249 294.963H366.874L368.735 293.89V292.373L362.812 288.968Z" fill="black"/>
<path d="M362.4 291.96L362.234 291.723L362.162 282.375L364.126 283.149V290.97L362.4 291.96Z" fill="#D1D1D1"/>
<path d="M365.921 293.994L365.756 293.757L365.684 284.223L367.647 283.954V293.003L365.921 293.994Z" fill="#D1D1D1"/>
<path d="M367.195 284.593L366.854 278.268L366.957 275.513L368.91 274.594V283.592L367.195 284.593Z" fill="#D1D1D1"/>
<path d="M367.195 275.586L366.668 275.163L366.564 274.637L368.394 273.687L368.911 274.595L367.195 275.586Z" fill="#E0DEDC"/>
<path d="M366.668 274.679H366.223L365.82 274.256L367.65 273.265L368.394 273.688L366.668 274.679Z" fill="url(#paint25_linear_34_11800)"/>
<path d="M365.923 274.255L363.908 272.625L363.742 271.397L364.321 270.592L365.468 270.406L367.649 273.264L365.923 274.255Z" fill="#E0DEDC"/>
<path d="M359.711 270.871L359.029 270.665L358.854 270.18L360.58 269.189L361.314 269.612L359.711 270.871Z" fill="url(#paint26_linear_34_11800)"/>
<path d="M361.779 270.261L360.755 270.766L359.598 270.601L361.313 269.611L363.505 269.27L361.779 270.261Z" fill="#E0DEDC"/>
<path d="M365.128 270.592L364.87 269.385L364.787 268.353L366.854 267.342V269.602L365.128 270.592Z" fill="#D1D1D1"/>
<path d="M365.127 268.332L363.845 267.341L363.391 265.948L365.468 264.937L366.853 267.341L365.127 268.332Z" fill="#E0DEDC"/>
<path d="M363.741 265.928H362.759L361.777 264.804L363.503 263.813L365.467 264.938L363.741 265.928Z" fill="url(#paint27_linear_34_11800)"/>
<path d="M361.778 264.803L360.393 265.598V267.857L361.778 270.261L362.574 271.231L363.742 271.396L365.127 270.592V268.332L363.742 265.928L361.778 264.803Z" fill="#F4EFE9"/>
<path d="M365.923 274.255L365.406 274.555V283.562L365.923 284.46L366.667 284.893L367.194 284.594V275.586L366.667 274.678L365.923 274.255Z" fill="#F4EFE9"/>
<path d="M358.853 270.18L358.326 270.479V279.476L358.853 280.384L359.598 280.818L360.125 280.508L360.114 271.511L359.598 270.603L358.853 270.18Z" fill="#F4EFE9"/>
<path d="M363.123 281.737V292.385L363.95 293.799L365.108 294.469L365.924 293.995V283.346L363.123 281.737Z" fill="#F4EFE9"/>
<path d="M359.598 279.703V290.351L360.414 291.765L361.582 292.436L362.399 291.961V281.313L359.598 279.703Z" fill="#F4EFE9"/>
<path d="M361.779 270.263L359.598 270.603V279.704L360.983 282.098L364.538 284.151L365.923 283.346V274.256L363.743 271.398L361.779 270.263Z" fill="#F4EFE9"/>
<path opacity="0.3" d="M231.935 310.937H229.309L227.459 312.01V313.526L233.371 316.931H235.997L237.857 315.869V314.352L231.935 310.937Z" fill="black"/>
<path d="M231.523 313.941L231.358 313.693L231.285 304.355L233.249 305.119V312.95L231.523 313.941Z" fill="#D1D1D1"/>
<path d="M235.044 315.973L234.889 315.725L234.807 306.191L236.771 305.933V314.982L235.044 315.973Z" fill="#D1D1D1"/>
<path d="M236.318 306.563L235.977 300.248L236.08 297.493L238.044 296.575V305.572L236.318 306.563Z" fill="#D1D1D1"/>
<path d="M236.316 297.564L235.789 297.141L235.686 296.615L237.515 295.665L238.042 296.573L236.316 297.564Z" fill="#E0DEDC"/>
<path d="M235.791 296.658H235.357L234.943 296.224L236.773 295.234L237.517 295.667L235.791 296.658Z" fill="url(#paint28_linear_34_11800)"/>
<path d="M235.044 296.223L233.018 294.603L232.863 293.365L233.442 292.571L234.589 292.375L236.77 295.233L235.044 296.223Z" fill="#E0DEDC"/>
<path d="M228.834 292.85L228.152 292.644L227.977 292.149L229.703 291.158L230.447 291.591L228.834 292.85Z" fill="url(#paint29_linear_34_11800)"/>
<path d="M230.91 292.229L229.876 292.745L228.719 292.58L230.445 291.59L232.626 291.239L230.91 292.229Z" fill="#E0DEDC"/>
<path d="M234.249 292.571L233.991 291.354L233.908 290.322L235.975 289.311V291.581L234.249 292.571Z" fill="#D1D1D1"/>
<path d="M234.25 290.31L232.968 289.309L232.514 287.926L234.591 286.915L235.976 289.309L234.25 290.31Z" fill="#E0DEDC"/>
<path d="M232.864 287.907H231.882L230.91 286.772L232.626 285.781L234.59 286.916L232.864 287.907Z" fill="url(#paint30_linear_34_11800)"/>
<path d="M230.911 286.772L229.516 287.577V289.836L230.911 292.23L231.707 293.21L232.865 293.365L234.25 292.57V290.311L232.865 287.907L230.911 286.772Z" fill="#F4EFE9"/>
<path d="M235.046 296.224L234.529 296.533V305.531L235.046 306.439L235.79 306.862L236.317 306.563V297.565L235.79 296.657L235.046 296.224Z" fill="#F4EFE9"/>
<path d="M227.976 292.148L227.459 292.458V301.455L227.976 302.363L228.72 302.786L229.247 302.487V293.49L228.72 292.582L227.976 292.148Z" fill="#F4EFE9"/>
<path d="M232.244 303.705V314.354L233.071 315.778L234.229 316.448L235.045 315.974V305.325L232.244 303.705Z" fill="#F4EFE9"/>
<path d="M228.719 301.672V312.33L229.535 313.744L230.703 314.414L231.52 313.94V303.292L228.719 301.672Z" fill="#F4EFE9"/>
<path d="M230.91 292.231L228.719 292.582V301.672L230.104 304.076L233.659 306.13L235.045 305.325V296.224L232.864 293.366L230.91 292.231Z" fill="#F4EFE9"/>
<path opacity="0.3" d="M279.359 300.185H276.734L274.873 301.258V302.765L280.796 306.18H283.421L285.282 305.107V303.6L279.359 300.185Z" fill="black"/>
<path d="M278.947 303.179L278.781 302.941L278.709 293.604L280.673 294.367V302.188L278.947 303.179Z" fill="#D1D1D1"/>
<path d="M282.479 305.21L282.313 304.973L282.23 295.439L284.194 295.181V304.219L282.479 305.21Z" fill="#D1D1D1"/>
<path d="M283.742 295.81L283.4 289.485L283.504 286.73L285.468 285.812V294.809L283.742 295.81Z" fill="#D1D1D1"/>
<path d="M283.742 286.803L283.215 286.38L283.111 285.854L284.941 284.904L285.468 285.812L283.742 286.803Z" fill="#E0DEDC"/>
<path d="M283.215 285.906L282.77 285.896L282.367 285.473L284.197 284.482L284.941 284.905L283.215 285.906Z" fill="url(#paint31_linear_34_11800)"/>
<path d="M282.48 285.472L280.444 283.852L280.289 282.614L280.868 281.809L282.015 281.623L284.196 284.481L282.48 285.472Z" fill="#E0DEDC"/>
<path d="M276.258 282.097L275.586 281.891L275.4 281.396L277.127 280.395L277.871 280.828L276.258 282.097Z" fill="url(#paint32_linear_34_11800)"/>
<path d="M278.325 281.478L277.302 281.994L276.145 281.818L277.871 280.828L280.052 280.487L278.325 281.478Z" fill="#E0DEDC"/>
<path d="M281.674 281.809L281.415 280.602L281.322 279.57L283.4 278.559V280.819L281.674 281.809Z" fill="#D1D1D1"/>
<path d="M281.674 279.549L280.392 278.558L279.938 277.165L282.015 276.154L283.4 278.558L281.674 279.549Z" fill="#E0DEDC"/>
<path d="M280.288 277.156H279.306L278.324 276.021L280.05 275.03L282.014 276.155L280.288 277.156Z" fill="url(#paint33_linear_34_11800)"/>
<path d="M278.325 276.02L276.939 276.815V279.085L278.325 281.479L279.131 282.448L280.288 282.614L281.673 281.809V279.549L280.288 277.155L278.325 276.02Z" fill="#F4EFE9"/>
<path d="M282.48 285.472L281.953 285.772V294.779L282.48 295.687L283.214 296.11L283.741 295.811V286.803L283.214 285.906L282.48 285.472Z" fill="#F4EFE9"/>
<path d="M275.4 281.397L274.873 281.696V290.704L275.4 291.601L276.144 292.035L276.672 291.735V282.728L276.144 281.82L275.4 281.397Z" fill="#F4EFE9"/>
<path d="M279.67 292.954V303.602L280.497 305.026L281.654 305.686L282.481 305.212V294.563L279.67 292.954Z" fill="#F4EFE9"/>
<path d="M276.145 290.92V301.568L276.961 302.992L278.119 303.653L278.946 303.178V292.53L276.145 290.92Z" fill="#F4EFE9"/>
<path d="M278.325 281.48L276.145 281.82V290.921L277.53 293.315L281.085 295.368L282.481 294.563V285.473L280.289 282.615L278.325 281.48Z" fill="#F4EFE9"/>
<path opacity="0.3" d="M246.892 343.068H244.266L242.416 344.141V345.647L248.328 349.062H250.964L252.814 347.989V346.473L246.892 343.068Z" fill="black"/>
<path d="M246.48 346.059L246.315 345.822L246.242 336.484L248.206 337.247V345.069L246.48 346.059Z" fill="#D1D1D1"/>
<path d="M250.011 348.101L249.846 347.854L249.773 338.32L251.727 338.052V347.1L250.011 348.101Z" fill="#D1D1D1"/>
<path d="M251.275 338.693L250.934 332.368L251.037 329.613L253.001 328.694V337.692L251.275 338.693Z" fill="#D1D1D1"/>
<path d="M251.274 329.683L250.758 329.26L250.654 328.734L252.473 327.785L253.001 328.693L251.274 329.683Z" fill="#E0DEDC"/>
<path d="M250.758 328.776H250.314L249.9 328.353L251.73 327.363L252.474 327.786L250.758 328.776Z" fill="url(#paint34_linear_34_11800)"/>
<path d="M250.012 328.352L247.986 326.722L247.82 325.494L248.409 324.689L249.546 324.504L251.727 327.362L250.012 328.352Z" fill="#E0DEDC"/>
<path d="M243.792 324.969L243.12 324.762L242.934 324.277L244.66 323.287L245.404 323.71L243.792 324.969Z" fill="url(#paint35_linear_34_11800)"/>
<path d="M245.867 324.36L244.844 324.876L243.676 324.701L245.402 323.71L247.583 323.37L245.867 324.36Z" fill="#E0DEDC"/>
<path d="M249.217 324.69L248.948 323.482L248.865 322.451L250.932 321.439V323.699L249.217 324.69Z" fill="#D1D1D1"/>
<path d="M249.217 322.429L247.925 321.439L247.48 320.046L249.548 319.034L250.933 321.439L249.217 322.429Z" fill="#E0DEDC"/>
<path d="M247.821 320.026H246.839L245.867 318.902L247.583 317.901L249.547 319.036L247.821 320.026Z" fill="url(#paint36_linear_34_11800)"/>
<path d="M245.868 318.903L244.473 319.697V321.967L245.868 324.361L246.664 325.331L247.822 325.496L249.217 324.691V322.432L247.822 320.028L245.868 318.903Z" fill="#F4EFE9"/>
<path d="M250.013 328.353L249.486 328.652V337.66L250.013 338.557L250.758 338.991L251.275 338.692V329.684L250.758 328.776L250.013 328.353Z" fill="#F4EFE9"/>
<path d="M242.933 324.277L242.416 324.576V333.584L242.933 334.492L243.677 334.915L244.204 334.606V325.608L243.677 324.7L242.933 324.277Z" fill="#F4EFE9"/>
<path d="M247.213 335.834V346.482L248.029 347.896L249.187 348.567L250.014 348.102V337.444L247.213 335.834Z" fill="#F4EFE9"/>
<path d="M243.676 333.801V344.449L244.503 345.862L245.66 346.533L246.477 346.058V335.41L243.676 333.801Z" fill="#F4EFE9"/>
<path d="M245.867 324.36L243.676 324.701V333.801L245.061 336.195L248.627 338.248L250.012 337.443V328.353L247.821 325.495L245.867 324.36Z" fill="#F4EFE9"/>
<path opacity="0.3" d="M290.861 368.006H288.236L286.375 369.069V370.586L292.298 374.001H294.923L296.784 372.928V371.411L290.861 368.006Z" fill="black"/>
<path d="M290.449 370.999L290.283 370.762L290.211 361.413L292.175 362.177V370.008L290.449 370.999Z" fill="#D1D1D1"/>
<path d="M293.97 373.03L293.805 372.793L293.732 363.248L295.696 362.99V372.039L293.97 373.03Z" fill="#D1D1D1"/>
<path d="M295.243 363.621L294.902 357.306L295.006 354.551L296.959 353.633V362.63L295.243 363.621Z" fill="#D1D1D1"/>
<path d="M295.246 354.622L294.719 354.199L294.615 353.673L296.445 352.723L296.962 353.631L295.246 354.622Z" fill="#E0DEDC"/>
<path d="M294.717 353.716H294.272L293.869 353.293L295.699 352.292L296.443 352.725L294.717 353.716Z" fill="url(#paint37_linear_34_11800)"/>
<path d="M293.974 353.292L291.948 351.662L291.793 350.434L292.372 349.629L293.519 349.433L295.7 352.291L293.974 353.292Z" fill="#E0DEDC"/>
<path d="M287.76 349.908L287.078 349.702L286.902 349.207L288.628 348.216L289.362 348.649L287.76 349.908Z" fill="url(#paint38_linear_34_11800)"/>
<path d="M289.827 349.299L288.804 349.805L287.646 349.64L289.362 348.649L291.554 348.309L289.827 349.299Z" fill="#E0DEDC"/>
<path d="M293.176 349.629L292.917 348.422L292.824 347.38L294.902 346.369V348.639L293.176 349.629Z" fill="#D1D1D1"/>
<path d="M293.176 347.368L291.894 346.367L291.439 344.985L293.517 343.973L294.902 346.367L293.176 347.368Z" fill="#E0DEDC"/>
<path d="M291.79 344.965H290.808L289.826 343.84L291.552 342.84L293.516 343.975L291.79 344.965Z" fill="url(#paint39_linear_34_11800)"/>
<path d="M289.826 343.842L288.441 344.636V346.896L289.826 349.3L290.622 350.27L291.79 350.435L293.175 349.63V347.37L291.79 344.966L289.826 343.842Z" fill="#F4EFE9"/>
<path d="M293.972 353.292L293.455 353.591V362.588L293.972 363.496L294.716 363.929L295.243 363.62V354.623L294.716 353.715L293.972 353.292Z" fill="#F4EFE9"/>
<path d="M286.902 349.206L286.375 349.516V358.513L286.902 359.421L287.646 359.855L288.174 359.545V350.548L287.646 349.64L286.902 349.206Z" fill="#F4EFE9"/>
<path d="M291.172 360.763V371.422L291.999 372.836L293.156 373.506L293.973 373.032V362.383L291.172 360.763Z" fill="#F4EFE9"/>
<path d="M287.646 358.73V369.388L288.463 370.802L289.631 371.473L290.448 370.998V360.35L287.646 358.73Z" fill="#F4EFE9"/>
<path d="M289.827 349.299L287.646 349.639V358.73L289.032 361.134L292.587 363.187L293.972 362.382V353.292L291.791 350.434L289.827 349.299Z" fill="#F4EFE9"/>
<path opacity="0.3" d="M357.189 354.55H354.564L352.703 355.613V357.13L358.626 360.545H361.251L363.112 359.472V357.955L357.189 354.55Z" fill="black"/>
<path d="M356.777 357.542L356.611 357.304L356.539 347.967L358.503 348.73V356.551L356.777 357.542Z" fill="#D1D1D1"/>
<path d="M360.298 359.574L360.133 359.336L360.061 349.802L362.024 349.534V358.583L360.298 359.574Z" fill="#D1D1D1"/>
<path d="M361.572 350.175L361.23 343.85L361.334 341.095L363.298 340.177V349.174L361.572 350.175Z" fill="#D1D1D1"/>
<path d="M361.572 341.166L361.045 340.743L360.941 340.217L362.771 339.267L363.298 340.175L361.572 341.166Z" fill="#E0DEDC"/>
<path d="M361.045 340.26H360.6L360.197 339.837L362.027 338.836L362.771 339.269L361.045 340.26Z" fill="url(#paint40_linear_34_11800)"/>
<path d="M360.3 339.836L358.285 338.206L358.119 336.978L358.708 336.173L359.845 335.977L362.026 338.835L360.3 339.836Z" fill="#E0DEDC"/>
<path d="M354.088 336.462L353.417 336.246L353.23 335.761L354.957 334.76L355.691 335.193L354.088 336.462Z" fill="url(#paint41_linear_34_11800)"/>
<path d="M356.156 335.843L355.132 336.349L353.975 336.184L355.69 335.193L357.882 334.853L356.156 335.843Z" fill="#E0DEDC"/>
<path d="M359.505 336.172L359.247 334.965L359.164 333.923L361.231 332.922V335.182L359.505 336.172Z" fill="#D1D1D1"/>
<path d="M359.504 333.912L358.222 332.921L357.768 331.528L359.845 330.517L361.23 332.921L359.504 333.912Z" fill="#E0DEDC"/>
<path d="M358.118 331.509H357.136L356.154 330.384L357.88 329.384L359.844 330.519L358.118 331.509Z" fill="url(#paint42_linear_34_11800)"/>
<path d="M356.155 330.385L354.77 331.18V333.44L356.155 335.844L356.961 336.814L358.118 336.979L359.504 336.174V333.914L358.118 331.51L356.155 330.385Z" fill="#F4EFE9"/>
<path d="M360.3 339.835L359.783 340.135V349.132L360.3 350.04L361.044 350.473L361.571 350.174V341.166L361.044 340.258L360.3 339.835Z" fill="#F4EFE9"/>
<path d="M353.23 335.76L352.703 336.059V345.067L353.23 345.964L353.974 346.398L354.502 346.088V337.091L353.974 336.183L353.23 335.76Z" fill="#F4EFE9"/>
<path d="M357.5 347.317V357.965L358.327 359.379L359.485 360.049L360.301 359.575V348.927L357.5 347.317Z" fill="#F4EFE9"/>
<path d="M353.975 345.283V355.931L354.791 357.345L355.959 358.016L356.776 357.541V346.893L353.975 345.283Z" fill="#F4EFE9"/>
<path d="M356.156 335.843L353.975 336.183V345.284L355.36 347.678L358.915 349.731L360.3 348.926V339.836L358.119 336.978L356.156 335.843Z" fill="#F4EFE9"/>
<path d="M297.021 276.783L299.957 275.09L302.179 276.38L299.254 278.072H297.931L297.021 276.783Z" fill="#FA5C52"/>
<path d="M312.907 282.56V274.77L307.728 274.78L304.617 289.845V294.467L307.553 292.775L315.14 283.84L313.155 283.582L312.907 282.56Z" fill="#8A1C14"/>
<path d="M309.984 284.253L312.91 282.561L315.142 283.84L312.207 285.533H310.894L309.984 284.253Z" fill="#FA5C52"/>
<path d="M299.254 270.282L302.179 268.59L312.908 274.77L309.983 276.473L305.197 275.461L299.254 270.282Z" fill="#FA5C52"/>
<path d="M309.983 284.252V276.462L299.254 270.282V278.072L297.021 276.782L304.619 294.467L312.205 285.532L309.983 284.252Z" fill="#C84030"/>
<path d="M291.596 84.3608L145.234 0L125.182 11.5563V23.4118L272.608 102.376L291.596 84.3608Z" fill="#FFEC7A"/>
<path d="M278.862 107.432L301.106 100.798V136.715L281.064 148.271L277.891 127.222L278.862 107.432Z" fill="#DE822B"/>
<path d="M271.554 95.908L291.596 84.3621L301.106 100.799L281.064 112.355L270.5 107.227L271.554 95.908Z" fill="#FF9F3D"/>
<path d="M126.103 14.5999L117.875 19.3359V53.1689L126.103 67.3976L270.645 150.706L278.863 145.96V112.137L270.645 97.9082L126.103 14.5999Z" fill="url(#paint43_linear_34_11800)"/>
<path d="M275.141 144.545L132.397 62.2792L125.462 50.2792V16.0334L121.937 17.1891L117.668 18.4582V52.4666L126.102 67.3969L271.038 151.231L275.141 144.545Z" fill="#FFEC7A"/>
<path d="M271.554 95.9076L125.182 11.5571L115.662 17.036V52.9636L125.182 69.4004L271.554 153.751L281.063 148.282V112.355L271.554 95.9076ZM276.681 143.649L269.745 147.653L127.001 65.3866L120.065 53.397V21.6482L127.001 17.6551L269.735 99.9213L276.67 111.911V143.649H276.681Z" fill="#F6F6F6"/>
<path d="M146.021 30.5629L140.615 33.6686L142.672 38.611L142.145 63.8284L155.014 70.8241L159.531 71.2884L164.926 68.1723V59.4845L162.363 55.0374L164.926 53.6032V45.8749L161.04 39.1888L146.031 30.5422L146.021 30.5629ZM157.484 61.5172L157.939 64.3546L149.711 59.6083V54.8929L155.22 58.6281L157.484 61.5172ZM158.383 51.3538L149.701 46.3496V41.4485L155.127 44.5748L156.792 47.5052L158.383 51.3435V51.3538Z" fill="#6E081F"/>
<path d="M140.615 33.6682V64.8495L155.634 73.4961L159.52 71.2983V62.6002L156.947 58.1531L159.52 56.7188V49.0009L155.634 42.3148L140.615 33.6682ZM155.841 67.3981L154.166 68.3989L144.316 62.7136V53.706L154.269 59.4325L155.851 62.2287V67.3877L155.841 67.3981ZM155.841 52.8083L152.988 54.4695L144.305 49.4652V40.0345L154.156 45.7094L155.83 48.6501V52.8186L155.841 52.8083Z" fill="#FFEC7A"/>
<path d="M169.214 43.9248L163.809 47.0409L167.488 80.3477L172.884 77.2419V67.5842L183.096 89.3451L188.502 86.229L181.236 67.5017L183.778 70.7931L189.174 67.6874V59.8972L185.318 53.2317L169.194 43.9454L169.214 43.9248ZM181.856 63.6117L172.894 58.4424V54.408L179.199 57.6169L180.853 60.4647L181.866 63.6117H181.856Z" fill="#D66B24"/>
<path d="M163.809 47.0421V78.213L167.489 80.3386V65.8004L172.089 68.4521L179.355 87.1691L183.097 89.3359L175.83 70.6086L179.934 72.9714L183.789 70.784V62.9938L179.934 56.3283L163.799 47.0317L163.809 47.0421ZM180.109 66.8941L178.518 67.9052L167.489 61.5596V53.4083L178.456 59.7333L180.109 62.5811V66.8941Z" fill="#F6F6F6"/>
<path d="M202.045 62.8479L196.649 65.964L190.727 93.73L196.122 90.6139L197.507 87.0026L204.681 91.006L210.407 105.08L215.802 101.964L205.993 65.1385L202.045 62.8582V62.8479ZM200.246 80.0069L201.631 76.4162L202.748 81.4514L200.246 80.0069Z" fill="#D66B24"/>
<path d="M196.649 65.9635L186.84 91.4905L190.726 93.7295L193.465 86.5791L203.802 92.5326L206.551 102.84L210.396 105.059L200.587 68.2232L196.628 65.9429L196.649 65.9635ZM194.85 83.1225L198.644 73.2378L202.448 87.4974L194.85 83.1225Z" fill="#F6F6F6"/>
<path d="M228.804 84.4954L230.52 94.5039L222.912 74.8686L219.181 72.7224L213.785 75.8385L217.475 109.145L222.871 106.029V95.2675L232.483 117.802L237.879 114.686V83.5048L234.199 81.3793L228.804 84.4954Z" fill="#D66B24"/>
<path d="M228.804 107.092L217.517 77.985L213.785 75.8389V107.02L217.475 109.146V86.549L228.804 115.677L232.483 117.803V86.6213L228.804 84.4957V107.092Z" fill="#F6F6F6"/>
<path d="M257.631 94.8846L242.633 86.238L237.217 89.3438L239.005 94.8743L239.077 119.576L252.08 126.984H256.122L261.528 123.868V101.581L257.631 94.8949V94.8846ZM254.106 119.782L246.313 115.283V97.1133L252.08 100.57L253.745 103.5L254.106 119.782Z" fill="#D66B24"/>
<path d="M252.235 97.9915L237.217 89.345V120.526L252.235 129.173L256.122 126.975V104.678L252.235 97.9915ZM252.442 123.075L250.768 124.076L240.917 118.39V95.7112L250.768 101.397L252.442 104.327V123.075Z" fill="#F6F6F6"/>
<path d="M280.991 40.9752L271.709 34.0621L267.575 22.0002L264.836 23.5686L264.67 27.1387L263.42 29.2951L254.138 25.4981L251.43 27.0664L260.856 36.9099L259.275 46.6295L267.575 46.3922L273.115 57.7628L275.854 56.1944L274.273 44.6381L274.118 42.688L278.263 42.5539L280.991 40.9752Z" fill="#D66B24"/>
<path d="M264.836 23.5691L268.991 35.6413L278.263 42.5544L271.565 46.2173L273.115 57.7633L264.836 47.9508L256.546 48.1984L258.138 38.4787L251.43 27.0669L260.701 30.864L264.836 23.5691Z" fill="#F6F6F6"/>
<path d="M121.781 77.0879L115.579 72.4757L112.82 64.407L110.98 65.4491L110.866 67.8429L110.029 69.2771L103.827 66.7389L102.008 67.7913L108.323 74.3743L107.259 80.8747L112.82 80.7096L116.52 88.314L118.349 87.2719L117.285 79.5436L117.192 78.2332L119.962 78.1507L121.781 77.0879Z" fill="#D66B24"/>
<path d="M110.98 65.4492L113.76 73.5283L119.962 78.1508L115.476 80.5962L116.52 88.3141L110.98 81.7621L105.439 81.9169L106.504 75.4268L102.008 67.7914L108.22 70.3297L110.98 65.4492Z" fill="#F6F6F6"/>
<path d="M160.822 116.533L148.883 107.649L143.581 92.1509L140.035 94.1526L139.829 98.7545L138.226 101.52L126.288 96.6496L122.805 98.6513L134.939 111.312L132.903 123.817L143.581 123.497L150.713 138.128L154.217 136.106L152.18 121.258L151.974 118.751L157.307 118.565L160.822 116.533Z" fill="#D66B24"/>
<path d="M140.035 94.1526L145.389 109.681L157.307 118.565L148.687 123.281L150.713 138.128L140.035 125.509L129.389 125.829L131.435 113.344L122.805 98.6513L134.733 103.542L140.035 94.1526Z" fill="#F6F6F6"/>
<path d="M182.6 136.067L177.081 131.96L174.621 124.779L172.987 125.718L172.884 127.833L172.14 129.123L166.631 126.863L165.008 127.792L170.62 133.642L169.68 139.431L174.621 139.286L177.918 146.055L179.541 145.116L178.6 138.244L178.507 137.089L180.967 137.006L182.6 136.067Z" fill="#6E081F"/>
<path d="M172.987 125.717L175.458 132.898L180.967 137.005L176.988 139.182L177.918 146.054L172.987 140.214L168.057 140.358L168.998 134.58L165.008 127.791L170.527 130.051L172.987 125.717Z" fill="#FFEC7A"/>
<path d="M248.979 37.3304L243.449 33.2238L240.999 26.0527L239.366 26.9814L239.263 29.1069L238.519 30.3863L232.999 28.1267L231.387 29.0656L236.999 34.916L236.059 40.7044L240.999 40.5497L244.297 47.3183L245.93 46.3897L244.979 39.5178L244.886 38.3519L247.346 38.2694L248.979 37.3304Z" fill="#6E081F"/>
<path d="M239.366 26.9812L241.837 34.1626L247.346 38.2692L243.366 40.4463L244.297 47.3182L239.366 41.4884L234.436 41.6329L235.377 35.8548L231.387 29.0655L236.906 31.3251L239.366 26.9812Z" fill="#FFEC7A"/>
<path d="M262.014 161.254L255.43 156.353L252.494 147.789L250.541 148.903L250.427 151.431L249.538 152.969L242.954 150.265L241.031 151.38L247.719 158.365L246.603 165.278L252.494 165.103L256.432 173.171L258.376 172.067L257.249 163.864L257.135 162.471L260.081 162.379L262.014 161.254Z" fill="#6E081F"/>
<path d="M250.541 148.904L253.497 157.478L260.081 162.379L255.326 164.979L256.432 173.172L250.541 166.217L244.659 166.382L245.786 159.49L241.031 151.38L247.615 154.073L250.541 148.904Z" fill="#FFEC7A"/>
<path d="M119.601 118.32L115.166 115.028L113.202 109.281L111.89 110.024L111.817 111.726L111.218 112.758L106.794 110.942L105.502 111.695L109.998 116.38L109.244 121.023L113.202 120.909L115.849 126.326L117.151 125.584L116.396 120.074L116.324 119.145L118.298 119.073L119.601 118.32Z" fill="#6E081F"/>
<path d="M111.89 110.023L113.874 115.781L118.298 119.072L115.104 120.826L115.849 126.326L111.89 121.652L107.941 121.765L108.696 117.133L105.502 111.695L109.926 113.501L111.89 110.023Z" fill="#FFEC7A"/>
<defs>
<linearGradient id="paint0_linear_34_11800" x1="0" y1="217.69" x2="140.625" y2="217.69" gradientUnits="userSpaceOnUse">
<stop stop-color="#A70E13"/>
<stop offset="0.66" stop-color="#F04E3E"/>
<stop offset="1" stop-color="#F68C59"/>
</linearGradient>
<linearGradient id="paint1_linear_34_11800" x1="65.0703" y1="197.249" x2="74.2696" y2="197.249" gradientUnits="userSpaceOnUse">
<stop stop-color="#A70E13"/>
<stop offset="0.66" stop-color="#F04E3E"/>
<stop offset="1" stop-color="#F68C59"/>
</linearGradient>
<linearGradient id="paint2_linear_34_11800" x1="60" y1="119.493" x2="65.7366" y2="119.493" gradientUnits="userSpaceOnUse">
<stop stop-color="#A70E13"/>
<stop offset="0.66" stop-color="#F04E3E"/>
<stop offset="1" stop-color="#F68C59"/>
</linearGradient>
<linearGradient id="paint3_linear_34_11800" x1="67.0391" y1="123.93" x2="73.1065" y2="123.93" gradientUnits="userSpaceOnUse">
<stop stop-color="#A70E13"/>
<stop offset="0.66" stop-color="#F04E3E"/>
<stop offset="1" stop-color="#F68C59"/>
</linearGradient>
<linearGradient id="paint4_linear_34_11800" x1="74.0371" y1="129.182" x2="81.1898" y2="129.182" gradientUnits="userSpaceOnUse">
<stop stop-color="#A70E13"/>
<stop offset="0.66" stop-color="#F04E3E"/>
<stop offset="1" stop-color="#F68C59"/>
</linearGradient>
<linearGradient id="paint5_linear_34_11800" x1="82.2109" y1="132.617" x2="87.8856" y2="132.617" gradientUnits="userSpaceOnUse">
<stop stop-color="#A70E13"/>
<stop offset="0.66" stop-color="#F04E3E"/>
<stop offset="1" stop-color="#F68C59"/>
</linearGradient>
<linearGradient id="paint6_linear_34_11800" x1="89.3228" y1="136.394" x2="95.0595" y2="136.394" gradientUnits="userSpaceOnUse">
<stop stop-color="#A70E13"/>
<stop offset="0.66" stop-color="#F04E3E"/>
<stop offset="1" stop-color="#F68C59"/>
</linearGradient>
<linearGradient id="paint7_linear_34_11800" x1="33.8848" y1="135.757" x2="39.6214" y2="135.757" gradientUnits="userSpaceOnUse">
<stop stop-color="#A70E13"/>
<stop offset="0.66" stop-color="#F04E3E"/>
<stop offset="1" stop-color="#F68C59"/>
</linearGradient>
<linearGradient id="paint8_linear_34_11800" x1="40.9238" y1="140.195" x2="46.9912" y2="140.195" gradientUnits="userSpaceOnUse">
<stop stop-color="#A70E13"/>
<stop offset="0.66" stop-color="#F04E3E"/>
<stop offset="1" stop-color="#F68C59"/>
</linearGradient>
<linearGradient id="paint9_linear_34_11800" x1="47.9115" y1="145.456" x2="55.0642" y2="145.456" gradientUnits="userSpaceOnUse">
<stop stop-color="#A70E13"/>
<stop offset="0.66" stop-color="#F04E3E"/>
<stop offset="1" stop-color="#F68C59"/>
</linearGradient>
<linearGradient id="paint10_linear_34_11800" x1="56.0957" y1="148.881" x2="61.7703" y2="148.881" gradientUnits="userSpaceOnUse">
<stop stop-color="#A70E13"/>
<stop offset="0.66" stop-color="#F04E3E"/>
<stop offset="1" stop-color="#F68C59"/>
</linearGradient>
<linearGradient id="paint11_linear_34_11800" x1="63.2188" y1="152.659" x2="68.945" y2="152.659" gradientUnits="userSpaceOnUse">
<stop stop-color="#A70E13"/>
<stop offset="0.66" stop-color="#F04E3E"/>
<stop offset="1" stop-color="#F68C59"/>
</linearGradient>
<linearGradient id="paint12_linear_34_11800" x1="47.0488" y1="218.827" x2="205.059" y2="218.827" gradientUnits="userSpaceOnUse">
<stop stop-color="#A70E13"/>
<stop offset="0.66" stop-color="#F04E3E"/>
<stop offset="1" stop-color="#F68C59"/>
</linearGradient>
<linearGradient id="paint13_linear_34_11800" x1="21.334" y1="317.179" x2="81.8012" y2="317.179" gradientUnits="userSpaceOnUse">
<stop stop-color="#A70E13"/>
<stop offset="0.66" stop-color="#F04E3E"/>
<stop offset="1" stop-color="#F68C59"/>
</linearGradient>
<linearGradient id="paint14_linear_34_11800" x1="28.3535" y1="331.84" x2="102.981" y2="331.84" gradientUnits="userSpaceOnUse">
<stop stop-color="#A70E13"/>
<stop offset="0.66" stop-color="#F04E3E"/>
<stop offset="1" stop-color="#F68C59"/>
</linearGradient>
<linearGradient id="paint15_linear_34_11800" x1="195.242" y1="235.202" x2="288.124" y2="235.202" gradientUnits="userSpaceOnUse">
<stop stop-color="#A70E13"/>
<stop offset="0.66" stop-color="#F04E3E"/>
<stop offset="1" stop-color="#F68C59"/>
</linearGradient>
<linearGradient id="paint16_linear_34_11800" x1="255.938" y1="331.221" x2="356.23" y2="331.221" gradientUnits="userSpaceOnUse">
<stop stop-color="#A70E13"/>
<stop offset="0.66" stop-color="#F04E3E"/>
<stop offset="1" stop-color="#F68C59"/>
</linearGradient>
<linearGradient id="paint17_linear_34_11800" x1="272.443" y1="331.221" x2="339.733" y2="331.221" gradientUnits="userSpaceOnUse">
<stop stop-color="#A70E13"/>
<stop offset="0.66" stop-color="#F04E3E"/>
<stop offset="1" stop-color="#F68C59"/>
</linearGradient>
<linearGradient id="paint18_linear_34_11800" x1="287.4" y1="331.221" x2="324.766" y2="331.221" gradientUnits="userSpaceOnUse">
<stop stop-color="#A70E13"/>
<stop offset="0.66" stop-color="#F04E3E"/>
<stop offset="1" stop-color="#F68C59"/>
</linearGradient>
<linearGradient id="paint19_linear_34_11800" x1="347.629" y1="286.441" x2="350.203" y2="286.441" gradientUnits="userSpaceOnUse">
<stop stop-color="#A70E13"/>
<stop offset="0.66" stop-color="#F04E3E"/>
<stop offset="1" stop-color="#F68C59"/>
</linearGradient>
<linearGradient id="paint20_linear_34_11800" x1="340.662" y1="282.499" x2="343.132" y2="282.499" gradientUnits="userSpaceOnUse">
<stop stop-color="#A70E13"/>
<stop offset="0.66" stop-color="#F04E3E"/>
<stop offset="1" stop-color="#F68C59"/>
</linearGradient>
<linearGradient id="paint21_linear_34_11800" x1="343.596" y1="277.339" x2="347.275" y2="277.339" gradientUnits="userSpaceOnUse">
<stop stop-color="#A70E13"/>
<stop offset="0.66" stop-color="#F04E3E"/>
<stop offset="1" stop-color="#F68C59"/>
</linearGradient>
<linearGradient id="paint22_linear_34_11800" x1="378.773" y1="298.492" x2="381.347" y2="298.492" gradientUnits="userSpaceOnUse">
<stop stop-color="#A70E13"/>
<stop offset="0.66" stop-color="#F04E3E"/>
<stop offset="1" stop-color="#F68C59"/>
</linearGradient>
<linearGradient id="paint23_linear_34_11800" x1="371.807" y1="294.54" x2="374.277" y2="294.54" gradientUnits="userSpaceOnUse">
<stop stop-color="#A70E13"/>
<stop offset="0.66" stop-color="#F04E3E"/>
<stop offset="1" stop-color="#F68C59"/>
</linearGradient>
<linearGradient id="paint24_linear_34_11800" x1="374.73" y1="289.391" x2="378.42" y2="289.391" gradientUnits="userSpaceOnUse">
<stop stop-color="#A70E13"/>
<stop offset="0.66" stop-color="#F04E3E"/>
<stop offset="1" stop-color="#F68C59"/>
</linearGradient>
<linearGradient id="paint25_linear_34_11800" x1="365.82" y1="273.967" x2="368.394" y2="273.967" gradientUnits="userSpaceOnUse">
<stop stop-color="#A70E13"/>
<stop offset="0.66" stop-color="#F04E3E"/>
<stop offset="1" stop-color="#F68C59"/>
</linearGradient>
<linearGradient id="paint26_linear_34_11800" x1="358.854" y1="270.036" x2="361.314" y2="270.036" gradientUnits="userSpaceOnUse">
<stop stop-color="#A70E13"/>
<stop offset="0.66" stop-color="#F04E3E"/>
<stop offset="1" stop-color="#F68C59"/>
</linearGradient>
<linearGradient id="paint27_linear_34_11800" x1="361.777" y1="264.865" x2="365.467" y2="264.865" gradientUnits="userSpaceOnUse">
<stop stop-color="#A70E13"/>
<stop offset="0.66" stop-color="#F04E3E"/>
<stop offset="1" stop-color="#F68C59"/>
</linearGradient>
<linearGradient id="paint28_linear_34_11800" x1="234.943" y1="295.946" x2="237.517" y2="295.946" gradientUnits="userSpaceOnUse">
<stop stop-color="#A70E13"/>
<stop offset="0.66" stop-color="#F04E3E"/>
<stop offset="1" stop-color="#F68C59"/>
</linearGradient>
<linearGradient id="paint29_linear_34_11800" x1="227.977" y1="292.004" x2="230.447" y2="292.004" gradientUnits="userSpaceOnUse">
<stop stop-color="#A70E13"/>
<stop offset="0.66" stop-color="#F04E3E"/>
<stop offset="1" stop-color="#F68C59"/>
</linearGradient>
<linearGradient id="paint30_linear_34_11800" x1="230.91" y1="286.844" x2="234.59" y2="286.844" gradientUnits="userSpaceOnUse">
<stop stop-color="#A70E13"/>
<stop offset="0.66" stop-color="#F04E3E"/>
<stop offset="1" stop-color="#F68C59"/>
</linearGradient>
<linearGradient id="paint31_linear_34_11800" x1="282.367" y1="285.194" x2="284.941" y2="285.194" gradientUnits="userSpaceOnUse">
<stop stop-color="#A70E13"/>
<stop offset="0.66" stop-color="#F04E3E"/>
<stop offset="1" stop-color="#F68C59"/>
</linearGradient>
<linearGradient id="paint32_linear_34_11800" x1="275.4" y1="281.251" x2="277.871" y2="281.251" gradientUnits="userSpaceOnUse">
<stop stop-color="#A70E13"/>
<stop offset="0.66" stop-color="#F04E3E"/>
<stop offset="1" stop-color="#F68C59"/>
</linearGradient>
<linearGradient id="paint33_linear_34_11800" x1="278.324" y1="276.093" x2="282.014" y2="276.093" gradientUnits="userSpaceOnUse">
<stop stop-color="#A70E13"/>
<stop offset="0.66" stop-color="#F04E3E"/>
<stop offset="1" stop-color="#F68C59"/>
</linearGradient>
<linearGradient id="paint34_linear_34_11800" x1="249.9" y1="328.064" x2="252.474" y2="328.064" gradientUnits="userSpaceOnUse">
<stop stop-color="#A70E13"/>
<stop offset="0.66" stop-color="#F04E3E"/>
<stop offset="1" stop-color="#F68C59"/>
</linearGradient>
<linearGradient id="paint35_linear_34_11800" x1="242.934" y1="324.133" x2="245.404" y2="324.133" gradientUnits="userSpaceOnUse">
<stop stop-color="#A70E13"/>
<stop offset="0.66" stop-color="#F04E3E"/>
<stop offset="1" stop-color="#F68C59"/>
</linearGradient>
<linearGradient id="paint36_linear_34_11800" x1="245.867" y1="318.964" x2="249.547" y2="318.964" gradientUnits="userSpaceOnUse">
<stop stop-color="#A70E13"/>
<stop offset="0.66" stop-color="#F04E3E"/>
<stop offset="1" stop-color="#F68C59"/>
</linearGradient>
<linearGradient id="paint37_linear_34_11800" x1="293.869" y1="353.004" x2="296.443" y2="353.004" gradientUnits="userSpaceOnUse">
<stop stop-color="#A70E13"/>
<stop offset="0.66" stop-color="#F04E3E"/>
<stop offset="1" stop-color="#F68C59"/>
</linearGradient>
<linearGradient id="paint38_linear_34_11800" x1="286.902" y1="349.062" x2="289.362" y2="349.062" gradientUnits="userSpaceOnUse">
<stop stop-color="#A70E13"/>
<stop offset="0.66" stop-color="#F04E3E"/>
<stop offset="1" stop-color="#F68C59"/>
</linearGradient>
<linearGradient id="paint39_linear_34_11800" x1="289.826" y1="343.902" x2="293.516" y2="343.902" gradientUnits="userSpaceOnUse">
<stop stop-color="#A70E13"/>
<stop offset="0.66" stop-color="#F04E3E"/>
<stop offset="1" stop-color="#F68C59"/>
</linearGradient>
<linearGradient id="paint40_linear_34_11800" x1="360.197" y1="339.548" x2="362.771" y2="339.548" gradientUnits="userSpaceOnUse">
<stop stop-color="#A70E13"/>
<stop offset="0.66" stop-color="#F04E3E"/>
<stop offset="1" stop-color="#F68C59"/>
</linearGradient>
<linearGradient id="paint41_linear_34_11800" x1="353.23" y1="335.606" x2="355.691" y2="335.606" gradientUnits="userSpaceOnUse">
<stop stop-color="#A70E13"/>
<stop offset="0.66" stop-color="#F04E3E"/>
<stop offset="1" stop-color="#F68C59"/>
</linearGradient>
<linearGradient id="paint42_linear_34_11800" x1="356.154" y1="330.446" x2="359.844" y2="330.446" gradientUnits="userSpaceOnUse">
<stop stop-color="#A70E13"/>
<stop offset="0.66" stop-color="#F04E3E"/>
<stop offset="1" stop-color="#F68C59"/>
</linearGradient>
<linearGradient id="paint43_linear_34_11800" x1="117.875" y1="82.6477" x2="278.863" y2="82.6477" gradientUnits="userSpaceOnUse">
<stop stop-color="#A70E13"/>
<stop offset="0.66" stop-color="#F04E3E"/>
<stop offset="1" stop-color="#F68C59"/>
</linearGradient>
</defs>
</svg>
