<svg width="441" height="379" viewBox="0 0 441 379" fill="none" xmlns="http://www.w3.org/2000/svg">
<path d="M18.6152 371.698C32.0498 350.34 47.4965 329.986 67.2563 316.479C87.0161 302.973 111.739 297.038 133.521 305.635C149.587 311.984 163.63 325.833 180.604 327.003C194.575 327.966 207.907 319.96 218.762 309.881C238.996 291.082 252.967 265.042 271.344 243.901C289.721 222.771 315.951 206.022 341.159 213.718C358.979 219.156 372.465 235.667 383.155 252.809C403.616 285.582 417.691 331.923 424.067 371.501L18.6152 371.708V371.698Z" fill="#F5F5F5"/>
<path d="M440.844 371.491C440.844 371.646 342.149 371.781 220.432 371.781C98.7163 371.781 0 371.657 0 371.491C0 371.325 98.6751 371.201 220.432 371.201C342.19 371.201 440.844 371.325 440.844 371.491Z" fill="#263238"/>
<path d="M109.457 226.995C114.709 229.844 121.261 227.492 123.531 221.951C124.769 218.937 125.76 216.482 125.76 216.482C125.76 216.482 133.344 219.185 137.203 212.204C141.062 205.233 148.522 188.453 148.522 188.453C142.3 180.571 132.322 176.687 122.437 178.302L120.972 178.541L105.061 213.965C102.894 218.792 104.813 224.478 109.457 226.995Z" fill="#FFBE9D"/>
<path d="M139.855 199.93C139.638 199.329 139.958 198.666 140.557 198.449C141.155 198.231 141.816 198.552 142.032 199.153C142.249 199.754 141.929 200.417 141.331 200.634C140.732 200.852 140.072 200.531 139.855 199.93Z" fill="#263238"/>
<path d="M142.98 198.759C142.805 198.821 142.402 197.92 141.443 197.392C140.494 196.853 139.513 196.988 139.472 196.801C139.451 196.719 139.678 196.553 140.112 196.491C140.535 196.418 141.175 196.48 141.763 196.812C142.361 197.143 142.743 197.651 142.908 198.055C143.073 198.459 143.063 198.738 142.98 198.759Z" fill="#263238"/>
<path d="M131.498 194.233C131.818 194.782 131.632 195.497 131.075 195.818C130.528 196.139 129.816 195.953 129.496 195.393C129.176 194.834 129.362 194.13 129.919 193.809C130.466 193.487 131.178 193.674 131.498 194.233Z" fill="#263238"/>
<path d="M132.457 193.974C132.281 194.036 131.879 193.135 130.919 192.607C129.97 192.068 128.99 192.203 128.949 192.016C128.928 191.933 129.155 191.768 129.588 191.706C130.011 191.633 130.651 191.695 131.239 192.027C131.838 192.358 132.219 192.866 132.385 193.27C132.56 193.674 132.539 193.953 132.457 193.974Z" fill="#263238"/>
<path d="M131.641 204.218C131.672 204.136 132.332 204.343 133.374 204.736C133.642 204.85 133.869 204.892 133.962 204.767C134.086 204.643 134.138 204.312 134.169 203.949C134.262 203.172 134.365 202.395 134.468 201.567C134.922 198.201 135.428 195.487 135.593 195.507C135.768 195.528 135.531 198.283 135.077 201.65C134.963 202.468 134.85 203.245 134.736 204.022C134.674 204.363 134.664 204.799 134.313 205.151C134.127 205.327 133.849 205.368 133.663 205.316C133.467 205.275 133.323 205.202 133.199 205.14C132.198 204.643 131.599 204.301 131.641 204.218Z" fill="#263238"/>
<path d="M125.831 216.388C125.831 216.388 121.219 214.358 118.113 208.848C118.113 208.848 117.556 215.073 124.872 218.222L125.831 216.399V216.388Z" fill="#EB996E"/>
<path d="M117.795 186.401C117.681 186.277 112.202 183.014 110.572 189.022C109.158 194.211 115.009 195.112 115.081 194.947C115.153 194.781 117.795 186.401 117.795 186.401Z" fill="#FFBE9D"/>
<path d="M114.028 191.891C114.028 191.891 113.925 191.922 113.75 191.932C113.585 191.943 113.327 191.901 113.1 191.704C112.646 191.321 112.511 190.327 112.821 189.415C112.976 188.959 113.223 188.566 113.512 188.266C113.801 187.955 114.121 187.789 114.4 187.841C114.678 187.872 114.813 188.1 114.823 188.266C114.833 188.431 114.771 188.514 114.792 188.535C114.792 188.556 114.926 188.493 114.967 188.276C114.988 188.172 114.967 188.027 114.885 187.893C114.802 187.748 114.647 187.634 114.451 187.592C114.059 187.478 113.585 187.706 113.265 188.027C112.924 188.348 112.625 188.783 112.46 189.301C112.119 190.316 112.295 191.435 112.924 191.912C113.234 192.129 113.564 192.129 113.76 192.067C113.956 192.005 114.028 191.901 114.008 191.88L114.028 191.891Z" fill="#EB996E"/>
<path d="M116.721 191.975C117.526 193.166 119.424 193.021 120.539 192.11C121.653 191.198 122.2 189.8 122.85 188.516C123.727 186.765 124.841 185.139 126.142 183.689C126.977 182.757 127.999 181.845 129.247 181.742C130.671 181.617 131.951 182.57 132.972 183.585C133.984 184.59 134.954 185.75 136.305 186.237C138.08 186.869 140.113 186.164 141.918 186.703C143.59 187.211 144.766 188.671 146.097 189.81C147.439 190.95 149.079 191.82 150.834 191.851C152.588 191.882 154.424 190.898 155.033 189.251C155.642 187.604 154.641 185.429 152.908 185.16C154.393 185.087 155.343 183.264 154.878 181.845C154.414 180.437 152.928 179.546 151.463 179.37C149.987 179.194 148.512 179.598 147.098 180.043C147.521 178.769 146.696 177.329 145.52 176.697C144.343 176.065 142.919 176.086 141.599 176.304C140.278 176.521 138.988 176.936 137.657 177.039C134.995 177.246 132.405 176.211 129.815 175.558C127.225 174.905 124.243 174.709 122.097 176.314C120.209 177.733 119.868 180.323 118.981 182.508C118.052 184.787 117.825 185.284 116.979 187.439C116.979 187.439 115.514 190.297 116.711 191.986L116.721 191.975Z" fill="#263238"/>
<path d="M131.209 207.554C131.188 207.626 130.847 207.616 130.373 207.388C129.898 207.16 129.279 206.684 128.887 205.948C128.484 205.213 128.423 204.436 128.495 203.908C128.567 203.38 128.742 203.09 128.804 203.11C128.969 203.141 128.691 204.405 129.392 205.679C130.084 206.953 131.281 207.419 131.219 207.564L131.209 207.554Z" fill="white"/>
<path d="M150.989 186.051C150.989 186.051 151.371 186.486 150.968 187.253C150.772 187.605 150.39 187.978 149.833 188.164C149.266 188.361 148.564 188.185 147.955 187.802C147.347 187.408 146.82 186.797 146.346 186.103C145.861 185.42 145.396 184.643 144.684 184.063C143.972 183.493 142.992 183.234 141.991 183.296C140.98 183.327 139.948 183.555 138.875 183.69C137.812 183.824 136.667 183.845 135.728 183.327C134.768 182.83 134.252 181.877 133.819 181.059C133.386 180.23 132.963 179.433 132.323 178.915C131.683 178.407 130.93 178.169 130.239 178.117C128.835 178.024 127.741 178.563 127.164 179.08C126.576 179.598 126.4 180.023 126.369 180.002C126.369 180.002 126.514 179.567 127.112 179.008C127.69 178.459 128.804 177.879 130.259 177.951C130.981 177.993 131.766 178.241 132.447 178.77C133.128 179.319 133.561 180.137 134.005 180.955C134.448 181.763 134.944 182.664 135.831 183.12C136.698 183.597 137.792 183.597 138.844 183.462C139.907 183.327 140.949 183.099 141.981 183.068C143.013 183.006 144.055 183.286 144.808 183.897C145.561 184.518 146.015 185.306 146.49 185.989C146.954 186.673 147.45 187.274 148.038 187.657C148.605 188.04 149.266 188.206 149.792 188.04C150.318 187.885 150.69 187.533 150.886 187.201C151.288 186.497 150.937 186.031 150.989 186.041V186.051Z" fill="#455A64"/>
<path d="M149.514 180.769C149.514 180.769 149.607 180.696 149.813 180.676C150.019 180.655 150.339 180.738 150.608 181.028C150.896 181.297 151.041 181.877 150.731 182.374C150.453 182.861 149.813 183.234 149.101 183.162C148.389 183.11 147.698 182.695 147.11 182.146C146.511 181.608 145.975 180.935 145.221 180.479C144.478 179.992 143.508 180.023 142.6 180.334C141.682 180.613 140.753 181.111 139.66 181.111C138.545 181.111 137.658 180.375 136.987 179.692C136.296 178.987 135.677 178.283 134.924 177.827C133.417 176.874 131.745 176.667 130.425 176.885C129.094 177.102 128.124 177.661 127.515 178.096C126.906 178.542 126.638 178.873 126.617 178.853C126.617 178.853 126.865 178.5 127.463 178.024C128.062 177.558 129.042 176.957 130.394 176.719C131.735 176.47 133.469 176.677 135.027 177.641C135.821 178.107 136.461 178.842 137.142 179.526C137.813 180.209 138.638 180.883 139.66 180.872C140.671 180.872 141.589 180.396 142.528 180.106C143.447 179.785 144.54 179.754 145.324 180.282C146.119 180.769 146.656 181.463 147.233 181.991C147.801 182.53 148.451 182.923 149.111 182.985C149.761 183.058 150.35 182.726 150.618 182.291C150.907 181.846 150.793 181.339 150.535 181.069C150.298 180.79 149.999 180.696 149.803 180.696C149.607 180.696 149.514 180.748 149.503 180.738L149.514 180.769Z" fill="#455A64"/>
<path d="M125.624 176.688C125.459 176.677 125.47 175.631 124.789 174.627C124.139 173.601 123.179 173.197 123.231 173.042C123.251 172.969 123.54 172.98 123.953 173.156C124.366 173.332 124.881 173.725 125.263 174.305C125.645 174.885 125.8 175.517 125.8 175.973C125.8 176.429 125.697 176.688 125.624 176.677V176.688Z" fill="#263238"/>
<path d="M127.213 170.939C127.347 171.042 126.635 172.037 126.212 173.445C125.769 174.844 125.789 176.066 125.624 176.087C125.48 176.118 125.191 174.813 125.676 173.28C126.14 171.747 127.12 170.835 127.224 170.939H127.213Z" fill="#263238"/>
<path d="M112.986 194.585C113.058 194.585 113.038 195.134 112.367 195.538C112.047 195.725 111.572 195.859 111.056 195.694C110.53 195.538 110.107 195.031 109.994 194.44C109.87 193.86 110.066 193.218 110.489 192.876C110.902 192.534 111.387 192.472 111.758 192.514C112.532 192.628 112.759 193.135 112.697 193.156C112.635 193.218 112.336 192.907 111.737 192.918C111.449 192.918 111.098 193.021 110.85 193.27C110.592 193.508 110.479 193.912 110.561 194.326C110.644 194.741 110.912 195.072 111.232 195.186C111.562 195.31 111.923 195.269 112.192 195.165C112.749 194.948 112.903 194.534 112.986 194.575V194.585Z" fill="#263238"/>
<path d="M116.701 189.583C116.701 189.583 116.474 188.599 117.34 187.387C117.743 186.756 118.568 186.352 119.394 185.927C119.806 185.709 120.209 185.44 120.477 185.026C120.735 184.611 120.849 184.094 120.942 183.565C121.096 182.488 121.457 181.442 122.056 180.686C122.644 179.909 123.48 179.474 124.202 179.381C124.935 179.267 125.523 179.453 125.874 179.65C126.225 179.847 126.359 180.044 126.359 180.044C126.348 180.064 126.183 179.899 125.832 179.733C125.482 179.567 124.914 179.422 124.223 179.546C123.542 179.65 122.768 180.075 122.221 180.82C121.654 181.556 121.313 182.54 121.169 183.617C121.076 184.156 120.962 184.705 120.663 185.16C120.364 185.627 119.91 185.906 119.497 186.124C118.651 186.548 117.877 186.901 117.485 187.491C117.062 188.05 116.866 188.599 116.783 188.983C116.701 189.366 116.742 189.594 116.721 189.594L116.701 189.583Z" fill="#455A64"/>
<path d="M34.6278 364.539L46.2463 365.316L47.825 343.482L30.8409 342.166L30.6552 343.513C29.8813 349.51 27.1676 374.079 28.0859 378.191C29.1177 382.78 34.6278 364.539 34.6278 364.539Z" fill="url(#paint0_linear_34_11801)"/>
<g opacity="0.4">
<path d="M31.615 373.437C31.615 373.437 29.2727 379.807 28.2719 378.916C27.2606 378.025 29.087 353.094 30.8515 342.176L31.3364 342.249L28.9632 371.313C28.9632 371.313 31.6666 372.173 31.6253 373.447L31.615 373.437Z" fill="white"/>
</g>
<path d="M31.3663 341.896C31.3663 341.896 31.3354 342.021 31.2941 342.269C31.2528 342.59 31.2013 342.943 31.1497 343.347C31.0258 344.424 30.8711 345.739 30.6853 347.303C30.3242 350.649 29.8805 355.269 29.4987 360.385C29.1169 365.502 28.8796 370.143 28.7558 373.509C28.7042 375.073 28.6629 376.409 28.632 377.486C28.632 377.89 28.6216 378.243 28.6113 378.574C28.6113 378.823 28.6113 378.947 28.6216 378.947C28.6216 378.947 28.6423 378.823 28.6629 378.574C28.6836 378.253 28.7042 377.89 28.7248 377.497C28.7867 376.42 28.8487 375.083 28.9312 373.519C29.1066 370.163 29.3749 365.523 29.7567 360.406C30.1385 355.289 30.5512 350.67 30.8607 347.324C31.0052 345.76 31.1393 344.434 31.2322 343.357C31.2632 342.953 31.2941 342.601 31.3251 342.28C31.3457 342.031 31.3457 341.907 31.3354 341.896H31.3663Z" fill="#263238"/>
<path d="M28.6234 371.272C28.6027 371.354 29.552 371.479 30.4601 372.152C31.3784 372.805 31.8015 373.654 31.8737 373.613C31.9356 373.602 31.5951 372.639 30.6148 371.934C29.6346 371.22 28.6131 371.199 28.6234 371.272Z" fill="#263238"/>
<path d="M32.347 365.067C32.3058 365.13 32.6566 365.461 33.1312 365.813C33.6059 366.165 34.0289 366.414 34.0702 366.352C34.1115 366.29 33.7607 365.958 33.286 365.606C32.8114 365.254 32.3883 365.005 32.347 365.067Z" fill="#263238"/>
<path d="M33.4094 363.368C33.3475 363.409 33.5539 363.772 33.8634 364.176C34.173 364.58 34.4722 364.87 34.5238 364.818C34.5857 364.777 34.3794 364.414 34.0698 364.01C33.7602 363.606 33.461 363.316 33.4094 363.368Z" fill="#263238"/>
<path d="M35.5464 362.395C35.4741 362.395 35.3709 362.892 35.3194 363.524C35.2678 364.156 35.2781 364.674 35.3503 364.674C35.4225 364.674 35.5257 364.177 35.5773 363.545C35.6289 362.913 35.6186 362.395 35.5464 362.395Z" fill="#263238"/>
<path d="M37.0219 362.126C36.96 362.094 36.6711 362.633 36.5576 363.369C36.4441 364.104 36.5576 364.705 36.6401 364.694C36.7124 364.694 36.7124 364.104 36.8259 363.41C36.9291 362.706 37.0942 362.157 37.0219 362.126Z" fill="#263238"/>
<path d="M34.1948 365.948C34.1948 365.948 34.0607 366.476 34.102 367.357C34.1226 367.792 34.1845 368.31 34.3187 368.879C34.3909 369.159 34.4425 369.449 34.6076 369.76C34.6901 369.905 34.8036 370.07 35.0203 370.143C35.2267 370.215 35.464 370.122 35.5981 369.967C36.3927 368.672 35.7323 367.274 35.0822 366.725C34.752 366.424 34.4115 366.269 34.1845 366.197C33.9472 366.124 33.813 366.114 33.813 366.134C33.7924 366.186 34.3599 366.269 34.9584 366.86C35.2576 367.15 35.5259 367.585 35.6497 368.113C35.7632 368.62 35.7426 369.325 35.4124 369.78C35.2267 369.988 34.979 369.884 34.8449 369.625C34.7107 369.387 34.6488 369.076 34.5663 368.807C34.4218 368.258 34.3393 367.761 34.298 367.336C34.2155 366.487 34.2464 365.948 34.2051 365.948H34.1948Z" fill="#263238"/>
<path d="M34.0918 366.3C34.0918 366.3 34.422 366.548 35.0514 366.538C35.361 366.528 35.7324 366.445 36.1039 366.227C36.4341 365.999 36.8778 365.72 36.8984 365.109C36.8778 364.777 36.5269 364.591 36.2896 364.632C36.042 364.632 35.8253 364.736 35.6499 364.829C35.2887 365.015 34.9895 365.223 34.7522 365.43C34.2878 365.834 34.1021 366.176 34.1228 366.196C34.1537 366.227 34.391 365.937 34.8657 365.585C35.103 365.409 35.3919 365.223 35.7427 365.057C36.0523 364.881 36.5889 364.798 36.6301 365.15C36.6301 365.502 36.269 365.834 35.9697 366.031C35.6499 366.227 35.3197 366.331 35.0308 366.362C34.4529 366.424 34.1021 366.269 34.0918 366.321V366.3Z" fill="#263238"/>
<path d="M37.2897 342.777C37.2897 342.777 37.3 343.409 37.1143 344.382C36.9389 345.356 36.4333 346.682 35.4117 347.8C34.3902 348.909 33.1004 349.52 32.1511 349.768C31.1915 350.038 30.5621 350.017 30.5724 350.069C30.5724 350.09 30.7272 350.1 31.0161 350.1C31.2947 350.1 31.7074 350.059 32.2027 349.945C33.1933 349.727 34.5347 349.126 35.6078 347.977C36.6706 346.816 37.1659 345.418 37.3 344.413C37.3722 343.906 37.3826 343.492 37.3619 343.212C37.3413 342.932 37.3103 342.777 37.3 342.777H37.2897Z" fill="#263238"/>
<path d="M46.174 345.709C46.174 345.636 44.1826 345.408 41.7165 345.191C39.2504 344.973 37.2486 344.859 37.2383 344.932C37.2383 345.004 39.2297 345.232 41.6958 345.45C44.1619 345.667 46.1637 345.781 46.174 345.698V345.709Z" fill="#263238"/>
<path d="M32.3573 353.001C32.2851 352.99 31.9549 354.389 31.8104 356.16C31.666 357.931 31.7588 359.371 31.8311 359.371C31.9033 359.371 31.9239 357.941 32.0684 356.18C32.2128 354.42 32.4295 353.011 32.3573 352.99V353.001Z" fill="#263238"/>
<path d="M32.6779 348.723C32.6263 348.66 32.3684 348.816 32.0279 348.94C31.6977 349.064 31.3984 349.116 31.3984 349.199C31.3984 349.272 31.7389 349.334 32.1207 349.199C32.5128 349.054 32.7295 348.785 32.6779 348.733V348.723Z" fill="#263238"/>
<path d="M34.8042 347.251C34.7526 347.2 34.5153 347.324 34.2779 347.531C34.0303 347.738 33.8755 347.956 33.9168 348.008C33.9684 348.059 34.2057 347.935 34.443 347.728C34.6907 347.521 34.8455 347.303 34.8042 347.251Z" fill="#263238"/>
<path d="M35.8764 345.014C35.8042 345.014 35.7836 345.314 35.6494 345.625C35.5256 345.936 35.3296 346.153 35.3708 346.216C35.4018 346.278 35.732 346.112 35.8868 345.729C36.0519 345.346 35.9384 344.993 35.8764 345.014Z" fill="#263238"/>
<path d="M36.4328 343.408C36.3709 343.377 36.2471 343.491 36.1645 343.667C36.082 343.843 36.0716 344.009 36.1335 344.04C36.1955 344.071 36.3193 343.957 36.4018 343.781C36.4844 343.605 36.4947 343.439 36.4328 343.408Z" fill="#263238"/>
<path opacity="0.3" d="M37.8666 342.849L36.6387 364.694L39.2596 364.85V342.777L37.8666 342.849Z" fill="black"/>
<path d="M150.773 365.42L150.525 353.736L128.723 354.057L128.898 371.158L130.25 371.231C136.276 371.479 160.885 372.06 164.889 370.786C169.357 369.356 150.763 365.43 150.763 365.43L150.773 365.42Z" fill="url(#paint1_linear_34_11801)"/>
<g opacity="0.4">
<path d="M159.854 367.658C159.854 367.658 166.376 369.439 165.581 370.527C164.786 371.614 139.888 371.956 128.889 371.148L128.92 370.662L157.966 370.506C157.966 370.506 158.585 367.73 159.854 367.658Z" fill="white"/>
</g>
<path d="M128.577 370.651C128.577 370.651 128.711 370.672 128.949 370.682C129.269 370.693 129.63 370.713 130.022 370.734C131.095 370.765 132.426 370.806 133.984 370.848C137.338 370.92 141.96 370.962 147.078 370.9C152.186 370.827 156.819 370.672 160.162 370.506C161.72 370.423 163.051 370.34 164.124 370.289C164.527 370.257 164.877 370.237 165.197 370.206C165.445 370.185 165.569 370.175 165.569 370.164C165.569 370.164 165.435 370.154 165.197 370.164C164.877 370.164 164.516 370.185 164.114 370.195C163.041 370.237 161.71 370.278 160.152 370.33C156.808 370.444 152.176 370.579 147.068 370.641C141.96 370.703 137.338 370.693 133.984 370.672C132.416 370.661 131.095 370.651 130.022 370.641C129.619 370.641 129.269 370.641 128.938 370.641C128.691 370.641 128.567 370.641 128.557 370.661L128.577 370.651Z" fill="#263238"/>
<path d="M157.963 370.848C158.046 370.848 158.098 369.905 158.675 368.942C159.243 367.968 160.048 367.471 160.007 367.398C159.986 367.336 159.057 367.761 158.448 368.807C157.829 369.843 157.902 370.868 157.963 370.848Z" fill="#263238"/>
<path d="M151.484 367.657C151.546 367.698 151.845 367.315 152.154 366.808C152.464 366.3 152.67 365.855 152.608 365.824C152.546 365.782 152.247 366.165 151.938 366.673C151.628 367.181 151.422 367.626 151.484 367.657Z" fill="#263238"/>
<path d="M149.708 366.746C149.759 366.798 150.1 366.559 150.471 366.217C150.843 365.876 151.101 365.555 151.049 365.492C150.998 365.441 150.657 365.679 150.286 366.021C149.914 366.363 149.656 366.684 149.708 366.746Z" fill="#263238"/>
<path d="M148.564 364.695C148.564 364.767 149.07 364.829 149.699 364.829C150.329 364.829 150.835 364.767 150.835 364.695C150.835 364.622 150.329 364.56 149.699 364.56C149.07 364.56 148.564 364.622 148.564 364.695Z" fill="#263238"/>
<path d="M148.163 363.245C148.142 363.307 148.699 363.556 149.442 363.597C150.185 363.649 150.763 363.473 150.753 363.4C150.742 363.328 150.164 363.379 149.463 363.328C148.761 363.286 148.194 363.162 148.173 363.234L148.163 363.245Z" fill="#263238"/>
<path d="M152.195 365.741C152.195 365.741 152.732 365.834 153.599 365.71C154.032 365.648 154.538 365.544 155.084 365.358C155.353 365.254 155.642 365.181 155.931 364.995C156.065 364.902 156.219 364.767 156.271 364.55C156.323 364.342 156.209 364.104 156.054 363.99C154.703 363.317 153.372 364.083 152.887 364.788C152.618 365.15 152.495 365.492 152.443 365.73C152.391 365.969 152.391 366.114 152.412 366.114C152.464 366.134 152.495 365.554 153.031 364.902C153.299 364.581 153.691 364.27 154.218 364.104C154.713 363.949 155.415 363.897 155.889 364.197C156.116 364.363 156.034 364.622 155.786 364.777C155.559 364.933 155.26 365.026 155.002 365.13C154.476 365.316 153.98 365.451 153.568 365.523C152.732 365.689 152.195 365.689 152.195 365.741Z" fill="#263238"/>
<path d="M152.568 365.803C152.568 365.803 152.795 365.451 152.712 364.83C152.671 364.519 152.557 364.156 152.32 363.804C152.072 363.493 151.742 363.069 151.144 363.1C150.824 363.141 150.669 363.524 150.721 363.752C150.752 364.001 150.865 364.208 150.968 364.374C151.185 364.726 151.422 365.006 151.639 365.213C152.083 365.637 152.434 365.793 152.444 365.772C152.465 365.741 152.165 365.524 151.773 365.088C151.577 364.871 151.36 364.591 151.175 364.25C150.979 363.959 150.834 363.421 151.185 363.359C151.536 363.317 151.897 363.669 152.114 363.939C152.341 364.239 152.465 364.571 152.526 364.85C152.64 365.42 152.516 365.793 152.568 365.803Z" fill="#263238"/>
<path d="M128.939 364.654C128.939 364.654 129.559 364.581 130.549 364.685C131.529 364.778 132.891 365.161 134.088 366.094C135.285 367.026 135.987 368.248 136.327 369.18C136.678 370.113 136.709 370.744 136.761 370.734C136.781 370.734 136.781 370.579 136.761 370.289C136.73 370.009 136.658 369.595 136.503 369.108C136.204 368.144 135.492 366.839 134.253 365.876C133.005 364.913 131.581 364.54 130.57 364.498C130.064 364.467 129.651 364.498 129.373 364.55C129.094 364.592 128.939 364.643 128.95 364.654H128.939Z" fill="#263238"/>
<path d="M131.074 355.518C131.002 355.518 130.94 357.527 130.95 360.013C130.95 362.499 131.012 364.508 131.084 364.508C131.157 364.508 131.219 362.499 131.208 360.013C131.208 357.527 131.146 355.518 131.074 355.518Z" fill="#263238"/>
<path d="M139.514 368.693C139.514 368.766 140.927 368.973 142.702 368.962C144.477 368.962 145.901 368.734 145.89 368.662C145.89 368.589 144.456 368.693 142.702 368.693C140.948 368.703 139.524 368.61 139.514 368.693Z" fill="#263238"/>
<path d="M135.244 368.745C135.192 368.797 135.367 369.045 135.512 369.377C135.667 369.698 135.749 369.988 135.821 369.988C135.894 369.988 135.925 369.636 135.749 369.263C135.574 368.89 135.285 368.693 135.244 368.745Z" fill="#263238"/>
<path d="M133.602 366.756C133.551 366.808 133.695 367.036 133.922 367.263C134.149 367.491 134.376 367.626 134.428 367.574C134.479 367.522 134.335 367.295 134.108 367.067C133.881 366.839 133.654 366.704 133.602 366.756Z" fill="#263238"/>
<path d="M131.28 365.866C131.301 365.938 131.59 365.938 131.91 366.042C132.23 366.145 132.467 366.322 132.518 366.27C132.58 366.228 132.384 365.918 131.992 365.793C131.59 365.659 131.26 365.793 131.28 365.866Z" fill="#263238"/>
<path d="M129.641 365.461C129.62 365.533 129.744 365.637 129.92 365.71C130.105 365.782 130.27 365.772 130.291 365.71C130.312 365.637 130.188 365.533 130.012 365.461C129.827 365.388 129.662 365.399 129.641 365.461Z" fill="#263238"/>
<path opacity="0.3" d="M128.959 364.073L150.741 363.4L150.669 360.769L128.773 362.686L128.959 364.073Z" fill="black"/>
<path d="M82.4127 285.27L151.319 284.327C151.319 284.327 174.536 286.326 169.603 304.349C165.796 318.27 161.163 337.981 153.393 362.115L125.977 362.395L137.338 313.34C135.687 313.361 116.835 313.982 116.835 313.982L82.4023 285.27H82.4127Z" fill="#263238"/>
<path d="M150.968 303.727C151.04 303.893 147.563 305.177 143.869 307.787C140.155 310.367 137.761 313.205 137.627 313.08C137.575 313.039 138.101 312.273 139.123 311.164C140.134 310.056 141.671 308.637 143.549 307.321C145.427 306.006 147.285 305.053 148.667 304.473C150.05 303.893 150.948 303.665 150.979 303.727H150.968Z" fill="#455A64"/>
<path d="M146.109 311.102C146.14 311.258 144.169 311.827 141.734 312.532C139.299 313.236 137.328 313.816 137.276 313.661C137.225 313.516 139.123 312.687 141.579 311.983C144.035 311.268 146.078 310.947 146.109 311.102Z" fill="#455A64"/>
<path d="M157.037 351.116L125.473 351.182L125.497 362.742L157.061 362.675L157.037 351.116Z" fill="#455A64"/>
<path d="M105.876 342.953L105.855 342.974C105.855 342.974 47.1536 310.792 40.4982 300.32C33.6365 289.516 38.5377 279.386 38.5377 279.386L87.9423 286.005L124.728 319.254L123.077 321.336C130.733 327.426 144.539 340.156 144.539 352.7C144.539 374.172 116.886 370.671 97.0329 370.712C69.8851 370.774 39.4354 370.899 39.4354 370.899L39.3632 341.627L105.896 342.963L105.876 342.953Z" fill="#263238"/>
<path d="M119.826 349.075C119.764 349.22 116.524 347.946 112.593 346.227C108.662 344.507 105.525 342.995 105.587 342.85C105.649 342.705 108.889 343.979 112.82 345.698C116.751 347.418 119.888 348.93 119.826 349.075Z" fill="#455A64"/>
<path d="M115.203 341.896C115.203 342.052 112.913 342.259 110.065 342.352C107.227 342.445 104.916 342.394 104.916 342.238C104.916 342.083 107.207 341.876 110.055 341.783C112.892 341.689 115.203 341.741 115.203 341.896Z" fill="#455A64"/>
<path d="M50.7751 340.467H39.2598V372.152H50.7751V340.467Z" fill="#455A64"/>
<path d="M91.1632 218.576C101.832 211.17 113.09 216.204 118.105 228.208C123.501 241.135 131.519 255.957 133.644 257.221C137.771 259.655 186.309 281.521 186.309 281.521L178.901 296.509C178.901 296.509 118.022 275.555 113.761 268.242C109.499 260.929 85.5293 222.48 85.5293 222.48L91.1632 218.565V218.576Z" fill="#FFBE9D"/>
<path d="M190.252 301.305C190.252 300.642 189.963 301.128 191.046 300.455C193.244 299.088 191.748 297.731 191.748 297.731C191.748 297.731 191.253 297.141 191.356 296.747C191.511 296.126 192.12 296.447 192.12 296.447C194.307 296.892 194.875 295.804 194.596 294.903C194.317 294.023 192.79 293.008 192.491 292.511C192.192 292.013 193.224 292.158 193.224 292.158C193.224 292.158 196.175 292.542 196.949 291.433C197.722 290.335 197.351 289.942 196.391 289.269C195.855 288.885 189.85 286.679 189.86 285.364C189.86 284.048 192.089 283.8 193.956 282.816C195.824 281.832 198.579 279.056 197.392 278.113C196.206 277.17 195.349 278.082 193.564 279.335C191.769 280.589 186.31 281.51 186.31 281.51L178.695 296.405C178.695 296.405 186.042 301.657 187.064 302.299C187.064 302.299 190.252 304.143 190.252 301.294V301.305Z" fill="#FFBE9D"/>
<path d="M237.466 299.792C237.466 299.792 236.404 305.499 239.169 306.576C240.397 307.053 243.369 303.873 237.466 299.792Z" fill="#455A64"/>
<path d="M238.664 298.403C238.664 298.403 241.533 301.148 243.184 299.957C243.916 299.429 243.204 296.529 238.664 298.403Z" fill="#455A64"/>
<path d="M242.957 302.568C242.957 302.568 245.299 309.383 248.942 308.845C250.562 308.607 251.821 303.345 242.957 302.568Z" fill="#455A64"/>
<path d="M192.437 311.806C192.323 311.713 180.787 302.557 188.381 291.681C195.326 281.737 208.502 288.449 208.636 288.522L208.131 289.495C208.131 289.495 204.953 287.859 201.052 287.424C195.914 286.844 191.952 288.491 189.289 292.313C186.359 296.508 186.091 300.91 188.516 305.384C190.352 308.761 193.087 310.916 193.107 310.936L192.437 311.806Z" fill="#263238"/>
<path d="M211.217 283.426L184.42 324.04L209.638 338.095L224.651 296.933L233.34 296.767L211.217 283.426Z" fill="#263238"/>
<path d="M209.639 338.095C209.546 338.147 208.865 336.531 207.266 334.262C205.676 332.004 202.952 329.208 199.258 327.167C195.544 325.179 191.705 324.443 188.971 324.091C186.216 323.749 184.493 323.853 184.482 323.749C184.482 323.718 184.905 323.646 185.69 323.604C186.474 323.563 187.609 323.563 189.002 323.687C191.778 323.946 195.688 324.619 199.516 326.66C203.303 328.752 206.058 331.673 207.585 334.024C208.359 335.205 208.886 336.22 209.205 336.935C209.525 337.65 209.659 338.064 209.628 338.085L209.639 338.095Z" fill="#455A64"/>
<path d="M118.018 271.701C118.018 270.987 135.642 257.221 135.642 257.221C135.642 257.221 124.983 234.433 120.329 226.137L118.008 271.701H118.018Z" fill="url(#paint2_linear_34_11801)"/>
<path d="M120.342 226.137C120.342 226.137 106.67 203.111 85.5272 222.491C71.7314 235.138 49.227 261.199 41.1889 271.412C39.3832 273.701 36.5663 277.181 38.5371 279.325C44.563 285.871 60.99 300.518 91.4087 289.59L122.674 230.519L120.342 226.147V226.137Z" fill="url(#paint3_linear_34_11801)"/>
<path d="M102.811 215.178L106.659 208.849L126.347 224.573L122.674 230.508L102.811 215.178Z" fill="url(#paint4_linear_34_11801)"/>
<path d="M110.375 220.968C110.375 220.968 110.653 221.745 110.426 223.184C110.179 224.572 109.301 226.685 107.083 228.115C106.01 228.829 104.565 229.285 103.028 229.182C101.501 229.109 99.953 228.622 98.3433 228.27C96.7543 227.908 94.9589 227.69 93.4111 228.519C91.8633 229.327 90.8418 230.974 90.1505 232.724C89.4488 234.485 89.098 236.36 88.4376 238.089C87.7979 239.809 86.797 241.456 85.2905 242.388C83.7943 243.32 82.0608 243.517 80.5647 243.289C79.0478 243.072 77.7168 242.44 76.7056 241.642C74.6625 240.026 73.7235 238.058 73.2076 236.753C72.9497 236.09 72.8052 235.552 72.7123 235.189C72.6298 234.827 72.5988 234.63 72.6195 234.62C72.6711 234.609 72.8568 235.376 73.414 236.66C73.9815 237.924 74.9618 239.799 76.9532 241.311C77.9438 242.046 79.2026 242.626 80.6369 242.813C82.0608 242.999 83.6705 242.792 85.0222 241.932C86.3842 241.073 87.3129 239.55 87.932 237.882C88.5718 236.204 88.9226 234.34 89.6449 232.507C90.3568 230.704 91.4403 228.912 93.1738 228.011C94.9176 227.1 96.8678 227.369 98.4774 227.752C100.118 228.135 101.625 228.622 103.069 228.705C104.514 228.819 105.845 228.425 106.877 227.773C108.992 226.457 109.91 224.458 110.209 223.133C110.498 221.765 110.302 220.968 110.375 220.968Z" fill="#263238"/>
<path d="M58.5228 293.143C58.5228 293.143 58.4816 292.977 58.4609 292.646C58.4609 292.324 58.4919 291.827 58.7189 291.237C59.1213 290.035 60.4214 288.596 62.4232 287.612C64.425 286.534 67.1181 286.348 69.8009 285.436C71.132 284.97 72.494 284.276 73.4433 283.085C74.4132 281.915 74.8982 280.351 75.0942 278.724C75.4966 275.472 75.1046 272.137 76.2912 269.33C77.4262 266.554 79.5415 264.679 81.471 263.612C83.4418 262.556 85.2579 262.245 86.4961 262.235C87.1152 262.235 87.5898 262.266 87.9097 262.328C88.2296 262.38 88.3947 262.411 88.3947 262.431C88.3947 262.504 87.7137 262.369 86.5064 262.462C85.2992 262.535 83.5553 262.908 81.6671 263.975C79.8304 265.052 77.8286 266.885 76.7761 269.537C75.6721 272.189 76.0538 275.451 75.6514 278.807C75.4554 280.485 74.9395 282.184 73.8663 283.448C72.8242 284.742 71.3486 285.478 69.966 285.944C67.1697 286.855 64.5282 287 62.5883 287.984C60.6381 288.896 59.3586 290.222 58.9149 291.33C58.4403 292.438 58.5951 293.163 58.5125 293.153L58.5228 293.143Z" fill="#263238"/>
<path d="M55.987 253.606C55.987 253.606 56.1211 253.512 56.3997 253.378C56.6783 253.243 57.1117 253.088 57.6792 252.963C58.8142 252.694 60.589 252.58 62.6011 253.274C63.602 253.626 64.6441 254.175 65.5934 255.004C66.5221 255.843 67.3579 256.951 67.8531 258.277C68.8747 260.887 68.7302 264.378 66.7594 267.061C64.7576 269.712 61.466 270.841 58.6801 270.603C57.2664 270.499 55.9766 270.023 54.9138 269.36C53.851 268.687 53.0256 267.827 52.4168 266.967C51.1889 265.227 50.7865 263.487 50.7246 262.317C50.6833 261.726 50.7142 261.27 50.7555 260.97C50.7968 260.659 50.8278 260.504 50.8484 260.504C50.9103 260.504 50.8071 261.157 50.9413 262.296C51.0754 263.425 51.5191 265.093 52.7367 266.729C53.9233 268.345 56.0282 269.919 58.7213 270.075C61.3525 270.282 64.4481 269.184 66.3054 266.719C68.1317 264.233 68.3072 260.939 67.3579 258.463C66.4395 255.915 64.3449 254.331 62.4669 253.647C60.558 252.932 58.8452 252.974 57.7308 253.171C56.6061 253.367 56.0179 253.647 55.9973 253.595L55.987 253.606Z" fill="#263238"/>
<g opacity="0.3">
<path d="M120.289 269.412L120.299 232.662L125.975 264.875L120.289 269.412Z" fill="black"/>
</g>
<g opacity="0.3">
<path d="M91.5316 237.769L83.4316 274.923H91.5316L91.4078 289.59L93.6056 285.126L93.1722 270.666H87.8273L91.5316 237.769Z" fill="black"/>
</g>
<g opacity="0.3">
<path d="M103.646 215.986C103.646 215.986 119.145 229.441 119.372 229.223C119.599 229.006 125.563 224.676 125.563 224.676L120.104 227.752L103.657 215.996L103.646 215.986Z" fill="black"/>
</g>
<path d="M102.646 215.095C102.646 215.095 103.017 215.261 103.636 215.634C104.245 216.017 105.122 216.587 106.185 217.322C108.31 218.783 111.179 220.916 114.336 223.268C116.483 224.863 118.505 226.333 120.238 227.535H119.98C121.817 226.52 123.355 225.702 124.438 225.142C125.521 224.583 126.151 224.293 126.172 224.334C126.192 224.376 125.614 224.759 124.572 225.391C123.53 226.023 122.023 226.903 120.218 227.949L120.094 228.022L119.97 227.939C118.206 226.779 116.152 225.329 114.006 223.723C110.921 221.393 108.135 219.29 105.958 217.643C105.008 216.928 104.193 216.317 103.512 215.81C102.934 215.375 102.625 215.116 102.646 215.085V215.095Z" fill="#263238"/>
<path d="M195.482 289.072C193.862 288.326 192.087 287.932 190.302 287.912C189.858 287.912 189.404 287.922 189.002 288.098C188.599 288.274 188.249 288.637 188.197 289.072C188.145 289.548 188.455 290.004 188.857 290.263C189.26 290.522 189.734 290.625 190.199 290.729C191.623 291.029 193.036 291.319 194.46 291.62" fill="#FFBE9D"/>
<path d="M191.456 297.244C189.836 296.499 188.062 296.105 186.277 296.084C185.833 296.084 185.379 296.095 184.976 296.271C184.574 296.447 184.223 296.809 184.172 297.244C184.12 297.721 184.43 298.177 184.832 298.435C185.234 298.694 185.709 298.798 186.173 298.902C187.597 299.202 189.011 299.492 190.435 299.792" fill="#FFBE9D"/>
<path d="M192.779 293.184C191.159 292.438 189.384 292.044 187.599 292.024C187.155 292.024 186.701 292.034 186.299 292.21C185.896 292.386 185.546 292.749 185.494 293.184C185.442 293.66 185.752 294.116 186.154 294.375C186.557 294.634 187.031 294.737 187.496 294.841C188.92 295.141 190.333 295.431 191.757 295.732" fill="#FFBE9D"/>
<path d="M194.894 292.117C194.873 292.19 193.965 292.034 192.49 291.713C191.685 291.527 190.829 291.33 189.91 291.113C189.425 290.988 188.92 290.874 188.393 290.729C187.877 290.595 187.124 290.242 187.042 289.414C187.011 289 187.258 288.647 187.527 288.44C187.805 288.223 188.115 288.14 188.414 288.088C189.023 288.016 189.508 288.057 190.024 288.067C191.025 288.109 191.922 288.243 192.665 288.368C194.151 288.637 195.049 288.813 195.049 288.886C195.049 288.968 194.099 288.937 192.614 288.761C191.871 288.689 190.983 288.596 190.003 288.585C189.528 288.585 188.971 288.554 188.497 288.627C188.022 288.689 187.578 289 187.609 289.362C187.64 289.756 188.074 290.046 188.558 290.18C189.074 290.325 189.57 290.46 190.055 290.584C190.952 290.833 191.798 291.081 192.593 291.299C194.038 291.724 194.915 292.024 194.904 292.107L194.894 292.117Z" fill="#EB996E"/>
<path d="M192.242 295.939C192.221 296.012 191.313 295.856 189.837 295.535C189.033 295.349 188.176 295.152 187.258 294.934C186.773 294.81 186.267 294.696 185.741 294.551C185.225 294.416 184.472 294.064 184.389 293.236C184.358 292.821 184.606 292.469 184.874 292.262C185.153 292.044 185.462 291.962 185.762 291.91C186.37 291.837 186.855 291.879 187.371 291.889C188.372 291.931 189.27 292.065 190.013 292.189C191.499 292.459 192.396 292.635 192.396 292.707C192.396 292.79 191.447 292.759 189.961 292.583C189.218 292.511 188.331 292.417 187.351 292.407C186.876 292.407 186.319 292.376 185.844 292.448C185.37 292.511 184.926 292.821 184.957 293.184C184.988 293.577 185.421 293.867 185.906 294.002C186.422 294.147 186.917 294.282 187.402 294.406C188.3 294.655 189.146 294.903 189.941 295.121C191.385 295.545 192.262 295.846 192.252 295.929L192.242 295.939Z" fill="#EB996E"/>
<path d="M190.849 299.978C190.828 300.051 189.92 299.895 188.445 299.574C187.64 299.388 186.784 299.191 185.865 298.973C185.38 298.849 184.875 298.735 184.348 298.59C183.833 298.455 183.079 298.103 182.997 297.275C182.966 296.86 183.213 296.508 183.482 296.301C183.76 296.084 184.07 296.001 184.369 295.949C184.978 295.876 185.463 295.918 185.979 295.928C186.98 295.97 187.877 296.104 188.62 296.229C190.106 296.498 191.004 296.674 191.004 296.746C191.004 296.829 190.055 296.798 188.569 296.622C187.826 296.55 186.938 296.456 185.958 296.446C185.484 296.446 184.926 296.415 184.452 296.487C183.977 296.55 183.533 296.86 183.564 297.223C183.595 297.617 184.029 297.907 184.514 298.041C185.029 298.186 185.525 298.321 186.01 298.445C186.907 298.694 187.754 298.942 188.548 299.16C189.993 299.585 190.87 299.885 190.859 299.968L190.849 299.978Z" fill="#EB996E"/>
<path d="M144.458 335.526L148.182 337.09C148.182 337.09 150.287 338.396 154.394 339.835C155.457 340.208 156.582 340.384 157.717 340.384C159.089 340.384 160.905 340.291 161.885 339.939C163.103 339.493 164.217 340.767 163.567 341.741C162.917 342.715 159.595 344.02 155.447 343.668C151.299 343.316 156.014 347.873 157.706 349.572C159.399 351.26 164.372 356.75 164.269 357.682C164.114 359.049 162.618 359.132 160.977 357.402C159.306 355.652 154.033 350.835 153.177 351.768C152.341 352.689 161.05 361.193 161.05 361.193C161.05 361.193 163.206 362.706 162.257 363.824C160.554 365.834 151.959 356.118 151.165 355.175C150.607 354.523 149.658 355.507 150.287 356.18C150.938 356.874 159.172 364.456 157.459 366.528C156.148 368.112 150.308 358.594 147.739 357.972C145.159 357.351 152.888 364.736 151.577 366.196C151.082 366.745 150.649 367.077 146.81 362.198C142.889 357.195 134.459 341.907 134.459 341.907L144.705 335.557" fill="#FFBE9D"/>
<path d="M119.559 236.287C119.559 236.287 116.36 288.481 118.909 292.541C121.458 296.612 152.516 339.038 152.516 339.038L138.762 349.261C138.762 349.261 94.3511 302.516 93.9177 294.053C93.4843 285.591 92.2461 236.287 92.2461 236.287H119.549H119.559Z" fill="#FFBE9D"/>
<path d="M98.5819 298C98.5819 298 98.3239 298.062 97.8699 297.958C97.4262 297.844 96.7865 297.544 96.2396 296.902C95.6824 296.28 95.2903 295.213 95.5276 294.084C95.7237 292.986 96.5801 291.806 97.8906 291.453C98.5303 291.277 99.2319 291.319 99.8098 291.619C100.377 291.92 100.811 292.417 100.996 292.997C101.378 294.209 100.511 295.327 99.6137 295.472C98.6644 295.628 98.066 294.965 97.9009 294.55C97.7151 294.095 97.839 293.815 97.8596 293.836C97.9112 293.836 97.8802 294.095 98.0969 294.447C98.293 294.778 98.8502 295.244 99.5312 295.079C100.181 294.934 100.821 294.022 100.501 293.162C100.357 292.738 100.006 292.344 99.5621 292.116C99.1184 291.888 98.5613 291.857 98.0453 292.002C96.9722 292.292 96.2396 293.245 96.0436 294.188C95.8165 295.151 96.1055 296.052 96.5595 296.643C97.5088 297.865 98.6335 297.896 98.5819 298Z" fill="#EB996E"/>
<path d="M91.6798 234.339L88.6875 270.489L120.344 269.546C120.344 269.546 121.108 240.171 120.148 230.445L91.6902 234.339H91.6798Z" fill="url(#paint5_linear_34_11801)"/>
<path d="M120.343 269.546C120.343 269.546 120.116 269.588 119.693 269.619C119.208 269.65 118.589 269.691 117.825 269.733C116.122 269.816 113.78 269.919 110.912 270.054C104.989 270.271 96.9096 270.572 87.881 270.903H87.5508L87.5921 270.582C87.6643 269.981 87.7468 269.339 87.8191 268.687C89.0057 259.261 90.0788 250.726 90.863 244.459C91.2757 241.414 91.6059 238.928 91.8536 237.126C91.9774 236.308 92.0703 235.655 92.1528 235.137C92.225 234.681 92.2766 234.443 92.2973 234.443C92.3179 234.443 92.2973 234.692 92.2663 235.147C92.2147 235.665 92.1528 236.328 92.0703 237.147C91.8742 238.959 91.5956 241.445 91.2654 244.501C90.5225 250.767 89.501 259.313 88.3866 268.749C88.304 269.401 88.2318 270.043 88.1493 270.644L87.8603 270.323C96.889 270.054 104.979 269.816 110.891 269.65C113.77 269.588 116.112 269.546 117.815 269.505C118.578 269.505 119.208 269.505 119.693 269.505C120.126 269.505 120.343 269.515 120.343 269.536V269.546Z" fill="#263238"/>
<path d="M120.342 269.546C120.188 269.546 120.012 260.794 119.961 250.001C119.909 239.197 119.992 230.445 120.146 230.445C120.301 230.445 120.477 239.197 120.528 249.99C120.58 260.783 120.497 269.546 120.342 269.546Z" fill="#263238"/>
<path d="M101.718 270.375C101.718 270.375 101.481 269.951 101.203 269.112C100.924 268.273 100.635 267.019 100.521 265.435C100.264 262.317 100.976 257.687 103.906 253.751C106.857 249.825 111.088 247.857 114.142 247.236C115.69 246.904 116.969 246.832 117.846 246.873C118.723 246.904 119.208 246.987 119.198 247.018C119.198 247.142 117.237 246.894 114.224 247.64C111.253 248.344 107.198 250.322 104.35 254.103C101.522 257.904 100.759 262.358 100.914 265.424C101.037 268.532 101.832 270.355 101.708 270.386L101.718 270.375Z" fill="#263238"/>
<path d="M338.487 154.472C337.28 155.922 335.392 156.699 333.514 156.813C331.636 156.927 329.758 156.44 328.024 155.704C324.671 154.285 321.741 151.271 319.584 148.329C322.989 146.144 327.643 146.776 329.985 147.242C333.679 147.988 339.911 151.582 338.487 154.472Z" fill="#455A64"/>
<path d="M319.451 77.635C318.729 78.9712 317.356 79.8827 315.891 80.2659C314.426 80.6492 312.868 80.5663 311.382 80.2659C308.513 79.6755 305.727 77.7697 303.561 75.7809C305.903 73.5125 309.679 73.2847 311.599 73.2847C314.632 73.2847 320.111 75.1387 319.441 77.6454" fill="url(#paint6_linear_34_11801)"/>
<path d="M238.513 155.653C240.339 156.088 241.877 157.445 242.816 159.081C243.755 160.718 244.147 162.624 244.26 164.509C244.487 168.155 243.105 172.132 241.423 175.374C237.956 173.282 236.46 168.818 235.84 166.508C234.86 162.852 235.304 155.653 238.513 155.653Z" fill="#455A64"/>
<path d="M308.316 118.819C310.142 119.254 311.679 120.611 312.618 122.247C313.557 123.884 313.949 125.79 314.063 127.675C314.29 131.321 312.907 135.298 311.225 138.54C307.758 136.448 306.262 131.984 305.643 129.674C304.663 126.017 305.107 118.819 308.316 118.819Z" fill="#263238"/>
<path d="M332.328 101.314C332.328 101.314 332.565 101.273 333.029 101.262C333.545 101.252 334.216 101.231 335.052 101.21C335.949 101.2 337.033 101.179 338.271 101.169C338.89 101.148 339.592 101.169 340.314 101.304C341.026 101.459 341.769 101.687 342.491 102.07C343.925 102.837 345.298 104.142 346.061 105.934C346.443 106.824 346.68 107.819 346.701 108.865C346.701 109.87 346.784 110.926 346.577 112.024C346.185 114.199 344.761 116.281 342.667 117.483C341.624 118.084 340.407 118.425 339.158 118.498C337.93 118.539 336.723 118.508 335.475 118.519L335.671 118.436C334.835 119.275 333.948 120.165 333.06 121.067C331.915 122.206 330.79 123.335 329.727 124.402L329.242 124.889V124.205C329.242 122.993 329.242 121.792 329.242 120.611C329.242 120.02 329.242 119.44 329.242 118.86V118.425V118.208V118.104V118.052C329.789 118.581 329.387 118.187 329.5 118.311H329.469C329.17 118.291 328.881 118.291 328.592 118.249C326.25 117.98 324.207 116.633 322.989 114.883C322.381 114.003 321.968 113.029 321.751 112.045C321.524 111.05 321.565 110.066 321.565 109.165C321.576 107.28 322.215 105.561 323.206 104.318C324.166 103.054 325.404 102.236 326.549 101.78C327.705 101.324 328.788 101.231 329.645 101.242C330.45 101.262 331.1 101.283 331.605 101.293C332.049 101.314 332.286 101.324 332.286 101.345C332.286 101.366 332.049 101.376 331.605 101.397C331.1 101.407 330.45 101.428 329.645 101.449C328.799 101.469 327.767 101.594 326.652 102.06C325.559 102.526 324.393 103.323 323.505 104.546C322.587 105.747 322.009 107.384 322.019 109.165C322.019 110.087 321.999 111.019 322.216 111.941C322.422 112.863 322.824 113.775 323.402 114.593C324.547 116.229 326.467 117.472 328.654 117.711C328.922 117.742 329.201 117.742 329.48 117.762H329.5C329.624 117.887 329.242 117.483 329.789 118.042V118.115V118.218V118.436V118.871C329.789 119.451 329.789 120.031 329.789 120.621C329.789 121.802 329.789 123.004 329.789 124.215L329.304 124.019C330.367 122.952 331.492 121.823 332.627 120.673C333.524 119.772 334.412 118.881 335.248 118.052L335.33 117.97H335.444C336.682 117.97 337.92 117.99 339.096 117.949C340.252 117.887 341.387 117.576 342.357 117.017C344.318 115.908 345.659 113.971 346.041 111.941C346.247 110.947 346.185 109.89 346.185 108.896C346.165 107.922 345.958 106.98 345.607 106.141C344.895 104.442 343.616 103.189 342.264 102.433C341.583 102.06 340.871 101.822 340.201 101.666C339.509 101.532 338.859 101.49 338.23 101.5C336.991 101.48 335.908 101.469 335.01 101.459C334.175 101.438 333.504 101.418 332.988 101.407C332.524 101.387 332.286 101.376 332.286 101.355L332.328 101.314Z" fill="#263238"/>
<path d="M275.495 6.06227C275.495 6.06227 274.484 -0.152504 266.951 0.00286537C259.419 0.158235 259.109 9.61505 260.203 13.0746C261.297 16.5445 274.948 32.5993 274.948 32.5993L288.135 16.6688C291.189 12.9814 291.849 7.75062 289.507 3.566C288.382 1.56692 286.701 0.00286537 284.224 0.00286537C276.867 0.00286537 275.495 6.06227 275.495 6.06227Z" fill="url(#paint7_linear_34_11801)"/>
<path d="M300.7 199.228C302.3 198.565 303.455 196.928 303.486 194.971C303.517 192.412 301.608 190.32 299.225 190.289C296.841 190.258 294.881 192.298 294.85 194.857C294.829 196.825 295.954 198.513 297.564 199.197C290.908 200.15 291.146 207.4 291.146 207.4L306.871 207.607C306.871 207.607 307.294 200.274 300.711 199.217L300.7 199.228Z" fill="#263238"/>
<path fill-rule="evenodd" clip-rule="evenodd" d="M322.143 235.222L314.146 246.222C314.033 246.378 314.064 246.606 314.219 246.719L318.284 249.703C318.439 249.817 318.666 249.785 318.779 249.63L326.91 238.454L329.861 240.619C330.006 240.722 330.212 240.702 330.336 240.567L333.07 237.408C333.204 237.252 333.184 237.014 333.008 236.89L329.779 234.518L331.512 232.125C331.915 231.566 332.699 231.441 333.256 231.856L335.526 233.523C335.681 233.637 335.908 233.606 336.021 233.451L338.467 230.085C338.58 229.929 338.549 229.701 338.395 229.587L334.556 226.77C332.307 225.123 329.139 225.61 327.498 227.878L325.135 231.12L323.103 229.629C322.948 229.515 322.721 229.546 322.607 229.701L320.162 233.068C320.048 233.223 320.079 233.451 320.234 233.565L322.267 235.056L322.133 235.233L322.143 235.222Z" fill="#263238"/>
<path d="M299.909 40.7401C299.878 40.5847 299.857 40.4294 299.826 40.2843C299.971 40.0358 300.136 39.8079 300.435 39.6939C302.757 38.7824 304.088 36.9491 304.934 34.7118C305.646 32.8266 305.419 32.4744 303.417 32.143C303.303 32.1223 303.19 32.1119 303.076 32.0912C302.643 31.998 302.21 31.8944 301.818 31.6562C300.848 31.0761 301.157 29.9264 302.096 29.5121C302.788 29.2013 303.51 29.5639 304.222 29.5121C304.707 29.481 304.862 29.2946 304.717 28.7974C304.335 27.5337 304.108 26.2286 303.933 24.9131C303.603 22.4169 304.48 20.3039 306.316 18.7087C308.999 16.3782 312.136 15.7878 315.479 17.0204C317.564 17.7869 319.091 19.2577 319.761 21.4639C320.195 22.9037 320.391 24.3849 320.546 25.8764C320.607 26.529 320.762 26.6222 321.361 26.3529C322.104 26.0318 322.692 25.5035 323.569 25.7211C324.033 25.835 324.487 26.1768 324.559 26.6533C324.611 26.9847 324.477 27.3162 324.271 27.5751C323.951 27.9687 323.497 28.238 323.074 28.5074C322.743 28.7145 322.403 28.8906 322.083 29.1185C321.433 29.5846 321.309 30.061 321.763 30.7032C323.352 32.9302 325.375 34.4839 328.222 34.6289C328.573 34.6496 328.862 34.7325 329.11 34.9707C329.141 35.1261 329.161 35.2815 329.192 35.4265C329.027 36.0065 328.615 36.3898 328.13 36.6798C327.634 36.9802 327.139 37.3013 326.572 37.4463C325.787 37.6431 325.436 38.0574 325.457 38.9171C325.488 39.725 325.271 39.8804 324.456 39.9633C324.26 39.984 324.074 39.984 323.878 39.984C322.258 39.984 320.824 40.4086 319.72 41.693C319.503 41.9416 319.256 42.1591 319.018 42.387C317.079 44.21 314.86 44.7797 312.332 43.8578C311.641 43.6093 310.97 43.2882 310.299 42.9981C309.742 42.7599 309.164 42.677 308.545 42.6874C307.565 42.7185 306.698 43.0914 305.79 43.3607C305.326 43.4953 304.841 43.4435 304.727 42.9567C304.449 41.7759 303.675 41.6205 302.653 41.693C302.179 41.7241 301.683 41.6205 301.219 41.5169C300.703 41.403 300.218 41.1958 299.898 40.7297L299.909 40.7401Z" fill="#263238"/>
<path d="M230.485 216.722C231.486 216.308 232.198 215.293 232.208 214.081C232.229 212.496 231.042 211.191 229.557 211.17C228.071 211.149 226.853 212.423 226.843 214.008C226.832 215.23 227.534 216.277 228.525 216.701C224.387 217.292 224.542 221.797 224.542 221.797L234.303 221.922C234.303 221.922 234.561 217.375 230.475 216.712L230.485 216.722Z" fill="#263238"/>
<path d="M258.828 110.367C258.828 111.641 257.806 112.666 256.537 112.677C255.268 112.677 254.247 111.651 254.236 110.377C254.236 109.103 255.258 108.078 256.527 108.067C257.796 108.057 258.818 109.093 258.828 110.367Z" fill="#263238"/>
<path d="M265.246 105.758C265.246 107.032 264.224 108.058 262.955 108.068C261.686 108.068 260.665 107.042 260.654 105.768C260.654 104.494 261.676 103.469 262.945 103.459C264.214 103.448 265.236 104.484 265.246 105.758Z" fill="#263238"/>
<path d="M265.266 115.516C265.266 116.904 264.244 118.023 262.975 118.023C261.706 118.023 260.674 116.904 260.674 115.516C260.674 114.128 261.695 113.01 262.965 113.01C264.234 113.01 265.255 114.128 265.266 115.516Z" fill="#263238"/>
<path d="M262.296 115.225C262.203 115.37 260.676 114.5 258.891 113.278C257.106 112.055 255.744 110.957 255.837 110.812C255.929 110.667 257.457 111.537 259.242 112.76C261.027 113.982 262.389 115.08 262.296 115.225Z" fill="#263238"/>
<path d="M262.469 105.592C262.573 105.726 261.396 106.824 259.838 108.036C258.28 109.248 256.928 110.118 256.815 109.983C256.712 109.849 257.888 108.751 259.446 107.539C261.004 106.327 262.356 105.457 262.469 105.592Z" fill="#263238"/>
<path d="M243.888 52.8999L245.487 53.1381L249.677 48.9949L250.131 45.929C250.131 45.929 252.628 46.1568 251.73 50.1239C250.843 54.1014 251.307 53.1174 251.307 53.1174C251.307 53.1174 256.559 53.9253 256.93 54.4328C257.199 54.7954 256.6 59.8293 256.249 62.5535C256.074 63.9207 255.011 65.0705 253.639 65.1947C253.443 65.2155 253.247 65.2155 253.061 65.1844C251.751 64.9876 245.209 62.9574 245.209 62.9574L242.443 62.5431L243.878 52.8999H243.888Z" fill="#263238"/>
<path d="M239.442 51.3677L238.854 62.026L241.598 62.4403L243.136 52.1342L239.442 51.3677Z" fill="#263238"/>
<path d="M231.847 96.0835C231.847 96.0835 228.999 92.2511 223.995 94.3123C219.259 96.27 220.146 101.718 220.146 101.718C220.146 101.718 210.529 101.553 207.32 95.4413C207.32 95.4413 204.751 100.434 208.765 103.811L206.515 103.168C206.515 103.168 205.556 108.637 210.694 109.601H208.29C208.29 109.601 209.25 114.593 213.583 114.272C213.583 114.272 213.098 117.172 205.246 117.007C205.246 117.007 217.112 125.055 227.049 115.878C235.066 108.472 233.622 100.589 233.622 100.589L236.666 97.2126L233.777 98.0205L235.541 94.6438L231.857 96.0939L231.847 96.0835Z" fill="#455A64"/>
<path d="M239.224 248.78C240.844 247.423 243.083 246.957 245.178 247.216C247.273 247.475 249.233 248.397 250.998 249.557C254.403 251.805 257.024 255.72 258.798 259.407C254.599 261.117 249.615 259.47 247.128 258.475C243.207 256.901 237.078 251.67 239.235 248.78" fill="url(#paint8_linear_34_11801)"/>
<path d="M266.547 258.879C264.257 258.33 262.441 256.341 261.842 254.052C261.233 251.763 261.749 249.267 262.967 247.247C263.534 246.315 264.339 245.403 265.423 245.248C266.434 245.103 267.445 245.693 268.033 246.522C268.621 247.351 268.859 248.386 268.952 249.402C269.271 252.892 268.952 256.331 266.547 258.869" fill="url(#paint9_linear_34_11801)"/>
<path d="M275.659 268.616C275.659 268.616 275.69 268.771 275.246 268.44C274.802 268.108 274.173 267.621 273.42 266.99C271.913 265.726 269.839 263.903 268.095 261.407C266.352 258.9 265.526 256.166 265.444 254.166C265.392 253.172 265.475 252.354 265.578 251.815C265.691 251.266 265.794 250.976 265.815 250.987C265.908 250.997 265.567 252.198 265.763 254.146C265.929 256.083 266.775 258.703 268.467 261.148C270.169 263.592 272.181 265.426 273.626 266.751C275.081 268.067 275.69 268.574 275.648 268.626L275.659 268.616Z" fill="#263238"/>
<path d="M275.453 268.782C274.576 268.315 273.152 267.497 271.769 266.762C268.9 265.239 264.938 263.136 260.522 260.868C256.106 258.61 252.092 256.611 249.172 255.182C247.768 254.488 246.613 253.908 245.725 253.473C244.91 253.069 244.466 252.82 244.487 252.799C244.497 252.768 244.972 252.955 245.808 253.317C246.644 253.68 247.841 254.218 249.316 254.892C252.267 256.248 256.312 258.206 260.728 260.464C265.145 262.733 269.096 264.877 271.924 266.482C273.337 267.28 274.761 268.16 275.545 268.626" fill="#263238"/>
<path d="M265.661 266.358C260.842 265.156 255.477 266.482 251.752 269.776C250.803 270.615 249.895 271.858 250.307 273.049C250.72 274.25 252.206 274.654 253.475 274.685C258.737 274.841 263.938 271.454 265.929 266.554" fill="url(#paint10_linear_34_11801)"/>
<path d="M256.044 270.066C256.044 270.066 256.24 269.848 256.663 269.517C256.869 269.351 257.127 269.154 257.447 268.958C257.767 268.761 258.118 268.512 258.551 268.305C259.376 267.849 260.429 267.414 261.626 267.041C262.833 266.699 264.195 266.43 265.64 266.347C267.095 266.275 268.477 266.389 269.715 266.596C270.954 266.834 272.037 267.145 272.914 267.518C273.358 267.673 273.74 267.88 274.08 268.046C274.421 268.201 274.699 268.367 274.926 268.512C275.38 268.792 275.618 268.958 275.597 268.989C275.556 269.071 274.555 268.45 272.801 267.829C271.924 267.507 270.85 267.228 269.643 267.021C268.426 266.845 267.084 266.741 265.671 266.813C264.257 266.896 262.926 267.145 261.739 267.456C260.563 267.797 259.521 268.191 258.685 268.605C257.013 269.424 256.085 270.138 256.033 270.066H256.044Z" fill="#263238"/>
<path d="M275.535 333.29C275.38 333.29 275.246 265.973 275.246 182.954C275.246 99.9354 275.37 32.6086 275.535 32.6086C275.7 32.6086 275.824 99.9043 275.824 182.954C275.824 266.004 275.7 333.29 275.535 333.29Z" fill="#263238"/>
<path d="M326.312 206.716C326.312 206.716 326.147 206.84 325.796 207.026C325.394 207.233 324.878 207.503 324.269 207.814C322.856 208.507 320.926 209.46 318.584 210.621C313.786 212.982 307.13 216.214 299.98 220.129C292.808 224.024 286.545 227.96 282.232 231.119C281.138 231.885 280.189 232.631 279.353 233.294C278.507 233.936 277.795 234.506 277.238 235.013C276.701 235.459 276.268 235.821 275.917 236.122C275.608 236.37 275.443 236.495 275.432 236.484C275.422 236.474 275.556 236.319 275.845 236.039C276.175 235.718 276.588 235.324 277.093 234.848C277.63 234.32 278.321 233.719 279.157 233.056C279.972 232.372 280.911 231.595 281.995 230.808C286.267 227.556 292.52 223.547 299.711 219.642C306.883 215.717 313.569 212.537 318.419 210.268C320.792 209.181 322.742 208.28 324.176 207.627C324.816 207.347 325.332 207.12 325.755 206.933C326.116 206.778 326.312 206.705 326.323 206.726L326.312 206.716Z" fill="#263238"/>
<path d="M325.632 127.726C325.725 127.851 314.561 136.396 300.693 146.795C286.825 157.205 275.506 165.543 275.413 165.409C275.32 165.284 286.484 156.739 300.352 146.329C314.22 135.919 325.54 127.592 325.632 127.716V127.726Z" fill="#263238"/>
<path d="M275.701 150.078C275.701 150.078 275.051 149.809 273.926 149.239C272.801 148.669 271.192 147.82 269.221 146.732C265.269 144.568 259.883 141.45 254.073 137.783C248.264 134.106 243.136 130.584 239.483 127.943C237.657 126.628 236.192 125.54 235.201 124.763C234.2 123.997 233.664 123.551 233.684 123.52C233.705 123.489 234.293 123.872 235.325 124.577C236.439 125.343 237.915 126.369 239.71 127.601C243.414 130.149 248.574 133.619 254.373 137.286C260.172 140.953 265.516 144.112 269.407 146.37C271.295 147.458 272.853 148.359 274.019 149.032C275.113 149.664 275.701 150.026 275.68 150.068L275.701 150.078Z" fill="#263238"/>
<path d="M275.825 212.401C275.825 212.401 275.587 212.287 275.154 212.018C274.679 211.718 274.06 211.324 273.297 210.827C271.635 209.75 269.324 208.258 266.486 206.425C260.729 202.706 252.742 197.641 243.807 192.234C234.86 186.827 226.668 182.104 220.704 178.728C217.763 177.07 215.369 175.713 213.635 174.74C212.841 174.284 212.212 173.921 211.727 173.642C211.293 173.383 211.066 173.238 211.077 173.228C211.077 173.207 211.324 173.321 211.778 173.538C212.273 173.797 212.934 174.129 213.739 174.543C215.441 175.423 217.887 176.728 220.889 178.365C226.905 181.649 235.139 186.32 244.085 191.727C253.031 197.144 260.997 202.261 266.693 206.073C269.541 207.968 271.831 209.532 273.41 210.63C274.153 211.158 274.751 211.583 275.216 211.904C275.629 212.204 275.835 212.36 275.825 212.381V212.401Z" fill="#263238"/>
<path d="M307.719 281.8C307.781 281.945 306.646 282.308 295.574 286.834C284.502 291.371 275.484 294.924 275.422 294.779C275.36 294.634 284.286 290.843 295.357 286.306C306.429 281.769 307.657 281.655 307.719 281.8Z" fill="#263238"/>
<path d="M250.988 196.212C250.988 196.212 250.647 195.829 250.121 195.062C249.595 194.306 248.873 193.188 248.026 191.768C246.334 188.941 244.209 184.88 242.496 180.126C240.793 175.372 239.885 170.866 239.483 167.583C239.287 165.946 239.163 164.61 239.142 163.688C239.101 162.766 239.101 162.259 239.142 162.248C239.184 162.248 239.256 162.756 239.369 163.667C239.462 164.579 239.638 165.905 239.896 167.52C240.401 170.763 241.361 175.206 243.043 179.929C244.735 184.642 246.799 188.692 248.388 191.561C249.192 192.991 249.853 194.151 250.327 194.938C250.792 195.736 251.039 196.181 250.998 196.202L250.988 196.212Z" fill="#263238"/>
<path d="M249.493 178.075C249.658 178.158 248.12 180.685 247.553 184.197C246.934 187.708 247.553 190.598 247.367 190.619C247.243 190.681 246.356 187.739 246.985 184.093C247.584 180.447 249.389 177.961 249.493 178.065V178.075Z" fill="#263238"/>
<path d="M234.314 212.723C234.314 212.723 234.531 212.35 235.006 211.739C235.233 211.428 235.532 211.055 235.924 210.662C236.306 210.258 236.708 209.781 237.245 209.325C238.246 208.362 239.556 207.347 241.104 206.353C242.672 205.389 244.478 204.467 246.48 203.742C248.482 203.038 250.473 202.613 252.289 202.365C254.116 202.158 255.777 202.116 257.159 202.23C257.851 202.251 258.47 202.365 259.017 202.437C259.564 202.499 260.028 202.603 260.399 202.696C261.153 202.872 261.565 202.986 261.555 203.028C261.534 203.142 259.863 202.738 257.139 202.644C255.777 202.582 254.146 202.665 252.361 202.893C250.576 203.162 248.636 203.597 246.676 204.281C244.715 204.996 242.941 205.876 241.393 206.798C239.866 207.751 238.545 208.714 237.523 209.626C235.46 211.428 234.428 212.795 234.335 212.723H234.314Z" fill="#263238"/>
<path d="M330.885 152.057C330.833 152.161 329.017 151.218 325.901 150.151C324.353 149.613 322.455 149.084 320.329 148.639C318.203 148.225 315.83 147.883 313.333 147.759C310.826 147.655 308.442 147.759 306.275 147.976C304.119 148.225 302.189 148.566 300.59 148.96C297.391 149.727 295.482 150.493 295.451 150.389C295.441 150.348 295.905 150.141 296.762 149.799C297.185 149.623 297.721 149.416 298.351 149.219C298.98 149.022 299.682 148.763 300.497 148.577C302.096 148.131 304.047 147.748 306.224 147.469C308.411 147.22 310.826 147.096 313.364 147.21C315.902 147.344 318.296 147.696 320.443 148.152C322.589 148.639 324.487 149.209 326.035 149.799C326.819 150.068 327.5 150.389 328.109 150.648C328.718 150.897 329.224 151.156 329.636 151.373C330.462 151.798 330.905 152.057 330.885 152.088V152.057Z" fill="#263238"/>
<path d="M298.772 201.971C298.772 201.971 298.834 202.313 298.834 202.924C298.834 203.535 298.803 204.426 298.71 205.514C298.524 207.689 298.019 210.693 296.997 213.883C295.976 217.073 294.645 219.808 293.53 221.693C292.973 222.635 292.498 223.381 292.137 223.868C291.776 224.365 291.57 224.624 291.528 224.603C291.456 224.552 292.168 223.412 293.179 221.496C294.191 219.58 295.439 216.856 296.45 213.707C297.451 210.558 298.019 207.616 298.308 205.462C298.597 203.318 298.679 201.971 298.772 201.971Z" fill="#263238"/>
<path d="M313.539 61.8615C313.642 61.9858 305.212 69.081 294.718 77.7092C284.224 86.3374 275.639 93.2358 275.536 93.1115C275.433 92.9872 283.863 85.892 294.357 77.2638C304.851 68.6356 313.436 61.7372 313.539 61.8615Z" fill="#263238"/>
<path d="M316.623 77.7599C316.581 77.8531 315.219 77.2834 312.929 76.7448C311.783 76.4652 310.39 76.2373 308.843 76.0923C307.295 75.9783 305.572 75.9473 303.787 76.1026C302.002 76.2787 300.32 76.6102 298.813 77.0141C297.317 77.4388 295.986 77.9153 294.913 78.4021C292.756 79.355 291.518 80.163 291.456 80.0801C291.435 80.049 291.724 79.8211 292.282 79.4483C292.828 79.0547 293.664 78.5678 294.737 78.0396C295.81 77.501 297.142 76.9727 298.658 76.517C300.185 76.0819 301.898 75.7194 303.725 75.5433C305.551 75.3879 307.305 75.419 308.884 75.5744C310.463 75.7505 311.866 76.0198 313.022 76.3616C314.177 76.6827 315.085 77.0141 315.694 77.2938C316.303 77.5631 316.633 77.7288 316.623 77.7703V77.7599Z" fill="#263238"/>
<path d="M330.657 272.366C330.616 268.357 327.335 265.146 323.342 265.188L304.583 265.395C300.589 265.436 297.391 268.73 297.432 272.739L297.535 281.564C297.576 285.572 300.858 288.783 304.851 288.742L323.61 288.534C327.603 288.493 330.802 285.199 330.761 281.191L330.657 272.366ZM318.874 277.358L311.434 281.564C311.114 281.74 310.815 281.512 310.825 282.444L310.732 273.992C310.712 272.314 311.011 272.076 311.341 272.262L318.925 276.509C319.256 276.695 319.204 277.182 318.874 277.369V277.358Z" fill="url(#paint11_linear_34_11801)"/>
<path d="M206.309 157.517C205.432 157.517 204.73 158.232 204.73 159.102C204.73 159.972 205.442 160.686 206.309 160.686C207.176 160.686 207.888 159.972 207.888 159.102C207.888 158.232 207.176 157.517 206.309 157.517ZM199.282 159.547C195.619 159.547 192.647 162.54 192.647 166.207C192.647 169.874 195.629 172.867 199.282 172.867C202.935 172.867 205.917 169.874 205.917 166.207C205.917 162.54 202.935 159.547 199.282 159.547ZM199.282 170.475C196.94 170.475 195.031 168.558 195.031 166.207C195.031 163.856 196.94 161.94 199.282 161.94C201.624 161.94 203.533 163.856 203.533 166.207C203.533 168.558 201.624 170.475 199.282 170.475ZM212.675 160.676C212.675 156.191 209.053 152.555 204.586 152.555H193.906C189.438 152.555 185.816 156.191 185.816 160.676V171.397C185.816 175.882 189.438 179.517 193.906 179.517H204.586C209.053 179.517 212.675 175.882 212.675 171.397V160.676ZM210.137 171.397C210.137 174.483 207.65 176.979 204.575 176.979H193.896C190.821 176.979 188.334 174.483 188.334 171.397V160.676C188.334 157.589 190.821 155.093 193.896 155.093H204.575C207.65 155.093 210.137 157.589 210.137 160.676V171.397Z" fill="url(#paint12_linear_34_11801)"/>
<path d="M254.537 327.231L261.935 371.47H290.373L297.39 327.231H277.145H254.537Z" fill="#263238"/>
<path d="M297.39 327.231H254.537V335.341H297.39V327.231Z" fill="#263238"/>
<path d="M255.889 335.342H296.1L295.419 339.682L255.889 335.342Z" fill="#455A64"/>
<defs>
<linearGradient id="paint0_linear_34_11801" x1="27.9002" y1="360.552" x2="47.825" y2="360.552" gradientUnits="userSpaceOnUse">
<stop stop-color="#8E161A"/>
<stop offset="0.66" stop-color="#D14F41"/>
<stop offset="1" stop-color="#DE8B5C"/>
</linearGradient>
<linearGradient id="paint1_linear_34_11801" x1="128.723" y1="362.655" x2="165.58" y2="362.655" gradientUnits="userSpaceOnUse">
<stop stop-color="#8E161A"/>
<stop offset="0.66" stop-color="#D14F41"/>
<stop offset="1" stop-color="#DE8B5C"/>
</linearGradient>
<linearGradient id="paint2_linear_34_11801" x1="118.018" y1="248.914" x2="135.642" y2="248.914" gradientUnits="userSpaceOnUse">
<stop stop-color="#8E161A"/>
<stop offset="0.66" stop-color="#D14F41"/>
<stop offset="1" stop-color="#DE8B5C"/>
</linearGradient>
<linearGradient id="paint3_linear_34_11801" x1="37.8664" y1="254.124" x2="122.674" y2="254.124" gradientUnits="userSpaceOnUse">
<stop stop-color="#8E161A"/>
<stop offset="0.66" stop-color="#D14F41"/>
<stop offset="1" stop-color="#DE8B5C"/>
</linearGradient>
<linearGradient id="paint4_linear_34_11801" x1="102.811" y1="219.673" x2="126.347" y2="219.673" gradientUnits="userSpaceOnUse">
<stop stop-color="#8E161A"/>
<stop offset="0.66" stop-color="#D14F41"/>
<stop offset="1" stop-color="#DE8B5C"/>
</linearGradient>
<linearGradient id="paint5_linear_34_11801" x1="88.6875" y1="250.467" x2="120.623" y2="250.467" gradientUnits="userSpaceOnUse">
<stop stop-color="#8E161A"/>
<stop offset="0.66" stop-color="#D14F41"/>
<stop offset="1" stop-color="#DE8B5C"/>
</linearGradient>
<linearGradient id="paint6_linear_34_11801" x1="303.571" y1="76.8996" x2="319.513" y2="76.8996" gradientUnits="userSpaceOnUse">
<stop stop-color="#8E161A"/>
<stop offset="0.66" stop-color="#D14F41"/>
<stop offset="1" stop-color="#DE8B5C"/>
</linearGradient>
<linearGradient id="paint7_linear_34_11801" x1="259.728" y1="16.3063" x2="290.91" y2="16.3063" gradientUnits="userSpaceOnUse">
<stop stop-color="#8E161A"/>
<stop offset="0.66" stop-color="#D14F41"/>
<stop offset="1" stop-color="#DE8B5C"/>
</linearGradient>
<linearGradient id="paint8_linear_34_11801" x1="238.781" y1="253.648" x2="258.788" y2="253.648" gradientUnits="userSpaceOnUse">
<stop stop-color="#8E161A"/>
<stop offset="0.66" stop-color="#D14F41"/>
<stop offset="1" stop-color="#DE8B5C"/>
</linearGradient>
<linearGradient id="paint9_linear_34_11801" x1="261.584" y1="252.053" x2="269.055" y2="252.053" gradientUnits="userSpaceOnUse">
<stop stop-color="#8E161A"/>
<stop offset="0.66" stop-color="#D14F41"/>
<stop offset="1" stop-color="#DE8B5C"/>
</linearGradient>
<linearGradient id="paint10_linear_34_11801" x1="250.214" y1="270.314" x2="265.94" y2="270.314" gradientUnits="userSpaceOnUse">
<stop stop-color="#8E161A"/>
<stop offset="0.66" stop-color="#D14F41"/>
<stop offset="1" stop-color="#DE8B5C"/>
</linearGradient>
<linearGradient id="paint11_linear_34_11801" x1="297.432" y1="276.965" x2="330.75" y2="276.965" gradientUnits="userSpaceOnUse">
<stop stop-color="#8E161A"/>
<stop offset="0.66" stop-color="#D14F41"/>
<stop offset="1" stop-color="#DE8B5C"/>
</linearGradient>
<linearGradient id="paint12_linear_34_11801" x1="185.806" y1="166.031" x2="212.675" y2="166.031" gradientUnits="userSpaceOnUse">
<stop stop-color="#8E161A"/>
<stop offset="0.66" stop-color="#D14F41"/>
<stop offset="1" stop-color="#DE8B5C"/>
</linearGradient>
</defs>
</svg>
