<svg width="194" height="190" viewBox="0 0 194 190" fill="none" xmlns="http://www.w3.org/2000/svg">
<g clip-path="url(#clip0_81_30774)">
<path opacity="0.3" d="M29.3586 131.464L0 114.544L42.0767 90.2949L71.4405 107.21L29.3586 131.464Z" fill="black"/>
<path d="M29.3586 131.176L0 114.261L42.0767 90.0068L71.4405 106.927L29.3586 131.176Z" fill="url(#paint0_linear_81_30774)"/>
<path d="M45.0387 94.6455H40.3652V97.3398H45.0387V94.6455Z" fill="#F6F6F6"/>
<path d="M64.4416 107.98L48.3682 98.718L49.4289 98.1152L65.4866 107.378L64.4416 107.98Z" fill="#E0DEDC"/>
<path d="M52.2012 103.205L46.3936 99.8606L47.4438 99.2578L53.2567 102.602L52.2012 103.205Z" fill="#E0DEDC"/>
<path d="M38.3066 98.5244H32.4727V101.89H38.3066V98.5244Z" fill="#FFEC7A"/>
<path d="M37.7291 98.8604H33.0557V101.555H37.7291V98.8604Z" fill="url(#paint1_linear_81_30774)"/>
<path d="M57.1262 112.2L41.0527 102.938L42.1082 102.33L58.1712 111.587L57.1262 112.2Z" fill="#E0DEDC"/>
<path d="M51.2454 111.094L39.084 104.081L40.1342 103.473L52.3061 110.486L51.2454 111.094Z" fill="#E0DEDC"/>
<path d="M4.80469 113.768L7.20967 115.157L12.8178 111.923L10.4128 110.534L4.80469 113.768Z" fill="#FDB053"/>
<path d="M8.08691 115.666L10.4971 117.045L14.7505 114.597L12.3508 113.213L8.08691 115.666Z" fill="#FDB053"/>
<path d="M11.374 117.553L13.779 118.942L16.5831 117.322L14.1781 115.938L11.374 117.553Z" fill="#FDB053"/>
<path d="M14.6611 119.451L17.0661 120.835L20.6211 118.785L18.2161 117.401L14.6611 119.451Z" fill="#FDB053"/>
<path d="M17.9424 121.342L20.3474 122.726L23.1567 121.117L20.7464 119.723L17.9424 121.342Z" fill="#FA5C52"/>
<path d="M21.2295 123.23L23.6345 124.624L25.7664 123.398L23.3562 122.009L21.2295 123.23Z" fill="#C84030"/>
<path d="M24.5117 125.127L26.922 126.516L29.0434 125.284L26.6436 123.9L24.5117 125.127Z" fill="#AB281F"/>
<path d="M29.5527 126.014L27.7988 127.025L30.1986 128.409L31.9577 127.403L29.5527 126.014Z" fill="#8A1C14"/>
<path d="M26.4964 101.199L26.9217 100.821L26.7064 100.077L24.417 99.3115V99.993L26.4964 101.199Z" fill="#D8D1C7"/>
<path d="M29.4419 101.198L29.967 100.113L26.4961 100.517V101.198H29.4419Z" fill="#B5AFA7"/>
<path d="M29.4422 100.517H26.4964L24.417 99.3115V97.6183L26.4964 96.418H29.4422L31.5217 97.6183V99.3115L29.4422 100.517Z" fill="#E6E1DD"/>
<path d="M31.5218 99.9982V99.3115L29.4424 100.517V101.199L31.5218 99.9982Z" fill="#A39C95"/>
<path d="M27.6041 99.1171L27.9717 97.2301L27.8771 49.7759L27.0527 49.6396V98.7974L27.6041 99.1171Z" fill="#EFC58B"/>
<path d="M28.3816 99.1171L28.9383 49.6396L27.6045 49.9594V99.1171H28.3816Z" fill="#D9AF6F"/>
<path d="M28.3812 49.9594H27.6041L27.0527 49.6397V49.1889L27.6041 48.8691H28.3812L28.9379 49.1889V49.6397L28.3812 49.9594Z" fill="#F7E6BB"/>
<path d="M28.9375 98.7974V49.6396L28.3809 49.9594V99.1171L28.9375 98.7974Z" fill="#C79D5C"/>
<path d="M28.3818 49.9598L28.9384 49.6348L62.0568 77.3902L61.5055 77.7099L41.604 67.8134L28.3818 49.9598Z" fill="#87102B"/>
<path d="M28.3818 67.2894V49.96L61.5055 77.7101L28.3818 67.2894Z" fill="#FFEC7A"/>
<path d="M30.4824 57.6338V62.4458L32.8034 63.7772L33.402 63.4365V62.0946L33.0029 61.4079L33.402 61.1877V59.9978L32.8034 58.9652L30.4824 57.6338ZM32.8296 62.8337L32.5671 62.9909L31.0495 62.1155V60.7265L32.5881 61.6071L32.8296 62.0369V62.8337ZM32.8296 60.5849L32.3886 60.8418L31.0548 60.0712V58.614L32.5723 59.4894L32.8349 59.9402V60.5849H32.8296Z" fill="url(#paint2_linear_81_30774)"/>
<path d="M34.0586 59.6937V64.5005L34.6257 64.8307V62.5872L35.3346 62.9961L36.4583 65.8791L37.0359 66.2145L35.9175 63.3211L36.5476 63.688L37.141 63.3525V62.1521L36.5476 61.1247L34.0586 59.6885V59.6937ZM36.5738 62.7549L36.327 62.9122L34.6257 61.932V60.6739L36.3165 61.6489L36.5738 62.0892V62.7549Z" fill="url(#paint3_linear_81_30774)"/>
<path d="M39.1203 62.6133L37.6133 66.5499L38.2119 66.9011L38.632 65.7951L40.2283 66.7176L40.6536 68.3059L41.247 68.6466L39.7347 62.9645L39.1256 62.6133H39.1203ZM38.842 65.2604L39.4301 63.735L40.013 65.9366L38.842 65.2604Z" fill="url(#paint4_linear_81_30774)"/>
<path d="M44.0823 68.9559L42.339 64.4689L41.7666 64.1387V68.9454L42.3337 69.2704V65.7898L44.0823 70.2821L44.6494 70.6071V65.8003L44.0823 65.4753V68.9559Z" fill="url(#paint5_linear_81_30774)"/>
<path d="M47.695 67.5564L45.374 66.2197V71.0265L47.695 72.3631L48.2936 72.0277V68.589L47.695 67.5616V67.5564ZM47.7265 71.4248L47.4692 71.5821L45.9464 70.7067V67.2052L47.4692 68.0858L47.7265 68.5366V71.4301V71.4248Z" fill="url(#paint6_linear_81_30774)"/>
<path d="M13.2279 109.46L13.6532 109.083L13.4326 108.339L11.1484 107.573V108.265L13.2279 109.46Z" fill="#D8D1C7"/>
<path d="M16.1681 109.46L16.6985 108.375L13.2275 108.779V109.46H16.1681Z" fill="#B5AFA7"/>
<path d="M16.1684 108.779H13.2279L11.1484 107.573V105.88L13.2279 104.68H16.1684L18.2531 105.88V107.573L16.1684 108.779Z" fill="#E6E1DD"/>
<path d="M18.2526 108.265V107.573L16.168 108.779V109.46L18.2526 108.265Z" fill="#A39C95"/>
<path d="M14.3359 107.374L14.6982 105.497L14.6037 58.0429L13.7793 57.9014V107.059L14.3359 107.374Z" fill="#EFC58B"/>
<path d="M15.1131 107.374L15.6697 57.9014L14.3359 58.2211V107.374H15.1131Z" fill="#D9AF6F"/>
<path d="M15.1131 58.2212H14.3359L13.7793 57.9014V57.4506L14.3359 57.1309H15.1131L15.6697 57.4506V57.9014L15.1131 58.2212Z" fill="#F7E6BB"/>
<path d="M15.6699 107.059V57.9014L15.1133 58.2211V107.374L15.6699 107.059Z" fill="#C79D5C"/>
<path d="M15.1133 58.2215L15.6699 57.8965L48.7883 85.6519L48.2316 85.9769L28.3302 76.0751L15.1133 58.2215Z" fill="#D66B24"/>
<path d="M15.1133 75.5511V58.2217L48.2316 85.9771L15.1133 75.5511Z" fill="#F6F6F6"/>
<path d="M17.2139 65.8955V70.7075L19.5296 72.0389L20.1282 71.7034V70.3615L19.7344 69.6749L20.1282 69.4547V68.2648L19.5296 67.2322L17.2139 65.8955ZM19.5558 71.1006L19.2985 71.2579L17.7757 70.3773V68.9882L19.3143 69.8688L19.5558 70.3039V71.1006ZM19.5558 68.8466L19.12 69.1035L17.7757 68.333V66.8757L19.2985 67.7563L19.5558 68.2071V68.8466Z" fill="url(#paint7_linear_81_30774)"/>
<path d="M20.79 67.9609V72.7729L21.3624 73.0979V70.8544L22.0713 71.2633L23.1898 74.1515L23.7674 74.4818L22.6489 71.5935L23.279 71.9604L23.8724 71.625V70.4246L23.279 69.3972L20.79 67.9609ZM23.3053 71.0222L23.0637 71.1794L21.3677 70.1992V68.9412L23.0532 69.9161L23.3105 70.3564V71.0222H23.3053Z" fill="url(#paint8_linear_81_30774)"/>
<path d="M25.857 70.875L24.3447 74.8116L24.9433 75.1576L25.3687 74.0568L26.965 74.9793L27.3851 76.5676L27.9785 76.9083L26.4662 71.2262L25.857 70.875ZM25.5787 73.5221L26.1668 71.9967L26.7497 74.1983L25.5787 73.5221Z" fill="url(#paint9_linear_81_30774)"/>
<path d="M30.8138 77.2229L29.0704 72.7306L28.498 72.4004V77.2071L29.0652 77.5374V74.0516L30.8138 78.5438L31.3809 78.8688V74.062L30.8138 73.7371V77.2229Z" fill="url(#paint10_linear_81_30774)"/>
<path d="M34.4267 75.8187L32.1162 74.4873V79.294L34.4267 80.6255L35.0253 80.2847V76.8514L34.4267 75.8187ZM34.4582 79.6872L34.1956 79.8444L32.6781 78.969V75.4728L34.1956 76.3534L34.4582 76.8042V79.6977V79.6872Z" fill="url(#paint11_linear_81_30774)"/>
<path opacity="0.3" d="M69.0509 138.384L22.1328 111.342L58.9427 90.1279L105.861 117.17L69.0457 138.389L69.0509 138.384Z" fill="black"/>
<path d="M69.0239 138.095L105.319 117.175V116.127L93.3835 121.788L76.9215 131.596L67.5273 136.193L69.0239 138.095Z" fill="#CC934C"/>
<path d="M22.752 111.435L69.0242 138.095V137.052L59.3623 127.124L40.3115 115.954L22.752 110.387V111.435Z" fill="#E3BD5E"/>
<path d="M69.0238 137.052L22.7568 110.387L59.0573 89.4668L105.324 116.132L69.0238 137.057V137.052Z" fill="#FBE979"/>
<path d="M95.4536 115.336L94.792 114.628L96.6036 113.585L97.5698 114.141L95.8054 115.493L95.4536 115.336Z" fill="#F4EFE9"/>
<path d="M97.5691 114.14L96.5977 113.585L97.8789 111.378H98.8504L99.0446 111.96L97.5691 114.14Z" fill="#E6E1DD"/>
<path d="M98.8504 111.929L97.8789 111.378V109.292H98.8504L99.0446 109.722L98.8504 111.929Z" fill="#D8D1C7"/>
<path d="M93.71 115.251L92.749 114.701V114.334H93.71L94.025 114.895L93.71 115.251Z" fill="#D8D1C7"/>
<path d="M98.8507 109.847V111.928L97.5695 114.14L95.7579 115.189L94.4819 114.455L93.71 114.895V115.252L95.4428 116.248L97.8845 114.843L99.6121 111.855V109.04L98.8507 109.847Z" fill="#A39C95"/>
<path d="M89.1522 111.698L88.4854 110.995L90.297 109.952L91.2579 110.508L89.4988 111.855L89.1522 111.698Z" fill="#F4EFE9"/>
<path d="M91.2578 110.508L90.2969 109.952L91.5729 107.74H92.5391L92.7386 108.322L91.2578 110.508Z" fill="#E6E1DD"/>
<path d="M92.5385 108.296L91.5723 107.74V105.648H92.5385L92.738 106.089L92.5385 108.296Z" fill="#D8D1C7"/>
<path d="M87.4086 111.618L86.4424 111.063V110.701H87.4086L87.7184 111.257L87.4086 111.618Z" fill="#D8D1C7"/>
<path d="M92.5385 106.214V108.295L91.2572 110.508L89.4509 111.551L88.1749 110.817L87.4082 111.257V111.619L89.1305 112.615L91.5723 111.21L93.3051 108.222V105.407L92.5385 106.214Z" fill="#A39C95"/>
<path d="M82.846 108.065L82.1738 107.363L83.9854 106.314L84.9569 106.87L83.1925 108.222L82.846 108.065Z" fill="#F4EFE9"/>
<path d="M84.9568 106.87L83.9854 106.314L85.2614 104.107H86.2328L86.4323 104.689L84.9568 106.87Z" fill="#E6E1DD"/>
<path d="M86.2322 104.658L85.2607 104.107V102.016H86.2322L86.4317 102.445L86.2322 104.658Z" fill="#D8D1C7"/>
<path d="M81.1023 107.986L80.1309 107.425V107.063H81.1023L81.4121 107.624L81.1023 107.986Z" fill="#D8D1C7"/>
<path d="M86.2328 102.577V104.658L84.9568 106.87L83.1399 107.918L81.8692 107.179L81.1025 107.625V107.986L82.8249 108.977L85.2719 107.567L86.9942 104.584V101.77L86.2328 102.577Z" fill="#A39C95"/>
<path d="M76.5341 104.428L75.8672 103.72L77.6788 102.677L78.6397 103.243L76.8806 104.585L76.5341 104.428Z" fill="#F4EFE9"/>
<path d="M78.6397 103.243L77.6787 102.677L78.9547 100.47H79.9209L80.1152 101.057L78.6397 103.243Z" fill="#E6E1DD"/>
<path d="M79.9203 101.025L78.9541 100.47V98.3887H79.9203L80.1146 98.8133L79.9203 101.025Z" fill="#D8D1C7"/>
<path d="M74.7904 104.348L73.8242 103.787V103.426H74.7904L75.1055 103.987L74.7904 104.348Z" fill="#D8D1C7"/>
<path d="M79.9203 98.9391V101.025L78.6391 103.243L76.8327 104.28L75.5567 103.541L74.79 103.987V104.349L76.5176 105.345L78.9594 103.935L80.687 100.947V98.1318L79.9203 98.9391Z" fill="#A39C95"/>
<path d="M70.2216 100.795L69.5547 100.092L71.3663 99.0439L72.3377 99.6048L70.5734 100.947L70.2216 100.795Z" fill="#F4EFE9"/>
<path d="M72.3377 99.605L71.3662 99.0441L72.6475 96.832H73.6137L73.8079 97.4191L72.3377 99.605Z" fill="#E6E1DD"/>
<path d="M73.6137 97.387L72.6475 96.8314V94.7451H73.6137L73.8079 95.1802L73.6137 97.387Z" fill="#D8D1C7"/>
<path d="M68.4838 100.716L67.5176 100.155V99.793H68.4838L68.7936 100.354L68.4838 100.716Z" fill="#D8D1C7"/>
<path d="M73.6137 95.301V97.3873L72.3377 99.6046L70.5261 100.642L69.2448 99.9086L68.4834 100.354V100.716L70.211 101.701L72.6475 100.296L74.3803 97.3139V94.499L73.6137 95.301Z" fill="#A39C95"/>
<path d="M63.9155 97.157L63.2539 96.4494L65.0655 95.4062L66.0265 95.9671L64.2621 97.3195L63.9155 97.157Z" fill="#F4EFE9"/>
<path d="M66.0264 95.9669L65.0654 95.406L66.3414 93.1992H67.3076L67.5019 93.7811L66.0264 95.9669Z" fill="#E6E1DD"/>
<path d="M67.308 93.7499L66.3418 93.1995V91.1133H67.308L67.5023 91.5483L67.308 93.7499Z" fill="#D8D1C7"/>
<path d="M62.1722 97.0778L61.2061 96.5222V96.1553H62.1722L62.4873 96.7214L62.1722 97.0778Z" fill="#D8D1C7"/>
<path d="M67.3074 91.6686V93.7496L66.0261 95.9669L64.2198 97.01L62.9385 96.2761L62.1719 96.7217V97.0781L63.9047 98.0688L66.3465 96.6588L68.0688 93.6762V90.8613L67.3074 91.6686Z" fill="#A39C95"/>
<path d="M23.9023 110.387L69.0246 136.392L75.7774 131.643L23.9023 108.296V110.387Z" fill="#F4EFE9"/>
<path d="M69.0246 134.3L78.8283 129.913L98.2729 118.433L104.175 114.041L59.0529 88.0361L23.9023 108.296L69.0246 134.3Z" fill="url(#paint12_linear_81_30774)"/>
<path d="M69.0244 136.392L104.175 116.127V114.041L69.0244 134.301V136.392Z" fill="#D1D1D1"/>
<path d="M56.0914 105.418L47.1016 100.234L56.0966 95.0498L65.0864 100.234L56.0914 105.418Z" fill="#F6F6F6"/>
<path d="M43.7304 112.542L34.7354 107.363L43.7304 102.179L52.7202 107.363L43.7304 112.542Z" fill="#FFEC7A"/>
<path d="M68.3948 113.218L64.8976 113.207L58.1133 109.297L70.3377 102.252L77.1221 106.162L77.1378 108.18L74.1132 109.926L71.808 109.915V111.252L68.4001 113.218H68.3948ZM67.4234 111.86L69.445 110.697L69.466 109.863L64.9712 107.274L61.4424 109.307L65.8953 111.876L67.4234 111.865V111.86ZM73.1418 108.568L74.7749 107.625L74.7906 106.744L70.3377 104.176L66.641 106.309L70.5635 108.568H73.1418Z" fill="#FFEC7A"/>
<path d="M69.1194 125.447L65.6222 125.437L58.8379 121.526L71.0623 114.481L77.8467 118.392L77.8624 120.41L74.8378 122.155L72.5326 122.145V123.482L69.1247 125.447H69.1194ZM68.148 124.09L70.1697 122.926L70.1907 122.093L65.6958 119.503L62.1671 121.537L66.6199 124.105L68.148 124.095V124.09ZM73.8664 120.798L75.4995 119.854L75.5152 118.974L71.0623 116.405L67.3656 118.539L71.2881 120.798H73.8664Z" fill="#F6F6F6"/>
<path d="M93.9931 111.761H93.2002L92.6436 112.08V112.531L93.2002 112.856H93.9931L94.5497 112.531V112.08L93.9931 111.761Z" fill="#685750"/>
<path d="M86.8994 108.128L86.3428 108.442V108.898L86.8994 109.223H87.6818L88.2384 108.898V108.442L87.6818 108.128H86.8994Z" fill="#685750"/>
<path d="M80.5925 104.49L80.0254 104.81V105.266L80.5925 105.586H81.3802L81.9315 105.266V104.81L81.3802 104.49H80.5925Z" fill="#685750"/>
<path d="M74.2812 100.857L73.7246 101.172V101.633L74.2812 101.948H75.0689L75.6255 101.633V101.172L75.0689 100.857H74.2812Z" fill="#685750"/>
<path d="M67.9795 97.2246L67.4229 97.5391V97.9952L67.9795 98.3149H68.7619L69.3185 97.9952V97.5391L68.7619 97.2246H67.9795Z" fill="#685750"/>
<path d="M61.6679 93.5869L61.1113 93.9067V94.3627L61.6679 94.6825H62.4556L63.0122 94.3627V93.9067L62.4556 93.5869H61.6679Z" fill="#685750"/>
<path d="M93.71 112.799L92.749 112.243V111.887H93.71L94.025 112.442L93.71 112.799Z" fill="#D8D1C7"/>
<path d="M93.71 112.443L92.749 111.887L94.4714 108.899H95.4428L95.7684 109.455L93.71 112.443Z" fill="#E6E1DD"/>
<path d="M95.4431 109.455L94.4717 108.899L96.9187 107.489L97.8849 108.045L96.1205 109.397L95.4431 109.455Z" fill="#F4EFE9"/>
<path d="M99.6121 109.041L97.8845 108.045L95.4428 109.455L93.71 112.443V112.799L94.4819 112.359L95.7579 110.152L97.5695 109.109L98.8507 109.848L99.3181 109.701L99.6121 109.041Z" fill="#A39C95"/>
<path d="M87.4086 109.165L86.4424 108.61V108.248H87.4086L87.7184 108.804L87.4086 109.165Z" fill="#D8D1C7"/>
<path d="M87.4086 108.804L86.4424 108.248L88.1647 105.266H89.1309L89.4617 105.816L87.4086 108.804Z" fill="#E6E1DD"/>
<path d="M89.1312 105.816L88.165 105.266L90.612 103.851L91.573 104.411L89.8139 105.759L89.1312 105.816Z" fill="#F4EFE9"/>
<path d="M93.3051 105.407L91.5723 104.411L89.1305 105.816L87.4082 108.804V109.165L88.1749 108.725L89.4509 106.518L91.2572 105.475L92.5385 106.214L93.0058 106.068L93.3051 105.407Z" fill="#A39C95"/>
<path d="M81.1023 105.534L80.1309 104.973V104.611H81.1023L81.4121 105.172L81.1023 105.534Z" fill="#D8D1C7"/>
<path d="M81.1023 105.173L80.1309 104.612L81.8585 101.624H82.8246L83.1607 102.18L81.1023 105.173Z" fill="#E6E1DD"/>
<path d="M82.8246 102.179L81.8584 101.624L84.3054 100.219L85.2716 100.769L83.5072 102.122L82.8246 102.179Z" fill="#F4EFE9"/>
<path d="M86.9942 101.771L85.2719 100.77L82.8249 102.18L81.1025 105.173V105.534L81.8692 105.089L83.1399 102.882L84.9568 101.839L86.2328 102.578L86.7002 102.426L86.9942 101.771Z" fill="#A39C95"/>
<path d="M74.7904 101.891L73.8242 101.341V100.974H74.7904L75.1055 101.535L74.7904 101.891Z" fill="#D8D1C7"/>
<path d="M74.7904 101.534L73.8242 100.973L75.5518 97.9854H76.518L76.8541 98.5515L74.7904 101.534Z" fill="#E6E1DD"/>
<path d="M76.5179 98.5516L75.5518 97.9855L77.9935 96.5859L78.9597 97.1363L77.2006 98.4887L76.5179 98.5516Z" fill="#F4EFE9"/>
<path d="M80.687 98.1327L78.9594 97.1367L76.5176 98.552L74.79 101.535V101.891L75.5567 101.451L76.8327 99.2492L78.6391 98.2008L79.9203 98.9399L80.3929 98.7931L80.687 98.1327Z" fill="#A39C95"/>
<path d="M68.4838 98.2581L67.5176 97.7025V97.3408H68.4838L68.7936 97.9017L68.4838 98.2581Z" fill="#D8D1C7"/>
<path d="M68.4838 97.9022L67.5176 97.3413L69.2399 94.3535H70.2114L70.5422 94.9091L68.4838 97.9022Z" fill="#E6E1DD"/>
<path d="M70.2117 94.9087L69.2402 94.353L71.682 92.9482L72.6482 93.5039L70.8943 94.8458L70.2117 94.9087Z" fill="#F4EFE9"/>
<path d="M74.3803 94.4998L72.6475 93.5039L70.211 94.9087L68.4834 97.9018V98.2582L69.2448 97.8127L70.5261 95.6059L72.3377 94.568L73.6137 95.3018L74.081 95.1551L74.3803 94.4998Z" fill="#A39C95"/>
<path d="M62.1722 94.6204L61.2061 94.0701V93.7031H62.1722L62.4873 94.264L62.1722 94.6204Z" fill="#D8D1C7"/>
<path d="M62.1722 94.2642L61.2061 93.7033L62.9389 90.7207H63.9051L64.2359 91.2763L62.1722 94.2642Z" fill="#E6E1DD"/>
<path d="M63.9047 91.2759L62.9385 90.7202L65.375 89.3154L66.3464 89.8711L64.5821 91.213L63.9047 91.2759Z" fill="#F4EFE9"/>
<path d="M68.0688 90.8618L66.3465 89.8711L63.9047 91.2759L62.1719 94.2637V94.6202L62.9385 94.1799L64.2198 91.9731L66.0261 90.9299L67.3074 91.669L67.7695 91.5223L68.0688 90.8618Z" fill="#A39C95"/>
<path opacity="0.3" d="M45.4948 159.215L43.0478 159.058L31.5218 164.368L41.5565 154.429L40.9264 153.056L31.485 149.89L29.101 150.251L10.8379 168.346L11.4628 169.714L16.3567 171.355L14.6764 172.125L14.4034 173.535L21.2245 178.458L23.6767 178.61L52.0429 165.542L52.3159 164.132L45.4948 159.215Z" fill="black"/>
<path d="M31.485 149.638L29.101 149.999L10.8379 168.094L11.4628 169.462L20.9094 172.628L23.2881 172.267L41.5565 154.172L40.9264 152.804L31.485 149.638Z" fill="url(#paint13_linear_81_30774)"/>
<path d="M36.5317 158.413L25.3154 154.654L28.7601 151.247L39.9764 155.005L36.5317 158.413Z" fill="#FFEC7A"/>
<path d="M32.2725 162.632L21.0615 158.868L24.501 155.461L35.7172 159.225L32.2725 162.632Z" fill="#B31630"/>
<path d="M28.019 166.846L16.8027 163.083L20.2422 159.681L31.4584 163.439L28.019 166.846Z" fill="#87102B"/>
<path d="M23.7612 171.066L12.5449 167.303L15.9844 163.896L27.2059 167.659L23.7612 171.066Z" fill="#6E081F"/>
<path d="M45.4948 158.963L43.0478 158.806L14.6764 171.874L14.4033 173.284L21.2244 178.206L23.6767 178.358L52.0428 165.29L52.3159 163.885L45.4948 158.963Z" fill="url(#paint14_linear_81_30774)"/>
<path d="M44.7072 168.199L36.5996 162.359L41.9452 159.896L50.0475 165.735L44.7072 168.199Z" fill="#FFEC7A"/>
<path d="M38.0913 171.25L29.9941 165.4L35.3345 162.941L43.4368 168.786L38.0913 171.25Z" fill="#F6F6F6"/>
<path d="M31.4793 174.29L23.377 168.451L28.7225 165.987L36.8249 171.827L31.4793 174.29Z" fill="#FF9F3D"/>
<path d="M24.869 177.335L16.7666 171.496L22.1069 169.032L30.2145 174.872L24.869 177.335Z" fill="#FF8E1C"/>
<path d="M143.721 139.961L142.592 139.317V138.986L143.721 139.636V139.961Z" fill="#EFCFA3"/>
<path opacity="0.3" d="M98.2051 124.273L146.231 151.95L148.095 150.87L100.074 123.193L98.2051 124.273Z" fill="black"/>
<path d="M114.972 89.7507L113.785 91.8055V92.4554L114.694 92.9796L115.886 90.2801L115.518 89.6982L114.972 89.7507Z" fill="#E6E1DD"/>
<path d="M115.885 90.2803L114.693 92.3299V92.9799L114.909 92.8541L116.437 90.2227L116.116 90.0654L115.885 90.2803Z" fill="#A39C95"/>
<path d="M121.425 93.4723L120.238 95.5219V96.1719L121.152 96.6961L122.333 93.9965L121.971 93.4199L121.425 93.4723Z" fill="#E6E1DD"/>
<path d="M122.334 93.9962L121.152 96.0457V96.6957L121.368 96.5751L122.885 93.9385L122.565 93.7812L122.334 93.9962Z" fill="#A39C95"/>
<path d="M127.879 97.1891L126.692 99.2439V99.8939L127.601 100.418L128.793 97.7186L128.43 97.1367L127.879 97.1891Z" fill="#E6E1DD"/>
<path d="M128.793 97.7182L127.601 99.7678V100.418L127.821 100.292L129.344 97.6605L129.024 97.498L128.793 97.7182Z" fill="#A39C95"/>
<path d="M134.333 100.911L133.141 102.966V103.61L134.054 104.135L135.241 101.435L134.879 100.858L134.333 100.911Z" fill="#E6E1DD"/>
<path d="M135.241 101.435L134.055 103.489V104.134L134.275 104.014L135.798 101.382L135.472 101.22L135.241 101.435Z" fill="#A39C95"/>
<path d="M147.119 150.619L146.374 151.049L144.861 129.096L146.374 115.116L147.119 114.691V150.619Z" fill="#D1D1D1"/>
<path d="M146.373 151.049L99.1875 123.859V87.9268L146.373 115.116V151.049Z" fill="url(#paint15_linear_81_30774)"/>
<path d="M108.177 96.8066V104.858L112.057 107.096L113.06 106.53V104.287L112.399 103.139L113.06 102.767V100.775L112.057 99.0501L108.177 96.8171V96.8066ZM112.11 105.519L111.679 105.781L109.132 104.313V101.986L111.7 103.469L112.11 104.192V105.524V105.519ZM112.11 101.75L111.375 102.179L109.132 100.885V98.4473L111.679 99.915L112.11 100.67V101.744V101.75Z" fill="#FFEC7A"/>
<path d="M114.168 100.261V108.317L115.119 108.863V105.109L116.306 105.796L118.185 110.634L119.152 111.19L117.272 106.357L118.332 106.965L119.325 106.404V104.386L118.332 102.667L114.163 100.266L114.168 100.261ZM118.38 105.392L117.97 105.655L115.124 104.014V101.907L117.96 103.537L118.385 104.271V105.387L118.38 105.392Z" fill="#F6F6F6"/>
<path d="M122.648 105.146L120.117 111.741L121.115 112.323L121.824 110.472L124.497 112.013L125.205 114.676L126.198 115.247L123.662 105.734L122.643 105.146H122.648ZM122.181 109.581L123.163 107.028L124.145 110.713L122.181 109.581Z" fill="#F6F6F6"/>
<path d="M130.956 115.777L128.036 108.255L127.075 107.699V115.756L128.031 116.306V110.462L130.956 117.989L131.906 118.539V110.483L130.956 109.937V115.777Z" fill="#F6F6F6"/>
<path d="M137.01 113.429L133.13 111.19V119.247L137.01 121.48L138.013 120.914V115.153L137.01 113.429ZM137.063 119.908L136.632 120.17L134.086 118.702V112.842L136.632 114.309L137.063 115.064V119.908Z" fill="#F6F6F6"/>
<path d="M108.177 108.396V116.453L112.057 118.691L113.06 118.125V115.877L112.399 114.734L113.06 114.362V112.37L112.057 110.645L108.177 108.407V108.396ZM112.11 117.114L111.679 117.376L109.132 115.908V113.581L111.7 115.059L112.11 115.777V117.108V117.114ZM112.11 113.345L111.375 113.775L109.132 112.485V110.048L111.679 111.515L112.11 112.27V113.345Z" fill="#F6F6F6"/>
<path d="M114.168 111.851V119.902L115.119 120.452V116.699L116.306 117.386L118.185 122.224L119.152 122.78L117.272 117.942L118.332 118.555L119.325 117.989V115.976L118.332 114.251L114.163 111.851H114.168ZM118.38 116.977L117.97 117.239L115.124 115.598V113.491L117.96 115.121L118.385 115.855V116.972L118.38 116.977Z" fill="#FFEC7A"/>
<path d="M122.648 116.736L120.117 123.331L121.115 123.907L121.824 122.062L124.497 123.603L125.205 126.266L126.198 126.837L123.662 117.323L122.643 116.736H122.648ZM122.181 121.171L123.163 118.613L124.145 122.303L122.181 121.171Z" fill="#FFEC7A"/>
<path d="M130.956 127.367L128.036 119.845L127.075 119.289V127.346L128.031 127.891V122.051L130.956 129.579L131.906 130.129V122.072L130.956 121.522V127.367Z" fill="#FFEC7A"/>
<path d="M137.01 125.013L133.13 122.78V130.832L137.01 133.07L138.013 132.504V126.743L137.01 125.013ZM137.063 131.492L136.632 131.754L134.086 130.287V124.426L136.632 125.894L137.063 126.649V131.492Z" fill="#FFEC7A"/>
<path d="M124.329 129.819V134.558L126.613 135.874L127.201 135.543V134.222L126.813 133.546L127.201 133.326V132.152L126.613 131.135L124.329 129.819ZM126.64 134.946L126.382 135.098L124.886 134.238V132.87L126.398 133.74L126.64 134.165V134.951V134.946ZM126.64 132.729L126.204 132.985L124.886 132.225V130.789L126.382 131.654L126.64 132.1V132.729Z" fill="#F6F6F6"/>
<path d="M127.857 131.854V136.592L128.419 136.917V134.71L129.118 135.109L130.226 137.955L130.793 138.285L129.69 135.439L130.315 135.795L130.898 135.465V134.28L130.315 133.269L127.863 131.859L127.857 131.854ZM130.336 134.873L130.094 135.025L128.419 134.06V132.823L130.084 133.783L130.336 134.218V134.873Z" fill="#F6F6F6"/>
<path d="M132.846 134.73L131.36 138.609L131.948 138.95L132.363 137.865L133.939 138.772L134.353 140.339L134.936 140.675L133.45 135.076L132.846 134.73ZM132.573 137.336L133.156 135.836L133.734 138.001L132.573 137.336Z" fill="#F6F6F6"/>
<path d="M137.735 140.98L136.018 136.555L135.451 136.23V140.969L136.013 141.294V137.855L137.735 142.285L138.292 142.61V137.871L137.735 137.546V140.98Z" fill="#F6F6F6"/>
<path d="M141.295 139.596L139.011 138.285V143.024L141.295 144.339L141.888 143.999V140.613L141.295 139.596ZM141.326 143.412L141.069 143.564L139.573 142.699V139.25L141.069 140.115L141.326 140.56V143.412Z" fill="#F6F6F6"/>
<path d="M104.302 118.277V123.016L106.586 124.332L107.174 123.996V122.675L106.786 121.999L107.174 121.779V120.605L106.586 119.588L104.302 118.277ZM106.617 123.404L106.36 123.556L104.864 122.691V121.323L106.376 122.193L106.617 122.618V123.404ZM106.617 121.187L106.182 121.443L104.864 120.683V119.252L106.36 120.117L106.617 120.558V121.192V121.187Z" fill="#FFEC7A"/>
<path d="M107.83 120.312V125.045L108.392 125.37V123.163L109.09 123.567L110.193 126.413L110.765 126.743L109.657 123.897L110.282 124.253L110.87 123.923V122.738L110.282 121.727L107.83 120.317V120.312ZM110.309 123.326L110.067 123.478L108.392 122.513V121.276L110.057 122.235L110.309 122.665V123.32V123.326Z" fill="#FFEC7A"/>
<path d="M112.819 123.188L111.333 127.067L111.921 127.408L112.341 126.318L113.911 127.225L114.326 128.792L114.909 129.133L113.423 123.534L112.819 123.188ZM112.551 125.794L113.124 124.289L113.701 126.459L112.546 125.794H112.551Z" fill="#FFEC7A"/>
<path d="M117.708 129.443L115.991 125.019L115.424 124.688V129.432L115.986 129.752V126.319L117.708 130.743L118.27 131.068V126.324L117.708 126.004V129.443Z" fill="#FFEC7A"/>
<path d="M121.268 128.059L118.983 126.743V131.482L121.268 132.797L121.856 132.467V129.076L121.268 128.059ZM121.299 131.87L121.042 132.022L119.545 131.157V127.708L121.042 128.573L121.299 129.018V131.864V131.87Z" fill="#FFEC7A"/>
<path d="M147.539 108.721L100.363 81.5264L98.6514 82.5118L98.9034 84.7396L127.018 100.04L147.281 112.217L147.539 108.721Z" fill="#FFEC7A"/>
<path d="M145.827 109.701L98.6514 82.5117V88.241L145.827 115.43V109.701Z" fill="#F6F6F6"/>
<path d="M147.539 114.45L145.827 115.43V109.701L147.539 108.721V114.45Z" fill="#FF8E1C"/>
<path d="M132.347 105.324L131.434 104.794V103.777L132.347 104.307V105.324Z" fill="#17435C"/>
<path d="M135.24 101.435L134.332 100.911V98.4365L134.794 98.7405L135.24 98.9607V101.435Z" fill="#D8D1C7"/>
<path d="M135.798 101.382V98.9027L134.275 98.0273L132.122 99.2697L130.604 101.896V104.375L132.122 105.256L132.348 105.125V104.485L131.151 103.799V101.838L132.353 99.7676L134.049 98.7927L135.241 99.4846V101.435L135.798 101.382Z" fill="#A39C95"/>
<path d="M130.604 104.376L129.69 103.851V101.372H130.604V101.896V104.376Z" fill="#D8D1C7"/>
<path d="M130.604 101.896L129.69 101.372L131.213 98.7402H132.122V99.2697L130.604 101.896Z" fill="#E6E1DD"/>
<path d="M132.121 99.2698L131.213 98.7404L133.361 97.498L134.274 98.0275L132.121 99.2698Z" fill="#F4EFE9"/>
<path d="M125.893 101.602L124.979 101.077V100.061L125.893 100.585V101.602Z" fill="#17435C"/>
<path d="M128.792 97.7178L127.878 97.1884V94.709L128.335 95.0183L128.792 95.2384V97.7178Z" fill="#D8D1C7"/>
<path d="M129.344 97.6604V95.181L127.821 94.3057L125.668 95.548L124.15 98.1741V100.659L125.668 101.534L125.894 101.403V100.769L124.702 100.077V98.1165L125.894 96.0512L127.59 95.0762L128.792 95.7629V97.7181L129.344 97.6604Z" fill="#A39C95"/>
<path d="M124.15 100.658L123.236 100.129V97.6494H124.15V98.1736V100.658Z" fill="#D8D1C7"/>
<path d="M124.15 98.1741L123.236 97.6499L124.759 95.0186H125.668V95.548L124.15 98.1741Z" fill="#E6E1DD"/>
<path d="M125.667 95.5477L124.759 95.0183L126.906 93.7812L127.82 94.3054L125.667 95.5477Z" fill="#F4EFE9"/>
<path d="M119.446 97.88L118.532 97.3505V96.3389L119.446 96.8683V97.88Z" fill="#17435C"/>
<path d="M122.333 93.9958L121.425 93.4716V90.9922L121.882 91.3015L122.333 91.5164V93.9958Z" fill="#D8D1C7"/>
<path d="M122.885 93.9387V91.4646L121.367 90.584L119.214 91.8263L117.691 94.4577V96.9371L119.214 97.8124L119.445 97.6814V97.0419L118.248 96.3552V94.4L119.445 92.3295L121.136 91.3545L122.333 92.0412V93.9964L122.885 93.9387Z" fill="#A39C95"/>
<path d="M117.692 96.9365L116.783 96.4123V93.9277H117.692V94.4572V96.9365Z" fill="#D8D1C7"/>
<path d="M117.692 94.4573L116.783 93.9279L118.306 91.3018H119.214V91.8259L117.692 94.4573Z" fill="#E6E1DD"/>
<path d="M119.214 91.8261L118.306 91.3019L120.453 90.0596L121.367 90.5838L119.214 91.8261Z" fill="#F4EFE9"/>
<path d="M112.987 94.1589L112.078 93.6347V92.623L112.987 93.1472V94.1589Z" fill="#17435C"/>
<path d="M115.885 90.2793L114.972 89.7499V87.2705L115.429 87.5798L115.885 87.7999V90.2793Z" fill="#D8D1C7"/>
<path d="M116.436 90.2219V87.7426L114.908 86.8672L112.761 88.1095L111.243 90.7356V93.215L112.761 94.0956L112.987 93.9594V93.3251L111.795 92.6332V90.6832L112.987 88.6075L114.683 87.6325L115.885 88.3244V90.2796L116.436 90.2219Z" fill="#A39C95"/>
<path d="M111.243 93.2149L110.335 92.6907V90.2061H111.243V90.7355V93.2149Z" fill="#D8D1C7"/>
<path d="M111.243 90.7357L110.335 90.2062L111.847 87.5801H112.761V88.1095L111.243 90.7357Z" fill="#E6E1DD"/>
<path d="M112.761 88.1096L111.848 87.5802L114.006 86.3379L114.909 86.8673L112.761 88.1096Z" fill="#F4EFE9"/>
<path opacity="0.3" d="M42.0395 130.144L19.0347 143.385L18.5884 143.636L18.6146 143.704L17.7955 144.181L17.3701 144.423L17.5907 144.889L18.3101 145.314L19.124 145.434L19.5493 145.188L20.3685 144.716L20.484 144.742L20.9513 144.475L43.9457 131.245L46.5449 128.671L42.0395 130.144Z" fill="black"/>
<path d="M45.5054 128.22L45.3164 128L46.5451 127.67L45.5054 128.22Z" fill="#836E69"/>
<path d="M45.647 128.561L45.542 128.283L46.5449 127.67L45.647 128.561Z" fill="#403531"/>
<path d="M45.6467 128.336H45.5364L45.5049 128.11L46.5446 127.67L45.6467 128.336Z" fill="#685750"/>
<path d="M43.5568 130.642L42.4804 129.835L42.4541 128.75L43.6041 128.561L45.505 128.11L45.6467 128.336L44.1974 129.625L43.5568 130.642Z" fill="#EFC58B"/>
<path d="M43.5566 130.642V129.903L45.6466 128.336V128.561L43.5566 130.642Z" fill="#C79D5C"/>
<path d="M43.1 129.122L42.4541 128.75L45.3159 128L45.505 128.11L43.1 129.122Z" fill="#F7E6BB"/>
<path d="M23.2672 141.597L22.8104 140.801L22.1645 140.434L21.7129 140.696V141.445L22.1645 142.226L22.8104 142.598L23.2672 142.342V141.597Z" fill="#785B56"/>
<path d="M22.8099 140.801L22.1641 140.434L42.4541 128.75L43.1 129.122L22.9045 140.822L22.8099 140.801Z" fill="#FA5C52"/>
<path d="M23.2674 141.598L22.8105 140.801L43.1006 129.122L43.5574 129.903L23.3567 141.64L23.2674 141.598Z" fill="#C84030"/>
<path d="M23.2676 142.342V141.598L43.5576 129.903V130.642L23.2676 142.342Z" fill="#991F16"/>
<path d="M20.5676 143.143L20.1213 142.362L19.4701 141.99L19.0186 142.252V143.002L19.4701 143.788L20.1213 144.16L20.5676 143.893V143.143Z" fill="#D8D1C7"/>
<path d="M20.1209 142.363L19.4697 141.99L22.1635 140.434L22.8094 140.801L20.1944 142.368L20.1209 142.363Z" fill="#E6E1DD"/>
<path d="M20.5674 143.144L20.1211 142.363L22.8096 140.801L23.2665 141.598L20.6567 143.186L20.5674 143.144Z" fill="#D1D1D1"/>
<path d="M20.5674 143.894V143.144L23.2664 141.598V142.342L20.5674 143.894Z" fill="#A39C95"/>
<path d="M19.2076 143.893L18.7875 143.165L18.1889 142.84L17.7793 143.076V143.762L18.1889 144.475L18.7875 144.821L19.2076 144.575V143.893Z" fill="#C26A5E"/>
<path d="M18.7871 143.165L18.1885 142.84L19.4382 142.116L20.0316 142.452L18.8711 143.186L18.7871 143.165Z" fill="#FCA48F"/>
<path d="M19.2072 143.894L18.7871 143.165L20.0316 142.452L20.4569 143.186L19.286 143.93L19.2072 143.894Z" fill="#D57A70"/>
<path d="M19.208 144.575V143.893L20.4578 143.186V143.862L19.208 144.575Z" fill="#A6495D"/>
<path d="M25.1414 139.474L24.4902 139.102L25.4879 138.536L26.1233 138.908L25.2201 139.485L25.1414 139.474Z" fill="#8CCCCB"/>
<path d="M25.5879 140.255L25.1416 139.474L26.1235 138.908L26.5699 139.694L25.6667 140.297L25.5879 140.255Z" fill="#389998"/>
<path d="M25.5879 141.005V140.255L26.5698 139.694V140.423L25.5879 141.005Z" fill="#3E6669"/>
<path opacity="0.3" d="M37.2827 139.029L14.2831 152.265L13.8368 152.516L13.8683 152.59L13.0439 153.061L12.6133 153.308L12.8391 153.774L13.5637 154.194L14.3724 154.314L14.7977 154.068L15.6169 153.601L15.7324 153.622L16.1997 153.355L39.1941 140.13L41.7934 137.551L37.2827 139.029Z" fill="black"/>
<path d="M40.7535 137.1L40.5645 136.88L41.7932 136.555L40.7535 137.1Z" fill="#836E69"/>
<path d="M40.8947 137.451L40.7949 137.163L41.7926 136.555L40.8947 137.451Z" fill="#403531"/>
<path d="M40.8947 137.22H40.7844L40.7529 136.99L41.7926 136.555L40.8947 137.22Z" fill="#685750"/>
<path d="M38.8052 139.527L37.7288 138.715L37.6973 137.624L38.8525 137.441L40.7534 136.99L40.8952 137.221L39.4511 138.5L38.8052 139.527Z" fill="#EFC58B"/>
<path d="M38.8057 139.527V138.788L40.8956 137.221V137.451L38.8057 139.527Z" fill="#C79D5C"/>
<path d="M38.3484 138.007L37.6973 137.624L40.5643 136.88L40.7534 136.99L38.3484 138.007Z" fill="#F7E6BB"/>
<path d="M18.5152 150.477L18.0584 149.68L17.4178 149.318L16.9609 149.575V150.325L17.4178 151.111L18.0584 151.478L18.5152 151.221V150.477Z" fill="#785B56"/>
<path d="M18.0586 149.68L17.418 149.319L37.6975 137.624L38.3486 138.007L18.1479 149.701L18.0586 149.68Z" fill="#FFEC7A"/>
<path d="M18.5154 150.477L18.0586 149.68L38.3486 138.007L38.8055 138.788L18.6047 150.524L18.5154 150.477Z" fill="#F6F6F6"/>
<path d="M18.5156 151.222V150.477L38.8057 138.788V139.527L18.5156 151.222Z" fill="#FF8E1C"/>
<path d="M15.8166 152.023L15.3703 151.242L14.7192 150.875L14.2676 151.132V151.881L14.7192 152.662L15.3703 153.045L15.8166 152.773V152.023Z" fill="#D8D1C7"/>
<path d="M15.3699 151.242L14.7188 150.875L17.4178 149.318L18.0584 149.68L15.4486 151.253L15.3699 151.242Z" fill="#E6E1DD"/>
<path d="M15.8165 152.023L15.3701 151.242L18.0587 149.68L18.5155 150.476L15.9057 152.065L15.8165 152.023Z" fill="#D1D1D1"/>
<path d="M15.8164 152.772V152.023L18.5154 150.477V151.221L15.8164 152.772Z" fill="#A39C95"/>
<path d="M14.4566 152.773L14.0365 152.05L13.4379 151.72L13.0283 151.956V152.642L13.4379 153.355L14.0365 153.701L14.4566 153.46V152.773Z" fill="#C26A5E"/>
<path d="M14.0361 152.05L13.4375 151.719L14.6872 150.996L15.2754 151.337L14.1201 152.065L14.0361 152.05Z" fill="#FCA48F"/>
<path d="M14.4562 152.773L14.0361 152.05L15.2754 151.337L15.7007 152.066L14.535 152.81L14.4562 152.773Z" fill="#D57A70"/>
<path d="M14.457 153.46V152.773L15.7015 152.065V152.742L14.457 153.46Z" fill="#A6495D"/>
<path d="M20.3904 148.354L19.7393 147.982L20.737 147.416L21.3723 147.788L20.4744 148.365L20.3904 148.354Z" fill="#8CCCCB"/>
<path d="M20.8422 149.14L20.3906 148.354L21.3726 147.788L21.8189 148.58L20.921 149.177L20.8422 149.14Z" fill="#389998"/>
<path d="M20.8418 149.885V149.141L21.8185 148.58V149.309L20.8418 149.885Z" fill="#3E6669"/>
<path d="M63.1599 145.785L46.7451 136.324L63.1599 126.862L79.5747 136.324L63.1599 145.785Z" fill="#FFEC7A"/>
<path d="M63.1599 156.678L46.7451 147.222V136.324L63.1599 145.786V156.678Z" fill="#F6F6F6"/>
<path d="M79.5749 147.222L63.1602 156.678V145.786L79.5749 136.324V147.222Z" fill="#FF8E1C"/>
<path d="M63.1594 141.026L46.041 131.161L63.1594 121.296L80.2726 131.161L63.1594 141.026Z" fill="#FFEC7A"/>
<path d="M63.5166 135.37H60.6968L55.2305 132.209L65.0814 126.532L70.5478 129.683L70.5583 131.308L68.1218 132.712H66.2629V133.782L63.5166 135.365V135.37ZM62.7342 134.274L64.3673 133.336L64.383 132.66L60.7598 130.574L57.9138 132.214L61.5055 134.285H62.7342V134.274ZM67.3394 131.612L68.6574 130.851L68.6679 130.144L65.0762 128.073L62.0988 129.793L65.26 131.617H67.3394V131.612Z" fill="#6E081F"/>
<path d="M63.1594 146.693L46.041 136.828V131.161L63.1594 141.026V146.693Z" fill="#B31630"/>
<path d="M80.2723 136.828L63.1592 146.693V141.026L80.2723 131.161V136.828Z" fill="#6E081F"/>
<path d="M67.1926 169.378L52.3164 160.808L67.1926 152.232L82.0688 160.808L67.1926 169.378Z" fill="#FFEC7A"/>
<path d="M67.1926 179.254L52.3164 170.678V160.808L67.1926 169.378V179.254Z" fill="#B31630"/>
<path d="M82.0686 170.678L67.1924 179.254V169.378L82.0686 160.803V170.678Z" fill="#6E081F"/>
<path d="M67.1923 165.07L51.6807 156.127L67.1923 147.185L82.7039 156.127L67.1923 165.07Z" fill="#FFEC7A"/>
<path d="M67.5543 159.974H64.997L60.04 157.112L68.9668 151.965L73.9238 154.822L73.9343 156.295L71.7236 157.568H70.038V158.538L67.549 159.974H67.5543ZM66.8454 158.984L68.3209 158.134L68.3367 157.526L65.0548 155.634L62.4765 157.118L65.7322 158.994H66.8454V158.984ZM71.02 156.572L72.212 155.886L72.2225 155.241L68.9668 153.364L66.2678 154.921L69.1349 156.572H71.02Z" fill="#6E081F"/>
<path d="M67.1923 170.196L51.6807 161.259V156.127L67.1923 165.069V170.196Z" fill="#F6F6F6"/>
<path d="M82.704 161.259L67.1924 170.196V165.069L82.704 156.127V161.259Z" fill="#FF8E1C"/>
<path d="M180.972 168.272L180.977 173.257L177.564 180.596L175.952 175.443L180.972 168.272Z" fill="#B2B2B2"/>
<path d="M168.239 185.969L177.565 180.596L177.559 175.611L176.793 175.249L167.173 180.79L168.239 185.969Z" fill="#C6C6C6"/>
<path d="M155.499 187.94L168.238 185.969V180.984L154.964 182.033L154.812 185.382L155.499 187.94Z" fill="#DADADA"/>
<path d="M142.761 185.969L155.5 187.94V182.955L142.067 179.789L142.761 185.969Z" fill="#EDEDED"/>
<path d="M130.021 173.252V168.272L133.986 174.474L134.327 179.322L133.435 180.596L130.021 173.252Z" fill="#EDEDED"/>
<path d="M133.435 180.596V175.611L138.848 176.985L142.76 180.984V185.969L133.435 180.596Z" fill="#F6F6F6"/>
<path d="M155.5 182.955L142.761 180.984L133.435 175.611L130.021 168.273L133.435 160.923L142.755 155.551L155.5 153.585L168.239 155.551L177.564 160.923L180.972 168.273L177.559 175.611L168.239 180.984L155.5 182.955Z" fill="url(#paint16_linear_81_30774)"/>
<path d="M173.889 174.389L166.118 178.866L155.495 180.507L144.888 178.866L137.111 174.379L134.265 168.262L137.105 162.15L144.877 157.668L155.5 156.027L166.112 157.668L173.889 162.155L176.73 168.267L173.889 174.389Z" fill="#F6F6F6"/>
<path d="M170.302 173.195L164.038 176.796L155.494 178.117L146.956 176.796L140.697 173.195L138.407 168.267L140.697 163.345L146.956 159.739L155.499 158.418L164.043 159.739L170.302 163.34L172.592 168.262L170.302 173.195Z" fill="url(#paint17_linear_81_30774)"/>
<path d="M167.02 172.099L162.147 174.909L155.499 175.941L148.846 174.904L143.978 172.104L142.198 168.267L143.978 164.441L148.851 161.631L155.499 160.599L162.152 161.626L167.02 164.43L168.805 168.273L167.02 172.099Z" fill="#F6F6F6"/>
<path d="M163.723 171.004L160.241 173.006L155.5 173.74L150.753 173.006L147.277 171.004L146.006 168.267L147.277 165.531L150.753 163.529L155.5 162.795L160.247 163.529L163.718 165.531L164.988 168.267L163.723 171.004Z" fill="url(#paint18_linear_81_30774)"/>
<path d="M160.341 169.882L158.293 171.061L155.499 171.486L152.706 171.056L150.658 169.877L149.912 168.273L150.658 166.663L152.706 165.479L155.504 165.049L158.288 165.479L160.341 166.653L161.086 168.267L160.341 169.882Z" fill="#F6F6F6"/>
<path opacity="0.3" d="M155.017 166.098H153.452L152.344 166.737V167.639L155.872 169.673H157.443L158.55 169.033V168.131L155.017 166.098Z" fill="black"/>
<path d="M154.77 167.885L154.67 167.738L154.628 162.166L155.799 162.622V167.293L154.77 167.885Z" fill="#6E081F"/>
<path d="M156.875 169.096L156.775 168.954L156.733 163.261L157.904 163.109V168.503L156.875 169.096Z" fill="#6E081F"/>
<path d="M157.632 163.487L157.427 159.713L157.49 158.067L158.661 157.521V162.894L157.632 163.487Z" fill="#6E081F"/>
<path d="M157.632 158.114L157.322 157.857L157.259 157.548L158.346 156.977L158.661 157.522L157.632 158.114Z" fill="#87102B"/>
<path d="M157.322 157.575H157.054L156.812 157.318L157.905 156.726L158.346 156.977L157.322 157.575Z" fill="#FFEC7A"/>
<path d="M156.876 157.318L155.668 156.348L155.573 155.609L155.92 155.132L156.602 155.017L157.905 156.725L156.876 157.318Z" fill="#87102B"/>
<path d="M153.168 155.299L152.764 155.179L152.653 154.885L153.683 154.293L154.124 154.545L153.168 155.299Z" fill="#FFEC7A"/>
<path d="M154.402 154.938L153.793 155.242L153.1 155.137L154.124 154.545L155.431 154.346L154.402 154.938Z" fill="#87102B"/>
<path d="M156.402 155.132L156.24 154.408L156.192 153.795L157.426 153.192V154.54L156.402 155.132Z" fill="#6E081F"/>
<path d="M156.403 153.784L155.631 153.192L155.363 152.364L156.603 151.761L157.427 153.192L156.403 153.784Z" fill="#87102B"/>
<path d="M155.573 152.353H154.985L154.402 151.677L155.432 151.085L156.603 151.761L155.573 152.353Z" fill="#FFEC7A"/>
<path d="M155.573 152.354L154.402 151.678L153.572 152.155V153.502L154.402 154.938L154.88 155.515L155.573 155.609L156.403 155.132V153.785L155.573 152.354Z" fill="#B31630"/>
<path d="M156.875 157.317L156.565 157.496V162.868L156.875 163.408L157.322 163.665L157.631 163.487V158.114L157.322 157.574L156.875 157.317Z" fill="#B31630"/>
<path d="M152.654 154.886L152.344 155.064V160.437L152.654 160.977L153.1 161.234L153.41 161.055V155.677L153.1 155.137L152.654 154.886Z" fill="#B31630"/>
<path d="M155.206 161.778V168.137L155.694 168.981L156.388 169.379L156.876 169.096V162.743L155.206 161.778Z" fill="#B31630"/>
<path d="M153.1 160.567V166.92L153.588 167.77L154.281 168.168L154.769 167.885V161.532L153.1 160.567Z" fill="#B31630"/>
<path d="M154.402 154.938L153.1 155.137V160.567L153.924 161.998L156.051 163.22L156.875 162.743V157.317L155.573 155.608L154.402 154.938Z" fill="#B31630"/>
<path opacity="0.3" d="M175.081 153.134H173.742L172.802 153.679V154.449L175.805 156.179L177.139 156.185L178.084 155.639V154.869L175.081 153.134Z" fill="black"/>
<path d="M174.866 154.66L174.782 154.534L174.745 149.79L175.743 150.178V154.156L174.866 154.66Z" fill="#D1D1D1"/>
<path d="M176.661 155.692L176.577 155.566L176.535 150.723L177.538 150.592V155.189L176.661 155.692Z" fill="#D1D1D1"/>
<path d="M177.302 150.912L177.129 147.704L177.181 146.304L178.179 145.838V150.409L177.302 150.912Z" fill="#D1D1D1"/>
<path d="M177.302 146.34L177.035 146.12L176.987 145.853L177.911 145.376L178.179 145.837L177.302 146.34Z" fill="#E0DEDC"/>
<path d="M177.034 145.88H176.814L176.604 145.659L177.538 145.156L177.911 145.376L177.034 145.88Z" fill="url(#paint19_linear_81_30774)"/>
<path d="M176.661 145.659L175.632 144.836L175.548 144.207L175.847 143.804L176.425 143.704L177.538 145.156L176.661 145.659Z" fill="#E0DEDC"/>
<path d="M173.5 143.946L173.159 143.841L173.064 143.589L173.941 143.086L174.319 143.301L173.5 143.946Z" fill="url(#paint20_linear_81_30774)"/>
<path d="M174.556 143.635L174.036 143.892L173.442 143.808L174.319 143.3L175.427 143.127L174.556 143.635Z" fill="#E0DEDC"/>
<path d="M176.251 143.804L176.12 143.185L176.078 142.661L177.128 142.147V143.301L176.251 143.804Z" fill="#D1D1D1"/>
<path d="M176.252 142.65L175.601 142.147L175.375 141.444L176.425 140.931L177.129 142.147L176.252 142.65Z" fill="#E0DEDC"/>
<path d="M175.548 141.434H175.049L174.556 140.858L175.427 140.354L176.425 140.931L175.548 141.434Z" fill="url(#paint21_linear_81_30774)"/>
<path d="M174.556 140.857L173.847 141.266V142.414L174.556 143.636L174.96 144.128L175.548 144.207L176.252 143.803V142.65L175.548 141.434L174.556 140.857Z" fill="#F4EFE9"/>
<path d="M176.661 145.659L176.394 145.816V150.387L176.661 150.849L177.034 151.063L177.302 150.911V146.341L177.034 145.879L176.661 145.659Z" fill="#F4EFE9"/>
<path d="M173.064 143.589L172.802 143.741V148.317L173.064 148.778L173.442 148.993L173.71 148.841V144.27L173.442 143.809L173.064 143.589Z" fill="#F4EFE9"/>
<path d="M175.238 149.46V154.87L175.653 155.593L176.241 155.934L176.661 155.692V150.283L175.238 149.46Z" fill="#F4EFE9"/>
<path d="M173.442 148.427V153.836L173.862 154.56L174.451 154.9L174.865 154.659V149.25L173.442 148.427Z" fill="#F4EFE9"/>
<path d="M174.556 143.636L173.442 143.809V148.427L174.146 149.648L175.958 150.686L176.661 150.282V145.659L175.548 144.207L174.556 143.636Z" fill="#F4EFE9"/>
<path opacity="0.3" d="M190.897 159.256H189.563L188.618 159.801V160.566L191.627 162.301H192.961L193.906 161.756V160.986L190.897 159.256Z" fill="black"/>
<path d="M190.687 160.776L190.603 160.655L190.566 155.906L191.564 156.299V160.273L190.687 160.776Z" fill="#D1D1D1"/>
<path d="M192.477 161.809L192.393 161.689L192.356 156.845L193.354 156.709V161.306L192.477 161.809Z" fill="#D1D1D1"/>
<path d="M193.123 157.033L192.95 153.82L193.003 152.421L194 151.954V156.525L193.123 157.033Z" fill="#D1D1D1"/>
<path d="M193.124 152.458L192.856 152.243L192.804 151.975L193.733 151.493L194.001 151.954L193.124 152.458Z" fill="#E0DEDC"/>
<path d="M192.855 151.996H192.63L192.425 151.782L193.354 151.278L193.732 151.493L192.855 151.996Z" fill="url(#paint22_linear_81_30774)"/>
<path d="M192.478 151.781L191.454 150.953L191.37 150.329L191.664 149.921L192.247 149.826L193.355 151.278L192.478 151.781Z" fill="#E0DEDC"/>
<path d="M189.322 150.062L188.975 149.958L188.886 149.711L189.763 149.208L190.141 149.423L189.322 150.062Z" fill="url(#paint23_linear_81_30774)"/>
<path d="M190.372 149.752L189.857 150.009L189.264 149.925L190.141 149.422L191.249 149.249L190.372 149.752Z" fill="#E0DEDC"/>
<path d="M192.074 149.921L191.942 149.307L191.9 148.783L192.951 148.27V149.417L192.074 149.921Z" fill="#D1D1D1"/>
<path d="M192.074 148.772L191.422 148.269L191.191 147.562L192.247 147.048L192.951 148.269L192.074 148.772Z" fill="#E0DEDC"/>
<path d="M191.37 147.551H190.871L190.372 146.98L191.249 146.477L192.247 147.048L191.37 147.551Z" fill="url(#paint24_linear_81_30774)"/>
<path d="M191.369 147.551L190.372 146.979L189.668 147.383V148.536L190.372 149.752L190.776 150.245L191.369 150.329L192.073 149.92V148.772L191.369 147.551Z" fill="#F4EFE9"/>
<path d="M192.477 151.781L192.215 151.933V156.509L192.477 156.965L192.855 157.186L193.123 157.034V152.457L192.855 151.996L192.477 151.781Z" fill="#F4EFE9"/>
<path d="M188.886 149.711L188.618 149.863V154.439L188.886 154.895L189.264 155.115L189.532 154.958V150.387L189.264 149.926L188.886 149.711Z" fill="#F4EFE9"/>
<path d="M191.055 155.582V160.992L191.475 161.71L192.063 162.05L192.478 161.809V156.4L191.055 155.582Z" fill="#F4EFE9"/>
<path d="M189.264 154.549V159.958L189.679 160.677L190.272 161.017L190.687 160.776V155.367L189.264 154.549Z" fill="#F4EFE9"/>
<path d="M190.372 149.753L189.264 149.926V154.549L189.967 155.765L191.774 156.808L192.477 156.4V151.782L191.369 150.33L190.372 149.753Z" fill="#F4EFE9"/>
<path opacity="0.3" d="M184.317 146.802H182.983L182.038 147.347V148.112L185.047 149.847H186.381L187.326 149.302V148.532L184.317 146.802Z" fill="black"/>
<path d="M184.107 148.322L184.023 148.201L183.986 143.452L184.984 143.845V147.819L184.107 148.322Z" fill="#D1D1D1"/>
<path d="M185.897 149.355L185.813 149.235L185.776 144.391L186.774 144.255V148.852L185.897 149.355Z" fill="#D1D1D1"/>
<path d="M186.543 144.579L186.37 141.366L186.423 139.967L187.415 139.5V144.071L186.543 144.579Z" fill="#D1D1D1"/>
<path d="M186.544 140.004L186.276 139.789L186.224 139.521L187.153 139.039L187.416 139.5L186.544 140.004Z" fill="#E0DEDC"/>
<path d="M186.275 139.542H186.05L185.845 139.327L186.774 138.824L187.152 139.039L186.275 139.542Z" fill="url(#paint25_linear_81_30774)"/>
<path d="M185.898 139.327L184.874 138.499L184.79 137.875L185.084 137.466L185.667 137.372L186.775 138.824L185.898 139.327Z" fill="#E0DEDC"/>
<path d="M182.742 137.608L182.395 137.503L182.306 137.257L183.183 136.754L183.555 136.969L182.742 137.608Z" fill="url(#paint26_linear_81_30774)"/>
<path d="M183.792 137.298L183.272 137.555L182.684 137.471L183.555 136.968L184.668 136.795L183.792 137.298Z" fill="#E0DEDC"/>
<path d="M185.494 137.467L185.362 136.853L185.32 136.329L186.371 135.815V136.963L185.494 137.467Z" fill="#D1D1D1"/>
<path d="M185.494 136.318L184.842 135.815L184.611 135.107L185.667 134.594L186.37 135.815L185.494 136.318Z" fill="#E0DEDC"/>
<path d="M184.79 135.097H184.291L183.792 134.526L184.669 134.022L185.667 134.594L184.79 135.097Z" fill="url(#paint27_linear_81_30774)"/>
<path d="M183.792 134.525L183.088 134.929V136.077L183.792 137.298L184.196 137.791L184.789 137.875L185.493 137.466V136.318L184.789 135.097L183.792 134.525Z" fill="#F4EFE9"/>
<path d="M185.897 139.327L185.635 139.479V144.055L185.897 144.511L186.275 144.731L186.543 144.579V140.003L186.275 139.542L185.897 139.327Z" fill="#F4EFE9"/>
<path d="M182.306 137.257L182.038 137.409V141.98L182.306 142.441L182.684 142.661L182.952 142.504L182.947 137.933L182.684 137.472L182.306 137.257Z" fill="#F4EFE9"/>
<path d="M184.475 143.128V148.537L184.895 149.256L185.483 149.596L185.898 149.355V143.946L184.475 143.128Z" fill="#F4EFE9"/>
<path d="M182.684 142.095V147.504L183.098 148.222L183.692 148.563L184.107 148.322V142.912L182.684 142.095Z" fill="#F4EFE9"/>
<path d="M183.792 137.299L182.684 137.472V142.095L183.387 143.311L185.194 144.354L185.897 143.945V139.327L184.789 137.875L183.792 137.299Z" fill="#F4EFE9"/>
<path opacity="0.3" d="M117.828 157.962H116.495L115.555 158.507V159.278L118.558 161.007H119.892L120.837 160.467V159.697L117.828 157.962Z" fill="black"/>
<path d="M117.619 159.488L117.535 159.362L117.498 154.618L118.496 155.006V158.985L117.619 159.488Z" fill="#D1D1D1"/>
<path d="M119.409 160.52L119.33 160.394L119.288 155.551L120.286 155.42V160.017L119.409 160.52Z" fill="#D1D1D1"/>
<path d="M120.055 155.74L119.882 152.532L119.934 151.133L120.932 150.666V155.237L120.055 155.74Z" fill="#D1D1D1"/>
<path d="M120.055 151.169L119.787 150.954L119.734 150.686L120.664 150.204L120.932 150.665L120.055 151.169Z" fill="#E0DEDC"/>
<path d="M119.787 150.708H119.566L119.356 150.488L120.286 149.984L120.664 150.205L119.787 150.708Z" fill="url(#paint28_linear_81_30774)"/>
<path d="M119.409 150.487L118.38 149.664L118.301 149.035L118.595 148.632L119.178 148.532L120.286 149.984L119.409 150.487Z" fill="#E0DEDC"/>
<path d="M116.253 148.774L115.907 148.669L115.817 148.417L116.694 147.914L117.072 148.134L116.253 148.774Z" fill="url(#paint29_linear_81_30774)"/>
<path d="M117.309 148.458L116.783 148.72L116.195 148.637L117.072 148.133L118.18 147.955L117.309 148.458Z" fill="#E0DEDC"/>
<path d="M119.004 148.632L118.873 148.013L118.831 147.489L119.881 146.976V148.129L119.004 148.632Z" fill="#D1D1D1"/>
<path d="M119.004 147.483L118.353 146.975L118.122 146.272L119.178 145.759L119.881 146.975L119.004 147.483Z" fill="#E0DEDC"/>
<path d="M118.301 146.262H117.802L117.309 145.686L118.18 145.183L119.178 145.759L118.301 146.262Z" fill="url(#paint30_linear_81_30774)"/>
<path d="M117.308 145.686L116.6 146.094V147.242L117.308 148.458L117.713 148.956L118.301 149.035L119.005 148.631V147.483L118.301 146.262L117.308 145.686Z" fill="#F4EFE9"/>
<path d="M119.409 150.487L119.146 150.645V155.215L119.409 155.677L119.787 155.892L120.055 155.74V151.169L119.787 150.707L119.409 150.487Z" fill="#F4EFE9"/>
<path d="M115.817 148.417L115.555 148.574V153.145L115.817 153.606L116.195 153.821L116.463 153.669V149.098L116.195 148.637L115.817 148.417Z" fill="#F4EFE9"/>
<path d="M117.986 154.288V159.698L118.406 160.421L118.995 160.762L119.409 160.521V155.111L117.986 154.288Z" fill="#F4EFE9"/>
<path d="M116.195 153.255V158.67L116.61 159.388L117.204 159.729L117.618 159.487V154.078L116.195 153.255Z" fill="#F4EFE9"/>
<path d="M117.309 148.459L116.195 148.637V153.255L116.899 154.477L118.705 155.52L119.409 155.111V150.488L118.301 149.036L117.309 148.459Z" fill="#F4EFE9"/>
<path opacity="0.3" d="M141.921 152.5H140.587L139.642 153.045V153.81L142.65 155.545H143.984L144.929 155V154.235L141.921 152.5Z" fill="black"/>
<path d="M141.711 154.021L141.627 153.9L141.59 149.156L142.588 149.544V153.517L141.711 154.021Z" fill="#D1D1D1"/>
<path d="M143.506 155.053L143.422 154.932L143.38 150.089L144.378 149.958V154.55L143.506 155.053Z" fill="#D1D1D1"/>
<path d="M144.147 150.278L143.974 147.064L144.026 145.665L145.024 145.198V149.769L144.147 150.278Z" fill="#D1D1D1"/>
<path d="M144.147 145.702L143.88 145.487L143.827 145.22L144.757 144.737L145.024 145.199L144.147 145.702Z" fill="#E0DEDC"/>
<path d="M143.879 145.246L143.653 145.241L143.448 145.026L144.378 144.522L144.756 144.737L143.879 145.246Z" fill="url(#paint31_linear_81_30774)"/>
<path d="M143.507 145.026L142.472 144.203L142.394 143.574L142.688 143.165L143.27 143.07L144.378 144.522L143.507 145.026Z" fill="#E0DEDC"/>
<path d="M140.345 143.311L140.004 143.206L139.909 142.955L140.786 142.446L141.164 142.666L140.345 143.311Z" fill="url(#paint32_linear_81_30774)"/>
<path d="M141.395 142.996L140.875 143.258L140.287 143.169L141.164 142.666L142.272 142.493L141.395 142.996Z" fill="#E0DEDC"/>
<path d="M143.097 143.165L142.965 142.552L142.918 142.027L143.973 141.514V142.662L143.097 143.165Z" fill="#D1D1D1"/>
<path d="M143.097 142.017L142.446 141.513L142.215 140.806L143.27 140.292L143.974 141.513L143.097 142.017Z" fill="#E0DEDC"/>
<path d="M142.393 140.801H141.894L141.396 140.224L142.272 139.721L143.27 140.292L142.393 140.801Z" fill="url(#paint33_linear_81_30774)"/>
<path d="M141.395 140.224L140.691 140.627V141.78L141.395 142.997L141.805 143.489L142.393 143.573L143.096 143.164V142.016L142.393 140.8L141.395 140.224Z" fill="#F4EFE9"/>
<path d="M143.506 145.025L143.238 145.177V149.754L143.506 150.215L143.879 150.43L144.147 150.278V145.702L143.879 145.246L143.506 145.025Z" fill="#F4EFE9"/>
<path d="M139.909 142.955L139.642 143.107V147.683L139.909 148.139L140.287 148.359L140.555 148.207V143.631L140.287 143.17L139.909 142.955Z" fill="#F4EFE9"/>
<path d="M142.078 148.826V154.236L142.498 154.959L143.086 155.295L143.506 155.053V149.644L142.078 148.826Z" fill="#F4EFE9"/>
<path d="M140.287 147.793V153.203L140.702 153.926L141.29 154.261L141.71 154.02V148.611L140.287 147.793Z" fill="#F4EFE9"/>
<path d="M141.395 142.997L140.287 143.17V147.793L140.991 149.009L142.797 150.053L143.506 149.644V145.026L142.393 143.574L141.395 142.997Z" fill="#F4EFE9"/>
<path opacity="0.3" d="M125.427 174.285H124.093L123.153 174.83V175.596L126.157 177.331H127.496L128.436 176.786V176.015L125.427 174.285Z" fill="black"/>
<path d="M125.217 175.805L125.133 175.684L125.097 170.94L126.094 171.328V175.302L125.217 175.805Z" fill="#D1D1D1"/>
<path d="M127.012 176.843L126.928 176.717L126.892 171.874L127.884 171.737V176.334L127.012 176.843Z" fill="#D1D1D1"/>
<path d="M127.654 172.063L127.48 168.849L127.533 167.45L128.531 166.983V171.554L127.654 172.063Z" fill="#D1D1D1"/>
<path d="M127.654 167.486L127.391 167.271L127.339 167.004L128.263 166.521L128.531 166.983L127.654 167.486Z" fill="#E0DEDC"/>
<path d="M127.391 167.025H127.165L126.955 166.81L127.885 166.307L128.263 166.522L127.391 167.025Z" fill="url(#paint34_linear_81_30774)"/>
<path d="M127.013 166.81L125.983 165.981L125.899 165.358L126.199 164.949L126.776 164.854L127.884 166.306L127.013 166.81Z" fill="#E0DEDC"/>
<path d="M123.852 165.091L123.511 164.986L123.416 164.74L124.293 164.236L124.671 164.451L123.852 165.091Z" fill="url(#paint35_linear_81_30774)"/>
<path d="M124.907 164.782L124.387 165.044L123.794 164.955L124.671 164.451L125.779 164.278L124.907 164.782Z" fill="#E0DEDC"/>
<path d="M126.608 164.949L126.472 164.336L126.43 163.812L127.48 163.298V164.446L126.608 164.949Z" fill="#D1D1D1"/>
<path d="M126.609 163.801L125.952 163.298L125.727 162.59L126.777 162.076L127.48 163.298L126.609 163.801Z" fill="#E0DEDC"/>
<path d="M125.9 162.58H125.401L124.907 162.008L125.779 161.5L126.777 162.077L125.9 162.58Z" fill="url(#paint36_linear_81_30774)"/>
<path d="M124.907 162.009L124.198 162.412V163.566L124.907 164.782L125.311 165.274L125.9 165.358L126.608 164.949V163.801L125.9 162.58L124.907 162.009Z" fill="#F4EFE9"/>
<path d="M127.013 166.81L126.745 166.962V171.538L127.013 171.994L127.391 172.214L127.654 172.062V167.486L127.391 167.024L127.013 166.81Z" fill="#F4EFE9"/>
<path d="M123.416 164.739L123.153 164.891V169.467L123.416 169.929L123.794 170.144L124.062 169.986V165.415L123.794 164.954L123.416 164.739Z" fill="#F4EFE9"/>
<path d="M125.59 170.61V176.02L126.005 176.738L126.593 177.079L127.013 176.843V171.428L125.59 170.61Z" fill="#F4EFE9"/>
<path d="M123.794 169.577V174.987L124.214 175.705L124.802 176.046L125.217 175.804V170.395L123.794 169.577Z" fill="#F4EFE9"/>
<path d="M124.907 164.781L123.794 164.954V169.578L124.498 170.794L126.309 171.837L127.013 171.428V166.81L125.9 165.358L124.907 164.781Z" fill="#F4EFE9"/>
<path opacity="0.3" d="M147.764 186.955H146.431L145.485 187.495V188.266L148.494 190.001H149.828L150.773 189.455V188.685L147.764 186.955Z" fill="black"/>
<path d="M147.554 188.475L147.47 188.355L147.434 183.605L148.431 183.993V187.972L147.554 188.475Z" fill="#D1D1D1"/>
<path d="M149.344 189.508L149.26 189.387L149.224 184.538L150.221 184.407V189.004L149.344 189.508Z" fill="#D1D1D1"/>
<path d="M149.991 184.727L149.817 181.519L149.87 180.12L150.862 179.653V184.224L149.991 184.727Z" fill="#D1D1D1"/>
<path d="M149.991 180.156L149.723 179.941L149.671 179.674L150.6 179.191L150.863 179.653L149.991 180.156Z" fill="#E0DEDC"/>
<path d="M149.723 179.695H149.497L149.292 179.48L150.221 178.972L150.599 179.192L149.723 179.695Z" fill="url(#paint37_linear_81_30774)"/>
<path d="M149.345 179.48L148.316 178.652L148.237 178.028L148.531 177.619L149.114 177.52L150.222 178.972L149.345 179.48Z" fill="#E0DEDC"/>
<path d="M146.189 177.761L145.842 177.656L145.753 177.405L146.63 176.901L147.003 177.122L146.189 177.761Z" fill="url(#paint38_linear_81_30774)"/>
<path d="M147.239 177.451L146.719 177.708L146.131 177.624L147.003 177.121L148.116 176.948L147.239 177.451Z" fill="#E0DEDC"/>
<path d="M148.94 177.619L148.809 177.006L148.762 176.477L149.817 175.963V177.116L148.94 177.619Z" fill="#D1D1D1"/>
<path d="M148.941 176.471L148.29 175.962L148.059 175.26L149.114 174.746L149.818 175.962L148.941 176.471Z" fill="#E0DEDC"/>
<path d="M148.237 175.25H147.738L147.239 174.678L148.116 174.17L149.114 174.747L148.237 175.25Z" fill="url(#paint39_linear_81_30774)"/>
<path d="M147.239 174.679L146.535 175.082V176.23L147.239 177.452L147.643 177.944L148.236 178.028L148.94 177.619V176.471L148.236 175.25L147.239 174.679Z" fill="#F4EFE9"/>
<path d="M149.345 179.479L149.082 179.632V184.202L149.345 184.664L149.723 184.884L149.99 184.727V180.156L149.723 179.694L149.345 179.479Z" fill="#F4EFE9"/>
<path d="M145.753 177.404L145.485 177.562V182.132L145.753 182.594L146.131 182.814L146.399 182.657V178.086L146.131 177.624L145.753 177.404Z" fill="#F4EFE9"/>
<path d="M147.922 183.275V188.69L148.342 189.408L148.93 189.749L149.345 189.508V184.098L147.922 183.275Z" fill="#F4EFE9"/>
<path d="M146.131 182.242V187.657L146.546 188.375L147.139 188.716L147.554 188.475V183.065L146.131 182.242Z" fill="#F4EFE9"/>
<path d="M147.239 177.451L146.131 177.624V182.242L146.834 183.464L148.641 184.507L149.344 184.098V179.48L148.237 178.028L147.239 177.451Z" fill="#F4EFE9"/>
<path opacity="0.3" d="M181.461 180.119H180.127L179.182 180.659V181.43L182.19 183.165H183.524L184.469 182.619V181.849L181.461 180.119Z" fill="black"/>
<path d="M181.251 181.639L181.167 181.518L181.13 176.774L182.128 177.162V181.136L181.251 181.639Z" fill="#D1D1D1"/>
<path d="M183.041 182.672L182.957 182.551L182.92 177.708L183.918 177.571V182.168L183.041 182.672Z" fill="#D1D1D1"/>
<path d="M183.687 177.897L183.514 174.683L183.566 173.284L184.564 172.817V177.388L183.687 177.897Z" fill="#D1D1D1"/>
<path d="M183.687 173.32L183.42 173.105L183.367 172.838L184.297 172.355L184.564 172.817L183.687 173.32Z" fill="#E0DEDC"/>
<path d="M183.419 172.859H183.193L182.988 172.644L183.918 172.136L184.296 172.356L183.419 172.859Z" fill="url(#paint40_linear_81_30774)"/>
<path d="M183.042 172.644L182.018 171.816L181.934 171.192L182.233 170.783L182.811 170.684L183.918 172.136L183.042 172.644Z" fill="#E0DEDC"/>
<path d="M179.885 170.93L179.544 170.82L179.449 170.574L180.326 170.065L180.699 170.286L179.885 170.93Z" fill="url(#paint41_linear_81_30774)"/>
<path d="M180.935 170.616L180.415 170.872L179.827 170.789L180.699 170.285L181.812 170.112L180.935 170.616Z" fill="#E0DEDC"/>
<path d="M182.637 170.783L182.506 170.17L182.464 169.64L183.514 169.132V170.28L182.637 170.783Z" fill="#D1D1D1"/>
<path d="M182.637 169.635L181.986 169.132L181.755 168.424L182.81 167.91L183.514 169.132L182.637 169.635Z" fill="#E0DEDC"/>
<path d="M181.933 168.414H181.434L180.936 167.842L181.812 167.334L182.81 167.911L181.933 168.414Z" fill="url(#paint42_linear_81_30774)"/>
<path d="M180.935 167.843L180.231 168.246V169.394L180.935 170.616L181.345 171.108L181.933 171.192L182.636 170.783V169.635L181.933 168.414L180.935 167.843Z" fill="#F4EFE9"/>
<path d="M183.041 172.644L182.778 172.796V177.366L183.041 177.828L183.419 178.048L183.687 177.896V173.32L183.419 172.858L183.041 172.644Z" fill="#F4EFE9"/>
<path d="M179.449 170.573L179.182 170.725V175.301L179.449 175.757L179.828 175.978L180.095 175.82V171.249L179.828 170.788L179.449 170.573Z" fill="#F4EFE9"/>
<path d="M181.618 176.444V181.854L182.038 182.572L182.626 182.913L183.041 182.672V177.262L181.618 176.444Z" fill="#F4EFE9"/>
<path d="M179.827 175.411V180.821L180.242 181.539L180.835 181.88L181.25 181.638V176.229L179.827 175.411Z" fill="#F4EFE9"/>
<path d="M180.935 170.615L179.827 170.788V175.412L180.531 176.628L182.337 177.671L183.041 177.262V172.644L181.933 171.192L180.935 170.615Z" fill="#F4EFE9"/>
<path d="M150.895 140.612L152.386 139.752L153.515 140.407L152.029 141.267H151.357L150.895 140.612Z" fill="#FA5C52"/>
<path d="M158.965 143.546V139.589L156.334 139.594L154.754 147.247V149.596L156.245 148.736L160.099 144.196L159.091 144.065L158.965 143.546Z" fill="#8A1C14"/>
<path d="M157.479 144.407L158.966 143.547L160.1 144.197L158.608 145.057H157.942L157.479 144.407Z" fill="#FA5C52"/>
<path d="M152.028 137.309L153.514 136.449L158.965 139.589L157.479 140.454L155.048 139.94L152.028 137.309Z" fill="#FA5C52"/>
<path d="M157.479 144.406V140.448L152.029 137.309V141.266L150.895 140.611L154.754 149.595L158.608 145.056L157.479 144.406Z" fill="#C84030"/>
<path d="M148.137 42.8571L73.7818 0L63.5947 5.87083V11.8937L138.49 52.0093L148.137 42.8571Z" fill="#FFEC7A"/>
<path d="M141.667 54.5775L152.968 51.207V69.4538L142.786 75.3246L141.174 64.6313L141.667 54.5775Z" fill="#DE822B"/>
<path d="M137.956 48.723L148.137 42.8574L152.968 51.2076L142.786 57.0785L137.42 54.4733L137.956 48.723Z" fill="#FF9F3D"/>
<path d="M64.0626 7.41699L59.8828 9.82298V27.0109L64.0626 34.2393L137.493 76.5618L141.668 74.1505V56.9678L137.493 49.7394L64.0626 7.41699Z" fill="url(#paint43_linear_81_30774)"/>
<path d="M139.777 73.4323L67.2601 31.6393L63.7366 25.5431V8.14551L61.946 8.73259L59.7773 9.37733V26.6543L64.0622 34.2393L137.692 76.829L139.777 73.4323Z" fill="#FFEC7A"/>
<path d="M137.955 48.7229L63.595 5.87109L58.7588 8.6545V26.9065L63.595 35.2567L137.955 78.1085L142.786 75.3304V57.0784L137.955 48.7229ZM140.56 72.9768L137.036 75.0106L64.5192 33.2176L60.9957 27.1266V10.9976L64.5192 8.96901L137.031 50.762L140.554 56.853V72.9768H140.56Z" fill="#F6F6F6"/>
<path d="M74.1809 15.5261L71.4346 17.1039L72.4795 19.6147L72.2117 32.4257L78.7493 35.9797L81.044 36.2155L83.785 34.6325V30.2189L82.4828 27.9597L83.785 27.2311V23.305L81.8106 19.9083L74.1861 15.5156L74.1809 15.5261ZM80.0043 31.2515L80.2353 32.693L76.0555 30.2818V27.8863L78.8543 29.7838L80.0043 31.2515ZM80.4611 26.0884L76.0502 23.5461V21.0562L78.807 22.6445L79.6525 24.1332L80.4611 26.0831V26.0884Z" fill="#6E081F"/>
<path d="M71.4346 17.1035V32.9443L79.0644 37.3369L81.0387 36.2204V31.8016L79.7312 29.5423L81.0387 28.8137V24.8928L79.0644 21.4962L71.4346 17.1035ZM79.1694 34.239L78.3187 34.7475L73.3144 31.8592V27.2831L78.3712 30.1923L79.1746 31.6129V34.2338L79.1694 34.239ZM79.1694 26.8271L77.7201 27.671L73.3092 25.1287V20.3377L78.3134 23.2207L79.1641 24.7146V26.8323L79.1694 26.8271Z" fill="#FFEC7A"/>
<path d="M85.9641 22.3145L83.2178 23.8975L85.0871 40.8181L87.8282 39.2403V34.3339L93.0162 45.3889L95.7625 43.8059L92.071 34.292L93.3628 35.9641L96.1039 34.3863V30.4288L94.1452 27.0426L85.9536 22.3249L85.9641 22.3145ZM92.3861 32.3158L87.8334 29.6897V27.6401L91.0366 29.2703L91.8768 30.7171L92.3914 32.3158H92.3861Z" fill="#D66B24"/>
<path d="M83.2181 23.8978V39.7333L85.0875 40.8132V33.4274L87.4242 34.7746L91.1157 44.2832L93.0166 45.384L89.3251 35.8701L91.4098 37.0705L93.3684 35.9592V32.0017L91.4098 28.6155L83.2129 23.8926L83.2181 23.8978ZM91.499 33.9831L90.6904 34.4968L85.0875 31.273V27.132L90.6589 30.3452L91.499 31.792V33.9831Z" fill="#F6F6F6"/>
<path d="M102.641 31.9277L99.9005 33.5108L96.8916 47.6165L99.6326 46.0335L100.336 44.1988L103.981 46.2326L106.89 53.3825L109.631 51.7994L104.647 33.0914L102.641 31.933V31.9277ZM101.728 40.6449L102.431 38.8207L102.999 41.3787L101.728 40.6449Z" fill="#D66B24"/>
<path d="M99.9002 33.5105L94.917 46.4787L96.8914 47.6162L98.2829 43.9836L103.534 47.0082L104.931 52.2447L106.884 53.3717L101.901 34.6584L99.8897 33.5L99.9002 33.5105ZM98.9866 42.2276L100.914 37.206L102.846 44.4501L98.9866 42.2276Z" fill="#F6F6F6"/>
<path d="M116.236 42.9252L117.108 48.0098L113.243 38.0346L111.347 36.9443L108.606 38.5274L110.481 55.4479L113.222 53.8649V48.3977L118.106 59.8458L120.847 58.2628V42.422L118.977 41.3422L116.236 42.9252Z" fill="#D66B24"/>
<path d="M116.236 54.4048L110.502 39.6176L108.606 38.5273V54.3681L110.481 55.4479V43.9683L116.236 58.766L118.106 59.8458V44.005L116.236 42.9252V54.4048Z" fill="#F6F6F6"/>
<path d="M130.882 48.2032L123.262 43.8105L120.511 45.3883L121.419 48.1979L121.456 60.7468L128.062 64.5105H130.115L132.861 62.9274V51.6051L130.882 48.2084V48.2032ZM129.091 60.8517L125.132 58.5663V49.3354L128.062 51.0914L128.907 52.5801L129.091 60.8517Z" fill="#D66B24"/>
<path d="M128.141 49.7813L120.511 45.3887V61.2294L128.141 65.6221L130.115 64.5056V53.178L128.141 49.7813ZM128.246 62.5242L127.395 63.0326L122.391 60.1444V48.6229L127.395 51.5111L128.246 52.9998V62.5242Z" fill="#F6F6F6"/>
<path d="M142.749 20.8155L138.034 17.3035L135.934 11.1758L134.542 11.9725L134.458 13.7862L133.823 14.8817L129.107 12.9528L127.731 13.7495L132.52 18.7502L131.717 23.688L135.934 23.5674L138.748 29.3439L140.14 28.5471L139.336 22.6763L139.258 21.6856L141.363 21.6175L142.749 20.8155Z" fill="#D66B24"/>
<path d="M134.542 11.9727L136.653 18.1056L141.363 21.6176L137.96 23.4784L138.748 29.344L134.542 24.3591L130.331 24.4849L131.139 19.5471L127.731 13.7496L132.442 15.6786L134.542 11.9727Z" fill="#F6F6F6"/>
<path d="M61.8675 39.1619L58.7169 36.8188L57.3149 32.7197L56.3802 33.2492L56.3224 34.4653L55.8971 35.1939L52.7464 33.9044L51.8223 34.439L55.0307 37.7833L54.4898 41.0857L57.3149 41.0018L59.1947 44.865L60.1242 44.3356L59.5833 40.4095L59.5361 39.7438L60.9433 39.7018L61.8675 39.1619Z" fill="#D66B24"/>
<path d="M56.3802 33.249L57.7927 37.3534L60.9433 39.7017L58.6644 40.944L59.1947 44.8649L56.3802 41.5363L53.5656 41.615L54.1065 38.3179L51.8223 34.4389L54.9781 35.7284L56.3802 33.249Z" fill="#F6F6F6"/>
<path d="M81.701 59.2009L75.6361 54.6877L72.9423 46.8145L71.1412 47.8314L71.0362 50.1692L70.2223 51.574L64.1573 49.0999L62.3877 50.1168L68.5524 56.5485L67.518 62.9016L72.9423 62.7391L76.5655 70.172L78.3456 69.1446L77.3112 61.6016L77.2062 60.3278L79.9157 60.2335L81.701 59.2009Z" fill="#D66B24"/>
<path d="M71.1412 47.8311L73.8612 55.72L79.9157 60.2332L75.5363 62.6287L76.5655 70.1717L71.1412 63.7609L65.7326 63.9234L66.7723 57.5808L62.3877 50.1165L68.4474 52.6011L71.1412 47.8311Z" fill="#F6F6F6"/>
<path d="M92.7644 69.1242L89.9604 67.0379L88.7106 63.3896L87.881 63.8667L87.8284 64.9412L87.4504 65.5965L84.6516 64.4485L83.8271 64.9203L86.6785 67.8924L86.2006 70.833L88.7106 70.7596L90.3857 74.1983L91.2101 73.7213L90.7323 70.2302L90.685 69.6431L91.9348 69.6012L92.7644 69.1242Z" fill="#6E081F"/>
<path d="M87.881 63.8662L89.136 67.5145L91.9348 69.6008L89.9131 70.7068L90.3857 74.1978L87.881 71.231L85.3762 71.3043L85.8541 68.3689L83.8271 64.9198L86.6312 66.0678L87.881 63.8662Z" fill="#FFEC7A"/>
<path d="M126.487 18.9647L123.678 16.8784L122.433 13.2354L121.604 13.7071L121.551 14.7869L121.173 15.4369L118.369 14.289L117.55 14.766L120.401 17.7381L119.923 20.6787L122.433 20.6001L124.108 24.0387L124.938 23.567L124.455 20.0759L124.408 19.4836L125.657 19.4417L126.487 18.9647Z" fill="#6E081F"/>
<path d="M121.604 13.707L122.859 17.3553L125.657 19.4416L123.636 20.5476L124.108 24.0386L121.604 21.077L119.099 21.1504L119.577 18.215L117.55 14.7659L120.354 15.9138L121.604 13.707Z" fill="#FFEC7A"/>
<path d="M133.109 81.9197L129.764 79.4298L128.273 75.0791L127.28 75.6452L127.222 76.9295L126.771 77.7105L123.426 76.3371L122.449 76.9033L125.847 80.452L125.28 83.964L128.273 83.8749L130.273 87.974L131.26 87.4131L130.688 83.2458L130.63 82.5382L132.127 82.491L133.109 81.9197Z" fill="#6E081F"/>
<path d="M127.28 75.6455L128.782 80.0015L132.127 82.4913L129.711 83.8123L130.273 87.9743L127.28 84.4413L124.292 84.5251L124.865 81.0236L122.449 76.9035L125.794 78.2717L127.28 75.6455Z" fill="#FFEC7A"/>
<path d="M60.7591 60.1084L58.5064 58.4363L57.5087 55.5166L56.8418 55.894L56.8051 56.7589L56.5005 57.2831L54.2531 56.3605L53.5967 56.7432L55.8809 59.123L55.4976 61.4818L57.5087 61.4241L58.853 64.1761L59.5146 63.7987L59.1313 60.9995L59.0945 60.5278L60.0975 60.4911L60.7591 60.1084Z" fill="#6E081F"/>
<path d="M56.8418 55.8936L57.85 58.8185L60.0975 60.4906L58.4749 61.3817L58.853 64.1756L56.8418 61.8011L54.8359 61.8587L55.2193 59.5052L53.5967 56.7427L55.8441 57.66L56.8418 55.8936Z" fill="#FFEC7A"/>
</g>
<defs>
<linearGradient id="paint0_linear_81_30774" x1="0" y1="110.591" x2="71.4405" y2="110.591" gradientUnits="userSpaceOnUse">
<stop stop-color="#A70E13"/>
<stop offset="0.66" stop-color="#F04E3E"/>
<stop offset="1" stop-color="#F68C59"/>
</linearGradient>
<linearGradient id="paint1_linear_81_30774" x1="33.0557" y1="100.207" x2="37.7291" y2="100.207" gradientUnits="userSpaceOnUse">
<stop stop-color="#A70E13"/>
<stop offset="0.66" stop-color="#F04E3E"/>
<stop offset="1" stop-color="#F68C59"/>
</linearGradient>
<linearGradient id="paint2_linear_81_30774" x1="30.4824" y1="60.7055" x2="33.3968" y2="60.7055" gradientUnits="userSpaceOnUse">
<stop stop-color="#A70E13"/>
<stop offset="0.66" stop-color="#F04E3E"/>
<stop offset="1" stop-color="#F68C59"/>
</linearGradient>
<linearGradient id="paint3_linear_81_30774" x1="34.0586" y1="62.9594" x2="37.141" y2="62.9594" gradientUnits="userSpaceOnUse">
<stop stop-color="#A70E13"/>
<stop offset="0.66" stop-color="#F04E3E"/>
<stop offset="1" stop-color="#F68C59"/>
</linearGradient>
<linearGradient id="paint4_linear_81_30774" x1="37.6133" y1="65.6273" x2="41.247" y2="65.6273" gradientUnits="userSpaceOnUse">
<stop stop-color="#A70E13"/>
<stop offset="0.66" stop-color="#F04E3E"/>
<stop offset="1" stop-color="#F68C59"/>
</linearGradient>
<linearGradient id="paint5_linear_81_30774" x1="41.7666" y1="67.3729" x2="44.6494" y2="67.3729" gradientUnits="userSpaceOnUse">
<stop stop-color="#A70E13"/>
<stop offset="0.66" stop-color="#F04E3E"/>
<stop offset="1" stop-color="#F68C59"/>
</linearGradient>
<linearGradient id="paint6_linear_81_30774" x1="45.3793" y1="69.2914" x2="48.2936" y2="69.2914" gradientUnits="userSpaceOnUse">
<stop stop-color="#A70E13"/>
<stop offset="0.66" stop-color="#F04E3E"/>
<stop offset="1" stop-color="#F68C59"/>
</linearGradient>
<linearGradient id="paint7_linear_81_30774" x1="17.2139" y1="68.9672" x2="20.1282" y2="68.9672" gradientUnits="userSpaceOnUse">
<stop stop-color="#A70E13"/>
<stop offset="0.66" stop-color="#F04E3E"/>
<stop offset="1" stop-color="#F68C59"/>
</linearGradient>
<linearGradient id="paint8_linear_81_30774" x1="20.79" y1="71.2213" x2="23.8724" y2="71.2213" gradientUnits="userSpaceOnUse">
<stop stop-color="#A70E13"/>
<stop offset="0.66" stop-color="#F04E3E"/>
<stop offset="1" stop-color="#F68C59"/>
</linearGradient>
<linearGradient id="paint9_linear_81_30774" x1="24.3395" y1="73.8943" x2="27.9732" y2="73.8943" gradientUnits="userSpaceOnUse">
<stop stop-color="#A70E13"/>
<stop offset="0.66" stop-color="#F04E3E"/>
<stop offset="1" stop-color="#F68C59"/>
</linearGradient>
<linearGradient id="paint10_linear_81_30774" x1="28.498" y1="75.6346" x2="31.3809" y2="75.6346" gradientUnits="userSpaceOnUse">
<stop stop-color="#A70E13"/>
<stop offset="0.66" stop-color="#F04E3E"/>
<stop offset="1" stop-color="#F68C59"/>
</linearGradient>
<linearGradient id="paint11_linear_81_30774" x1="32.1162" y1="77.5538" x2="35.0253" y2="77.5538" gradientUnits="userSpaceOnUse">
<stop stop-color="#A70E13"/>
<stop offset="0.66" stop-color="#F04E3E"/>
<stop offset="1" stop-color="#F68C59"/>
</linearGradient>
<linearGradient id="paint12_linear_81_30774" x1="23.9023" y1="111.168" x2="104.175" y2="111.168" gradientUnits="userSpaceOnUse">
<stop stop-color="#A70E13"/>
<stop offset="0.66" stop-color="#F04E3E"/>
<stop offset="1" stop-color="#F68C59"/>
</linearGradient>
<linearGradient id="paint13_linear_81_30774" x1="10.8379" y1="161.133" x2="41.5565" y2="161.133" gradientUnits="userSpaceOnUse">
<stop stop-color="#A70E13"/>
<stop offset="0.66" stop-color="#F04E3E"/>
<stop offset="1" stop-color="#F68C59"/>
</linearGradient>
<linearGradient id="paint14_linear_81_30774" x1="14.4033" y1="168.582" x2="52.3159" y2="168.582" gradientUnits="userSpaceOnUse">
<stop stop-color="#A70E13"/>
<stop offset="0.66" stop-color="#F04E3E"/>
<stop offset="1" stop-color="#F68C59"/>
</linearGradient>
<linearGradient id="paint15_linear_81_30774" x1="99.1875" y1="119.488" x2="146.373" y2="119.488" gradientUnits="userSpaceOnUse">
<stop stop-color="#A70E13"/>
<stop offset="0.66" stop-color="#F04E3E"/>
<stop offset="1" stop-color="#F68C59"/>
</linearGradient>
<linearGradient id="paint16_linear_81_30774" x1="130.021" y1="168.267" x2="180.972" y2="168.267" gradientUnits="userSpaceOnUse">
<stop stop-color="#A70E13"/>
<stop offset="0.66" stop-color="#F04E3E"/>
<stop offset="1" stop-color="#F68C59"/>
</linearGradient>
<linearGradient id="paint17_linear_81_30774" x1="138.407" y1="168.267" x2="172.592" y2="168.267" gradientUnits="userSpaceOnUse">
<stop stop-color="#A70E13"/>
<stop offset="0.66" stop-color="#F04E3E"/>
<stop offset="1" stop-color="#F68C59"/>
</linearGradient>
<linearGradient id="paint18_linear_81_30774" x1="146.006" y1="168.267" x2="164.988" y2="168.267" gradientUnits="userSpaceOnUse">
<stop stop-color="#A70E13"/>
<stop offset="0.66" stop-color="#F04E3E"/>
<stop offset="1" stop-color="#F68C59"/>
</linearGradient>
<linearGradient id="paint19_linear_81_30774" x1="176.604" y1="145.518" x2="177.911" y2="145.518" gradientUnits="userSpaceOnUse">
<stop stop-color="#A70E13"/>
<stop offset="0.66" stop-color="#F04E3E"/>
<stop offset="1" stop-color="#F68C59"/>
</linearGradient>
<linearGradient id="paint20_linear_81_30774" x1="173.064" y1="143.516" x2="174.319" y2="143.516" gradientUnits="userSpaceOnUse">
<stop stop-color="#A70E13"/>
<stop offset="0.66" stop-color="#F04E3E"/>
<stop offset="1" stop-color="#F68C59"/>
</linearGradient>
<linearGradient id="paint21_linear_81_30774" x1="174.556" y1="140.894" x2="176.425" y2="140.894" gradientUnits="userSpaceOnUse">
<stop stop-color="#A70E13"/>
<stop offset="0.66" stop-color="#F04E3E"/>
<stop offset="1" stop-color="#F68C59"/>
</linearGradient>
<linearGradient id="paint22_linear_81_30774" x1="192.425" y1="151.64" x2="193.732" y2="151.64" gradientUnits="userSpaceOnUse">
<stop stop-color="#A70E13"/>
<stop offset="0.66" stop-color="#F04E3E"/>
<stop offset="1" stop-color="#F68C59"/>
</linearGradient>
<linearGradient id="paint23_linear_81_30774" x1="188.886" y1="149.633" x2="190.141" y2="149.633" gradientUnits="userSpaceOnUse">
<stop stop-color="#A70E13"/>
<stop offset="0.66" stop-color="#F04E3E"/>
<stop offset="1" stop-color="#F68C59"/>
</linearGradient>
<linearGradient id="paint24_linear_81_30774" x1="190.372" y1="147.016" x2="192.247" y2="147.016" gradientUnits="userSpaceOnUse">
<stop stop-color="#A70E13"/>
<stop offset="0.66" stop-color="#F04E3E"/>
<stop offset="1" stop-color="#F68C59"/>
</linearGradient>
<linearGradient id="paint25_linear_81_30774" x1="185.845" y1="139.181" x2="187.152" y2="139.181" gradientUnits="userSpaceOnUse">
<stop stop-color="#A70E13"/>
<stop offset="0.66" stop-color="#F04E3E"/>
<stop offset="1" stop-color="#F68C59"/>
</linearGradient>
<linearGradient id="paint26_linear_81_30774" x1="182.306" y1="137.184" x2="183.555" y2="137.184" gradientUnits="userSpaceOnUse">
<stop stop-color="#A70E13"/>
<stop offset="0.66" stop-color="#F04E3E"/>
<stop offset="1" stop-color="#F68C59"/>
</linearGradient>
<linearGradient id="paint27_linear_81_30774" x1="183.792" y1="134.557" x2="185.667" y2="134.557" gradientUnits="userSpaceOnUse">
<stop stop-color="#A70E13"/>
<stop offset="0.66" stop-color="#F04E3E"/>
<stop offset="1" stop-color="#F68C59"/>
</linearGradient>
<linearGradient id="paint28_linear_81_30774" x1="119.356" y1="150.346" x2="120.664" y2="150.346" gradientUnits="userSpaceOnUse">
<stop stop-color="#A70E13"/>
<stop offset="0.66" stop-color="#F04E3E"/>
<stop offset="1" stop-color="#F68C59"/>
</linearGradient>
<linearGradient id="paint29_linear_81_30774" x1="115.817" y1="148.344" x2="117.072" y2="148.344" gradientUnits="userSpaceOnUse">
<stop stop-color="#A70E13"/>
<stop offset="0.66" stop-color="#F04E3E"/>
<stop offset="1" stop-color="#F68C59"/>
</linearGradient>
<linearGradient id="paint30_linear_81_30774" x1="117.309" y1="145.723" x2="119.178" y2="145.723" gradientUnits="userSpaceOnUse">
<stop stop-color="#A70E13"/>
<stop offset="0.66" stop-color="#F04E3E"/>
<stop offset="1" stop-color="#F68C59"/>
</linearGradient>
<linearGradient id="paint31_linear_81_30774" x1="143.448" y1="144.884" x2="144.756" y2="144.884" gradientUnits="userSpaceOnUse">
<stop stop-color="#A70E13"/>
<stop offset="0.66" stop-color="#F04E3E"/>
<stop offset="1" stop-color="#F68C59"/>
</linearGradient>
<linearGradient id="paint32_linear_81_30774" x1="139.909" y1="142.881" x2="141.164" y2="142.881" gradientUnits="userSpaceOnUse">
<stop stop-color="#A70E13"/>
<stop offset="0.66" stop-color="#F04E3E"/>
<stop offset="1" stop-color="#F68C59"/>
</linearGradient>
<linearGradient id="paint33_linear_81_30774" x1="141.396" y1="140.261" x2="143.27" y2="140.261" gradientUnits="userSpaceOnUse">
<stop stop-color="#A70E13"/>
<stop offset="0.66" stop-color="#F04E3E"/>
<stop offset="1" stop-color="#F68C59"/>
</linearGradient>
<linearGradient id="paint34_linear_81_30774" x1="126.955" y1="166.663" x2="128.263" y2="166.663" gradientUnits="userSpaceOnUse">
<stop stop-color="#A70E13"/>
<stop offset="0.66" stop-color="#F04E3E"/>
<stop offset="1" stop-color="#F68C59"/>
</linearGradient>
<linearGradient id="paint35_linear_81_30774" x1="123.416" y1="164.666" x2="124.671" y2="164.666" gradientUnits="userSpaceOnUse">
<stop stop-color="#A70E13"/>
<stop offset="0.66" stop-color="#F04E3E"/>
<stop offset="1" stop-color="#F68C59"/>
</linearGradient>
<linearGradient id="paint36_linear_81_30774" x1="124.907" y1="162.04" x2="126.777" y2="162.04" gradientUnits="userSpaceOnUse">
<stop stop-color="#A70E13"/>
<stop offset="0.66" stop-color="#F04E3E"/>
<stop offset="1" stop-color="#F68C59"/>
</linearGradient>
<linearGradient id="paint37_linear_81_30774" x1="149.292" y1="179.333" x2="150.599" y2="179.333" gradientUnits="userSpaceOnUse">
<stop stop-color="#A70E13"/>
<stop offset="0.66" stop-color="#F04E3E"/>
<stop offset="1" stop-color="#F68C59"/>
</linearGradient>
<linearGradient id="paint38_linear_81_30774" x1="145.753" y1="177.331" x2="147.003" y2="177.331" gradientUnits="userSpaceOnUse">
<stop stop-color="#A70E13"/>
<stop offset="0.66" stop-color="#F04E3E"/>
<stop offset="1" stop-color="#F68C59"/>
</linearGradient>
<linearGradient id="paint39_linear_81_30774" x1="147.239" y1="174.71" x2="149.114" y2="174.71" gradientUnits="userSpaceOnUse">
<stop stop-color="#A70E13"/>
<stop offset="0.66" stop-color="#F04E3E"/>
<stop offset="1" stop-color="#F68C59"/>
</linearGradient>
<linearGradient id="paint40_linear_81_30774" x1="182.988" y1="172.497" x2="184.296" y2="172.497" gradientUnits="userSpaceOnUse">
<stop stop-color="#A70E13"/>
<stop offset="0.66" stop-color="#F04E3E"/>
<stop offset="1" stop-color="#F68C59"/>
</linearGradient>
<linearGradient id="paint41_linear_81_30774" x1="179.449" y1="170.495" x2="180.699" y2="170.495" gradientUnits="userSpaceOnUse">
<stop stop-color="#A70E13"/>
<stop offset="0.66" stop-color="#F04E3E"/>
<stop offset="1" stop-color="#F68C59"/>
</linearGradient>
<linearGradient id="paint42_linear_81_30774" x1="180.936" y1="167.874" x2="182.81" y2="167.874" gradientUnits="userSpaceOnUse">
<stop stop-color="#A70E13"/>
<stop offset="0.66" stop-color="#F04E3E"/>
<stop offset="1" stop-color="#F68C59"/>
</linearGradient>
<linearGradient id="paint43_linear_81_30774" x1="59.8828" y1="41.9868" x2="141.668" y2="41.9868" gradientUnits="userSpaceOnUse">
<stop stop-color="#A70E13"/>
<stop offset="0.66" stop-color="#F04E3E"/>
<stop offset="1" stop-color="#F68C59"/>
</linearGradient>
<clipPath id="clip0_81_30774">
<rect width="194" height="190" fill="white"/>
</clipPath>
</defs>
</svg>
