<svg width="248" height="190" viewBox="0 0 248 190" fill="none" xmlns="http://www.w3.org/2000/svg">
<path d="M138.587 177.359L0 97.3034L109.413 34.0986L248 114.154L138.587 177.359Z" fill="url(#paint0_linear_74_28609)"/>
<path d="M0 97.3037V110.493L138.587 190V177.359L0 97.3037Z" fill="url(#paint1_linear_74_28609)"/>
<path d="M138.587 177.359V190L248 126.795V114.154L138.587 177.359Z" fill="url(#paint2_linear_74_28609)"/>
<path d="M60.6544 28.1895L38.3203 41.0037V87.4974L60.6768 74.5825L60.6544 28.1895Z" fill="#EFE8DF"/>
<path d="M38.3208 41.0036L37.0244 40.2376L59.2691 27.373L60.6549 28.1893L38.3208 41.0036Z" fill="#E5D8C6"/>
<path d="M37.0244 40.2373V86.7477L38.3208 87.4969V41.0033L37.0244 40.2373Z" fill="#CBBBA0"/>
<path d="M106.966 44.6154L102.574 42.0771L100.897 43.9277L103.434 46.7958L106.966 44.6154Z" fill="#513E35"/>
<path d="M104.167 47.1541C103.289 47.8306 102.334 48.4065 101.334 48.8705C101.216 48.9264 101.093 48.9767 100.965 48.9655C100.847 48.9544 100.747 48.8873 100.652 48.8258C99.0929 47.7915 97.5339 46.7571 95.9693 45.7172C95.8911 45.6613 95.8017 45.5998 95.7794 45.5048C95.7626 45.4209 95.8017 45.3371 95.8464 45.2588C96.2487 44.5208 96.7293 43.8219 97.288 43.1902C97.3998 43.0672 97.5171 42.9386 97.668 42.8771C97.9418 42.7653 98.2547 42.8827 98.5229 43.0001C99.5175 43.425 100.674 43.7269 101.591 44.3083C101.881 44.4928 104.412 46.964 104.167 47.1485V47.1541Z" fill="#2A98C4"/>
<path d="M95.9574 44.7222C97.751 45.231 99.7905 44.4595 100.93 42.9891C102.07 41.5187 102.327 39.45 101.746 37.6777C101.5 36.9342 101.104 36.2241 100.495 35.7377C99.9638 35.3184 99.3044 35.0892 98.6395 34.955C97.7957 34.7761 96.8849 34.7369 96.0915 35.0892C95.4377 35.3799 94.918 35.9222 94.4934 36.5037C93.4652 37.907 92.7556 39.6513 93.0238 41.4013C93.2585 42.9443 94.4598 44.3029 95.9574 44.7334V44.7222Z" fill="#E8CDC1"/>
<path d="M103.836 41.0821C104.786 38.8066 104.423 35.9329 102.641 34.2277C102.199 33.8028 101.668 33.4506 101.076 33.3052C99.8412 32.9977 98.5393 33.5959 97.2764 33.4282C95.2257 33.1598 93.7841 33.0257 92.7783 35.167C91.8899 37.0567 91.8675 39.1924 92.186 41.2051C92.2922 41.8648 92.5213 42.6643 93.175 42.7929C92.8621 40.4336 93.8959 37.94 95.7901 36.4976C97.7067 39.3266 98.0978 42.5693 98.5504 45.8567C100.802 45.2641 102.942 43.2234 103.836 41.0821Z" fill="#7A6056"/>
<path d="M98.1706 42.9941C98.1706 43.4358 97.7515 43.788 97.243 43.788C96.7345 43.788 96.3154 43.4302 96.3154 42.9941C96.3154 42.558 96.7345 42.2002 97.243 42.2002C97.7515 42.2002 98.1706 42.558 98.1706 42.9941Z" fill="#DADADA"/>
<path d="M102.333 41.6302C102.333 42.6142 101.892 43.4137 101.35 43.4137C100.808 43.4137 100.366 42.6142 100.366 41.6302C100.366 40.6462 100.808 39.8467 101.35 39.8467C101.892 39.8467 102.333 40.6462 102.333 41.6302Z" fill="#3C3C3B"/>
<path d="M101.048 42.0273C100.031 42.8045 98.7349 43.1958 97.4609 43.112" stroke="#3C3C3B" stroke-width="0.8" stroke-miterlimit="10" stroke-linecap="round"/>
<path d="M145.784 67.0402L141.392 64.502L139.71 66.3525L142.252 69.2206L145.784 67.0402Z" fill="#513E35"/>
<path d="M142.984 69.573C142.107 70.2495 141.151 70.8254 140.151 71.2894C140.034 71.3453 139.911 71.3957 139.782 71.3845C139.665 71.3733 139.564 71.3062 139.469 71.2447C137.91 70.2104 136.351 69.1761 134.787 68.1362C134.708 68.0803 134.619 68.0188 134.597 67.9237C134.58 67.8399 134.619 67.756 134.664 67.6777C135.066 66.9397 135.547 66.2409 136.105 65.6091C136.217 65.4861 136.335 65.3575 136.485 65.296C136.759 65.1842 137.072 65.3016 137.34 65.419C138.335 65.8439 139.492 66.1458 140.408 66.7273C140.699 66.9118 143.23 69.383 142.984 69.5675V69.573Z" fill="#2A98C4"/>
<path d="M134.642 67.4256C134.977 67.5766 135.329 67.6828 135.693 67.7331C136.749 67.8785 137.816 67.5542 138.799 67.1349C139.515 66.8274 140.23 66.4472 140.671 65.8043C141.062 65.2284 141.185 64.5072 141.202 63.8139C141.23 62.679 140.962 61.6614 140.604 60.5992C140.291 59.6599 140.146 58.8324 139.302 58.1615C138.771 57.7422 138.112 57.5186 137.447 57.3788C136.603 57.1999 135.693 57.1608 134.899 57.513C134.245 57.8037 133.726 58.346 133.301 58.9275C131.692 61.1191 131.166 63.8139 132.932 66.0782C133.385 66.6541 133.972 67.1349 134.631 67.4368L134.642 67.4256Z" fill="#E8CDC1"/>
<path d="M142.654 63.5069C143.521 61.1922 143.241 58.3577 141.459 56.6525C140.715 55.9368 139.738 55.5063 138.704 55.4728C137.542 55.4392 136.351 55.7915 135.206 55.4616C134.357 55.2156 133.63 54.5783 133.273 53.7676C131.758 54.4329 131.038 56.3506 131.468 57.9495C131.898 59.5429 133.289 60.7673 134.854 61.2985C135.804 61.6227 136.854 61.7178 137.804 61.3935C137.838 61.9806 138.212 62.4781 138.492 62.9981C139.073 64.0715 139.263 65.3519 139.017 66.5483C139.291 65.8998 139.626 65.2736 140.011 64.681C140.129 64.502 140.308 64.3008 140.514 64.3567C140.643 64.3958 140.721 64.5188 140.783 64.6418C140.978 65.0499 141.079 65.5028 141.079 65.9557C141.777 65.2959 142.314 64.4461 142.666 63.5069H142.654Z" fill="#302E29"/>
<path d="M136.989 65.4189C136.989 65.8606 136.57 66.2128 136.061 66.2128C135.553 66.2128 135.134 65.855 135.134 65.4189C135.134 64.9828 135.553 64.625 136.061 64.625C136.57 64.625 136.989 64.9828 136.989 65.4189Z" fill="#DADADA"/>
<path d="M141.147 64.055C141.147 65.039 140.705 65.8385 140.163 65.8385C139.621 65.8385 139.18 65.039 139.18 64.055C139.18 63.071 139.621 62.2715 140.163 62.2715C140.705 62.2715 141.147 63.071 141.147 64.055Z" fill="#3C3C3B"/>
<path d="M139.867 64.4521C138.85 65.2293 137.553 65.6206 136.279 65.5368" stroke="#3C3C3B" stroke-width="0.8" stroke-miterlimit="10" stroke-linecap="round"/>
<path d="M184.54 89.4308L180.154 86.8926L178.472 88.7487L181.009 91.6169L184.54 89.4308Z" fill="#513E35"/>
<path d="M181.747 91.9695C180.869 92.646 179.914 93.2219 178.914 93.6859C178.796 93.7418 178.673 93.7921 178.545 93.781C178.427 93.7698 178.327 93.7027 178.232 93.6412C176.673 92.6069 175.114 91.5726 173.549 90.5327C173.471 90.4768 173.382 90.4153 173.359 90.3202C173.343 90.2364 173.382 90.1525 173.426 90.0742C173.829 89.3362 174.309 88.6374 174.868 88.0056C174.98 87.8826 175.097 87.754 175.248 87.6925C175.522 87.5807 175.835 87.6981 176.103 87.8155C177.098 88.2404 178.254 88.5423 179.171 89.1238C179.461 89.3083 181.992 91.7794 181.747 91.9639V91.9695Z" fill="#2A98C4"/>
<path d="M173.533 89.5435C175.326 90.0523 177.366 89.2808 178.506 87.8104C179.646 86.3344 179.903 84.2713 179.321 82.499C179.076 81.7554 178.679 81.0454 178.07 80.559C177.539 80.1397 176.88 79.9105 176.215 79.7763C175.371 79.5974 174.46 79.5582 173.667 79.9105C173.013 80.2012 172.493 80.7435 172.069 81.325C171.04 82.7283 170.331 84.4726 170.599 86.2226C170.834 87.7656 172.035 89.1242 173.533 89.5547V89.5435Z" fill="#E8CDC1"/>
<path d="M182.104 85.7469C182.014 85.3779 181.774 85.048 181.439 84.8747C182.5 84.2765 182.584 82.5098 181.579 81.8165C182.081 80.8213 181.327 79.4348 180.221 79.3118C180.293 78.7695 179.992 78.1992 179.505 77.9532C179.019 77.7072 178.377 77.8134 177.991 78.2048C177.885 77.6122 177.209 77.2655 176.611 77.3215C176.108 77.3718 175.533 78.0259 175.125 78.0147C174.683 78.0035 174.37 77.355 173.828 77.2879C173.297 77.2208 172.739 77.478 172.443 77.9253C171.878 77.573 171.09 77.6401 170.593 78.0818C170.096 78.5235 169.934 79.3006 170.219 79.8988C169.582 80.3182 169.129 81.0897 169.274 81.8389C169.42 82.588 170.319 83.1471 170.995 82.8005C171.141 83.3708 171.627 83.8348 172.197 83.9634C172.767 84.092 173.404 83.8684 173.778 83.4155C174.035 83.8907 174.32 84.3883 174.801 84.6287C175.281 84.8691 176.008 84.6734 176.108 84.1423C176.114 84.6231 176.181 85.1431 176.516 85.4841C176.851 85.8252 177.533 85.8419 177.74 85.4058C177.511 86.0041 177.662 86.6694 177.812 87.29L178.03 88.1789C178.125 88.5759 178.259 89.0175 178.611 89.2244C178.963 89.4313 179.556 89.107 179.41 88.7268C179.41 89.0846 179.846 89.3195 180.187 89.2132C180.528 89.107 180.735 88.7492 180.785 88.397C180.83 88.0447 180.746 87.6925 180.662 87.3459C181.266 87.4297 181.908 87.0272 182.093 86.4457C182.165 86.2221 182.165 85.9873 182.109 85.7581L182.104 85.7469Z" fill="#B17F4A"/>
<path d="M175.745 87.8105C175.745 88.2522 175.326 88.6044 174.817 88.6044C174.309 88.6044 173.89 88.2466 173.89 87.8105C173.89 87.3744 174.309 87.0166 174.817 87.0166C175.326 87.0166 175.745 87.3744 175.745 87.8105Z" fill="#DADADA"/>
<path d="M179.907 86.4515C179.907 87.4354 179.466 88.2349 178.924 88.2349C178.382 88.2349 177.94 87.4354 177.94 86.4515C177.94 85.4675 178.382 84.668 178.924 84.668C179.466 84.668 179.907 85.4675 179.907 86.4515Z" fill="#3C3C3B"/>
<path d="M178.622 86.8486C177.606 87.6258 176.309 88.0171 175.035 87.9333" stroke="#3C3C3B" stroke-width="0.8" stroke-miterlimit="10" stroke-linecap="round"/>
<path d="M87.465 12.7139L65.1309 25.5281V72.0162L87.4874 59.1013L87.465 12.7139Z" fill="#EFE8DF"/>
<path d="M65.1252 25.606L63.7227 24.8009L86.0791 11.8916L87.4649 12.7135L65.1252 25.606Z" fill="#E5D8C6"/>
<path d="M126.228 35.0107L103.81 47.9592L103.871 94.4137L126.228 81.4988V35.0107Z" fill="#EFE8DF"/>
<path d="M103.809 47.9587L102.496 47.1984L124.819 34.2891L126.227 35.0103L103.809 47.9587Z" fill="#E5D8C6"/>
<path d="M164.972 57.4688L142.615 70.3836V116.877L164.972 103.962V57.4688Z" fill="#EFE8DF"/>
<path d="M142.615 70.3835L141.313 69.6175L163.564 56.7529L164.972 57.4686L142.615 70.3835Z" fill="#E5D8C6"/>
<path d="M60.6543 28.1885L176.907 95.346V141.84L60.6543 74.6821V28.1885Z" fill="#BAA991"/>
<path d="M59.252 27.3838L63.7221 24.8008L181.377 92.7634L176.907 95.3463L59.252 27.3838Z" fill="#E5D8C6"/>
<path d="M99.4224 76.3152L63.6498 55.6514L50.2393 63.4003L86.0063 84.0641L99.4224 76.3152Z" fill="#DB846A"/>
<path d="M50.2393 63.4004V84.0642L51.3121 84.6848V64.021L50.2393 63.4004Z" fill="#CE5F34"/>
<path d="M51.3125 84.6843L64.5219 76.818V71.652L51.3125 64.0205V84.6843Z" fill="#AA3F1F"/>
<path d="M51.3125 64.0205V66.173L86.0067 86.233V84.0638L51.3125 64.0205Z" fill="#CE5F34"/>
<path d="M69.6729 65.2002V66.8886L71.8912 68.2752V66.1562L69.6729 65.2002Z" fill="#878787"/>
<path d="M62.3086 61.1639V45.666L80.1949 55.9979V71.8089L62.3086 61.1639Z" fill="#9D9D9C"/>
<path d="M63.085 60.3366V47.2764L78.9876 56.4957V69.8187L63.085 60.3366Z" fill="#3C3C3B"/>
<path d="M62.3086 45.666L63.957 44.7715L81.8433 55.137V70.5454L80.1949 71.8089V55.9979L62.3086 45.666Z" fill="#C6C6C6"/>
<path d="M71.8916 68.2751L72.3107 68.0347V67.1122L71.8916 66.8662V68.2751Z" fill="#706F6F"/>
<path d="M99.4219 50.4854L77.0654 63.4003V109.894L99.4219 96.979V50.4854Z" fill="#EFE8DF"/>
<path d="M77.0659 63.4001L75.7695 62.6341L98.0143 49.7695L99.4224 50.4852L77.0659 63.4001Z" fill="#E5D8C6"/>
<path d="M75.7695 62.6338V109.144L77.0659 109.893V63.3997L75.7695 62.6338Z" fill="#CBBBA0"/>
<path d="M90.0518 107.081L103.261 99.2145V94.0485L90.0518 86.417V107.081Z" fill="#AA3F1F"/>
<path d="M138.162 98.7117L102.395 78.0479L88.9785 85.7968L124.751 106.461L138.162 98.7117Z" fill="#DB846A"/>
<path d="M88.9785 85.7969V106.461L90.0514 107.081V86.4175L88.9785 85.7969Z" fill="#CE5F34"/>
<path d="M90.0518 86.417V88.5695L124.752 108.63V106.46L90.0518 86.417Z" fill="#CE5F34"/>
<path d="M108.418 87.6025V89.2854L110.636 90.6719V88.553L108.418 87.6025Z" fill="#878787"/>
<path d="M101.054 83.5604V68.0625L118.934 78.3944V94.2054L101.054 83.5604Z" fill="#9D9D9C"/>
<path d="M101.825 82.7331V69.6729L117.733 78.8922V92.2152L101.825 82.7331Z" fill="#3C3C3B"/>
<path d="M101.054 68.0628L102.696 67.1738L120.583 77.5337V92.9421L118.934 94.2057V78.3947L101.054 68.0628Z" fill="#C6C6C6"/>
<path d="M110.637 90.6726L111.05 90.4322V89.5097L110.637 89.2637V90.6726Z" fill="#706F6F"/>
<path d="M138.161 72.9502L115.805 85.8651V132.359L138.161 119.444V72.9502Z" fill="#EFE8DF"/>
<path d="M115.805 85.8649L114.509 85.0934L136.754 72.2344L138.162 72.95L115.805 85.8649Z" fill="#E5D8C6"/>
<path d="M114.509 85.0938V131.61L115.805 132.359V85.8653L114.509 85.0938Z" fill="#CBBBA0"/>
<path d="M51.709 17.8574V38.5213L74.0655 51.4362V30.7723L51.709 17.8574Z" fill="#302E29"/>
<path d="M51.709 38.5215L54.8884 47.9589L56.1848 41.1045L51.709 38.5215Z" fill="#302E29"/>
<path d="M61.432 29.0842V39.159L60.0909 38.3595V39.0304L58.0793 37.8283V37.1574L56.7383 36.3579V26.2832L58.0793 27.0827V26.4118L60.0909 27.6138V28.2847L61.432 29.0842ZM60.0909 28.9556L58.0793 27.7536V36.4865L60.0909 37.6886V28.9556Z" fill="#EDEDED"/>
<path d="M66.9747 38.7677V39.7741L67.6452 40.1766V42.1893L68.3158 42.5919V43.9337L66.9747 43.1342V41.7924L66.3042 41.3898V39.3771L64.9631 38.5776V41.9377L63.6221 41.1382V29.7217L64.9631 30.5212V37.2358L66.3042 38.0353V36.6935L66.9747 37.096V35.7542L68.3158 36.5537V37.8955L67.6452 37.493V39.1702L66.9747 38.7677Z" fill="#EDEDED"/>
<path d="M92.2256 41.3721V62.0359L114.582 74.9508V54.287L92.2256 41.3721Z" fill="#302E29"/>
<path d="M92.2256 62.0361L95.405 71.4735L96.7014 64.6191L92.2256 62.0361Z" fill="#302E29"/>
<path d="M95.0693 57.5635L96.7457 58.5642V60.2415L95.0693 59.2407V57.5635Z" fill="#EDEDED"/>
<path d="M99.2656 60.0684L100.942 61.0691V62.7464L99.2656 61.7456V60.0684Z" fill="#EDEDED"/>
<path d="M103.462 62.5674L105.138 63.5681V65.2454L103.462 64.2446V62.5674Z" fill="#EDEDED"/>
<path d="M111.268 58.156V63.5288L109.927 62.7294V65.2452L108.586 64.4457V61.2534L109.927 62.0529V58.0218L108.586 57.2223V59.2351L107.245 58.4356V55.752L108.586 56.5514V55.8805L109.927 56.68V57.3509L111.268 58.1504V58.156ZM108.413 65.5192L110.089 66.52V68.1972L108.413 67.1965V65.5192Z" fill="#EDEDED"/>
<path d="M92.3428 0V20.6638L114.699 33.5787V12.9149L92.3428 0Z" fill="#302E29"/>
<path d="M92.3428 20.6641L95.5166 30.0959L96.813 23.247L92.3428 20.6641Z" fill="#302E29"/>
<path d="M95.1865 16.1914L96.8628 17.1922V18.8694L95.1865 17.8687V16.1914Z" fill="#EDEDED"/>
<path d="M99.3828 18.6904L101.059 19.6912V21.3685L99.3828 20.3677V18.6904Z" fill="#EDEDED"/>
<path d="M103.579 21.1953L105.255 22.1961V23.8733L103.579 22.8726V21.1953Z" fill="#EDEDED"/>
<path d="M111.38 16.7781V22.1509L110.039 21.3514V23.8673L108.697 23.0678V19.8754L110.039 20.6749V16.6439L108.697 15.8444V17.8571L107.356 17.0576V14.374L108.697 15.1735V14.5026L110.039 15.3021V15.973L111.38 16.7725V16.7781ZM108.53 24.1413L110.206 25.142V26.8193L108.53 25.8185V24.1413Z" fill="#EDEDED"/>
<path d="M132.859 23.5156V44.1795L155.216 57.0944V36.4305L132.859 23.5156Z" fill="#302E29"/>
<path d="M132.859 44.1797L136.033 53.6115L137.33 46.7627L132.859 44.1797Z" fill="#302E29"/>
<path d="M137.944 41.0762L139.621 42.0769V43.7542L137.944 42.7534V41.0762Z" fill="#EDEDED"/>
<path d="M142.141 43.5752L143.817 44.576V46.2532L142.141 45.2525V43.5752Z" fill="#EDEDED"/>
<path d="M146.331 46.0801L148.007 47.0808V48.7581L146.331 47.7573V46.0801Z" fill="#EDEDED"/>
<path d="M172.879 46.5049V67.1687L195.235 80.0836V59.4198L172.879 46.5049Z" fill="#302E29"/>
<path d="M172.879 67.1689L176.053 76.6007L177.349 69.7519L172.879 67.1689Z" fill="#302E29"/>
<path d="M181.428 57.0491V67.1238L180.087 66.3243V66.9952L178.075 65.7932V65.1223L176.734 64.3228V54.248L178.075 55.0475V54.3766L180.087 55.5787V56.2496L181.428 57.0491ZM180.087 56.9205L178.075 55.7184V64.4514L180.087 65.6534V56.9205Z" fill="#EDEDED"/>
<path d="M186.966 66.7325V67.7389L187.636 68.1414V70.1542L188.307 70.5567V71.8985L186.966 71.099V69.7572L186.295 69.3547V67.3419L184.954 66.5425V69.9026L183.613 69.1031V57.6865L184.954 58.486V65.2006L186.295 66.0001V64.6583L186.966 65.0609V63.7191L188.307 64.5186V65.8604L187.636 65.4578V67.1351L186.966 66.7325Z" fill="#EDEDED"/>
<path d="M94.8461 119.337C98.3364 119.337 101.166 117.78 101.166 115.859C101.166 113.939 98.3364 112.382 94.8461 112.382C91.3558 112.382 88.5264 113.939 88.5264 115.859C88.5264 117.78 91.3558 119.337 94.8461 119.337Z" fill="#3C3C3B"/>
<path d="M94.8457 106.02V115.859" stroke="#9D9D9C" stroke-width="1.6" stroke-miterlimit="10" stroke-linecap="round"/>
<path d="M99.5342 90.0635L102.775 87.6035L111.632 92.6353L108.38 95.2518L99.5342 90.0635Z" fill="#9D9D9C"/>
<path d="M111.632 92.6357V93.3793L108.38 95.2523L111.632 92.6357Z" fill="#C6C6C6"/>
<path d="M102.384 88.4141L100.456 89.9516L108.223 94.4242L110.005 92.7805L102.384 88.4141Z" fill="#575756"/>
<path d="M102.154 88.2461L110.335 92.9872" stroke="#9D9D9C" stroke-width="0.4" stroke-miterlimit="10"/>
<path d="M101.752 88.6377L109.932 93.3843" stroke="#9D9D9C" stroke-width="0.4" stroke-miterlimit="10"/>
<path d="M101.345 89.0518L109.525 93.7984" stroke="#9D9D9C" stroke-width="0.4" stroke-miterlimit="10"/>
<path d="M100.937 89.4482L109.117 94.1893" stroke="#9D9D9C" stroke-width="0.4" stroke-miterlimit="10"/>
<path d="M109.575 92.1318L107.256 94.2731" stroke="#9D9D9C" stroke-width="0.4" stroke-miterlimit="10"/>
<path d="M108.966 91.7354L106.647 93.8711" stroke="#9D9D9C" stroke-width="0.4" stroke-miterlimit="10"/>
<path d="M108.33 91.4111L106.011 93.5468" stroke="#9D9D9C" stroke-width="0.4" stroke-miterlimit="10"/>
<path d="M107.72 91.0088L105.401 93.1501" stroke="#9D9D9C" stroke-width="0.4" stroke-miterlimit="10"/>
<path d="M107.1 90.6729L104.781 92.8142" stroke="#9D9D9C" stroke-width="0.4" stroke-miterlimit="10"/>
<path d="M106.491 90.2764L104.172 92.4177" stroke="#9D9D9C" stroke-width="0.4" stroke-miterlimit="10"/>
<path d="M105.842 89.9404L103.523 92.0817" stroke="#9D9D9C" stroke-width="0.4" stroke-miterlimit="10"/>
<path d="M105.228 89.5439L102.909 91.6797" stroke="#9D9D9C" stroke-width="0.4" stroke-miterlimit="10"/>
<path d="M104.462 89.2861L102.144 91.4274" stroke="#9D9D9C" stroke-width="0.4" stroke-miterlimit="10"/>
<path d="M103.854 88.8896L101.529 91.031" stroke="#9D9D9C" stroke-width="0.4" stroke-miterlimit="10"/>
<path d="M103.127 88.4697L100.809 90.611" stroke="#9D9D9C" stroke-width="0.4" stroke-miterlimit="10"/>
<path d="M103.495 110.247C103.859 110.191 104.283 110.185 104.535 110.448C104.775 110.7 104.758 111.119 104.579 111.421C104.406 111.723 104.104 111.93 103.808 112.109C103.16 112.506 102.473 112.835 101.774 113.126C101.216 113.355 100.551 113.601 100.003 113.216C99.9193 113.154 99.841 113.081 99.7852 112.992C99.6958 112.841 99.6846 112.657 99.6846 112.478C99.6846 112.232 99.6846 111.891 99.8522 111.695C99.9695 111.561 100.104 111.41 100.238 111.287C101.093 110.515 102.406 110.398 103.49 110.236L103.495 110.247Z" fill="#262B2D"/>
<path d="M101.479 111.818C101.384 111.902 101.277 111.974 101.166 112.036C100.719 112.265 100.11 112.22 99.7744 111.846C99.5788 110.247 99.5118 106.853 99.428 105.243C99.3609 103.952 99.0145 102.655 99.1933 101.357C99.3497 100.206 100.037 99.3894 101.071 98.9086C101.495 98.7074 101.959 98.5396 102.334 98.9366C102.49 99.1043 102.579 99.3279 102.624 99.5572C102.68 99.8423 102.646 100.116 102.635 100.401C102.624 100.714 102.596 101.022 102.568 101.335C102.535 101.698 102.557 102.067 102.546 102.431C102.524 103.197 102.456 103.963 102.429 104.729C102.395 105.69 102.317 108.435 102.272 109.392C102.25 109.895 102.222 110.403 102.065 110.884C101.948 111.242 101.752 111.583 101.479 111.829V111.818Z" fill="#343C3F"/>
<path d="M101.445 100.983C101.987 100.703 102.596 100.312 102.624 99.7026C102.641 99.2833 102.351 98.9031 101.982 98.7018C101.619 98.5006 101.188 98.4503 100.769 98.4279C98.7968 98.3217 96.8355 98.7633 94.9692 99.4007C93.9914 99.7361 93.0135 100.133 92.248 100.826C91.4825 101.52 90.9572 102.554 91.1193 103.571C91.5272 106.143 93.7176 105.025 95.1368 104.282C97.2378 103.18 99.3388 102.084 101.445 100.983Z" fill="#343C3F"/>
<path d="M107.899 112.41C108.262 112.354 108.687 112.348 108.938 112.611C109.178 112.863 109.162 113.282 108.983 113.584C108.81 113.886 108.508 114.093 108.212 114.272C107.563 114.669 106.876 114.999 106.178 115.289C105.619 115.519 104.954 115.765 104.406 115.379C104.323 115.317 104.244 115.245 104.188 115.155C104.099 115.004 104.088 114.82 104.088 114.641C104.088 114.395 104.088 114.054 104.256 113.858C104.373 113.724 104.507 113.573 104.641 113.45C105.496 112.678 106.809 112.561 107.893 112.399L107.899 112.41Z" fill="#262B2D"/>
<path d="M105.876 113.981C105.781 114.065 105.675 114.138 105.563 114.199C105.116 114.428 104.507 114.384 104.172 114.009C103.976 112.41 103.909 109.016 103.825 107.406C103.758 106.115 103.412 104.818 103.591 103.521C103.747 102.369 104.434 101.553 105.468 101.072C105.893 100.87 106.357 100.703 106.731 101.1C106.887 101.267 106.977 101.491 107.022 101.72C107.077 102.005 107.044 102.279 107.033 102.564C107.022 102.878 106.994 103.185 106.966 103.498C106.932 103.862 106.955 104.231 106.943 104.594C106.921 105.36 106.854 106.126 106.826 106.892C106.792 107.853 106.714 110.599 106.67 111.555C106.647 112.058 106.619 112.567 106.463 113.047C106.345 113.405 106.15 113.746 105.876 113.992V113.981Z" fill="#3E484C"/>
<path d="M96.3544 110.52L105.3 105.354L94.8457 99.3105L96.3544 110.52Z" fill="#513E35"/>
<path d="M96.3604 110.52L105.301 105.354V107.468L96.3604 112.69V110.52Z" fill="#705F57"/>
<path d="M105.843 103.146C106.385 102.866 106.994 102.475 107.022 101.866C107.039 101.446 106.748 101.066 106.379 100.865C106.016 100.664 105.586 100.613 105.167 100.591C103.194 100.485 101.233 100.926 99.3667 101.564C98.3888 101.899 97.411 102.296 96.6455 102.989C95.8799 103.683 95.3547 104.717 95.5167 105.735C95.9246 108.301 98.115 107.188 99.5343 106.445C101.635 105.343 103.736 104.247 105.843 103.146Z" fill="#3E484C"/>
<path d="M108.53 91.8356C108.681 91.8076 108.849 91.7964 108.972 91.8859C109.033 91.9306 109.072 91.9977 109.106 92.0704C109.385 92.6295 109.262 93.3619 108.821 93.8091C108.625 94.0048 108.385 94.139 108.145 94.262C107.608 94.5416 107.022 94.782 106.424 94.7093C106.385 94.7093 106.34 94.6981 106.306 94.6757C106.273 94.6534 106.245 94.6142 106.222 94.5807C105.384 93.1997 107.379 92.0424 108.53 91.8356Z" fill="#E8CDC1"/>
<path d="M103.663 89.9464C103.764 89.829 103.859 89.6893 103.837 89.5383C103.825 89.46 103.792 89.3929 103.747 89.3314C103.401 88.8115 102.708 88.5431 102.104 88.7053C101.842 88.778 101.602 88.9177 101.372 89.0631C100.864 89.3874 100.361 89.7731 100.121 90.3266C100.104 90.3658 100.087 90.4049 100.093 90.444C100.093 90.4888 100.115 90.5279 100.132 90.5614C100.909 91.9815 102.909 90.8354 103.663 89.9408V89.9464Z" fill="#E8CDC1"/>
<path d="M95.9524 92.0704C96.053 92.1543 96.1592 92.2438 96.2877 92.2605C96.4609 92.2829 96.6229 92.1823 96.7626 92.0816C97.9193 91.2709 99.0592 90.4267 100.171 89.549C100.288 89.4539 100.423 89.3589 100.573 89.3812C100.73 89.4036 100.83 89.549 100.914 89.6775C101.205 90.1416 101.467 90.628 101.691 91.1256C101.741 91.2374 101.792 91.366 101.769 91.489C101.736 91.6511 101.585 91.7518 101.445 91.8412C99.8079 92.8588 98.1707 93.8763 96.5279 94.8994C96.2374 95.0783 95.9245 95.2628 95.5836 95.2293C95.2986 95.2013 95.0584 95.0168 94.8349 94.8435C94.1029 94.2788 93.4044 93.6527 92.5998 93.183C92.0131 92.842 91.0799 92.719 90.8117 92.0145C90.6664 91.6344 90.7446 91.1759 91.0017 90.8628C91.1246 90.7175 91.2755 90.6 91.4375 90.505C93.2088 89.4763 94.684 90.9802 95.9524 92.0649V92.0704Z" fill="#2A98C4"/>
<path d="M90.9236 89.3815C91.8399 89.2082 92.7675 89.5045 93.656 89.8008C95.159 90.2984 96.7236 90.7513 97.4947 92.2049C98.3496 93.8151 98.5229 95.5147 98.6123 97.3149C98.7017 99.1096 98.7855 100.91 98.8749 102.705C98.8861 102.978 98.9028 103.258 98.8134 103.515C98.5676 104.242 97.3662 104.728 96.7069 105.047C95.539 105.606 94.0024 105.612 92.7731 105.293C91.1415 104.874 89.6831 103.716 89.0237 102.162C88.5152 100.966 88.4873 99.6296 88.465 98.3325C88.4258 96.1241 87.7553 89.9797 90.9291 89.3871L90.9236 89.3815Z" fill="#36A9E1"/>
<path d="M86.1232 89.1357L96.4046 95.0956C96.4046 95.0956 98.1368 105.344 97.8294 109.671L96.3599 110.521L86.1232 104.634C86.1232 104.634 86.1455 94.9055 85.2794 89.9688C85.1565 89.2643 85.6314 89.1357 86.1232 89.1357Z" fill="#634E42"/>
<path d="M86.123 104.634V106.932L96.3598 112.69V110.521L86.123 104.634Z" fill="#634E42"/>
<path d="M96.3601 110.521C96.3601 110.521 96.4383 99.8701 95.3208 96.51C95.3208 96.51 94.9129 95.0564 96.3992 95.0955C96.3992 95.0955 98.1314 105.232 97.8241 109.671L96.3545 110.521H96.3601Z" fill="#705F57"/>
<path d="M92.7616 91.008C92.7616 91.008 92.7952 91.0415 92.8119 91.0527C93.0299 91.2372 93.2869 91.377 93.5607 91.4497C93.7954 91.5168 94.0412 91.5335 94.2815 91.5503C94.5609 91.5671 94.8682 91.5615 95.0694 91.3658C95.4773 90.9633 95.2817 89.8675 95.2873 89.3587C95.2873 89.314 95.2873 89.2636 95.2594 89.2245C95.2258 89.1798 95.1699 89.163 95.1197 89.1462C94.3988 88.9506 93.6669 88.8443 92.9237 88.822C92.4376 88.8052 92.4431 88.7884 92.5661 89.2133C92.6778 89.5991 92.6778 90.0296 92.5996 90.421C92.5828 90.5048 92.5661 90.5831 92.5717 90.667C92.5828 90.8011 92.6667 90.9074 92.7672 91.0024L92.7616 91.008Z" fill="#E8CDC1"/>
<path d="M97.9083 86.4635C97.7742 87.8221 97.0031 89.2142 95.7123 89.6671C95.3156 89.8069 94.8909 89.8516 94.4718 89.8628C94.0192 89.8795 93.5499 89.8516 93.1252 89.6894C92.0747 89.2813 91.5103 88.0793 91.4712 86.9499C91.4265 85.815 91.8177 84.6688 92.5385 83.7967C93.2593 82.9245 94.3154 82.3263 95.4329 82.1585C96.4611 82.002 97.1987 82.1418 97.4836 83.1649C97.7798 84.2328 98.0145 85.3453 97.9027 86.4579L97.9083 86.4635Z" fill="#E8CDC1"/>
<path d="M88.4478 83.0526C88.8557 81.7164 89.7833 80.5591 91.1243 80.0727C91.3925 79.9776 91.6775 79.9106 91.9122 79.754C92.1748 79.5807 92.3536 79.3067 92.5883 79.0999C93.0521 78.6862 93.6947 78.5464 94.3149 78.5128C95.7566 78.4402 97.3435 79.0272 97.9861 80.3187C98.4331 81.2244 98.3493 82.2923 98.5057 83.2874C98.4778 83.0973 96.5668 83.5223 96.3991 83.6005C96.5612 84.0478 96.8853 85.3113 96.3209 85.6971C95.723 86.0996 95.5219 85.0541 94.9016 86.0605C94.4323 86.8153 94.7843 87.7713 94.3317 88.5205C93.9853 89.0963 93.2365 89.3032 92.5604 89.292C90.655 89.2585 88.9116 87.7825 88.3975 85.9431C88.1349 85.0094 88.1684 83.9863 88.4534 83.0526H88.4478Z" fill="#F9B233"/>
<path d="M99.5953 85.4173C99.5953 85.8087 99.288 86.1218 98.908 86.1218C98.528 86.1218 98.2207 85.8031 98.2207 85.4173C98.2207 85.0316 98.528 84.7129 98.908 84.7129C99.288 84.7129 99.5953 85.0316 99.5953 85.4173Z" fill="#DADADA"/>
<path d="M96.3605 86.0494C96.3605 86.7483 95.9861 87.3185 95.5279 87.3185C95.0697 87.3185 94.6953 86.7483 94.6953 86.0494C94.6953 85.3505 95.0697 84.7803 95.5279 84.7803C95.9861 84.7803 96.3605 85.3505 96.3605 86.0494Z" fill="#3C3C3B"/>
<path d="M95.8408 86.5135C96.8857 86.5526 97.9418 86.2396 98.7911 85.6357" stroke="#3C3C3B" stroke-width="0.8" stroke-miterlimit="10" stroke-linecap="round"/>
<path d="M101.613 95.3417C101.714 95.4256 101.82 95.515 101.948 95.5318C102.122 95.5541 102.284 95.4535 102.423 95.3529C103.58 94.5422 104.72 93.698 105.832 92.8258C105.949 92.7308 106.083 92.6357 106.234 92.6581C106.391 92.6804 106.491 92.8258 106.575 92.9544C106.866 93.4184 107.128 93.9048 107.352 94.4024C107.402 94.5142 107.452 94.6428 107.43 94.7658C107.397 94.928 107.246 95.0286 107.106 95.1181C105.469 96.1356 103.832 97.1531 102.189 98.1763C101.898 98.3552 101.585 98.5397 101.244 98.5061C100.959 98.4782 100.719 98.2937 100.496 98.1204C99.529 97.3712 98.6294 96.5493 97.5118 96.0853C96.601 95.7051 95.8746 94.8106 95.5896 93.8825C95.4667 93.4799 95.422 93.0438 95.517 92.6357C95.6176 92.2276 95.8746 91.8418 96.249 91.6573C96.9195 91.3219 97.7297 91.6685 98.3164 92.1269C98.9311 92.6078 99.2608 93.2228 99.7637 93.7818C100.283 94.3577 101.015 94.8385 101.608 95.3473L101.613 95.3417Z" fill="#36A9E1"/>
<path d="M91.7557 80.5928C91.9066 80.755 91.9848 80.9786 92.0128 81.1966C92.1022 81.8508 91.7837 82.544 91.2249 82.8963C91.1187 82.9634 90.9958 83.0249 90.8729 83.0193C90.7164 83.0193 90.5711 82.913 90.4817 82.7845C90.3923 82.6559 90.3532 82.4993 90.3253 82.3428C90.2582 81.9738 90.2694 81.588 90.4035 81.2414C90.5935 80.7494 91.2528 80.0561 91.7557 80.5928Z" fill="#E94E1B"/>
<path d="M90.5043 78.4122C89.9456 77.8922 89.1465 77.6518 88.3978 77.7748C87.6099 77.9034 86.9226 78.4178 86.4644 79.0719C86.0062 79.726 85.7715 80.5087 85.6598 81.2971C85.576 81.8953 85.5592 82.5103 85.3636 83.0805C85.1681 83.6508 84.7378 84.1931 84.1455 84.3049C84.6596 85.0709 85.643 85.384 86.565 85.3784C87.8502 85.3784 89.1242 84.8473 90.0294 83.9415C91.3984 82.5718 92.1136 79.8993 90.5043 78.4066V78.4122Z" fill="#F9B233"/>
<path d="M62.4197 93.4629C62.4197 95.3861 59.5923 96.9404 56.1 96.9404C52.6077 96.9404 49.7803 95.3805 49.7803 93.4629C49.7803 91.5452 52.6077 89.9854 56.1 89.9854C59.5923 89.9854 62.4197 91.5452 62.4197 93.4629Z" fill="#3C3C3B"/>
<path d="M56.1006 83.623V93.463" stroke="#9D9D9C" stroke-width="1.6" stroke-miterlimit="10" stroke-linecap="round"/>
<path d="M60.7891 67.6667L64.0299 65.2012L72.8921 70.2385L69.64 72.8551L60.7891 67.6667Z" fill="#9D9D9C"/>
<path d="M72.8917 70.2383V70.9819L69.6396 72.8548L72.8917 70.2383Z" fill="#C6C6C6"/>
<path d="M63.6387 66.0176L61.7109 67.5551L69.4779 72.0278L71.2659 70.384L63.6387 66.0176Z" fill="#575756"/>
<path d="M63.415 65.8496L71.5955 70.5907" stroke="#9D9D9C" stroke-width="0.4" stroke-miterlimit="10"/>
<path d="M63.0068 66.2412L71.1873 70.9879" stroke="#9D9D9C" stroke-width="0.4" stroke-miterlimit="10"/>
<path d="M62.5986 66.6543L70.7791 71.4009" stroke="#9D9D9C" stroke-width="0.4" stroke-miterlimit="10"/>
<path d="M62.1963 67.0518L70.3767 71.7928" stroke="#9D9D9C" stroke-width="0.4" stroke-miterlimit="10"/>
<path d="M70.8355 69.7354L68.5166 71.8711" stroke="#9D9D9C" stroke-width="0.4" stroke-miterlimit="10"/>
<path d="M70.2259 69.3379L67.9014 71.4736" stroke="#9D9D9C" stroke-width="0.4" stroke-miterlimit="10"/>
<path d="M69.5891 69.0137L67.2646 71.1494" stroke="#9D9D9C" stroke-width="0.4" stroke-miterlimit="10"/>
<path d="M68.9742 68.6113L66.6553 70.7526" stroke="#9D9D9C" stroke-width="0.4" stroke-miterlimit="10"/>
<path d="M68.3599 68.2764L66.041 70.4177" stroke="#9D9D9C" stroke-width="0.4" stroke-miterlimit="10"/>
<path d="M67.7457 67.8789L65.4268 70.0146" stroke="#9D9D9C" stroke-width="0.4" stroke-miterlimit="10"/>
<path d="M67.0972 67.5439L64.7783 69.6852" stroke="#9D9D9C" stroke-width="0.4" stroke-miterlimit="10"/>
<path d="M66.4879 67.1465L64.1689 69.2822" stroke="#9D9D9C" stroke-width="0.4" stroke-miterlimit="10"/>
<path d="M65.7173 66.8896L63.3984 69.031" stroke="#9D9D9C" stroke-width="0.4" stroke-miterlimit="10"/>
<path d="M65.108 66.4922L62.7891 68.6335" stroke="#9D9D9C" stroke-width="0.4" stroke-miterlimit="10"/>
<path d="M64.3873 66.0732L62.0684 68.2145" stroke="#9D9D9C" stroke-width="0.4" stroke-miterlimit="10"/>
<path d="M64.7561 87.8494C65.1193 87.7935 65.544 87.7879 65.7955 88.0507C66.0357 88.3023 66.019 88.7216 65.8402 89.0235C65.6669 89.3254 65.3652 89.5323 65.0691 89.7112C64.4209 90.1082 63.7336 90.438 63.0351 90.7287C62.4763 90.958 61.8114 91.204 61.2638 90.8182C61.18 90.7567 61.1018 90.684 61.0459 90.5945C60.9565 90.4436 60.9453 90.2591 60.9453 90.0802C60.9453 89.8342 60.9453 89.4932 61.1129 89.2975C61.2303 89.1633 61.3644 89.0123 61.4985 88.8893C62.3534 88.1178 63.6665 88.0004 64.7506 87.8383L64.7561 87.8494Z" fill="#262B2D"/>
<path d="M62.7384 89.4205C62.6434 89.5043 62.5373 89.577 62.4255 89.6385C61.9785 89.8678 61.3694 89.823 61.0342 89.4484C60.8386 87.8495 60.7715 84.4558 60.6877 82.8456C60.6207 81.5541 60.2742 80.257 60.453 78.96C60.6095 77.8083 61.2968 76.992 62.3305 76.5112C62.7552 76.3099 63.219 76.1422 63.5933 76.5391C63.7498 76.7068 63.8392 76.9305 63.8839 77.1597C63.9398 77.4448 63.9062 77.7188 63.8951 78.0039C63.8839 78.317 63.856 78.6245 63.828 78.9376C63.7945 79.301 63.8168 79.67 63.8057 80.0334C63.7833 80.7994 63.7163 81.5653 63.6883 82.3313C63.6548 83.2929 63.5766 86.038 63.5319 86.9941C63.5095 87.4972 63.4816 88.006 63.3251 88.4868C63.2078 88.8446 63.0122 89.1857 62.7384 89.4317V89.4205Z" fill="#343C3F"/>
<path d="M62.7052 78.5855C63.2472 78.3059 63.8562 77.9146 63.8842 77.3051C63.9009 76.8858 63.6104 76.5056 63.2416 76.3044C62.8784 76.1031 62.4481 76.0528 62.029 76.0304C60.0566 75.9242 58.0953 76.3659 56.229 77.0032C55.2511 77.3387 54.2733 77.7356 53.5078 78.4289C52.7422 79.1222 52.217 80.1565 52.379 81.174C52.7869 83.7402 54.9773 82.6277 56.3966 81.8841C58.4976 80.7827 60.5986 79.6869 62.7052 78.5855Z" fill="#343C3F"/>
<path d="M69.1536 90.0135C69.5168 89.9576 69.9415 89.952 70.1929 90.2148C70.4332 90.4664 70.4164 90.8857 70.2376 91.1876C70.0588 91.4895 69.7627 91.6964 69.4665 91.8753C68.8183 92.2722 68.131 92.6021 67.4326 92.8928C66.8738 93.122 66.2089 93.368 65.6613 92.9823C65.5775 92.9208 65.4992 92.8481 65.4434 92.7586C65.3539 92.6077 65.3428 92.4232 65.3428 92.2443C65.3428 91.9983 65.3428 91.6572 65.5104 91.4615C65.6277 91.3274 65.7619 91.1764 65.896 91.0534C66.7509 90.2819 68.064 90.1645 69.148 90.0023L69.1536 90.0135Z" fill="#262B2D"/>
<path d="M67.1359 91.5845C67.0409 91.6684 66.9347 91.7411 66.823 91.8026C66.3759 92.0318 65.7669 91.9871 65.4316 91.6125C65.2361 90.0135 65.169 86.6199 65.0852 85.0097C65.0181 83.7182 64.6717 82.4211 64.8505 81.124C65.007 79.9723 65.6942 79.156 66.728 78.6752C67.1526 78.474 67.6164 78.3062 67.9908 78.7032C68.1473 78.8709 68.2367 79.0945 68.2814 79.3238C68.3372 79.6089 68.3037 79.8829 68.2925 80.168C68.2814 80.4811 68.2534 80.7886 68.2255 81.1017C68.192 81.4651 68.2143 81.8341 68.2031 82.1975C68.1808 82.9634 68.1137 83.7294 68.0858 84.4953C68.0523 85.457 67.974 88.2021 67.9293 89.1581C67.907 89.6613 67.879 90.1701 67.7226 90.6509C67.6052 91.0087 67.4097 91.3497 67.1359 91.5957V91.5845Z" fill="#3E484C"/>
<path d="M57.6149 88.1237L66.5552 82.9578L56.1006 76.9141L57.6149 88.1237Z" fill="#513E35"/>
<path d="M57.6201 88.124L66.5549 82.958V85.0714L57.6201 90.2932V88.124Z" fill="#705F57"/>
<path d="M67.1026 80.7495C67.6446 80.47 68.2537 80.0786 68.2816 79.4692C68.2984 79.0499 68.0078 78.6697 67.639 78.4684C67.2758 78.2672 66.8456 78.2169 66.4265 78.1945C64.454 78.0883 62.4927 78.5299 60.6264 79.1673C59.6486 79.5028 58.6707 79.8997 57.9052 80.593C57.1397 81.2862 56.6145 82.3206 56.7765 83.3381C57.1844 85.9043 59.3748 84.7917 60.7941 84.0481C62.8951 82.9467 64.996 81.8509 67.1026 80.7495Z" fill="#3E484C"/>
<path d="M69.7851 69.4332C69.936 69.4053 70.1036 69.3941 70.2265 69.4835C70.288 69.5283 70.3271 69.5954 70.3606 69.668C70.64 70.2271 70.5171 70.9595 70.0757 71.4068C69.8801 71.6025 69.6398 71.7367 69.3995 71.8653C68.8631 72.1448 68.2764 72.3852 67.6785 72.3125C67.6394 72.3125 67.5947 72.3013 67.5612 72.279C67.5277 72.2566 67.4997 72.2175 67.4774 72.1839C66.6392 70.803 68.634 69.6457 69.7851 69.4388V69.4332Z" fill="#E8CDC1"/>
<path d="M64.9232 67.549C65.0238 67.4316 65.1188 67.2918 65.0964 67.1408C65.0853 67.0626 65.0517 66.9955 65.007 66.934C64.6606 66.414 63.9677 66.1457 63.3642 66.3078C63.1016 66.3805 62.8613 66.5203 62.6322 66.6656C62.1238 66.9899 61.6209 67.3757 61.3806 67.9292C61.3638 67.9683 61.3471 68.0074 61.3527 68.0466C61.3527 68.0913 61.375 68.1304 61.3918 68.164C62.1685 69.5841 64.1689 68.4379 64.9232 67.5434V67.549Z" fill="#E8CDC1"/>
<path d="M57.2073 69.674C57.3079 69.7578 57.414 69.8473 57.5426 69.864C57.7158 69.8864 57.8778 69.7858 58.0175 69.6851C59.1742 68.8745 60.3141 68.0302 61.426 67.1525C61.5434 67.0574 61.6775 66.9624 61.8283 66.9847C61.9848 67.0071 62.0854 67.1525 62.1692 67.2811C62.4598 67.7451 62.7224 68.2315 62.9459 68.7291C62.9962 68.8409 63.0465 68.9695 63.0241 69.0925C62.9906 69.2546 62.8397 69.3553 62.7 69.4447C61.0628 70.4623 59.4256 71.4798 57.7828 72.5029C57.4923 72.6818 57.1793 72.8663 56.8385 72.8328C56.5535 72.8048 56.3132 72.6203 56.0897 72.447C55.3577 71.8824 54.6593 71.2562 53.8547 70.7865C53.2679 70.4455 52.3348 70.3225 52.0666 69.618C51.9213 69.2379 51.9995 68.7794 52.2566 68.4663C52.3795 68.321 52.5304 68.2036 52.6924 68.1085C54.4637 67.0798 55.9389 68.5837 57.2073 69.6684V69.674Z" fill="#2A98C4"/>
<path d="M52.1833 66.984C53.0997 66.8107 54.0273 67.107 54.9157 67.4034C56.4188 67.9009 57.9834 68.3538 58.7545 69.8074C59.6094 71.4176 59.7826 73.1172 59.872 74.9175C59.9614 76.7122 60.0453 78.5124 60.1347 80.3071C60.1458 80.581 60.1626 80.8606 60.0732 81.1178C59.8273 81.8446 58.626 82.331 57.9666 82.6497C56.7988 83.2087 55.2622 83.2143 54.0329 82.8957C52.4012 82.4707 50.9428 81.319 50.2835 79.7648C49.775 78.5683 49.7471 77.2321 49.7247 75.935C49.6856 73.7266 49.0151 67.5823 52.1889 66.9896L52.1833 66.984Z" fill="#36A9E1"/>
<path d="M47.378 66.7383L57.6595 72.6981C57.6595 72.6981 59.3916 82.9462 59.0843 87.2735L57.6147 88.1233L47.378 82.2362C47.378 82.2362 47.4004 72.5081 46.5343 67.5713C46.4114 66.8669 46.8863 66.7383 47.378 66.7383Z" fill="#634E42"/>
<path d="M47.3779 82.2305V84.5339L57.6202 90.2925V88.1232L47.3779 82.2305Z" fill="#634E42"/>
<path d="M57.6208 88.1232C57.6208 88.1232 57.699 77.4726 56.5815 74.1125C56.5815 74.1125 56.1736 72.6589 57.6599 72.698C57.6599 72.698 59.3921 82.8343 59.0848 87.2734L57.6152 88.1232H57.6208Z" fill="#705F57"/>
<path d="M53.955 68.6898C53.955 68.7513 53.9606 68.8184 53.9997 68.8631C54.0276 68.9023 54.0723 68.9246 54.117 68.9414C54.6255 69.1651 55.1843 69.2657 55.7375 69.2321C55.9219 69.221 56.1119 69.193 56.2571 69.0812C56.5086 68.8855 56.5365 68.5221 56.5365 68.1978C56.5365 67.7841 56.5421 67.3648 56.5477 66.9511C56.5477 66.9063 56.5477 66.856 56.5198 66.8169C56.4862 66.7722 56.4304 66.7554 56.3801 66.7386C55.7654 66.5709 54.4244 66.1348 53.8712 66.6603C53.4074 67.0964 53.9326 68.1196 53.9606 68.6786L53.955 68.6898Z" fill="#E8CDC1"/>
<path d="M59.1622 64.066C59.0281 65.4246 58.257 66.8168 56.9662 67.2696C56.5695 67.4094 56.1448 67.4541 55.7257 67.4653C55.2731 67.4821 54.8038 67.4541 54.3791 67.292C53.3286 66.8838 52.7642 65.6818 52.7251 64.5525C52.6804 63.4175 53.0716 62.2714 53.7924 61.3992C54.5132 60.527 55.5693 59.9288 56.6868 59.7611C57.715 59.6045 58.4526 59.7443 58.7375 60.7674C59.0337 61.8353 59.2684 62.9479 59.1566 64.0605L59.1622 64.066Z" fill="#E8CDC1"/>
<path d="M49.8923 60.6556C49.9594 60.5047 50.06 60.3649 50.1829 60.2531C49.7973 59.9009 49.6465 59.3138 49.8085 58.8162C49.9761 58.3187 50.4455 57.9441 50.9652 57.8938C50.8702 57.6422 50.9652 57.3514 51.1328 57.1446C51.3004 56.9377 51.5351 56.7979 51.7642 56.6582C52.133 56.4401 52.5353 56.2165 52.96 56.2668C53.2897 56.3059 53.5802 56.5128 53.8484 56.7141C53.9546 56.2333 54.3737 55.8307 54.8598 55.7469C55.3459 55.663 55.8712 55.8978 56.1338 56.3171C56.212 55.9985 56.5026 55.7636 56.8211 55.691C57.1396 55.6183 57.4749 55.691 57.771 55.8195C58.0839 55.9593 58.3745 56.183 58.5086 56.496C58.6483 56.8091 58.598 57.2173 58.3298 57.4297C58.5365 57.3067 58.8215 57.3682 59.0059 57.5304C59.1903 57.6869 59.2965 57.9217 59.3691 58.1565C59.4529 58.4249 59.5032 58.71 59.4417 58.9784C59.3803 59.2467 59.1791 59.5039 58.9053 59.5598C59.0897 60.1525 58.598 60.8513 57.9778 60.8793C58.0504 61.3713 57.7654 61.8968 57.7598 62.4112C57.7598 62.6236 57.7654 62.8473 57.6872 63.0429C57.609 63.2386 57.4078 63.4119 57.2011 63.3784C57.2346 63.1659 56.972 62.9982 56.7596 63.0485C56.5473 63.0989 56.3964 63.2778 56.2791 63.4623C55.7203 64.2953 55.4689 65.3017 55.4186 66.3024C55.4018 66.6043 55.4018 66.9286 55.223 67.1746C55.0442 67.4206 54.7201 67.5324 54.4128 67.5212C52.1665 67.5212 51.1831 65.229 50.4287 63.507C50.2555 63.1156 50.0879 62.6628 50.2723 62.2826C49.7806 61.9248 49.6409 61.198 49.8867 60.6556H49.8923Z" fill="#513B31"/>
<path d="M60.8551 63.0209C60.8551 63.4122 60.5477 63.7253 60.1678 63.7253C59.7878 63.7253 59.4805 63.4066 59.4805 63.0209C59.4805 62.6351 59.7878 62.3164 60.1678 62.3164C60.5477 62.3164 60.8551 62.6351 60.8551 63.0209Z" fill="#DADADA"/>
<path d="M56.7876 64.9211C57.2475 64.9211 57.6202 64.3529 57.6202 63.6519C57.6202 62.951 57.2475 62.3828 56.7876 62.3828C56.3278 62.3828 55.9551 62.951 55.9551 63.6519C55.9551 64.3529 56.3278 64.9211 56.7876 64.9211Z" fill="#3C3C3B"/>
<path d="M57.1006 64.116C58.1455 64.1552 59.2016 63.8421 60.0509 63.2383" stroke="#3C3C3B" stroke-width="0.8" stroke-miterlimit="10" stroke-linecap="round"/>
<path d="M62.8671 72.944C62.9677 73.0278 63.0739 73.1173 63.2024 73.1341C63.3756 73.1564 63.5376 73.0558 63.6773 72.9551C64.834 72.1445 65.9739 71.3002 67.0858 70.4225C67.2032 70.3274 67.3373 70.2324 67.4882 70.2548C67.6446 70.2771 67.7452 70.4225 67.829 70.5511C68.1196 71.0151 68.3822 71.5015 68.6057 71.9991C68.656 72.1109 68.7063 72.2395 68.6839 72.3625C68.6504 72.5246 68.4995 72.6253 68.3598 72.7147C66.7226 73.7323 65.0854 74.7498 63.4427 75.7729C63.1521 75.9518 62.8392 76.1363 62.4983 76.1028C62.2134 76.0748 61.9731 75.8903 61.7496 75.717C60.7829 74.9679 59.8833 74.146 58.7657 73.682C57.8549 73.3018 57.1285 72.4072 56.8436 71.4792C56.7206 71.0766 56.6759 70.6405 56.7709 70.2324C56.8715 69.8243 57.1285 69.4385 57.5029 69.254C58.1734 68.9185 58.9836 69.2652 59.5704 69.7236C60.185 70.2044 60.5147 70.8194 61.0176 71.3785C61.5372 71.9544 62.2692 72.4352 62.8615 72.944H62.8671Z" fill="#36A9E1"/>
<path d="M176.908 121.177L141.135 100.513L127.725 108.262L163.492 128.925L176.908 121.177Z" fill="#DB846A"/>
<path d="M128.798 108.882V111.034L163.492 131.089V128.925L128.798 108.882Z" fill="#CE5F34"/>
<path d="M127.725 108.262V128.926L128.797 129.546V108.882L127.725 108.262Z" fill="#CE5F34"/>
<path d="M128.798 129.546L142.007 121.679V116.513L128.798 108.882V129.546Z" fill="#AA3F1F"/>
<path d="M147.158 110.062V111.75L149.377 113.136V111.018L147.158 110.062Z" fill="#878787"/>
<path d="M139.794 106.025V90.5273L157.68 100.859V116.665L139.794 106.025Z" fill="#9D9D9C"/>
<path d="M140.57 105.198V92.1377L156.479 101.357V114.674L140.57 105.198Z" fill="#3C3C3B"/>
<path d="M139.794 90.5273L141.442 89.6328L159.329 99.9983V115.407L157.68 116.665V100.859L139.794 90.5273Z" fill="#C6C6C6"/>
<path d="M149.377 113.136L149.796 112.896V111.974L149.377 111.728V113.136Z" fill="#706F6F"/>
<path d="M132.245 64.3672V85.031L154.602 97.9459V77.2821L132.245 64.3672Z" fill="#302E29"/>
<path d="M132.245 85.0312L135.425 94.463L136.715 87.6142L132.245 85.0312Z" fill="#302E29"/>
<path d="M137.8 82.1797L139.476 83.1804V84.8577L137.8 83.8569V82.1797Z" fill="#EDEDED"/>
<path d="M141.996 84.6846L143.672 85.6853V87.3626L141.996 86.3618V84.6846Z" fill="#EDEDED"/>
<path d="M146.192 87.1836L147.869 88.1844V89.8616L146.192 88.8609V87.1836Z" fill="#EDEDED"/>
<path d="M181.378 92.7637V139.257L176.908 141.84V95.3466L181.378 92.7637Z" fill="#EFE8DF"/>
<path d="M176.907 95.3477L154.551 108.263V154.756L176.907 141.841V95.3477Z" fill="#EFE8DF"/>
<path d="M154.551 108.262L153.255 107.491L175.5 94.6318L176.908 95.3475L154.551 108.262Z" fill="#E5D8C6"/>
<path d="M153.255 107.491V154.007L154.551 154.756V108.263L153.255 107.491Z" fill="#CBBBA0"/>
<path d="M203.711 79.8662L181.36 92.7811V139.275L203.711 126.36V79.8662Z" fill="#EFE8DF"/>
<path d="M181.361 92.7809L180.064 92.015L202.304 79.1504L203.712 79.866L181.361 92.7809Z" fill="#E5D8C6"/>
<path d="M199.064 101.173L161.101 123.218L160.938 110.476L198.901 88.4316L199.064 101.173Z" fill="white" stroke="#DB846A" stroke-width="2.4" stroke-miterlimit="10"/>
<path d="M165.805 112.959L165.788 111.662L164.855 112.204L164.917 117.012L165.85 116.47L165.833 114.988L166.453 114.625L166.476 116.476L165.85 116.839V117.208L164.922 117.75V117.381L164.297 117.745L164.229 112.199L164.855 111.835V111.466L165.783 110.924V111.293L166.409 110.929L166.431 112.596L165.811 112.959H165.805Z" fill="#3C3C3B"/>
<path d="M169.459 110.651L169.515 115.09L168.89 115.453L168.856 112.865L167.923 113.407L167.956 115.995L167.336 116.359L167.28 111.92L167.593 111.741L167.582 110.628L167.895 110.449L167.884 109.711L168.817 109.169L168.828 109.907L169.141 109.728L169.152 110.841L169.465 110.662L169.459 110.651ZM168.834 111.014L168.521 111.193L168.504 110.08L168.191 110.259L168.208 111.372L167.895 111.551L167.912 112.663L168.845 112.121L168.828 111.008L168.834 111.014Z" fill="#3C3C3B"/>
<path d="M172.387 112.674L172.399 113.412L170.532 114.497L170.454 108.207L171.08 107.844L171.147 113.39L172.393 112.669L172.387 112.674Z" fill="#3C3C3B"/>
<path d="M175.075 111.114L175.086 111.852L173.22 112.936L173.142 106.647L173.762 106.283L173.829 111.829L175.075 111.108V111.114Z" fill="#3C3C3B"/>
<path d="M180.098 104.662L180.081 103.365L179.148 103.908L179.21 108.716L180.143 108.173L180.126 106.697L180.746 106.334L180.769 108.185L180.143 108.548V108.917L179.215 109.459V109.09L178.59 109.454L178.522 103.908L179.148 103.544V103.175L180.076 102.633V103.002L180.702 102.638L180.724 104.304L180.104 104.668L180.098 104.662Z" fill="#3C3C3B"/>
<path d="M182.301 102.073L182.323 103.924L183.413 103.292L183.424 104.03L182.334 104.662L182.362 106.881L183.608 106.16L183.619 106.898L181.753 107.983L181.675 101.693L183.541 100.608L183.552 101.346L182.306 102.068L182.301 102.073Z" fill="#3C3C3B"/>
<path d="M186.965 98.6238L187.044 104.913L186.418 105.277L186.407 104.164L186.094 104.343L186.077 103.236L185.457 103.6L185.44 102.118L185.127 102.297L185.172 105.998L184.546 106.362L184.468 100.072L185.094 99.7084L185.105 100.815L185.418 100.636L185.434 101.743L186.055 101.38L186.071 102.862L186.384 102.683L186.34 98.9816L186.965 98.6182V98.6238Z" fill="#3C3C3B"/>
<path d="M190.167 97.5056L189.234 98.0479L189.301 103.594L188.675 103.957L188.608 98.4113L187.675 98.9536L187.664 98.2156L190.156 96.7676L190.167 97.5056Z" fill="#3C3C3B"/>
<path d="M191.492 96.7343L191.514 98.5849L192.604 97.9531L192.615 98.6911L191.526 99.3229L191.554 101.542L192.8 100.821L192.811 101.559L190.944 102.644L190.866 96.3542L192.733 95.2695L192.744 96.0075L191.498 96.7287L191.492 96.7343Z" fill="#3C3C3B"/>
<path d="M195.571 96.6058V97.1593L195.89 96.9804L195.923 99.7535L195.297 100.117L195.264 97.3438L194.331 97.8861L194.364 100.659L193.738 101.023L193.66 94.7329L195.219 93.8271V94.1961L195.845 93.8327L195.878 96.4213L195.566 96.6002L195.571 96.6058ZM195.258 96.6058L195.23 94.5707L194.297 95.113L194.325 97.1481L195.258 96.6058Z" fill="#3C3C3B"/>
<path d="M139.905 138.323C139.905 140.246 137.078 141.801 133.585 141.801C130.093 141.801 127.266 140.241 127.266 138.323C127.266 136.406 130.093 134.846 133.585 134.846C137.078 134.846 139.905 136.406 139.905 138.323Z" fill="#3C3C3B"/>
<path d="M133.586 128.483V138.323" stroke="#9D9D9C" stroke-width="1.6" stroke-miterlimit="10" stroke-linecap="round"/>
<path d="M138.274 112.527L141.515 110.062L150.377 115.099L147.125 117.715L138.274 112.527Z" fill="#9D9D9C"/>
<path d="M150.377 115.099V115.837L147.125 117.715L150.377 115.099Z" fill="#C6C6C6"/>
<path d="M141.124 110.878L139.196 112.415L146.963 116.888L148.751 115.244L141.124 110.878Z" fill="#575756"/>
<path d="M140.9 110.71L149.081 115.451" stroke="#9D9D9C" stroke-width="0.4" stroke-miterlimit="10"/>
<path d="M140.492 111.102L148.673 115.843" stroke="#9D9D9C" stroke-width="0.4" stroke-miterlimit="10"/>
<path d="M140.084 111.515L148.264 116.261" stroke="#9D9D9C" stroke-width="0.4" stroke-miterlimit="10"/>
<path d="M139.682 111.912L147.862 116.653" stroke="#9D9D9C" stroke-width="0.4" stroke-miterlimit="10"/>
<path d="M148.321 114.596L146.002 116.731" stroke="#9D9D9C" stroke-width="0.4" stroke-miterlimit="10"/>
<path d="M147.711 114.193L145.387 116.335" stroke="#9D9D9C" stroke-width="0.4" stroke-miterlimit="10"/>
<path d="M147.075 113.869L144.756 116.01" stroke="#9D9D9C" stroke-width="0.4" stroke-miterlimit="10"/>
<path d="M146.46 113.472L144.141 115.613" stroke="#9D9D9C" stroke-width="0.4" stroke-miterlimit="10"/>
<path d="M145.845 113.137L143.526 115.278" stroke="#9D9D9C" stroke-width="0.4" stroke-miterlimit="10"/>
<path d="M145.237 112.739L142.912 114.875" stroke="#9D9D9C" stroke-width="0.4" stroke-miterlimit="10"/>
<path d="M144.583 112.404L142.264 114.54" stroke="#9D9D9C" stroke-width="0.4" stroke-miterlimit="10"/>
<path d="M143.973 112.007L141.654 114.143" stroke="#9D9D9C" stroke-width="0.4" stroke-miterlimit="10"/>
<path d="M143.208 111.75L140.884 113.891" stroke="#9D9D9C" stroke-width="0.4" stroke-miterlimit="10"/>
<path d="M142.593 111.353L140.274 113.488" stroke="#9D9D9C" stroke-width="0.4" stroke-miterlimit="10"/>
<path d="M141.873 110.934L139.554 113.075" stroke="#9D9D9C" stroke-width="0.4" stroke-miterlimit="10"/>
<path d="M142.241 132.71C142.605 132.654 143.029 132.648 143.281 132.911C143.521 133.163 143.504 133.582 143.326 133.884C143.152 134.186 142.851 134.393 142.554 134.572C141.906 134.969 141.219 135.298 140.52 135.589C139.962 135.818 139.297 136.064 138.749 135.679C138.665 135.617 138.587 135.544 138.531 135.455C138.442 135.304 138.431 135.119 138.431 134.941C138.431 134.695 138.431 134.354 138.598 134.158C138.716 134.024 138.85 133.873 138.984 133.75C139.839 132.978 141.152 132.861 142.236 132.699L142.241 132.71Z" fill="#262B2D"/>
<path d="M140.224 134.281C140.129 134.365 140.023 134.437 139.911 134.499C139.464 134.728 138.855 134.683 138.52 134.309C138.324 132.71 138.257 129.316 138.173 127.706C138.106 126.414 137.76 125.117 137.938 123.82C138.095 122.669 138.782 121.852 139.816 121.372C140.241 121.17 140.704 121.003 141.079 121.399C141.235 121.567 141.325 121.791 141.369 122.02C141.425 122.305 141.392 122.579 141.38 122.864C141.369 123.177 141.341 123.485 141.313 123.798C141.28 124.161 141.302 124.53 141.291 124.894C141.269 125.66 141.202 126.426 141.174 127.192C141.14 128.153 141.062 130.898 141.017 131.854C140.995 132.358 140.967 132.866 140.81 133.347C140.693 133.705 140.498 134.046 140.224 134.292V134.281Z" fill="#343C3F"/>
<path d="M140.191 123.446C140.733 123.166 141.342 122.775 141.37 122.165C141.386 121.746 141.096 121.366 140.727 121.165C140.364 120.963 139.933 120.913 139.514 120.891C137.542 120.785 135.581 121.226 133.714 121.864C132.736 122.199 131.759 122.596 130.993 123.289C130.228 123.983 129.702 125.017 129.864 126.034C130.272 128.601 132.463 127.488 133.882 126.744C135.983 125.643 138.084 124.547 140.191 123.446Z" fill="#343C3F"/>
<path d="M146.639 134.874C147.002 134.818 147.427 134.812 147.678 135.075C147.919 135.327 147.902 135.746 147.723 136.048C147.55 136.35 147.248 136.557 146.952 136.736C146.304 137.133 145.616 137.462 144.918 137.753C144.359 137.982 143.694 138.228 143.147 137.843C143.063 137.781 142.985 137.708 142.929 137.619C142.839 137.468 142.828 137.284 142.828 137.105C142.828 136.859 142.828 136.518 142.996 136.322C143.113 136.188 143.247 136.037 143.381 135.914C144.236 135.142 145.549 135.025 146.633 134.863L146.639 134.874Z" fill="#262B2D"/>
<path d="M144.621 136.445C144.526 136.529 144.42 136.601 144.308 136.663C143.861 136.892 143.252 136.847 142.917 136.473C142.721 134.874 142.654 131.48 142.571 129.87C142.503 128.579 142.157 127.281 142.336 125.984C142.492 124.833 143.18 124.016 144.213 123.536C144.638 123.334 145.102 123.167 145.476 123.564C145.633 123.731 145.722 123.955 145.767 124.184C145.823 124.469 145.789 124.743 145.778 125.028C145.767 125.341 145.739 125.649 145.711 125.962C145.677 126.325 145.7 126.694 145.688 127.058C145.666 127.824 145.599 128.59 145.571 129.356C145.538 130.317 145.459 133.062 145.415 134.018C145.392 134.522 145.364 135.03 145.208 135.511C145.091 135.869 144.895 136.21 144.621 136.456V136.445Z" fill="#3E484C"/>
<path d="M135.1 132.979L144.041 127.813L133.586 121.774L135.1 132.979Z" fill="#513E35"/>
<path d="M135.105 132.978L144.04 127.812V129.931L135.105 135.153V132.978Z" fill="#705F57"/>
<path d="M144.588 125.61C145.13 125.33 145.739 124.939 145.767 124.33C145.784 123.91 145.493 123.53 145.124 123.329C144.761 123.128 144.331 123.077 143.912 123.055C141.939 122.949 139.978 123.39 138.112 124.028C137.134 124.363 136.156 124.76 135.391 125.453C134.625 126.147 134.1 127.181 134.262 128.198C134.67 130.765 136.86 129.652 138.279 128.908C140.38 127.807 142.481 126.711 144.588 125.61Z" fill="#3E484C"/>
<path d="M147.27 114.294C147.421 114.266 147.589 114.254 147.712 114.344C147.773 114.389 147.812 114.456 147.846 114.528C148.125 115.087 148.002 115.82 147.561 116.267C147.365 116.463 147.125 116.597 146.885 116.726C146.348 117.005 145.762 117.246 145.164 117.173C145.125 117.173 145.08 117.162 145.047 117.139C145.013 117.117 144.985 117.078 144.963 117.044C144.125 115.663 146.119 114.506 147.27 114.299V114.294Z" fill="#E8CDC1"/>
<path d="M142.409 112.403C142.509 112.286 142.604 112.146 142.582 111.995C142.571 111.917 142.537 111.85 142.492 111.788C142.146 111.269 141.453 111 140.85 111.162C140.587 111.235 140.347 111.375 140.118 111.52C139.609 111.844 139.106 112.23 138.866 112.784C138.849 112.823 138.832 112.862 138.838 112.901C138.838 112.946 138.86 112.985 138.877 113.018C139.654 114.439 141.654 113.292 142.409 112.398V112.403Z" fill="#E8CDC1"/>
<path d="M134.693 114.534C134.793 114.618 134.899 114.708 135.028 114.724C135.201 114.747 135.363 114.646 135.503 114.545C136.66 113.735 137.799 112.891 138.911 112.013C139.029 111.918 139.163 111.823 139.314 111.845C139.47 111.867 139.571 112.013 139.655 112.141C139.945 112.605 140.208 113.092 140.431 113.589C140.482 113.701 140.532 113.83 140.509 113.953C140.476 114.115 140.325 114.216 140.185 114.305C138.548 115.323 136.911 116.34 135.268 117.363C134.978 117.542 134.665 117.727 134.324 117.693C134.039 117.665 133.799 117.481 133.575 117.307C132.843 116.743 132.145 116.117 131.34 115.647C130.753 115.306 129.82 115.183 129.552 114.478C129.407 114.098 129.485 113.64 129.742 113.327C129.865 113.181 130.016 113.064 130.178 112.969C131.949 111.94 133.424 113.444 134.693 114.529V114.534Z" fill="#2A98C4"/>
<path d="M129.669 111.844C130.585 111.671 131.513 111.967 132.401 112.264C133.904 112.761 135.469 113.214 136.24 114.668C137.095 116.278 137.268 117.978 137.357 119.778C137.447 121.573 137.531 123.373 137.62 125.167C137.631 125.441 137.648 125.721 137.559 125.978C137.313 126.705 136.111 127.191 135.452 127.51C134.284 128.069 132.748 128.075 131.518 127.756C129.887 127.331 128.428 126.179 127.769 124.625C127.26 123.429 127.232 122.092 127.21 120.795C127.171 118.587 126.5 112.443 129.674 111.85L129.669 111.844Z" fill="#36A9E1"/>
<path d="M124.863 111.593L135.145 117.553C135.145 117.553 136.877 127.801 136.57 132.128L135.1 132.978L124.863 127.091C124.863 127.091 124.886 117.363 124.02 112.426C123.897 111.721 124.372 111.593 124.863 111.593Z" fill="#634E42"/>
<path d="M124.863 127.091V129.394L135.106 135.153V132.978L124.863 127.091Z" fill="#634E42"/>
<path d="M135.106 132.978C135.106 132.978 135.184 122.327 134.067 118.967C134.067 118.967 133.659 117.513 135.145 117.553C135.145 117.553 136.877 127.689 136.57 132.128L135.101 132.978H135.106Z" fill="#705F57"/>
<path d="M131.44 113.55C131.44 113.612 131.446 113.679 131.485 113.724C131.513 113.763 131.558 113.785 131.602 113.802C132.111 114.025 132.67 114.126 133.223 114.093C133.407 114.081 133.597 114.053 133.742 113.942C133.994 113.746 134.022 113.382 134.022 113.058C134.022 112.644 134.027 112.225 134.033 111.811C134.033 111.767 134.033 111.716 134.005 111.677C133.972 111.633 133.916 111.616 133.865 111.599C133.251 111.431 131.91 110.995 131.357 111.521C130.893 111.957 131.418 112.98 131.446 113.539L131.44 113.55Z" fill="#E8CDC1"/>
<path d="M136.649 108.926C136.514 110.285 135.743 111.677 134.453 112.13C134.056 112.27 133.631 112.314 133.212 112.326C132.754 112.342 132.29 112.314 131.865 112.152C130.815 111.744 130.251 110.542 130.211 109.413C130.167 108.278 130.558 107.132 131.279 106.26C132 105.387 133.056 104.789 134.173 104.621C135.201 104.465 135.939 104.605 136.224 105.628C136.52 106.696 136.755 107.808 136.643 108.921L136.649 108.926Z" fill="#E8CDC1"/>
<path d="M127.803 105.706C127.803 105.354 127.819 105.002 127.914 104.666C128.278 103.358 129.647 102.62 130.937 102.184C132.223 101.753 133.642 101.435 134.569 100.439C134.704 100.859 134.754 101.312 134.715 101.753C134.905 101.518 135.195 101.368 135.491 101.34C135.927 102.352 136.369 103.503 136.128 104.621C136.028 105.085 135.776 105.292 135.575 105.673C135.324 106.142 135.274 106.757 135.268 107.283C135.268 107.495 135.274 107.719 135.195 107.914C135.117 108.11 134.916 108.283 134.709 108.25C134.743 108.037 134.48 107.87 134.268 107.92C134.055 107.97 133.905 108.149 133.787 108.334C133.228 109.167 132.977 110.173 132.927 111.174C132.91 111.476 132.91 111.8 132.731 112.046C132.552 112.292 132.228 112.404 131.921 112.393C130.535 112.359 129.624 111.526 128.915 110.38C128.099 109.066 127.814 107.232 127.814 105.712L127.803 105.706Z" fill="#93583B"/>
<path d="M138.341 107.881C138.341 108.273 138.034 108.586 137.654 108.586C137.274 108.586 136.967 108.267 136.967 107.881C136.967 107.495 137.274 107.177 137.654 107.177C138.034 107.177 138.341 107.495 138.341 107.881Z" fill="#DADADA"/>
<path d="M135.106 108.512C135.106 109.211 134.731 109.781 134.273 109.781C133.815 109.781 133.44 109.211 133.44 108.512C133.44 107.813 133.815 107.243 134.273 107.243C134.731 107.243 135.106 107.813 135.106 108.512Z" fill="#3C3C3B"/>
<path d="M134.586 108.976C135.631 109.016 136.687 108.702 137.536 108.099" stroke="#3C3C3B" stroke-width="0.8" stroke-miterlimit="10" stroke-linecap="round"/>
<path d="M140.352 117.804C140.453 117.888 140.559 117.978 140.688 117.994C140.861 118.017 141.023 117.916 141.163 117.815C142.319 117.005 143.459 116.161 144.571 115.283C144.689 115.188 144.823 115.093 144.974 115.115C145.13 115.137 145.231 115.283 145.314 115.411C145.605 115.875 145.868 116.362 146.091 116.859C146.141 116.971 146.192 117.1 146.169 117.223C146.136 117.385 145.985 117.486 145.845 117.575C144.208 118.593 142.571 119.61 140.928 120.633C140.637 120.812 140.325 120.997 139.984 120.963C139.699 120.935 139.458 120.751 139.235 120.577C138.268 119.828 137.369 119.006 136.251 118.542C135.34 118.162 134.614 117.268 134.329 116.34C134.206 115.937 134.161 115.501 134.256 115.093C134.357 114.685 134.614 114.299 134.988 114.114C135.659 113.779 136.469 114.126 137.056 114.584C137.67 115.065 138 115.68 138.503 116.239C139.023 116.815 139.755 117.296 140.347 117.804H140.352Z" fill="#36A9E1"/>
<defs>
<linearGradient id="paint0_linear_74_28609" x1="0" y1="105.729" x2="248" y2="105.729" gradientUnits="userSpaceOnUse">
<stop stop-color="#A70E13"/>
<stop offset="0.66" stop-color="#F04E3E"/>
<stop offset="1" stop-color="#F68C59"/>
</linearGradient>
<linearGradient id="paint1_linear_74_28609" x1="11.3487" y1="85.9487" x2="127.029" y2="201.564" gradientUnits="userSpaceOnUse">
<stop stop-color="#5E0000"/>
<stop offset="1" stop-color="#CE181E"/>
</linearGradient>
<linearGradient id="paint2_linear_74_28609" x1="196.029" y1="156.818" x2="190.554" y2="147.339" gradientUnits="userSpaceOnUse">
<stop stop-color="#A70E13"/>
<stop offset="0.66" stop-color="#F04E3E"/>
<stop offset="1" stop-color="#F68C59"/>
</linearGradient>
</defs>
</svg>
