<svg width="221" height="190" viewBox="0 0 221 190" fill="none" xmlns="http://www.w3.org/2000/svg">
<g clip-path="url(#clip0_88_32410)">
<path d="M9.32715 186.339C16.0622 175.632 23.806 165.428 33.712 158.657C43.618 151.885 56.0122 148.91 66.9321 153.22C74.9862 156.403 82.0265 163.346 90.5358 163.932C97.5399 164.415 104.223 160.401 109.665 155.349C119.809 145.924 126.813 132.87 136.026 122.272C145.239 111.679 158.388 103.282 171.025 107.14C179.959 109.866 186.72 118.143 192.079 126.737C202.337 143.167 209.393 166.399 212.589 186.24L9.32715 186.344V186.339Z" fill="#F5F5F5"/>
<path d="M221 186.235C221 186.313 171.522 186.381 110.503 186.381C49.4838 186.381 -0.00488281 186.318 -0.00488281 186.235C-0.00488281 186.152 49.4632 186.09 110.503 186.09C171.543 186.09 221 186.152 221 186.235Z" fill="#263238"/>
<path d="M54.8681 113.797C57.5011 115.225 60.7858 114.046 61.9239 111.268C62.5446 109.757 63.0412 108.526 63.0412 108.526C63.0412 108.526 66.8433 109.882 68.7779 106.382C70.7126 102.887 74.4525 94.4749 74.4525 94.4749C71.3333 90.5232 66.3311 88.576 61.3756 89.386L60.641 89.5055L52.6645 107.264C51.5782 109.684 52.5403 112.535 54.8681 113.797Z" fill="#FFBE9D"/>
<path d="M70.1073 100.229C69.9987 99.9277 70.159 99.5954 70.4591 99.4863C70.7591 99.3773 71.0901 99.5383 71.1988 99.8394C71.3074 100.141 71.147 100.473 70.847 100.582C70.547 100.691 70.2159 100.53 70.1073 100.229Z" fill="#263238"/>
<path d="M71.6745 99.642C71.5865 99.6731 71.3848 99.2214 70.9037 98.9566C70.4278 98.6865 69.9364 98.754 69.9157 98.6606C69.9053 98.619 70.0191 98.5359 70.2364 98.5048C70.4485 98.4684 70.7692 98.4996 71.0641 98.6658C71.3641 98.8319 71.5555 99.0864 71.6382 99.2889C71.721 99.4914 71.7158 99.6316 71.6745 99.642Z" fill="#263238"/>
<path d="M65.9169 97.3726C66.0772 97.6478 65.9841 98.0061 65.7048 98.1671C65.4306 98.3281 65.0737 98.2346 64.9133 97.9542C64.753 97.6738 64.8461 97.3207 65.1254 97.1597C65.3996 96.9987 65.7565 97.0922 65.9169 97.3726Z" fill="#263238"/>
<path d="M66.3981 97.2426C66.3102 97.2737 66.1084 96.822 65.6273 96.5571C65.1514 96.2871 64.66 96.3546 64.6393 96.2612C64.629 96.2196 64.7428 96.1365 64.96 96.1054C65.1721 96.069 65.4928 96.1002 65.7877 96.2663C66.0877 96.4325 66.2791 96.6869 66.3619 96.8895C66.4498 97.092 66.4395 97.2322 66.3981 97.2426Z" fill="#263238"/>
<path d="M65.9893 102.378C66.0048 102.336 66.3359 102.44 66.8583 102.637C66.9928 102.695 67.1066 102.715 67.1532 102.653C67.2153 102.591 67.2411 102.425 67.2566 102.243C67.3032 101.853 67.3549 101.464 67.4066 101.049C67.6343 99.3609 67.8877 98.0004 67.9705 98.0108C68.0584 98.0212 67.9395 99.4024 67.7118 101.09C67.6549 101.5 67.598 101.89 67.5411 102.279C67.5101 102.451 67.5049 102.669 67.3291 102.845C67.2359 102.933 67.0963 102.954 67.0032 102.928C66.9049 102.907 66.8325 102.871 66.7704 102.84C66.2686 102.591 65.9686 102.419 65.9893 102.378Z" fill="#263238"/>
<path d="M63.0773 108.479C63.0773 108.479 60.765 107.462 59.208 104.699C59.208 104.699 58.9287 107.82 62.5962 109.399L63.0773 108.485V108.479Z" fill="#EB996E"/>
<path d="M59.0478 93.4462C58.9909 93.3839 56.2441 91.7482 55.4268 94.76C54.7181 97.3615 57.6512 97.8133 57.6874 97.7302C57.7236 97.6471 59.0478 93.4462 59.0478 93.4462Z" fill="#FFBE9D"/>
<path d="M57.16 96.1982C57.16 96.1982 57.1083 96.2138 57.0203 96.219C56.9376 96.2242 56.8083 96.2034 56.6944 96.1047C56.4668 95.9126 56.3996 95.4141 56.5548 94.9571C56.6324 94.7287 56.7565 94.5313 56.9014 94.3808C57.0462 94.225 57.2066 94.1419 57.3462 94.1679C57.4859 94.1834 57.5531 94.2977 57.5583 94.3808C57.5635 94.4638 57.5325 94.5054 57.5428 94.5158C57.5428 94.5262 57.61 94.495 57.6307 94.386C57.6411 94.334 57.6307 94.2613 57.5894 94.1938C57.548 94.1211 57.4704 94.064 57.3721 94.0432C57.1755 93.9861 56.9376 94.1004 56.7772 94.2613C56.6065 94.4223 56.4565 94.6404 56.3737 94.9C56.203 95.4089 56.291 95.9697 56.6065 96.2086C56.7617 96.3176 56.9272 96.3176 57.0255 96.2865C57.1238 96.2553 57.16 96.2034 57.1497 96.193L57.16 96.1982Z" fill="#EB996E"/>
<path d="M58.5095 96.2406C58.913 96.8377 59.8648 96.7651 60.4235 96.3081C60.9821 95.8511 61.2563 95.1501 61.5822 94.5062C62.0219 93.6287 62.5806 92.8134 63.2323 92.0865C63.6513 91.6191 64.1635 91.1622 64.7894 91.1102C65.5032 91.0479 66.1447 91.5256 66.6568 92.0345C67.1637 92.5382 67.65 93.1198 68.3276 93.3639C69.2173 93.6806 70.2364 93.3275 71.1416 93.5975C71.9796 93.852 72.5693 94.5841 73.2366 95.1553C73.9091 95.7265 74.7316 96.1627 75.611 96.1783C76.4904 96.1939 77.4111 95.7006 77.7163 94.8749C78.0215 94.0493 77.5198 92.9588 76.6507 92.8238C77.3956 92.7875 77.8715 91.8736 77.6387 91.1622C77.406 90.456 76.6611 90.0094 75.9265 89.9211C75.1868 89.8328 74.4471 90.0354 73.7384 90.2586C73.9505 89.6199 73.5367 88.8981 72.947 88.5814C72.3573 88.2646 71.6434 88.275 70.9813 88.3841C70.3192 88.4931 69.6725 88.7008 69.0052 88.7528C67.6706 88.8566 66.3723 88.3373 65.0739 88.0102C63.7755 87.6831 62.2805 87.5844 61.2046 88.3893C60.2579 89.1007 60.0872 90.3988 59.6424 91.4945C59.1768 92.6369 59.063 92.8861 58.6388 93.9662C58.6388 93.9662 57.9043 95.3994 58.5043 96.2458L58.5095 96.2406Z" fill="#263238"/>
<path d="M65.7729 104.05C65.7626 104.087 65.5919 104.082 65.3539 103.967C65.116 103.853 64.8056 103.614 64.609 103.246C64.4073 102.877 64.3763 102.487 64.4125 102.223C64.4487 101.958 64.5366 101.812 64.5677 101.823C64.6504 101.838 64.5108 102.472 64.8625 103.111C65.2091 103.749 65.8091 103.983 65.7781 104.056L65.7729 104.05Z" fill="white"/>
<path d="M75.6891 93.2708C75.6891 93.2708 75.8805 93.4889 75.6788 93.8731C75.5805 94.0497 75.3891 94.2366 75.1098 94.3301C74.8253 94.4288 74.4735 94.3405 74.1683 94.1484C73.8631 93.951 73.5993 93.6447 73.3613 93.2968C73.1182 92.954 72.8854 92.5646 72.5285 92.2738C72.1716 91.9882 71.6802 91.8584 71.1784 91.8895C70.6715 91.9051 70.1542 92.0194 69.6162 92.0869C69.0834 92.1544 68.5092 92.1648 68.0385 91.9051C67.5574 91.6559 67.2987 91.1781 67.0815 90.7679C66.8642 90.3525 66.6521 89.9527 66.3314 89.693C66.0107 89.4386 65.6331 89.3192 65.2865 89.2932C64.583 89.2465 64.0347 89.5165 63.745 89.7761C63.4501 90.0358 63.3622 90.2487 63.3467 90.2383C63.3467 90.2383 63.4191 90.0202 63.7191 89.7398C64.0088 89.4646 64.5675 89.1738 65.2968 89.2101C65.6589 89.2309 66.0521 89.3555 66.3935 89.6203C66.7349 89.8956 66.9522 90.3058 67.1746 90.716C67.397 91.121 67.6453 91.5728 68.0902 91.8013C68.5247 92.0401 69.073 92.0401 69.6007 91.9726C70.1335 91.9051 70.6559 91.7909 71.1732 91.7753C71.6905 91.7441 72.213 91.8843 72.5906 92.1907C72.9682 92.5023 73.1958 92.8969 73.4338 93.2396C73.6665 93.5824 73.9148 93.8835 74.2097 94.0757C74.4942 94.2678 74.8253 94.3509 75.0891 94.2678C75.3529 94.1899 75.5391 94.0133 75.6374 93.8472C75.8391 93.4941 75.6633 93.2604 75.6891 93.2656V93.2708Z" fill="#455A64"/>
<path d="M74.9493 90.6226C74.9493 90.6226 74.9958 90.5862 75.0993 90.5758C75.2027 90.5654 75.3631 90.607 75.4976 90.7524C75.6424 90.8874 75.7149 91.1782 75.5597 91.4274C75.42 91.6715 75.0993 91.8584 74.7424 91.8221C74.3854 91.7961 74.0389 91.5884 73.744 91.3132C73.444 91.0432 73.175 90.7056 72.7974 90.4772C72.4249 90.2331 71.9387 90.2487 71.4835 90.4045C71.0231 90.5447 70.5575 90.7939 70.0092 90.7939C69.4505 90.7939 69.0057 90.4252 68.6694 90.0825C68.3228 89.7294 68.0125 89.3763 67.6349 89.1478C66.8796 88.6701 66.0416 88.5663 65.3795 88.6753C64.7122 88.7844 64.2259 89.0648 63.9207 89.2829C63.6155 89.5061 63.481 89.6723 63.4707 89.6619C63.4707 89.6619 63.5949 89.4854 63.8949 89.2465C64.1949 89.0128 64.6863 88.7117 65.364 88.5922C66.0364 88.4676 66.9055 88.5715 67.6866 89.0544C68.0849 89.288 68.4056 89.6567 68.747 89.9994C69.0833 90.3422 69.4971 90.6797 70.0092 90.6745C70.5161 90.6745 70.9765 90.4356 71.4472 90.2902C71.9076 90.1293 72.456 90.1137 72.8491 90.3785C73.2474 90.6226 73.5164 90.9705 73.8061 91.2353C74.0906 91.5053 74.4165 91.7026 74.7475 91.7338C75.0734 91.7701 75.3683 91.604 75.5028 91.3859C75.6476 91.1626 75.5907 90.9082 75.4614 90.7731C75.3424 90.6329 75.1924 90.5862 75.0941 90.5862C74.9958 90.5862 74.9493 90.6122 74.9441 90.607L74.9493 90.6226Z" fill="#455A64"/>
<path d="M62.9736 88.5765C62.8908 88.5714 62.896 88.0469 62.5546 87.5432C62.2287 87.0291 61.7476 86.8266 61.7735 86.7487C61.7838 86.7124 61.9287 86.7176 62.1356 86.8058C62.3425 86.8941 62.6011 87.0914 62.7925 87.3822C62.9839 87.673 63.0615 87.9898 63.0615 88.2182C63.0615 88.4467 63.0098 88.5765 62.9736 88.5714V88.5765Z" fill="#263238"/>
<path d="M63.7702 85.6944C63.8374 85.7464 63.4805 86.2449 63.2684 86.9511C63.046 87.6521 63.0563 88.2648 62.9735 88.2752C62.9011 88.2908 62.7563 87.6365 62.9994 86.868C63.2322 86.0995 63.7236 85.6425 63.7753 85.6944H63.7702Z" fill="#263238"/>
<path d="M56.6376 97.5491C56.6739 97.5491 56.6635 97.8243 56.3273 98.0268C56.1669 98.1203 55.929 98.1878 55.6703 98.1047C55.4065 98.0268 55.1944 97.7724 55.1375 97.4764C55.0754 97.1856 55.1737 96.8636 55.3858 96.6923C55.5927 96.5209 55.8359 96.4898 56.0221 96.5105C56.41 96.5677 56.5238 96.8221 56.4928 96.8325C56.4618 96.8636 56.3118 96.7079 56.0117 96.7131C55.8669 96.7131 55.691 96.765 55.5669 96.8896C55.4375 97.009 55.3806 97.2116 55.422 97.4193C55.4634 97.627 55.5979 97.7931 55.7583 97.8503C55.9238 97.9126 56.1048 97.8918 56.2393 97.8399C56.5187 97.7308 56.5963 97.5231 56.6376 97.5439V97.5491Z" fill="#263238"/>
<path d="M58.4998 95.0414C58.4998 95.0414 58.386 94.5481 58.8205 93.9405C59.0222 93.6238 59.4361 93.4213 59.8499 93.2084C60.0568 93.0993 60.2585 92.9643 60.393 92.7566C60.5224 92.5489 60.5793 92.2893 60.6258 92.0244C60.7034 91.4844 60.8845 90.9599 61.1845 90.5809C61.4793 90.1914 61.8983 89.9733 62.2604 89.9266C62.6277 89.8695 62.9226 89.9629 63.0984 90.0616C63.2743 90.1603 63.3416 90.2589 63.3416 90.2589C63.3364 90.2693 63.2536 90.1862 63.0778 90.1031C62.9019 90.0201 62.6174 89.9474 62.2708 90.0097C61.9294 90.0616 61.5414 90.2745 61.2673 90.6484C60.9827 91.0171 60.812 91.5104 60.7396 92.0504C60.6931 92.3204 60.6362 92.5956 60.4862 92.8241C60.3361 93.0578 60.1085 93.198 59.9016 93.307C59.4774 93.5199 59.0895 93.6965 58.8929 93.9925C58.6808 94.2729 58.5825 94.5481 58.5412 94.7402C58.4998 94.9323 58.5205 95.0466 58.5101 95.0466L58.4998 95.0414Z" fill="#455A64"/>
<path d="M17.355 182.75L23.1797 183.14L23.9711 172.194L15.4566 171.534L15.3635 172.209C14.9755 175.216 13.615 187.533 14.0754 189.594C14.5927 191.895 17.355 182.75 17.355 182.75Z" fill="url(#paint0_linear_88_32410)"/>
<g opacity="0.4">
<path d="M15.8445 187.212C15.8445 187.212 14.6703 190.405 14.1685 189.958C13.6616 189.512 14.5772 177.013 15.4618 171.54L15.7049 171.576L14.5151 186.147C14.5151 186.147 15.8704 186.578 15.8497 187.217L15.8445 187.212Z" fill="white"/>
</g>
<path d="M15.72 171.399C15.72 171.399 15.7045 171.462 15.6838 171.586C15.6631 171.747 15.6373 171.924 15.6114 172.126C15.5493 172.666 15.4717 173.326 15.3786 174.11C15.1976 175.787 14.9751 178.103 14.7837 180.668C14.5923 183.234 14.4734 185.56 14.4113 187.247C14.3854 188.032 14.3647 188.701 14.3492 189.241C14.3492 189.444 14.344 189.621 14.3389 189.787C14.3389 189.911 14.3389 189.974 14.344 189.974C14.344 189.974 14.3544 189.911 14.3647 189.787C14.3751 189.626 14.3854 189.444 14.3958 189.247C14.4268 188.707 14.4578 188.037 14.4992 187.253C14.5872 185.57 14.7217 183.244 14.9131 180.679C15.1045 178.114 15.3114 175.798 15.4666 174.12C15.539 173.336 15.6062 172.672 15.6528 172.132C15.6683 171.929 15.6838 171.753 15.6993 171.592C15.7097 171.467 15.7097 171.405 15.7045 171.399H15.72Z" fill="#263238"/>
<path d="M14.3449 186.126C14.3345 186.168 14.8104 186.23 15.2657 186.568C15.726 186.895 15.9381 187.321 15.9743 187.3C16.0054 187.295 15.8347 186.812 15.3433 186.459C14.8518 186.1 14.3397 186.09 14.3449 186.126Z" fill="#263238"/>
<path d="M16.2116 183.016C16.1909 183.047 16.3668 183.213 16.6048 183.389C16.8427 183.566 17.0548 183.691 17.0755 183.659C17.0962 183.628 16.9203 183.462 16.6823 183.286C16.4444 183.109 16.2323 182.984 16.2116 183.016Z" fill="#263238"/>
<path d="M16.7448 182.164C16.7137 182.185 16.8172 182.367 16.9724 182.569C17.1276 182.772 17.2776 182.917 17.3034 182.891C17.3345 182.87 17.231 182.689 17.0758 182.486C16.9206 182.284 16.7706 182.138 16.7448 182.164Z" fill="#263238"/>
<path d="M17.8155 181.676C17.7793 181.676 17.7276 181.925 17.7017 182.242C17.6758 182.559 17.681 182.818 17.7172 182.818C17.7534 182.818 17.8052 182.569 17.831 182.252C17.8569 181.935 17.8517 181.676 17.8155 181.676Z" fill="#263238"/>
<path d="M18.5556 181.541C18.5245 181.525 18.3797 181.795 18.3228 182.164C18.2659 182.532 18.3228 182.834 18.3642 182.828C18.4004 182.828 18.4004 182.532 18.4573 182.185C18.509 181.831 18.5918 181.556 18.5556 181.541Z" fill="#263238"/>
<path d="M17.138 183.457C17.138 183.457 17.0707 183.722 17.0914 184.163C17.1017 184.381 17.1328 184.641 17.2 184.927C17.2362 185.067 17.2621 185.212 17.3449 185.368C17.3863 185.441 17.4432 185.524 17.5518 185.56C17.6552 185.596 17.7742 185.55 17.8415 185.472C18.2398 184.823 17.9087 184.122 17.5828 183.846C17.4173 183.696 17.2466 183.618 17.1328 183.582C17.0138 183.545 16.9466 183.54 16.9466 183.551C16.9362 183.576 17.2207 183.618 17.5208 183.914C17.6708 184.059 17.8053 184.277 17.8673 184.542C17.9242 184.797 17.9139 185.15 17.7484 185.378C17.6552 185.482 17.5311 185.43 17.4638 185.3C17.3966 185.181 17.3656 185.025 17.3242 184.89C17.2518 184.615 17.2104 184.366 17.1897 184.153C17.1483 183.727 17.1638 183.457 17.1431 183.457H17.138Z" fill="#263238"/>
<path d="M17.0859 183.634C17.0859 183.634 17.2515 183.758 17.567 183.753C17.7222 183.748 17.9084 183.707 18.0946 183.597C18.2602 183.483 18.4826 183.343 18.493 183.037C18.4826 182.87 18.3067 182.777 18.1878 182.798C18.0636 182.798 17.955 182.85 17.867 182.896C17.686 182.99 17.536 183.094 17.417 183.198C17.1842 183.4 17.0911 183.572 17.1015 183.582C17.117 183.597 17.236 183.452 17.4739 183.276C17.5929 183.187 17.7377 183.094 17.9136 183.011C18.0688 182.922 18.3378 182.881 18.3585 183.057C18.3585 183.234 18.1774 183.4 18.0274 183.499C17.867 183.597 17.7015 183.649 17.5567 183.665C17.267 183.696 17.0911 183.618 17.0859 183.644V183.634Z" fill="#263238"/>
<path d="M18.6899 171.841C18.6899 171.841 18.695 172.158 18.6019 172.646C18.514 173.134 18.2605 173.798 17.7484 174.359C17.2363 174.915 16.5897 175.221 16.1138 175.346C15.6327 175.481 15.3172 175.471 15.3223 175.496C15.3223 175.507 15.3999 175.512 15.5448 175.512C15.6844 175.512 15.8913 175.491 16.1396 175.434C16.6362 175.325 17.3087 175.024 17.8467 174.448C18.3795 173.866 18.6278 173.165 18.695 172.661C18.7312 172.407 18.7364 172.199 18.7261 172.059C18.7157 171.919 18.7002 171.841 18.695 171.841H18.6899Z" fill="#263238"/>
<path d="M23.1438 173.311C23.1438 173.274 22.1454 173.16 20.9091 173.051C19.6728 172.942 18.6692 172.885 18.6641 172.921C18.6641 172.957 19.6624 173.072 20.8987 173.181C22.135 173.29 23.1386 173.347 23.1438 173.305V173.311Z" fill="#263238"/>
<path d="M16.2166 176.966C16.1804 176.961 16.0148 177.662 15.9424 178.55C15.87 179.438 15.9166 180.16 15.9528 180.16C15.989 180.16 15.9993 179.443 16.0717 178.56C16.1442 177.678 16.2528 176.971 16.2166 176.961V176.966Z" fill="#263238"/>
<path d="M16.3778 174.822C16.3519 174.79 16.2226 174.868 16.0519 174.931C15.8863 174.993 15.7363 175.019 15.7363 175.06C15.7363 175.097 15.907 175.128 16.0984 175.06C16.295 174.988 16.4036 174.853 16.3778 174.827V174.822Z" fill="#263238"/>
<path d="M17.4433 174.084C17.4174 174.058 17.2985 174.12 17.1795 174.224C17.0553 174.328 16.9778 174.437 16.9984 174.463C17.0243 174.489 17.1433 174.427 17.2623 174.323C17.3864 174.219 17.464 174.11 17.4433 174.084Z" fill="#263238"/>
<path d="M17.9809 172.962C17.9447 172.962 17.9343 173.113 17.8671 173.269C17.805 173.424 17.7067 173.534 17.7274 173.565C17.7429 173.596 17.9085 173.513 17.9861 173.321C18.0688 173.129 18.0119 172.952 17.9809 172.962Z" fill="#263238"/>
<path d="M18.2598 172.158C18.2288 172.142 18.1667 172.199 18.1253 172.288C18.0839 172.376 18.0788 172.459 18.1098 172.475C18.1408 172.49 18.2029 172.433 18.2443 172.345C18.2857 172.256 18.2908 172.173 18.2598 172.158Z" fill="#263238"/>
<path opacity="0.3" d="M18.9789 171.877L18.3633 182.829L19.6772 182.906V171.841L18.9789 171.877Z" fill="black"/>
<path d="M75.5808 183.192L75.4566 177.335L64.5264 177.496L64.6143 186.069L65.292 186.105C68.3129 186.23 80.6502 186.521 82.6572 185.882C84.8971 185.166 75.5756 183.197 75.5756 183.197L75.5808 183.192Z" fill="url(#paint1_linear_88_32410)"/>
<g opacity="0.4">
<path d="M80.1331 184.313C80.1331 184.313 83.4024 185.207 83.0041 185.752C82.6057 186.297 70.1236 186.468 64.6094 186.063L64.6249 185.819L79.1865 185.741C79.1865 185.741 79.4969 184.35 80.1331 184.313Z" fill="white"/>
</g>
<path d="M64.4537 185.815C64.4537 185.815 64.521 185.825 64.6399 185.83C64.8003 185.835 64.9813 185.846 65.1779 185.856C65.7159 185.872 66.3832 185.893 67.1643 185.913C68.8455 185.95 71.1629 185.97 73.7286 185.939C76.2892 185.903 78.6118 185.825 80.2878 185.742C81.0689 185.7 81.7362 185.659 82.2742 185.633C82.4759 185.617 82.6518 185.607 82.8122 185.591C82.9363 185.581 82.9984 185.576 82.9984 185.571C82.9984 185.571 82.9312 185.565 82.8122 185.571C82.6518 185.571 82.4708 185.581 82.269 185.586C81.731 185.607 81.0637 185.628 80.2826 185.654C78.6066 185.711 76.284 185.778 73.7235 185.81C71.1629 185.841 68.8455 185.835 67.1643 185.825C66.378 185.82 65.7159 185.815 65.1779 185.81C64.9762 185.81 64.8003 185.81 64.6348 185.81C64.5106 185.81 64.4485 185.81 64.4434 185.82L64.4537 185.815Z" fill="#263238"/>
<path d="M79.1859 185.913C79.2273 185.913 79.2531 185.44 79.5428 184.957C79.8273 184.469 80.2308 184.22 80.2101 184.184C80.1998 184.152 79.7342 184.365 79.429 184.89C79.1186 185.409 79.1549 185.923 79.1859 185.913Z" fill="#263238"/>
<path d="M75.9371 184.314C75.9682 184.335 76.1182 184.143 76.2734 183.888C76.4286 183.634 76.532 183.411 76.501 183.395C76.4699 183.374 76.3199 183.566 76.1648 183.821C76.0096 184.075 75.9061 184.299 75.9371 184.314Z" fill="#263238"/>
<path d="M75.0472 183.856C75.0731 183.882 75.2438 183.763 75.43 183.592C75.6163 183.42 75.7456 183.259 75.7197 183.228C75.6938 183.202 75.5231 183.322 75.3369 183.493C75.1507 183.664 75.0214 183.825 75.0472 183.856Z" fill="#263238"/>
<path d="M74.4736 182.829C74.4736 182.866 74.7271 182.897 75.0427 182.897C75.3582 182.897 75.6117 182.866 75.6117 182.829C75.6117 182.793 75.3582 182.762 75.0427 182.762C74.7271 182.762 74.4736 182.793 74.4736 182.829Z" fill="#263238"/>
<path d="M74.2718 182.102C74.2614 182.133 74.5408 182.258 74.9132 182.279C75.2856 182.305 75.5753 182.217 75.5701 182.18C75.565 182.144 75.2753 182.17 74.9235 182.144C74.5718 182.123 74.2873 182.061 74.2769 182.097L74.2718 182.102Z" fill="#263238"/>
<path d="M76.2939 183.354C76.2939 183.354 76.5629 183.4 76.9975 183.338C77.2147 183.307 77.4682 183.255 77.7423 183.162C77.8768 183.11 78.0217 183.073 78.1665 182.98C78.2338 182.933 78.3114 182.866 78.3372 182.756C78.3631 182.653 78.3062 182.533 78.2286 182.476C77.5509 182.139 76.8837 182.523 76.6405 182.876C76.506 183.058 76.444 183.229 76.4181 183.348C76.3922 183.468 76.3922 183.541 76.4026 183.541C76.4284 183.551 76.444 183.26 76.7129 182.933C76.8474 182.772 77.044 182.616 77.3078 182.533C77.5561 182.455 77.9079 182.429 78.1458 182.58C78.2596 182.663 78.2182 182.793 78.0941 182.871C77.9803 182.949 77.8303 182.995 77.701 183.047C77.4371 183.141 77.1889 183.208 76.9819 183.245C76.5629 183.328 76.2939 183.328 76.2939 183.354Z" fill="#263238"/>
<path d="M76.4806 183.384C76.4806 183.384 76.5944 183.208 76.5531 182.896C76.5324 182.741 76.4755 182.559 76.3565 182.382C76.2323 182.226 76.0668 182.014 75.7668 182.029C75.6064 182.05 75.5288 182.242 75.5547 182.356C75.5702 182.481 75.6271 182.585 75.6788 182.668C75.7875 182.844 75.9064 182.985 76.0151 183.088C76.2375 183.301 76.4134 183.379 76.4186 183.369C76.4289 183.353 76.2789 183.244 76.0823 183.026C75.984 182.917 75.8754 182.777 75.7823 182.606C75.684 182.46 75.6116 182.19 75.7875 182.159C75.9633 182.138 76.1444 182.315 76.253 182.45C76.3668 182.6 76.4289 182.766 76.4599 182.907C76.5168 183.192 76.4548 183.379 76.4806 183.384Z" fill="#263238"/>
<path d="M64.6348 182.808C64.6348 182.808 64.9451 182.771 65.4417 182.823C65.9332 182.87 66.616 183.062 67.216 183.53C67.8161 183.997 68.1678 184.61 68.3385 185.077C68.5144 185.544 68.5299 185.861 68.5558 185.856C68.5661 185.856 68.5661 185.778 68.5558 185.633C68.5403 185.492 68.5041 185.285 68.4265 185.041C68.2765 184.558 67.9195 183.903 67.2988 183.42C66.6729 182.938 65.959 182.751 65.4521 182.73C65.1986 182.714 64.9917 182.73 64.852 182.756C64.7124 182.777 64.6348 182.803 64.6399 182.808H64.6348Z" fill="#263238"/>
<path d="M65.7052 178.229C65.669 178.229 65.638 179.236 65.6431 180.482C65.6431 181.728 65.6742 182.736 65.7104 182.736C65.7466 182.736 65.7776 181.728 65.7725 180.482C65.7725 179.236 65.7414 178.229 65.7052 178.229Z" fill="#263238"/>
<path d="M69.9365 184.833C69.9365 184.87 70.6452 184.973 71.5349 184.968C72.4247 184.968 73.1385 184.854 73.1334 184.818C73.1334 184.781 72.4143 184.833 71.5349 184.833C70.6555 184.838 69.9417 184.792 69.9365 184.833Z" fill="#263238"/>
<path d="M67.7956 184.86C67.7698 184.886 67.8577 185.01 67.9301 185.176C68.0077 185.337 68.0491 185.483 68.0853 185.483C68.1215 185.483 68.137 185.306 68.0491 185.119C67.9612 184.932 67.8163 184.834 67.7956 184.86Z" fill="#263238"/>
<path d="M66.973 183.862C66.9472 183.888 67.0196 184.002 67.1334 184.116C67.2472 184.231 67.361 184.298 67.3868 184.272C67.4127 184.246 67.3403 184.132 67.2265 184.018C67.1127 183.904 66.9989 183.836 66.973 183.862Z" fill="#263238"/>
<path d="M65.8091 183.416C65.8194 183.452 65.9642 183.452 66.1246 183.504C66.285 183.556 66.4039 183.644 66.4298 183.618C66.4608 183.597 66.3626 183.442 66.166 183.379C65.9642 183.312 65.7987 183.379 65.8091 183.416Z" fill="#263238"/>
<path d="M64.9865 183.213C64.9761 183.249 65.0382 183.301 65.1261 183.337C65.2193 183.374 65.302 183.369 65.3124 183.337C65.3227 183.301 65.2606 183.249 65.1727 183.213C65.0796 183.177 64.9968 183.182 64.9865 183.213Z" fill="#263238"/>
<path opacity="0.3" d="M64.6449 182.517L75.5648 182.179L75.5286 180.86L64.5518 181.821L64.6449 182.517Z" fill="black"/>
<path d="M41.3108 143.012L75.8552 142.539C75.8552 142.539 87.4941 143.541 85.0215 152.576C83.1127 159.555 80.7901 169.437 76.8949 181.536L63.1506 181.676L68.846 157.084C68.0183 157.094 58.5675 157.406 58.5675 157.406L41.3057 143.012H41.3108Z" fill="#263238"/>
<path d="M75.6795 152.265C75.7157 152.348 73.9725 152.992 72.1206 154.3C70.2583 155.593 69.0582 157.016 68.991 156.954C68.9651 156.933 69.229 156.549 69.7411 155.993C70.248 155.437 71.0188 154.726 71.9602 154.067C72.9017 153.407 73.8328 152.929 74.526 152.639C75.2191 152.348 75.6692 152.234 75.6847 152.265H75.6795Z" fill="#455A64"/>
<path d="M73.2429 155.963C73.2585 156.04 72.2704 156.326 71.0496 156.679C69.8289 157.032 68.8408 157.323 68.815 157.245C68.7891 157.172 69.7409 156.757 70.972 156.404C72.2032 156.046 73.2274 155.885 73.2429 155.963Z" fill="#455A64"/>
<path d="M78.7212 176.021L62.8975 176.055L62.9096 181.85L78.7333 181.816L78.7212 176.021Z" fill="#455A64"/>
<path d="M53.0731 171.929L53.0628 171.939C53.0628 171.939 23.6344 155.806 20.2979 150.556C16.8579 145.14 19.3151 140.062 19.3151 140.062L44.0827 143.38L62.5239 160.048L61.6963 161.092C65.5345 164.145 72.4558 170.527 72.4558 176.815C72.4558 187.58 58.5926 185.825 48.64 185.845C35.0302 185.876 19.7651 185.939 19.7651 185.939L19.7289 171.264L53.0835 171.934L53.0731 171.929Z" fill="#263238"/>
<path d="M60.0667 174.998C60.0357 175.07 58.4114 174.432 56.4406 173.57C54.4697 172.708 52.8971 171.949 52.9282 171.877C52.9592 171.804 54.5835 172.443 56.5544 173.305C58.5252 174.167 60.0978 174.925 60.0667 174.998Z" fill="#455A64"/>
<path d="M57.7491 171.4C57.7491 171.478 56.6008 171.581 55.1731 171.628C53.7505 171.675 52.5918 171.649 52.5918 171.571C52.5918 171.493 53.7402 171.389 55.1679 171.343C56.5904 171.296 57.7491 171.322 57.7491 171.4Z" fill="#455A64"/>
<path d="M25.4497 170.683H19.6768V186.567H25.4497V170.683Z" fill="#455A64"/>
<path d="M45.6974 109.575C51.0462 105.862 56.6897 108.386 59.2038 114.404C61.9092 120.885 65.9285 128.316 66.9941 128.949C69.0632 130.169 93.3964 141.131 93.3964 141.131L89.6822 148.645C89.6822 148.645 59.1624 138.14 57.026 134.474C54.8896 130.808 42.873 111.533 42.873 111.533L45.6974 109.57V109.575Z" fill="#FFBE9D"/>
<path d="M95.3727 151.049C95.3727 150.717 95.2279 150.961 95.771 150.623C96.8728 149.938 96.1228 149.258 96.1228 149.258C96.1228 149.258 95.8745 148.962 95.9262 148.764C96.0038 148.453 96.309 148.614 96.309 148.614C97.4056 148.837 97.6901 148.292 97.5505 147.84C97.4108 147.399 96.6452 146.89 96.4952 146.64C96.3452 146.391 96.8625 146.464 96.8625 146.464C96.8625 146.464 98.3419 146.656 98.7299 146.1C99.1179 145.55 98.9316 145.353 98.4506 145.015C98.1816 144.823 95.171 143.717 95.1761 143.058C95.1761 142.398 96.2935 142.273 97.2298 141.78C98.166 141.287 99.5472 139.895 98.9523 139.423C98.3574 138.95 97.9281 139.407 97.0332 140.035C96.1331 140.664 93.3967 141.126 93.3967 141.126L89.5791 148.593C89.5791 148.593 93.2622 151.226 93.7743 151.548C93.7743 151.548 95.3727 152.472 95.3727 151.044V151.049Z" fill="#FFBE9D"/>
<path d="M119.043 150.291C119.043 150.291 118.51 153.152 119.897 153.692C120.512 153.931 122.002 152.337 119.043 150.291Z" fill="#455A64"/>
<path d="M119.644 149.596C119.644 149.596 121.082 150.972 121.909 150.375C122.277 150.11 121.92 148.656 119.644 149.596Z" fill="#455A64"/>
<path d="M121.795 151.683C121.795 151.683 122.969 155.099 124.795 154.829C125.607 154.71 126.238 152.072 121.795 151.683Z" fill="#455A64"/>
<path d="M96.4683 156.315C96.4114 156.268 90.6281 151.678 94.4353 146.226C97.9167 141.241 104.522 144.606 104.59 144.642L104.336 145.13C104.336 145.13 102.743 144.31 100.788 144.092C98.2115 143.801 96.2251 144.626 94.8905 146.543C93.4214 148.646 93.287 150.852 94.5026 153.096C95.4233 154.789 96.7941 155.869 96.8045 155.879L96.4683 156.315Z" fill="#263238"/>
<path d="M105.883 142.087L92.4492 162.447L105.092 169.494L112.618 148.858L116.974 148.775L105.883 142.087Z" fill="#263238"/>
<path d="M105.092 169.494C105.045 169.52 104.704 168.71 103.902 167.572C103.106 166.44 101.74 165.038 99.888 164.015C98.0258 163.018 96.1015 162.65 94.7307 162.473C93.3495 162.302 92.4856 162.354 92.4805 162.302C92.4805 162.286 92.6926 162.25 93.0857 162.229C93.4788 162.208 94.0478 162.208 94.7462 162.271C96.1377 162.401 98.0982 162.738 100.017 163.761C101.916 164.81 103.297 166.274 104.062 167.453C104.45 168.045 104.714 168.554 104.875 168.912C105.035 169.27 105.102 169.478 105.087 169.489L105.092 169.494Z" fill="#455A64"/>
<path d="M59.1614 136.209C59.1614 135.85 67.9967 128.949 67.9967 128.949C67.9967 128.949 62.6531 117.526 60.3201 113.366L59.1562 136.209H59.1614Z" fill="url(#paint2_linear_88_32410)"/>
<path d="M60.3257 113.366C60.3257 113.366 53.4717 101.822 42.8725 111.538C35.9564 117.878 24.6744 130.943 20.6447 136.063C19.7395 137.21 18.3273 138.955 19.3153 140.03C22.3363 143.312 30.5715 150.654 45.821 145.176L61.4948 115.562L60.3257 113.371V113.366Z" fill="url(#paint3_linear_88_32410)"/>
<path d="M51.5371 107.872L53.4666 104.699L63.3364 112.582L61.4949 115.557L51.5371 107.872Z" fill="url(#paint4_linear_88_32410)"/>
<path d="M55.329 110.774C55.329 110.774 55.4687 111.164 55.3549 111.886C55.2307 112.581 54.791 113.641 53.6789 114.357C53.1409 114.716 52.4167 114.944 51.6459 114.892C50.8804 114.856 50.1044 114.612 49.2975 114.435C48.5009 114.254 47.6008 114.144 46.8248 114.56C46.0489 114.965 45.5368 115.791 45.1902 116.668C44.8385 117.551 44.6626 118.491 44.3315 119.358C44.0108 120.22 43.509 121.046 42.7538 121.513C42.0037 121.98 41.1347 122.079 40.3846 121.965C39.6242 121.856 38.9569 121.539 38.45 121.139C37.4258 120.329 36.955 119.342 36.6964 118.688C36.5671 118.356 36.4947 118.086 36.4481 117.904C36.4067 117.722 36.3912 117.624 36.4015 117.618C36.4274 117.613 36.5205 117.997 36.7998 118.641C37.0844 119.275 37.5758 120.215 38.5741 120.973C39.0707 121.342 39.7018 121.632 40.4209 121.726C41.1347 121.819 41.9417 121.715 42.6193 121.284C43.3021 120.853 43.7677 120.09 44.0781 119.254C44.3988 118.413 44.5747 117.478 44.9368 116.559C45.2937 115.656 45.8368 114.757 46.7059 114.305C47.5801 113.848 48.5578 113.983 49.3647 114.176C50.1872 114.368 50.9424 114.612 51.6666 114.653C52.3908 114.71 53.0581 114.513 53.5754 114.186C54.6359 113.527 55.0962 112.524 55.2463 111.86C55.3911 111.174 55.2928 110.774 55.329 110.774Z" fill="#263238"/>
<path d="M29.3347 146.957C29.3347 146.957 29.3141 146.874 29.3037 146.708C29.3037 146.547 29.3192 146.297 29.433 146.001C29.6348 145.399 30.2866 144.677 31.2901 144.184C32.2936 143.644 33.6437 143.55 34.9887 143.094C35.656 142.86 36.3388 142.512 36.8147 141.915C37.3009 141.328 37.5441 140.544 37.6424 139.729C37.8441 138.098 37.6475 136.426 38.2424 135.019C38.8114 133.627 39.8719 132.687 40.8392 132.153C41.8272 131.623 42.7376 131.467 43.3584 131.462C43.6687 131.462 43.9067 131.477 44.067 131.509C44.2274 131.535 44.3102 131.55 44.3102 131.561C44.3102 131.597 43.9688 131.529 43.3635 131.576C42.7583 131.613 41.8841 131.799 40.9375 132.334C40.0167 132.874 39.0132 133.793 38.4855 135.123C37.932 136.452 38.1234 138.088 37.9217 139.77C37.8234 140.611 37.5648 141.463 37.0268 142.097C36.5043 142.746 35.7646 143.114 35.0714 143.348C33.6696 143.805 32.3454 143.878 31.3729 144.371C30.3952 144.828 29.7537 145.493 29.5313 146.048C29.2934 146.604 29.371 146.967 29.3296 146.962L29.3347 146.957Z" fill="#263238"/>
<path d="M28.063 127.137C28.063 127.137 28.1302 127.09 28.2699 127.023C28.4095 126.955 28.6268 126.877 28.9113 126.815C29.4803 126.68 30.3701 126.623 31.3788 126.971C31.8805 127.147 32.403 127.423 32.8789 127.838C33.3445 128.259 33.7635 128.814 34.0118 129.479C34.5239 130.787 34.4514 132.537 33.4634 133.882C32.4599 135.212 30.8098 135.778 29.4131 135.658C28.7044 135.606 28.0578 135.367 27.525 135.035C26.9922 134.698 26.5784 134.267 26.2732 133.836C25.6576 132.963 25.4558 132.091 25.4248 131.504C25.4041 131.208 25.4196 130.98 25.4403 130.829C25.461 130.673 25.4765 130.595 25.4869 130.595C25.5179 130.595 25.4662 130.923 25.5334 131.494C25.6007 132.06 25.8231 132.896 26.4335 133.716C27.0284 134.526 28.0837 135.316 29.4338 135.393C30.7529 135.497 32.3047 134.947 33.2358 133.711C34.1514 132.465 34.2394 130.813 33.7635 129.572C33.3031 128.295 32.253 127.501 31.3115 127.158C30.3545 126.8 29.4958 126.82 28.9372 126.919C28.3733 127.018 28.0785 127.158 28.0681 127.132L28.063 127.137Z" fill="#263238"/>
<g opacity="0.3">
<path d="M60.2998 135.06L60.305 116.637L63.1501 132.786L60.2998 135.06Z" fill="black"/>
</g>
<g opacity="0.3">
<path d="M45.883 119.197L41.8223 137.823H45.883L45.8209 145.176L46.9227 142.938L46.7054 135.689H44.0259L45.883 119.197Z" fill="black"/>
</g>
<g opacity="0.3">
<path d="M51.9561 108.277C51.9561 108.277 59.7257 115.023 59.8395 114.914C59.9533 114.805 62.9432 112.634 62.9432 112.634L60.2068 114.176L51.9612 108.283L51.9561 108.277Z" fill="black"/>
</g>
<path d="M51.4546 107.83C51.4546 107.83 51.6408 107.913 51.9512 108.1C52.2564 108.293 52.6961 108.578 53.2289 108.947C54.2945 109.679 55.7325 110.749 57.3154 111.927C58.3914 112.727 59.4053 113.464 60.2743 114.067H60.145C61.0658 113.558 61.8365 113.148 62.3797 112.867C62.9228 112.587 63.2384 112.441 63.2487 112.462C63.259 112.483 62.9694 112.675 62.4469 112.992C61.9245 113.309 61.1692 113.75 60.264 114.275L60.2019 114.311L60.1398 114.269C59.2553 113.688 58.2259 112.961 57.1499 112.156C55.6032 110.988 54.2065 109.933 53.1151 109.108C52.6392 108.749 52.2305 108.443 51.8891 108.189C51.5994 107.971 51.4442 107.841 51.4546 107.825V107.83Z" fill="#263238"/>
<path d="M97.9947 144.917C97.1826 144.543 96.2928 144.345 95.3979 144.335C95.1755 144.335 94.9479 144.34 94.7461 144.428C94.5444 144.517 94.3685 144.698 94.3427 144.917C94.3168 145.155 94.472 145.384 94.6737 145.514C94.8755 145.644 95.1134 145.695 95.3462 145.747C96.0601 145.898 96.7687 146.043 97.4826 146.194" fill="#FFBE9D"/>
<path d="M95.9771 149.013C95.165 148.639 94.2753 148.442 93.3804 148.432C93.1579 148.432 92.9303 148.437 92.7286 148.525C92.5268 148.613 92.351 148.795 92.3251 149.013C92.2992 149.252 92.4544 149.481 92.6562 149.61C92.8579 149.74 93.0958 149.792 93.3286 149.844C94.0425 149.995 94.7512 150.14 95.465 150.291" fill="#FFBE9D"/>
<path d="M96.6392 146.978C95.8271 146.604 94.9374 146.407 94.0425 146.396C93.82 146.396 93.5924 146.402 93.3907 146.49C93.1889 146.578 93.0131 146.76 92.9872 146.978C92.9613 147.217 93.1165 147.445 93.3183 147.575C93.52 147.705 93.758 147.757 93.9907 147.809C94.7046 147.959 95.4133 148.105 96.1271 148.255" fill="#FFBE9D"/>
<path d="M97.6996 146.443C97.6892 146.48 97.234 146.402 96.4943 146.241C96.0908 146.147 95.6615 146.049 95.2011 145.94C94.958 145.877 94.7045 145.82 94.4407 145.747C94.182 145.68 93.8044 145.503 93.763 145.088C93.7475 144.88 93.8717 144.704 94.0062 144.6C94.1458 144.491 94.301 144.449 94.451 144.423C94.7562 144.387 94.9993 144.408 95.258 144.413C95.7598 144.434 96.2098 144.501 96.5822 144.564C97.3271 144.699 97.7772 144.787 97.7772 144.823C97.7772 144.865 97.3013 144.849 96.5564 144.761C96.1839 144.725 95.7391 144.678 95.2477 144.673C95.0097 144.673 94.7304 144.657 94.4924 144.693C94.2545 144.725 94.032 144.88 94.0475 145.062C94.0631 145.259 94.2803 145.405 94.5234 145.472C94.7821 145.545 95.0304 145.612 95.2735 145.675C95.7235 145.799 96.1477 145.924 96.546 146.033C97.2702 146.246 97.7099 146.397 97.7048 146.438L97.6996 146.443Z" fill="#EB996E"/>
<path d="M96.3705 148.359C96.3601 148.396 95.9049 148.318 95.1652 148.157C94.7617 148.063 94.3324 147.965 93.872 147.856C93.6289 147.793 93.3754 147.736 93.1116 147.663C92.8529 147.596 92.4753 147.419 92.4339 147.004C92.4184 146.796 92.5426 146.62 92.6771 146.516C92.8167 146.407 92.9719 146.365 93.1219 146.339C93.4271 146.303 93.6702 146.324 93.9289 146.329C94.4307 146.35 94.8807 146.417 95.2531 146.48C95.998 146.615 96.4481 146.703 96.4481 146.739C96.4481 146.781 95.9722 146.765 95.2273 146.677C94.8548 146.641 94.41 146.594 93.9185 146.589C93.6806 146.589 93.4013 146.573 93.1633 146.609C92.9254 146.641 92.7029 146.796 92.7184 146.978C92.734 147.175 92.9512 147.321 93.1943 147.388C93.453 147.461 93.7013 147.528 93.9444 147.591C94.3944 147.715 94.8186 147.84 95.2169 147.949C95.9411 148.162 96.3808 148.313 96.3756 148.354L96.3705 148.359Z" fill="#EB996E"/>
<path d="M95.6722 150.385C95.6619 150.421 95.2067 150.343 94.467 150.182C94.0635 150.089 93.6341 149.99 93.1737 149.881C92.9306 149.819 92.6772 149.762 92.4133 149.689C92.1547 149.621 91.7771 149.445 91.7357 149.029C91.7202 148.822 91.8443 148.645 91.9788 148.541C92.1185 148.432 92.2737 148.391 92.4237 148.365C92.7289 148.328 92.972 148.349 93.2306 148.354C93.7324 148.375 94.1825 148.443 94.5549 148.505C95.2998 148.64 95.7498 148.728 95.7498 148.765C95.7498 148.806 95.2739 148.791 94.529 148.702C94.1566 148.666 93.7117 148.619 93.2203 148.614C92.9824 148.614 92.703 148.598 92.4651 148.635C92.2271 148.666 92.0047 148.822 92.0202 149.003C92.0357 149.201 92.253 149.346 92.4961 149.414C92.7547 149.486 93.003 149.554 93.2462 149.616C93.6962 149.741 94.1204 149.865 94.5187 149.974C95.2429 150.187 95.6826 150.338 95.6774 150.38L95.6722 150.385Z" fill="#EB996E"/>
<path d="M72.4148 168.206L74.2822 168.99C74.2822 168.99 75.3375 169.644 77.3963 170.366C77.9291 170.553 78.4929 170.641 79.062 170.641C79.75 170.641 80.6604 170.595 81.1518 170.418C81.7622 170.195 82.3209 170.834 81.995 171.322C81.6691 171.81 80.0034 172.464 77.9239 172.288C75.8444 172.111 78.2084 174.396 79.0568 175.247C79.9051 176.094 82.3985 178.846 82.3467 179.313C82.2691 179.999 81.5191 180.04 80.6966 179.173C79.8586 178.295 77.2153 175.881 76.7859 176.348C76.3669 176.81 80.7328 181.074 80.7328 181.074C80.7328 181.074 81.8139 181.832 81.338 182.392C80.4845 183.4 76.1755 178.529 75.7772 178.057C75.4979 177.729 75.022 178.223 75.3375 178.56C75.6634 178.908 79.7913 182.709 78.9326 183.748C78.2757 184.542 75.3479 179.77 74.0598 179.459C72.7666 179.147 76.6411 182.849 75.9841 183.582C75.7358 183.857 75.5186 184.023 73.5943 181.577C71.6286 179.069 67.4023 171.405 67.4023 171.405L72.539 168.222" fill="#FFBE9D"/>
<path d="M59.9328 118.455C59.9328 118.455 58.3292 144.621 59.6069 146.657C60.8846 148.697 76.4549 169.966 76.4549 169.966L69.5595 175.092C69.5595 175.092 47.2955 151.657 47.0782 147.415C46.861 143.172 46.2402 118.455 46.2402 118.455H59.9276H59.9328Z" fill="#FFBE9D"/>
<path d="M49.4162 149.393C49.4162 149.393 49.2868 149.424 49.0592 149.372C48.8368 149.315 48.5161 149.164 48.2419 148.842C47.9626 148.531 47.766 147.996 47.885 147.43C47.9833 146.879 48.4126 146.287 49.0696 146.111C49.3903 146.023 49.7421 146.043 50.0317 146.194C50.3162 146.345 50.5335 146.594 50.6266 146.885C50.818 147.492 50.3835 148.053 49.9335 148.126C49.4576 148.204 49.1575 147.871 49.0748 147.663C48.9817 147.435 49.0437 147.295 49.0541 147.305C49.0799 147.305 49.0644 147.435 49.173 147.612C49.2713 147.778 49.5507 148.011 49.8921 147.928C50.218 147.856 50.5387 147.399 50.3783 146.968C50.3059 146.755 50.13 146.557 49.9076 146.443C49.6852 146.329 49.4058 146.313 49.1472 146.386C48.6092 146.531 48.2419 147.009 48.1436 147.482C48.0298 147.965 48.1747 148.416 48.4023 148.712C48.8782 149.325 49.442 149.341 49.4162 149.393Z" fill="#EB996E"/>
<path d="M45.9562 117.479L44.4561 135.601L60.3264 135.129C60.3264 135.129 60.7092 120.402 60.2281 115.526L45.9614 117.479H45.9562Z" fill="url(#paint5_linear_88_32410)"/>
<path d="M60.3261 135.128C60.3261 135.128 60.2123 135.149 60.0002 135.165C59.757 135.18 59.4467 135.201 59.0639 135.222C58.2104 135.263 57.0361 135.315 55.5981 135.383C52.6289 135.492 48.5785 135.642 44.0523 135.808H43.8867L43.9074 135.648C43.9436 135.346 43.985 135.024 44.0212 134.697C44.6161 129.972 45.1541 125.693 45.5472 122.552C45.7541 121.025 45.9197 119.779 46.0438 118.875C46.1059 118.465 46.1524 118.138 46.1938 117.878C46.23 117.65 46.2559 117.53 46.2662 117.53C46.2766 117.53 46.2662 117.655 46.2507 117.883C46.2249 118.143 46.1938 118.475 46.1524 118.886C46.0541 119.794 45.9145 121.041 45.749 122.572C45.3765 125.714 44.8644 129.998 44.3057 134.728C44.2643 135.056 44.2281 135.378 44.1867 135.679L44.0419 135.518C48.5682 135.383 52.6237 135.263 55.5877 135.18C57.031 135.149 58.2052 135.128 59.0587 135.107C59.4415 135.107 59.757 135.107 60.0002 135.107C60.2174 135.107 60.3261 135.113 60.3261 135.123V135.128Z" fill="#263238"/>
<path d="M60.326 135.129C60.2485 135.129 60.1605 130.741 60.1347 125.33C60.1088 119.914 60.1502 115.526 60.2278 115.526C60.3054 115.526 60.3933 119.914 60.4192 125.325C60.445 130.736 60.4036 135.129 60.326 135.129Z" fill="#263238"/>
<path d="M50.9888 135.544C50.9888 135.544 50.8698 135.331 50.7301 134.911C50.5905 134.49 50.4456 133.862 50.3887 133.067C50.2594 131.504 50.6163 129.183 52.0854 127.21C53.5649 125.242 55.6857 124.255 57.2169 123.944C57.9928 123.778 58.6343 123.741 59.074 123.762C59.5137 123.778 59.7568 123.819 59.7516 123.835C59.7516 123.897 58.7688 123.773 57.2583 124.146C55.7685 124.499 53.7356 125.491 52.3079 127.387C50.8905 129.292 50.5077 131.525 50.5853 133.062C50.6474 134.62 51.0457 135.534 50.9836 135.55L50.9888 135.544Z" fill="#263238"/>
<path d="M169.685 77.4391C169.079 78.1661 168.133 78.5556 167.191 78.6127C166.25 78.6698 165.308 78.4258 164.439 78.0571C162.758 77.3457 161.289 75.8346 160.208 74.3599C161.915 73.2642 164.248 73.581 165.422 73.8147C167.274 74.1885 170.399 75.9904 169.685 77.4391Z" fill="#455A64"/>
<path d="M160.141 38.9192C159.779 39.5891 159.091 40.046 158.356 40.2381C157.622 40.4303 156.841 40.3887 156.096 40.2381C154.658 39.9422 153.261 38.9867 152.175 37.9897C153.349 36.8525 155.242 36.7383 156.204 36.7383C157.725 36.7383 160.472 37.6678 160.136 38.9244" fill="url(#paint6_linear_88_32410)"/>
<path d="M119.565 78.0312C120.481 78.2493 121.252 78.9296 121.722 79.75C122.193 80.5705 122.39 81.5259 122.447 82.471C122.56 84.2988 121.867 86.2928 121.024 87.9181C119.286 86.8692 118.536 84.6311 118.226 83.4732C117.734 81.6402 117.957 78.0312 119.565 78.0312Z" fill="#455A64"/>
<path d="M154.559 59.5654C155.475 59.7835 156.246 60.4638 156.717 61.2842C157.187 62.1046 157.384 63.0601 157.441 64.0052C157.555 65.833 156.861 67.827 156.018 69.4523C154.28 68.4034 153.53 66.1653 153.22 65.0074C152.728 63.1743 152.951 59.5654 154.559 59.5654Z" fill="#263238"/>
<path d="M166.597 50.79C166.597 50.79 166.716 50.7693 166.949 50.7641C167.207 50.7589 167.544 50.7485 167.963 50.7381C168.413 50.7329 168.956 50.7225 169.577 50.7173C169.887 50.7069 170.239 50.7173 170.601 50.7848C170.958 50.8627 171.33 50.977 171.692 51.1691C172.411 51.5533 173.099 52.2076 173.482 53.106C173.673 53.5525 173.792 54.051 173.803 54.5755C173.803 55.0792 173.844 55.6088 173.741 56.1593C173.544 57.2497 172.83 58.2934 171.78 58.8958C171.258 59.197 170.647 59.3683 170.021 59.4047C169.406 59.4254 168.801 59.4099 168.175 59.4151L168.273 59.3735C167.854 59.7941 167.409 60.2407 166.964 60.6925C166.39 61.2636 165.826 61.8297 165.293 62.3645L165.05 62.6086V62.2658C165.05 61.6583 165.05 61.0559 165.05 60.464C165.05 60.168 165.05 59.8772 165.05 59.5864V59.3683V59.2593V59.2073V59.1814C165.324 59.4462 165.123 59.2489 165.18 59.3112H165.164C165.014 59.3008 164.869 59.3008 164.724 59.28C163.55 59.145 162.526 58.47 161.916 57.5924C161.61 57.1511 161.403 56.6629 161.295 56.1696C161.181 55.6711 161.202 55.1778 161.202 54.7261C161.207 53.781 161.528 52.919 162.024 52.2959C162.505 51.6624 163.126 51.2522 163.7 51.0237C164.28 50.7952 164.823 50.7485 165.252 50.7537C165.655 50.7641 165.981 50.7744 166.235 50.7796C166.457 50.79 166.576 50.7952 166.576 50.8056C166.576 50.816 166.457 50.8212 166.235 50.8316C165.981 50.8368 165.655 50.8471 165.252 50.8575C164.828 50.8679 164.311 50.9302 163.752 51.1639C163.204 51.3976 162.619 51.7974 162.174 52.4101C161.714 53.0125 161.424 53.8329 161.429 54.7261C161.429 55.1882 161.419 55.6556 161.528 56.1177C161.631 56.5799 161.833 57.0368 162.122 57.447C162.697 58.2675 163.659 58.8906 164.755 59.01C164.89 59.0256 165.03 59.0256 165.169 59.036H165.18C165.242 59.0983 165.05 58.8958 165.324 59.1762V59.2125V59.2645V59.3735V59.5916C165.324 59.8824 165.324 60.1732 165.324 60.4692C165.324 61.0611 165.324 61.6635 165.324 62.271L165.081 62.1724C165.614 61.6375 166.178 61.0715 166.747 60.4951C167.197 60.0434 167.642 59.5968 168.061 59.1814L168.102 59.1398H168.159C168.78 59.1398 169.401 59.1502 169.99 59.1295C170.57 59.0983 171.139 58.9425 171.625 58.6621C172.608 58.1065 173.28 57.1355 173.472 56.1177C173.575 55.6192 173.544 55.0896 173.544 54.5911C173.534 54.1029 173.43 53.6304 173.254 53.2098C172.897 52.3582 172.256 51.7299 171.578 51.3508C171.237 51.1639 170.88 51.0445 170.544 50.9666C170.197 50.8991 169.871 50.8783 169.556 50.8835C168.935 50.8731 168.392 50.8679 167.942 50.8627C167.523 50.8523 167.187 50.842 166.928 50.8368C166.695 50.8264 166.576 50.8212 166.576 50.8108L166.597 50.79Z" fill="#263238"/>
<path d="M138.105 3.03817C138.105 3.03817 137.598 -0.0774302 133.822 0.000459912C130.046 0.07835 129.891 4.81926 130.439 6.55362C130.987 8.29316 137.831 16.3418 137.831 16.3418L144.442 8.35547C145.973 6.50688 146.304 3.88458 145.13 1.78674C144.566 0.784554 143.723 0.000459912 142.481 0.000459912C138.793 0.000459912 138.105 3.03817 138.105 3.03817Z" fill="url(#paint7_linear_88_32410)"/>
<path d="M150.742 99.876C151.544 99.5436 152.123 98.7232 152.138 97.7418C152.154 96.4592 151.197 95.4103 150.002 95.3947C148.807 95.3791 147.824 96.4021 147.809 97.6847C147.798 98.6713 148.362 99.5177 149.169 99.8604C145.833 100.338 145.952 103.973 145.952 103.973L153.835 104.077C153.835 104.077 154.047 100.4 150.747 99.8708L150.742 99.876Z" fill="#263238"/>
<path fill-rule="evenodd" clip-rule="evenodd" d="M161.491 117.921L157.482 123.436C157.426 123.514 157.441 123.628 157.519 123.685L159.557 125.181C159.634 125.238 159.748 125.222 159.805 125.144L163.881 119.541L165.361 120.627C165.433 120.678 165.537 120.668 165.599 120.601L166.969 119.017C167.037 118.939 167.026 118.819 166.938 118.757L165.319 117.568L166.188 116.369C166.39 116.088 166.783 116.026 167.063 116.234L168.201 117.07C168.278 117.127 168.392 117.111 168.449 117.033L169.675 115.346C169.732 115.268 169.716 115.153 169.639 115.096L167.714 113.684C166.587 112.858 164.999 113.102 164.176 114.24L162.992 115.865L161.972 115.117C161.895 115.06 161.781 115.076 161.724 115.153L160.498 116.841C160.441 116.919 160.457 117.033 160.534 117.09L161.553 117.838L161.486 117.926L161.491 117.921Z" fill="#263238"/>
<path d="M150.344 20.423C150.329 20.3451 150.318 20.2672 150.303 20.1945C150.375 20.0699 150.458 19.9557 150.608 19.8985C151.772 19.4416 152.439 18.5225 152.863 17.4009C153.22 16.4558 153.106 16.2792 152.103 16.1131C152.046 16.1027 151.989 16.0975 151.932 16.0871C151.715 16.0404 151.498 15.9885 151.301 15.869C150.815 15.5782 150.97 15.0018 151.441 14.7941C151.787 14.6384 152.149 14.8201 152.506 14.7941C152.75 14.7786 152.827 14.6851 152.755 14.4358C152.563 13.8023 152.449 13.1481 152.362 12.4886C152.196 11.2372 152.636 10.1779 153.556 9.37818C154.901 8.20983 156.474 7.91385 158.15 8.53177C159.195 8.91603 159.96 9.65339 160.297 10.7594C160.514 11.4812 160.612 12.2238 160.69 12.9715C160.721 13.2986 160.798 13.3454 161.098 13.2104C161.471 13.0494 161.766 12.7846 162.205 12.8936C162.438 12.9507 162.666 13.1221 162.702 13.361C162.728 13.5271 162.661 13.6933 162.557 13.8231C162.397 14.0204 162.169 14.1554 161.957 14.2905C161.792 14.3943 161.621 14.4826 161.461 14.5968C161.135 14.8305 161.073 15.0694 161.3 15.3913C162.097 16.5077 163.111 17.2866 164.538 17.3593C164.714 17.3697 164.859 17.4112 164.983 17.5307C164.999 17.6086 165.009 17.6865 165.025 17.7592C164.942 18.0499 164.735 18.2421 164.492 18.3875C164.244 18.5381 163.995 18.699 163.711 18.7717C163.318 18.8704 163.142 19.0781 163.152 19.5091C163.168 19.9141 163.059 19.992 162.65 20.0336C162.552 20.0439 162.459 20.0439 162.361 20.0439C161.549 20.0439 160.829 20.2568 160.276 20.9007C160.167 21.0254 160.043 21.1344 159.924 21.2486C158.952 22.1625 157.84 22.4481 156.572 21.986C156.226 21.8614 155.889 21.7004 155.553 21.555C155.274 21.4356 154.984 21.394 154.674 21.3992C154.182 21.4148 153.748 21.6017 153.293 21.7367C153.06 21.8043 152.817 21.7783 152.76 21.5342C152.62 20.9423 152.232 20.8644 151.72 20.9007C151.482 20.9163 151.234 20.8644 151.001 20.8125C150.742 20.7553 150.499 20.6515 150.339 20.4178L150.344 20.423Z" fill="#263238"/>
<path d="M115.54 108.647C116.042 108.439 116.399 107.93 116.404 107.323C116.415 106.528 115.82 105.874 115.075 105.863C114.33 105.853 113.72 106.492 113.714 107.286C113.709 107.899 114.061 108.423 114.558 108.636C112.483 108.932 112.561 111.191 112.561 111.191L117.454 111.253C117.454 111.253 117.584 108.974 115.535 108.641L115.54 108.647Z" fill="#263238"/>
<path d="M129.75 55.3286C129.75 55.9673 129.238 56.4814 128.602 56.4866C127.966 56.4866 127.453 55.9725 127.448 55.3338C127.448 54.6951 127.96 54.181 128.597 54.1758C129.233 54.1706 129.745 54.6899 129.75 55.3286Z" fill="#263238"/>
<path d="M132.968 53.018C132.968 53.6567 132.456 54.1708 131.82 54.176C131.183 54.176 130.671 53.6619 130.666 53.0232C130.666 52.3845 131.178 51.8705 131.814 51.8653C132.451 51.8601 132.963 52.3793 132.968 53.018Z" fill="#263238"/>
<path d="M132.978 57.9099C132.978 58.6058 132.466 59.1666 131.829 59.1666C131.193 59.1666 130.676 58.6058 130.676 57.9099C130.676 57.2141 131.188 56.6533 131.824 56.6533C132.46 56.6533 132.973 57.2141 132.978 57.9099Z" fill="#263238"/>
<path d="M131.489 57.7639C131.442 57.8366 130.676 57.4005 129.781 56.7877C128.887 56.175 128.204 55.6246 128.25 55.5519C128.297 55.4792 129.062 55.9153 129.957 56.5281C130.852 57.1408 131.535 57.6912 131.489 57.7639Z" fill="#263238"/>
<path d="M131.576 52.9346C131.628 53.0021 131.038 53.5526 130.257 54.1601C129.476 54.7676 128.798 55.2038 128.741 55.1363C128.69 55.0688 129.279 54.5184 130.061 53.9108C130.842 53.3033 131.519 52.8671 131.576 52.9346Z" fill="#263238"/>
<path d="M122.26 26.5191L123.062 26.6385L125.162 24.5614L125.39 23.0244C125.39 23.0244 126.642 23.1387 126.192 25.1274C125.747 27.1214 125.98 26.6281 125.98 26.6281C125.98 26.6281 128.613 27.0332 128.799 27.2876C128.933 27.4693 128.633 29.993 128.457 31.3587C128.369 32.0441 127.837 32.6205 127.149 32.6828C127.05 32.6932 126.952 32.6932 126.859 32.6776C126.202 32.5789 122.922 31.5612 122.922 31.5612L121.536 31.3535L122.255 26.5191H122.26Z" fill="#263238"/>
<path d="M120.031 25.751L119.736 31.0942L121.112 31.3019L121.883 26.1352L120.031 25.751Z" fill="#263238"/>
<path d="M116.223 48.1678C116.223 48.1678 114.796 46.2466 112.287 47.2799C109.912 48.2613 110.357 50.9927 110.357 50.9927C110.357 50.9927 105.536 50.9096 103.927 47.8459C103.927 47.8459 102.639 50.3488 104.652 52.0416L103.524 51.7196C103.524 51.7196 103.043 54.4614 105.619 54.9443H104.414C104.414 54.9443 104.895 57.4472 107.067 57.2862C107.067 57.2862 106.824 58.7401 102.888 58.657C102.888 58.657 108.836 62.6918 113.818 58.091C117.837 54.3783 117.113 50.4267 117.113 50.4267L118.639 48.7338L117.191 49.1389L118.075 47.4461L116.228 48.173L116.223 48.1678Z" fill="#455A64"/>
<path d="M119.922 124.718C120.734 124.038 121.857 123.804 122.907 123.934C123.957 124.064 124.94 124.526 125.825 125.107C127.532 126.234 128.845 128.197 129.735 130.046C127.63 130.902 125.131 130.077 123.885 129.578C121.919 128.789 118.846 126.167 119.927 124.718" fill="url(#paint8_linear_88_32410)"/>
<path d="M133.62 129.781C132.472 129.506 131.561 128.509 131.261 127.361C130.956 126.214 131.215 124.962 131.825 123.95C132.11 123.482 132.513 123.025 133.056 122.948C133.563 122.875 134.07 123.171 134.365 123.586C134.66 124.002 134.779 124.521 134.825 125.03C134.986 126.78 134.825 128.504 133.62 129.776" fill="url(#paint9_linear_88_32410)"/>
<path d="M138.188 134.662C138.188 134.662 138.203 134.74 137.981 134.574C137.758 134.408 137.443 134.164 137.065 133.847C136.31 133.214 135.27 132.3 134.396 131.048C133.522 129.792 133.108 128.421 133.067 127.419C133.041 126.92 133.082 126.51 133.134 126.24C133.191 125.965 133.242 125.819 133.253 125.824C133.299 125.83 133.129 126.432 133.227 127.408C133.31 128.379 133.734 129.693 134.582 130.918C135.436 132.144 136.444 133.063 137.169 133.728C137.898 134.387 138.203 134.642 138.182 134.667L138.188 134.662Z" fill="#263238"/>
<path d="M138.085 134.745C137.645 134.512 136.931 134.102 136.238 133.733C134.8 132.97 132.814 131.915 130.6 130.778C128.386 129.646 126.373 128.644 124.909 127.927C124.206 127.58 123.627 127.289 123.182 127.071C122.773 126.868 122.551 126.744 122.561 126.733C122.566 126.718 122.804 126.811 123.223 126.993C123.642 127.174 124.242 127.445 124.982 127.782C126.461 128.462 128.489 129.444 130.703 130.576C132.917 131.713 134.898 132.788 136.316 133.593C137.024 133.992 137.738 134.434 138.131 134.668" fill="#263238"/>
<path d="M133.175 133.53C130.76 132.928 128.07 133.593 126.202 135.244C125.726 135.664 125.271 136.288 125.478 136.885C125.685 137.487 126.43 137.69 127.066 137.705C129.704 137.783 132.311 136.085 133.31 133.629" fill="url(#paint10_linear_88_32410)"/>
<path d="M128.354 135.389C128.354 135.389 128.452 135.28 128.664 135.114C128.768 135.031 128.897 134.932 129.057 134.833C129.218 134.735 129.394 134.61 129.611 134.506C130.025 134.278 130.552 134.059 131.152 133.873C131.758 133.701 132.44 133.566 133.165 133.525C133.894 133.488 134.587 133.545 135.208 133.649C135.829 133.769 136.372 133.924 136.811 134.111C137.034 134.189 137.225 134.293 137.396 134.376C137.567 134.454 137.706 134.537 137.82 134.61C138.048 134.75 138.167 134.833 138.156 134.849C138.136 134.89 137.634 134.579 136.755 134.267C136.315 134.106 135.777 133.966 135.172 133.862C134.561 133.774 133.889 133.722 133.18 133.758C132.471 133.8 131.804 133.924 131.209 134.08C130.62 134.252 130.097 134.449 129.678 134.657C128.84 135.067 128.374 135.425 128.349 135.389H128.354Z" fill="#263238"/>
<path d="M138.125 167.085C138.048 167.085 137.98 133.338 137.98 91.7184C137.98 50.0991 138.043 16.3467 138.125 16.3467C138.208 16.3467 138.27 50.0835 138.27 91.7184C138.27 133.353 138.208 167.085 138.125 167.085Z" fill="#263238"/>
<path d="M163.581 103.631C163.581 103.631 163.498 103.693 163.322 103.787C163.12 103.89 162.862 104.026 162.557 104.181C161.848 104.529 160.881 105.007 159.706 105.588C157.301 106.772 153.965 108.393 150.38 110.355C146.785 112.308 143.645 114.281 141.482 115.865C140.934 116.249 140.458 116.623 140.039 116.955C139.615 117.277 139.258 117.563 138.979 117.817C138.71 118.041 138.493 118.222 138.317 118.373C138.161 118.497 138.079 118.56 138.074 118.555C138.068 118.549 138.136 118.472 138.28 118.331C138.446 118.17 138.653 117.973 138.906 117.734C139.175 117.469 139.522 117.168 139.941 116.836C140.35 116.493 140.82 116.104 141.363 115.709C143.505 114.079 146.64 112.069 150.245 110.111C153.84 108.143 157.192 106.549 159.624 105.412C160.813 104.867 161.791 104.415 162.51 104.088C162.831 103.948 163.089 103.833 163.302 103.74C163.483 103.662 163.581 103.626 163.586 103.636L163.581 103.631Z" fill="#263238"/>
<path d="M163.24 64.0313C163.287 64.0936 157.69 68.3775 150.737 73.591C143.785 78.8096 138.11 82.9897 138.064 82.9222C138.017 82.8599 143.614 78.576 150.567 73.3573C157.519 68.1387 163.194 63.9638 163.24 64.0261V64.0313Z" fill="#263238"/>
<path d="M138.209 75.2368C138.209 75.2368 137.883 75.1018 137.319 74.8162C136.755 74.5306 135.948 74.1048 134.96 73.5595C132.979 72.4743 130.279 70.9113 127.366 69.0731C124.454 67.2297 121.883 65.4642 120.052 64.14C119.136 63.4806 118.402 62.9353 117.905 62.5459C117.403 62.1616 117.134 61.9383 117.145 61.9228C117.155 61.9072 117.45 62.0993 117.967 62.4524C118.526 62.8367 119.266 63.3507 120.166 63.9687C122.023 65.2461 124.609 66.9856 127.516 68.8238C130.424 70.662 133.103 72.2458 135.053 73.3778C136 73.923 136.781 74.3748 137.366 74.7123C137.914 75.0291 138.209 75.2108 138.198 75.2316L138.209 75.2368Z" fill="#263238"/>
<path d="M138.27 106.481C138.27 106.481 138.151 106.424 137.934 106.289C137.696 106.138 137.386 105.941 137.003 105.691C136.17 105.151 135.011 104.404 133.589 103.485C130.703 101.62 126.699 99.0812 122.219 96.3706C117.734 93.66 113.627 91.2921 110.637 89.5993C109.163 88.7685 107.963 88.0883 107.094 87.6002C106.695 87.3717 106.38 87.1899 106.137 87.0497C105.919 86.9199 105.806 86.8472 105.811 86.842C105.811 86.8316 105.935 86.8888 106.162 86.9978C106.411 87.1276 106.742 87.2938 107.145 87.5015C107.999 87.9429 109.225 88.5971 110.73 89.4176C113.746 91.0637 117.874 93.4056 122.359 96.1161C126.844 98.8319 130.837 101.397 133.692 103.308C135.12 104.258 136.268 105.042 137.06 105.593C137.432 105.858 137.732 106.071 137.965 106.231C138.172 106.382 138.276 106.46 138.27 106.47V106.481Z" fill="#263238"/>
<path d="M154.26 141.272C154.291 141.345 153.722 141.527 148.171 143.796C142.621 146.07 138.1 147.851 138.069 147.779C138.037 147.706 142.512 145.805 148.062 143.531C153.613 141.257 154.229 141.199 154.26 141.272Z" fill="#263238"/>
<path d="M125.819 98.3647C125.819 98.3647 125.648 98.1726 125.385 97.7883C125.121 97.4092 124.759 96.8484 124.335 96.137C123.486 94.7194 122.421 92.6839 121.562 90.3004C120.708 87.917 120.253 85.6582 120.051 84.0121C119.953 83.1917 119.891 82.5218 119.881 82.0597C119.86 81.5975 119.86 81.3431 119.881 81.3379C119.901 81.3379 119.938 81.5923 119.995 82.0493C120.041 82.5062 120.129 83.1709 120.258 83.981C120.512 85.6063 120.993 87.8339 121.836 90.2018C122.684 92.5645 123.719 94.5948 124.516 96.0332C124.919 96.7498 125.25 97.3313 125.488 97.726C125.721 98.1258 125.845 98.3491 125.824 98.3595L125.819 98.3647Z" fill="#263238"/>
<path d="M125.069 89.2724C125.152 89.3139 124.381 90.5809 124.097 92.3413C123.786 94.1016 124.097 95.5503 124.004 95.5607C123.942 95.5919 123.497 94.1171 123.812 92.2893C124.112 90.4615 125.017 89.2153 125.069 89.2672V89.2724Z" fill="#263238"/>
<path d="M117.46 106.642C117.46 106.642 117.569 106.455 117.807 106.149C117.92 105.993 118.07 105.806 118.267 105.609C118.458 105.406 118.66 105.167 118.929 104.939C119.431 104.456 120.088 103.947 120.864 103.448C121.65 102.966 122.555 102.503 123.559 102.14C124.562 101.787 125.561 101.574 126.471 101.449C127.387 101.345 128.22 101.325 128.913 101.382C129.259 101.392 129.57 101.449 129.844 101.486C130.118 101.517 130.351 101.569 130.537 101.615C130.915 101.704 131.121 101.761 131.116 101.782C131.106 101.839 130.268 101.636 128.902 101.589C128.22 101.558 127.402 101.6 126.507 101.714C125.612 101.849 124.64 102.067 123.657 102.41C122.674 102.768 121.784 103.21 121.009 103.672C120.243 104.149 119.581 104.632 119.069 105.089C118.034 105.993 117.517 106.678 117.47 106.642H117.46Z" fill="#263238"/>
<path d="M165.873 76.2289C165.847 76.2808 164.937 75.8083 163.375 75.2734C162.599 75.0034 161.647 74.7386 160.581 74.5153C159.516 74.3076 158.326 74.1362 157.074 74.0739C155.817 74.022 154.622 74.0739 153.536 74.1829C152.455 74.3076 151.487 74.4789 150.686 74.6763C149.082 75.0605 148.125 75.4448 148.109 75.3928C148.104 75.3721 148.337 75.2682 148.766 75.0969C148.978 75.0086 149.247 74.9047 149.563 74.8061C149.879 74.7074 150.23 74.5776 150.639 74.4841C151.441 74.2608 152.418 74.0687 153.51 73.9285C154.607 73.8039 155.817 73.7416 157.09 73.7987C158.362 73.8662 159.562 74.0427 160.638 74.2712C161.714 74.5153 162.666 74.8009 163.442 75.0969C163.835 75.2319 164.176 75.3928 164.482 75.5227C164.787 75.6473 165.04 75.7771 165.247 75.8861C165.661 76.099 165.883 76.2289 165.873 76.2444V76.2289Z" fill="#263238"/>
<path d="M149.775 101.252C149.775 101.252 149.806 101.423 149.806 101.73C149.806 102.036 149.79 102.483 149.743 103.028C149.65 104.118 149.397 105.624 148.885 107.224C148.373 108.823 147.705 110.194 147.147 111.139C146.867 111.611 146.629 111.985 146.448 112.229C146.267 112.479 146.164 112.608 146.143 112.598C146.107 112.572 146.464 112.001 146.971 111.04C147.478 110.079 148.104 108.714 148.611 107.135C149.112 105.557 149.397 104.082 149.542 103.002C149.687 101.927 149.728 101.252 149.775 101.252Z" fill="#263238"/>
<path d="M157.177 31.0116C157.229 31.0739 153.003 34.6309 147.742 38.9564C142.481 43.2819 138.177 46.7402 138.125 46.6779C138.074 46.6156 142.3 43.0586 147.561 38.7331C152.822 34.4076 157.125 30.9493 157.177 31.0116Z" fill="#263238"/>
<path d="M158.724 38.9818C158.703 39.0285 158.02 38.7429 156.872 38.4729C156.297 38.3327 155.599 38.2185 154.823 38.1458C154.047 38.0886 153.183 38.0731 152.289 38.151C151.394 38.2392 150.55 38.4054 149.795 38.6079C149.045 38.8208 148.378 39.0597 147.84 39.3037C146.759 39.7815 146.138 40.1865 146.107 40.1449C146.097 40.1294 146.241 40.0151 146.521 39.8282C146.795 39.6309 147.214 39.3868 147.752 39.122C148.29 38.852 148.957 38.5871 149.718 38.3587C150.483 38.1406 151.342 37.9588 152.257 37.8705C153.173 37.7927 154.052 37.8082 154.844 37.8861C155.635 37.9744 156.339 38.1094 156.918 38.2808C157.498 38.4417 157.953 38.6079 158.258 38.7481C158.563 38.8831 158.729 38.9662 158.724 38.987V38.9818Z" fill="#263238"/>
<path d="M165.758 136.542C165.738 134.533 164.093 132.923 162.091 132.944L152.687 133.047C150.685 133.068 149.081 134.719 149.102 136.729L149.153 141.153C149.174 143.163 150.819 144.772 152.821 144.752L162.225 144.648C164.227 144.627 165.831 142.976 165.81 140.966L165.758 136.542ZM159.851 139.045L156.121 141.153C155.961 141.241 155.811 141.127 155.816 141.595L155.77 137.357C155.759 136.516 155.909 136.397 156.075 136.49L159.877 138.619C160.042 138.713 160.016 138.957 159.851 139.05V139.045Z" fill="url(#paint11_linear_88_32410)"/>
<path d="M103.421 78.9658C102.981 78.9658 102.629 79.3241 102.629 79.7603C102.629 80.1965 102.986 80.5548 103.421 80.5548C103.855 80.5548 104.212 80.1965 104.212 79.7603C104.212 79.3241 103.855 78.9658 103.421 78.9658ZM99.898 79.9836C98.0617 79.9836 96.5719 81.4843 96.5719 83.3225C96.5719 85.1607 98.0668 86.6614 99.898 86.6614C101.729 86.6614 103.224 85.1607 103.224 83.3225C103.224 81.4843 101.729 79.9836 99.898 79.9836ZM99.898 85.4618C98.7238 85.4618 97.7668 84.5012 97.7668 83.3225C97.7668 82.1437 98.7238 81.1831 99.898 81.1831C101.072 81.1831 102.029 82.1437 102.029 83.3225C102.029 84.5012 101.072 85.4618 99.898 85.4618ZM106.612 80.5496C106.612 78.3011 104.797 76.4785 102.557 76.4785H97.203C94.9631 76.4785 93.1475 78.3011 93.1475 80.5496V85.924C93.1475 88.1724 94.9631 89.995 97.203 89.995H102.557C104.797 89.995 106.612 88.1724 106.612 85.924V80.5496ZM105.34 85.924C105.34 87.4714 104.093 88.7228 102.552 88.7228H97.1978C95.6563 88.7228 94.4096 87.4714 94.4096 85.924V80.5496C94.4096 79.0022 95.6563 77.7507 97.1978 77.7507H102.552C104.093 77.7507 105.34 79.0022 105.34 80.5496V85.924Z" fill="url(#paint12_linear_88_32410)"/>
<path d="M127.599 164.048L131.308 186.226H145.564L149.082 164.048H138.932H127.599Z" fill="#263238"/>
<path d="M149.082 164.048H127.599V168.114H149.082V164.048Z" fill="#263238"/>
<path d="M128.276 168.113H148.435L148.094 170.289L128.276 168.113Z" fill="#455A64"/>
</g>
<defs>
<linearGradient id="paint0_linear_88_32410" x1="13.9823" y1="180.751" x2="23.9711" y2="180.751" gradientUnits="userSpaceOnUse">
<stop stop-color="#8E161A"/>
<stop offset="0.66" stop-color="#D14F41"/>
<stop offset="1" stop-color="#DE8B5C"/>
</linearGradient>
<linearGradient id="paint1_linear_88_32410" x1="64.5264" y1="181.806" x2="83.0038" y2="181.806" gradientUnits="userSpaceOnUse">
<stop stop-color="#8E161A"/>
<stop offset="0.66" stop-color="#D14F41"/>
<stop offset="1" stop-color="#DE8B5C"/>
</linearGradient>
<linearGradient id="paint2_linear_88_32410" x1="59.1614" y1="124.785" x2="67.9967" y2="124.785" gradientUnits="userSpaceOnUse">
<stop stop-color="#8E161A"/>
<stop offset="0.66" stop-color="#D14F41"/>
<stop offset="1" stop-color="#DE8B5C"/>
</linearGradient>
<linearGradient id="paint3_linear_88_32410" x1="18.9791" y1="127.396" x2="61.4948" y2="127.396" gradientUnits="userSpaceOnUse">
<stop stop-color="#8E161A"/>
<stop offset="0.66" stop-color="#D14F41"/>
<stop offset="1" stop-color="#DE8B5C"/>
</linearGradient>
<linearGradient id="paint4_linear_88_32410" x1="51.5371" y1="110.126" x2="63.3364" y2="110.126" gradientUnits="userSpaceOnUse">
<stop stop-color="#8E161A"/>
<stop offset="0.66" stop-color="#D14F41"/>
<stop offset="1" stop-color="#DE8B5C"/>
</linearGradient>
<linearGradient id="paint5_linear_88_32410" x1="44.4561" y1="125.564" x2="60.466" y2="125.564" gradientUnits="userSpaceOnUse">
<stop stop-color="#8E161A"/>
<stop offset="0.66" stop-color="#D14F41"/>
<stop offset="1" stop-color="#DE8B5C"/>
</linearGradient>
<linearGradient id="paint6_linear_88_32410" x1="152.18" y1="38.5505" x2="160.172" y2="38.5505" gradientUnits="userSpaceOnUse">
<stop stop-color="#8E161A"/>
<stop offset="0.66" stop-color="#D14F41"/>
<stop offset="1" stop-color="#DE8B5C"/>
</linearGradient>
<linearGradient id="paint7_linear_88_32410" x1="130.201" y1="8.17373" x2="145.833" y2="8.17373" gradientUnits="userSpaceOnUse">
<stop stop-color="#8E161A"/>
<stop offset="0.66" stop-color="#D14F41"/>
<stop offset="1" stop-color="#DE8B5C"/>
</linearGradient>
<linearGradient id="paint8_linear_88_32410" x1="119.7" y1="127.158" x2="129.73" y2="127.158" gradientUnits="userSpaceOnUse">
<stop stop-color="#8E161A"/>
<stop offset="0.66" stop-color="#D14F41"/>
<stop offset="1" stop-color="#DE8B5C"/>
</linearGradient>
<linearGradient id="paint9_linear_88_32410" x1="131.132" y1="126.359" x2="134.877" y2="126.359" gradientUnits="userSpaceOnUse">
<stop stop-color="#8E161A"/>
<stop offset="0.66" stop-color="#D14F41"/>
<stop offset="1" stop-color="#DE8B5C"/>
</linearGradient>
<linearGradient id="paint10_linear_88_32410" x1="125.431" y1="135.514" x2="133.315" y2="135.514" gradientUnits="userSpaceOnUse">
<stop stop-color="#8E161A"/>
<stop offset="0.66" stop-color="#D14F41"/>
<stop offset="1" stop-color="#DE8B5C"/>
</linearGradient>
<linearGradient id="paint11_linear_88_32410" x1="149.102" y1="138.848" x2="165.805" y2="138.848" gradientUnits="userSpaceOnUse">
<stop stop-color="#8E161A"/>
<stop offset="0.66" stop-color="#D14F41"/>
<stop offset="1" stop-color="#DE8B5C"/>
</linearGradient>
<linearGradient id="paint12_linear_88_32410" x1="93.1423" y1="83.2342" x2="106.612" y2="83.2342" gradientUnits="userSpaceOnUse">
<stop stop-color="#8E161A"/>
<stop offset="0.66" stop-color="#D14F41"/>
<stop offset="1" stop-color="#DE8B5C"/>
</linearGradient>
<clipPath id="clip0_88_32410">
<rect width="221" height="190" fill="white"/>
</clipPath>
</defs>
</svg>
