<svg width="328" height="328" viewBox="0 0 328 328" fill="none" xmlns="http://www.w3.org/2000/svg">
<path d="M271.945 247.922H188.664C185.691 247.924 182.841 249.105 180.739 251.207C178.637 253.309 177.455 256.16 177.453 259.133V316.789C177.455 319.762 178.637 322.612 180.739 324.715C182.841 326.817 185.691 327.998 188.664 328H271.945C274.918 327.998 277.769 326.817 279.871 324.715C281.973 322.612 283.155 319.762 283.156 316.789V259.133C283.155 256.16 281.973 253.309 279.871 251.207C277.769 249.105 274.918 247.924 271.945 247.922ZM204.68 270.344H206.403C207.677 270.325 208.908 270.799 209.84 271.667C210.773 272.535 211.334 273.729 211.406 275.001C211.426 275.644 211.316 276.285 211.084 276.885C210.851 277.485 210.5 278.032 210.052 278.494C209.604 278.956 209.068 279.323 208.475 279.574C207.882 279.824 207.245 279.953 206.602 279.953H204.878C203.605 279.972 202.373 279.498 201.441 278.63C200.509 277.762 199.948 276.567 199.875 275.296C199.855 274.653 199.965 274.012 200.198 273.412C200.43 272.812 200.781 272.265 201.229 271.803C201.677 271.341 202.214 270.974 202.806 270.723C203.399 270.472 204.036 270.343 204.68 270.344ZM255.93 305.578H204.878C203.605 305.597 202.373 305.123 201.441 304.255C200.509 303.387 199.948 302.192 199.875 300.921C199.855 300.278 199.965 299.637 200.198 299.037C200.43 298.437 200.781 297.89 201.229 297.428C201.677 296.966 202.214 296.599 202.806 296.348C203.399 296.097 204.036 295.968 204.68 295.969H255.731C257.005 295.95 258.236 296.424 259.169 297.292C260.101 298.16 260.662 299.354 260.734 300.626C260.754 301.269 260.644 301.91 260.412 302.51C260.179 303.11 259.828 303.657 259.38 304.119C258.932 304.581 258.396 304.948 257.803 305.199C257.21 305.449 256.573 305.578 255.93 305.578ZM255.93 279.953H225.276C224.002 279.973 222.769 279.5 221.837 278.632C220.904 277.763 220.343 276.568 220.272 275.296C220.252 274.653 220.361 274.012 220.593 273.412C220.825 272.812 221.175 272.265 221.622 271.803C222.07 271.341 222.606 270.974 223.198 270.723C223.791 270.472 224.428 270.343 225.071 270.344H255.731C257.005 270.325 258.236 270.799 259.169 271.667C260.101 272.535 260.662 273.729 260.734 275.001C260.754 275.644 260.644 276.285 260.412 276.885C260.179 277.485 259.828 278.032 259.38 278.494C258.932 278.956 258.396 279.323 257.803 279.574C257.21 279.824 256.573 279.953 255.93 279.953Z" fill="url(#paint0_linear_412_50)"/>
<path d="M0 210.445V253.688C0.00169729 256.66 1.18339 259.511 3.28548 261.613C5.38757 263.715 8.23813 264.897 11.2109 264.898H24.0234C26.9962 264.897 29.8468 263.715 31.9489 261.613C34.051 259.511 35.2327 256.66 35.2344 253.688V210.445H0Z" fill="url(#paint1_linear_412_50)"/>
<path d="M44.8438 210.445V232.79C49.2183 232.387 53.2848 230.365 56.247 227.12C59.2092 223.876 60.854 219.643 60.8594 215.25V213.367L53.3512 210.445H44.8438Z" fill="url(#paint2_linear_412_50)"/>
<path d="M207.242 163.852C207.17 162.581 206.609 161.386 205.677 160.519C204.744 159.651 203.513 159.177 202.239 159.195H189.83C188.556 159.176 187.324 159.65 186.39 160.518C185.457 161.386 184.895 162.58 184.821 163.852C184.801 164.496 184.911 165.136 185.143 165.736C185.376 166.336 185.727 166.884 186.175 167.346C186.623 167.807 187.159 168.175 187.752 168.425C188.345 168.676 188.982 168.805 189.625 168.804H202.438C203.081 168.805 203.718 168.676 204.311 168.425C204.904 168.175 205.44 167.807 205.888 167.346C206.337 166.884 206.687 166.336 206.92 165.736C207.153 165.136 207.262 164.496 207.242 163.852Z" fill="url(#paint3_linear_412_50)"/>
<path d="M184.719 134.486C185.849 134.488 186.943 134.088 187.806 133.359L197.467 125.255C198.456 124.451 199.096 123.296 199.252 122.032C199.409 120.767 199.07 119.491 198.306 118.471C197.908 117.966 197.412 117.546 196.848 117.236C196.285 116.926 195.665 116.732 195.025 116.667C194.385 116.601 193.738 116.664 193.123 116.853C192.509 117.042 191.938 117.352 191.445 117.766L181.759 125.889C180.771 126.698 180.137 127.86 179.99 129.128C179.843 130.397 180.195 131.672 180.971 132.686C181.421 133.248 181.991 133.702 182.64 134.013C183.288 134.325 183.999 134.486 184.719 134.486Z" fill="url(#paint4_linear_412_50)"/>
<path d="M181.783 202.13L191.444 210.234C191.933 210.646 192.501 210.956 193.112 211.145C193.723 211.335 194.366 211.4 195.003 211.338C195.64 211.275 196.258 211.086 196.821 210.78C197.383 210.475 197.879 210.061 198.279 209.561C199.056 208.547 199.407 207.272 199.26 206.003C199.113 204.735 198.479 203.573 197.491 202.764L187.805 194.641C187.312 194.227 186.742 193.917 186.127 193.728C185.512 193.539 184.865 193.476 184.225 193.542C183.585 193.607 182.965 193.801 182.402 194.111C181.838 194.421 181.342 194.841 180.944 195.346C180.182 196.366 179.844 197.642 180 198.906C180.157 200.171 180.795 201.325 181.783 202.13Z" fill="url(#paint5_linear_412_50)"/>
<path d="M260.734 178.651L290.03 164L260.734 149.349V178.651Z" fill="url(#paint6_linear_412_50)"/>
<path d="M316.789 114.352H233.508C230.535 114.353 227.684 115.535 225.582 117.637C223.48 119.739 222.299 122.59 222.297 125.562V202.438C222.299 205.41 223.48 208.261 225.582 210.363C227.684 212.465 230.535 213.647 233.508 213.648H316.789C319.762 213.647 322.612 212.465 324.715 210.363C326.817 208.261 327.998 205.41 328 202.438V125.562C327.998 122.59 326.817 119.739 324.715 117.637C322.612 115.535 319.762 114.353 316.789 114.352ZM297.192 171.162L262.714 188.401C261.403 189.059 259.936 189.341 258.474 189.218C257.013 189.095 255.613 188.57 254.431 187.703C253.392 186.927 252.551 185.917 251.977 184.755C251.402 183.593 251.11 182.311 251.125 181.015V147.004C251.106 145.676 251.409 144.362 252.006 143.175C252.604 141.988 253.48 140.964 254.559 140.188C255.738 139.362 257.119 138.871 258.555 138.768C259.991 138.664 261.428 138.951 262.714 139.599L297.192 156.838C298.522 157.503 299.641 158.525 300.423 159.79C301.204 161.055 301.619 162.513 301.619 164C301.619 165.487 301.204 166.945 300.423 168.21C299.641 169.475 298.522 170.497 297.192 171.162Z" fill="url(#paint7_linear_412_50)"/>
<path d="M188.664 80.0781H271.945C274.918 80.0764 277.769 78.8947 279.871 76.7926C281.973 74.6906 283.155 71.84 283.156 68.8672V11.2109C283.155 8.23813 281.973 5.38757 279.871 3.28548C277.769 1.18339 274.918 0.00169729 271.945 0H188.664C185.691 0.00169729 182.841 1.18339 180.739 3.28548C178.637 5.38757 177.455 8.23813 177.453 11.2109V68.8672C177.455 71.84 178.637 74.6906 180.739 76.7926C182.841 78.8947 185.691 80.0764 188.664 80.0781ZM201.867 23.6198C202.819 22.772 204.06 22.3241 205.334 22.3694C206.607 22.4148 207.814 22.9499 208.703 23.8633L230.785 45.952L252.868 23.8633C253.756 22.9499 254.963 22.4148 256.236 22.3694C257.51 22.3241 258.752 22.772 259.703 23.6198C260.172 24.0609 260.547 24.5916 260.807 25.1804C261.067 25.7693 261.205 26.4044 261.215 27.0479C261.224 27.6914 261.105 28.3303 260.862 28.9267C260.62 29.523 260.261 30.0646 259.805 30.5194L234.18 56.1444C233.279 57.0426 232.058 57.5469 230.785 57.5469C229.512 57.5469 228.292 57.0426 227.39 56.1444L201.765 30.5194C201.309 30.0646 200.95 29.523 200.708 28.9267C200.466 28.3303 200.346 27.6914 200.355 27.0479C200.365 26.4044 200.504 25.7693 200.763 25.1804C201.023 24.5916 201.399 24.0609 201.867 23.6198Z" fill="url(#paint8_linear_412_50)"/>
<path d="M60.8594 203.059L133.57 231.349V96.6511L60.8594 124.941V203.059Z" fill="url(#paint9_linear_412_50)"/>
<path d="M0 200.836H51.25V127.164H17.6172C12.9448 127.164 8.46382 129.02 5.15995 132.324C1.85609 135.628 0 140.109 0 144.781L0 200.836Z" fill="url(#paint10_linear_412_50)"/>
<path d="M157.594 82.3203H143.18V245.68H157.594C160.567 245.68 163.419 244.499 165.521 242.396C167.624 240.294 168.805 237.442 168.805 234.469V93.5312C168.805 90.5579 167.624 87.7064 165.521 85.6039C163.419 83.5015 160.567 82.3203 157.594 82.3203Z" fill="url(#paint11_linear_412_50)"/>
<defs>
<linearGradient id="paint0_linear_412_50" x1="230.305" y1="247.922" x2="230.305" y2="328" gradientUnits="userSpaceOnUse">
<stop stop-color="#0480D1"/>
<stop offset="1" stop-color="#548FF9"/>
</linearGradient>
<linearGradient id="paint1_linear_412_50" x1="17.6172" y1="210.445" x2="17.6172" y2="264.898" gradientUnits="userSpaceOnUse">
<stop stop-color="#0480D1"/>
<stop offset="1" stop-color="#548FF9"/>
</linearGradient>
<linearGradient id="paint2_linear_412_50" x1="52.8516" y1="210.445" x2="52.8516" y2="232.79" gradientUnits="userSpaceOnUse">
<stop stop-color="#0480D1"/>
<stop offset="1" stop-color="#548FF9"/>
</linearGradient>
<linearGradient id="paint3_linear_412_50" x1="196.032" y1="159.195" x2="196.032" y2="168.804" gradientUnits="userSpaceOnUse">
<stop stop-color="#0480D1"/>
<stop offset="1" stop-color="#548FF9"/>
</linearGradient>
<linearGradient id="paint4_linear_412_50" x1="189.623" y1="116.642" x2="189.623" y2="134.486" gradientUnits="userSpaceOnUse">
<stop stop-color="#0480D1"/>
<stop offset="1" stop-color="#548FF9"/>
</linearGradient>
<linearGradient id="paint5_linear_412_50" x1="189.628" y1="193.517" x2="189.628" y2="211.361" gradientUnits="userSpaceOnUse">
<stop stop-color="#0480D1"/>
<stop offset="1" stop-color="#548FF9"/>
</linearGradient>
<linearGradient id="paint6_linear_412_50" x1="275.382" y1="149.349" x2="275.382" y2="178.651" gradientUnits="userSpaceOnUse">
<stop stop-color="#0480D1"/>
<stop offset="1" stop-color="#548FF9"/>
</linearGradient>
<linearGradient id="paint7_linear_412_50" x1="275.148" y1="114.352" x2="275.148" y2="213.648" gradientUnits="userSpaceOnUse">
<stop stop-color="#0480D1"/>
<stop offset="1" stop-color="#548FF9"/>
</linearGradient>
<linearGradient id="paint8_linear_412_50" x1="230.305" y1="0" x2="230.305" y2="80.0781" gradientUnits="userSpaceOnUse">
<stop stop-color="#0480D1"/>
<stop offset="1" stop-color="#548FF9"/>
</linearGradient>
<linearGradient id="paint9_linear_412_50" x1="97.2148" y1="96.6511" x2="97.2148" y2="231.349" gradientUnits="userSpaceOnUse">
<stop stop-color="#0480D1"/>
<stop offset="1" stop-color="#548FF9"/>
</linearGradient>
<linearGradient id="paint10_linear_412_50" x1="25.625" y1="127.164" x2="25.625" y2="200.836" gradientUnits="userSpaceOnUse">
<stop stop-color="#0480D1"/>
<stop offset="1" stop-color="#548FF9"/>
</linearGradient>
<linearGradient id="paint11_linear_412_50" x1="155.992" y1="82.3203" x2="155.992" y2="245.68" gradientUnits="userSpaceOnUse">
<stop stop-color="#0480D1"/>
<stop offset="1" stop-color="#548FF9"/>
</linearGradient>
</defs>
</svg>
