<svg width="317" height="317" viewBox="0 0 317 317" fill="none" xmlns="http://www.w3.org/2000/svg">
<path d="M165.105 6.60417V13.2083H151.896V6.60417C151.896 2.97188 154.868 0 158.501 0C162.133 0 165.105 2.97188 165.105 6.60417Z" fill="url(#paint0_linear_383_4015)"/>
<path d="M310.396 13.2085H6.60417C2.97188 13.2085 0 16.1804 0 19.8127V217.938C0 221.57 2.97188 224.542 6.60417 224.542H310.396C314.028 224.542 317 221.57 317 217.938V19.8127C317 16.1804 314.028 13.2085 310.396 13.2085ZM66.0417 46.2293C66.0417 42.597 69.0136 39.6252 72.6458 39.6252H99.0625C102.695 39.6252 105.667 42.597 105.667 46.2293C105.667 49.8616 102.695 52.8335 99.0625 52.8335H79.25V72.646C79.25 76.2783 76.2781 79.2502 72.6458 79.2502C69.0136 79.2502 66.0417 76.2783 66.0417 72.646V46.2293ZM99.0625 198.125H72.6458C69.0136 198.125 66.0417 195.153 66.0417 191.521V165.104C66.0417 161.472 69.0136 158.5 72.6458 158.5C76.2781 158.5 79.25 161.472 79.25 165.104V184.917H99.0625C102.695 184.917 105.667 187.889 105.667 191.521C105.667 195.153 102.695 198.125 99.0625 198.125ZM118.875 165.104C115.243 165.104 112.271 162.132 112.271 158.5V103.157L108.639 104.94C105.336 106.591 101.374 105.271 99.789 102.035C98.1379 98.7325 99.4588 94.77 102.695 93.185L155.528 66.7683C157.377 65.7777 159.623 65.7777 161.472 66.7683L214.305 93.185C217.541 94.77 218.862 98.7325 217.211 102.035C216.088 104.346 213.777 105.667 211.333 105.667C210.343 105.667 209.352 105.469 208.361 104.94L204.729 103.157V158.5C204.729 162.132 201.757 165.104 198.125 165.104H118.875ZM250.958 191.521C250.958 195.153 247.987 198.125 244.354 198.125H217.938C214.305 198.125 211.333 195.153 211.333 191.521C211.333 187.889 214.305 184.917 217.938 184.917H237.75V165.104C237.75 161.472 240.722 158.5 244.354 158.5C247.987 158.5 250.958 161.472 250.958 165.104V191.521ZM250.958 72.646C250.958 76.2783 247.987 79.2502 244.354 79.2502C240.722 79.2502 237.75 76.2783 237.75 72.646V52.8335H217.938C214.305 52.8335 211.333 49.8616 211.333 46.2293C211.333 42.597 214.305 39.6252 217.938 39.6252H244.354C247.987 39.6252 250.958 42.597 250.958 46.2293V72.646Z" fill="url(#paint1_linear_383_4015)"/>
<path d="M239.996 316.604C239.269 316.868 238.477 317 237.75 317C235.043 317 232.467 315.349 231.543 312.641L212.589 259.544L165.105 275.922V303.792C165.105 307.424 162.133 310.396 158.5 310.396C154.868 310.396 151.896 307.424 151.896 303.792V275.724L104.478 259.345L85.4584 312.641C84.5338 315.349 81.9581 317 79.2504 317C78.524 317 77.7315 316.868 77.005 316.604C73.5708 315.415 71.7877 311.584 73.0425 308.15L94.2419 248.845V248.779L102.893 224.542H116.894L108.969 246.864L151.896 261.723V224.542H165.105V261.921L208.164 247.128L200.107 224.542H214.108L222.825 248.911C222.825 248.911 222.825 248.977 222.891 248.977V249.109L243.958 308.15C245.213 311.584 243.43 315.415 239.996 316.604Z" fill="url(#paint2_linear_383_4015)"/>
<defs>
<linearGradient id="paint0_linear_383_4015" x1="158.501" y1="0" x2="158.501" y2="13.2083" gradientUnits="userSpaceOnUse">
<stop stop-color="#F68C59"/>
<stop offset="1" stop-color="#A70E13"/>
</linearGradient>
<linearGradient id="paint1_linear_383_4015" x1="158.5" y1="13.2085" x2="158.5" y2="224.542" gradientUnits="userSpaceOnUse">
<stop stop-color="#F68C59"/>
<stop offset="1" stop-color="#A70E13"/>
</linearGradient>
<linearGradient id="paint2_linear_383_4015" x1="158.5" y1="224.542" x2="158.5" y2="317" gradientUnits="userSpaceOnUse">
<stop stop-color="#F68C59"/>
<stop offset="1" stop-color="#A70E13"/>
</linearGradient>
</defs>
</svg>
