<svg width="437" height="318" viewBox="0 0 437 318" fill="none" xmlns="http://www.w3.org/2000/svg">
<path d="M334.111 147.094C334.963 147.926 336.005 148.537 337.146 148.876L356.961 154.75L352.66 155.722C350.239 155.923 347.97 157.315 346.764 159.627L342.668 167.481L330.918 190.013L303.762 179.6C299.989 178.151 295.752 180.039 294.304 183.815C292.856 187.59 294.743 191.825 298.519 193.273L331.769 206.023C332.628 206.352 333.515 206.509 334.389 206.509C337.047 206.509 339.588 205.055 340.883 202.572L349.391 186.259L358.5 220.735L331.959 250.077C330.133 252.096 329.086 254.7 329.008 257.421L327.635 305.012C327.452 311.328 332.425 316.595 338.741 316.778C338.852 316.78 338.965 316.782 339.077 316.782C345.242 316.782 350.326 311.876 350.506 305.672L351.757 262.298L374.314 237.361L385.201 231.441L382.983 262.176C382.798 264.757 383.529 267.322 385.048 269.416L416.484 312.741C418.633 315.703 421.984 317.275 425.383 317.275C427.619 317.275 429.876 316.594 431.824 315.181C436.732 311.618 437.825 304.75 434.263 299.842L405.18 259.759L408.217 217.66C408.304 216.462 408.188 215.298 407.91 214.193C407.811 212.879 407.5 211.595 406.973 210.4L395.861 168.346L391.712 152.644C391.707 152.621 391.7 152.599 391.694 152.575C391.105 150.431 389.337 148.932 387.269 148.485C387.13 148.435 386.994 148.38 386.85 148.338L376.269 145.201C372.987 147.765 368.982 149.484 364.549 149.984C363.674 150.082 362.786 150.132 361.911 150.132C350.739 150.132 341.265 142.244 339.073 131.472L309.884 102.965C309.6 102.688 309.296 102.447 308.982 102.226V122.553L334.111 147.094Z" fill="url(#paint0_linear_383_4093)"/>
<path d="M220.563 191.943C226.429 195.994 234.932 193.174 241.683 190.264C243.093 189.656 244.948 189.096 246.197 189.611C246.333 189.667 246.468 189.725 246.588 189.808C248.316 191 248.804 195.081 248.943 198.316V233.795C249.299 235.062 249.808 236.096 250.543 236.604C251.767 237.449 253.884 236.822 255.448 236.147C262.199 233.237 270.701 230.417 276.568 234.468C280.503 237.186 282.498 242.514 282.498 250.301C282.498 258.089 280.502 263.416 276.568 266.134C270.704 270.185 262.201 267.368 255.446 264.457C253.884 263.783 251.767 263.156 250.543 264.001C249.808 264.508 249.299 265.543 248.943 266.81V316.47H306.236V199.172L297.535 195.836C295.024 194.873 293.038 192.99 291.944 190.534C290.849 188.078 290.776 185.342 291.74 182.832C293.222 178.964 297 176.366 301.141 176.366C302.375 176.366 303.587 176.592 304.744 177.036L306.236 177.609V72.0149H273.043V69.8513H306.236V66.1916H273.043V64.0278H306.236V32.0066L248.943 0V38.7845H275.678V40.9482H248.943V44.608H275.678V46.7717H248.943V153.902C248.804 157.137 248.316 161.218 246.588 162.41C246.468 162.493 246.333 162.551 246.197 162.607C244.948 163.122 243.094 162.562 241.685 161.954C234.93 159.044 226.427 156.226 220.563 160.277C216.628 162.995 214.633 168.323 214.633 176.11C214.633 183.898 216.628 189.225 220.563 191.943ZM298.554 208.781H301.239V216.76H298.554V208.781ZM298.554 233.517H301.239V241.496H298.554V233.517ZM298.554 245.885H301.239V253.864H298.554V245.885ZM291.964 208.781H294.649V216.76H291.964V208.781ZM291.964 221.149H294.649V229.128H291.964V221.149ZM291.964 233.517H294.649V241.496H291.964V233.517ZM291.964 245.885H294.649V253.864H291.964V245.885ZM291.964 258.252H294.649V266.231H291.964V258.252ZM301.239 167.289H298.554V159.31H301.239V167.289ZM301.239 154.922H298.554V146.943H301.239V154.922ZM301.239 117.818H298.554V109.839H301.239V117.818ZM298.554 85.1037H301.239V93.0828H298.554V85.1037ZM291.964 85.1037H294.649V93.0828H291.964V85.1037ZM291.964 97.4715H294.649V105.451H291.964V97.4715ZM291.964 109.839H294.649V117.818H291.964V109.839ZM291.964 122.207H294.649V130.186H291.964V122.207ZM291.964 134.575H294.649V142.554H291.964V134.575ZM291.964 146.943H294.649V154.922H291.964V146.943ZM285.374 97.4715H288.059V105.451H285.374V97.4715ZM285.374 109.839H288.059V117.818H285.374V109.839ZM285.374 134.575H288.059V142.554H285.374V134.575ZM285.374 146.943H288.059V154.922H285.374V146.943ZM285.374 159.31H288.059V167.289H285.374V159.31ZM285.374 171.678H288.059V179.657H285.374V171.678ZM285.374 196.414H288.059V204.393H285.374V196.414ZM285.374 208.781H288.059V216.76H285.374V208.781ZM285.374 221.149H288.059V229.128H285.374V221.149ZM285.374 233.517H288.059V241.496H285.374V233.517ZM278.784 85.1037H281.469V93.0828H278.784V85.1037ZM278.784 97.4715H281.469V105.451H278.784V97.4715ZM278.784 109.839H281.469V117.818H278.784V109.839ZM278.784 122.207H281.469V130.186H278.784V122.207ZM278.784 134.575H281.469V142.554H278.784V134.575ZM278.784 171.678H281.469V179.657H278.784V171.678ZM278.784 184.046H281.469V192.025H278.784V184.046ZM272.194 85.1037H274.879V93.0828H272.194V85.1037ZM272.194 97.4715H274.879V105.451H272.194V97.4715ZM272.194 208.781H274.879V216.76H272.194V208.781ZM265.604 97.4715H268.289V105.451H265.604V97.4715ZM265.604 122.207H268.289V130.186H265.604V122.207ZM265.604 171.678H268.289V179.657H265.604V171.678ZM265.604 208.781H268.289V216.76H265.604V208.781ZM265.604 221.149H268.289V229.128H265.604V221.149ZM259.014 97.4715H261.699V105.451H259.014V97.4715ZM259.014 109.839H261.699V117.818H259.014V109.839ZM259.014 171.678H261.699V179.657H259.014V171.678ZM259.014 184.046H261.699V192.025H259.014V184.046ZM259.014 208.781H261.699V216.76H259.014V208.781ZM259.014 221.149H261.699V229.128H259.014V221.149Z" fill="url(#paint1_linear_383_4093)"/>
<path d="M206.042 230.042V194.759C205.72 192.573 205.124 190.581 204.004 189.808C202.78 188.962 200.662 189.59 199.099 190.264C192.347 193.174 183.845 195.994 177.979 191.943C174.044 189.225 172.049 183.898 172.049 176.11C172.049 168.323 174.044 162.995 177.979 160.277C183.843 156.226 192.346 159.044 199.101 161.955C200.662 162.628 202.78 163.256 204.003 162.41C205.124 161.637 205.72 159.645 206.042 157.46V83.0103H199.382V80.2648V78.906H192.886V29.4839H190.78V78.9059H188.139V61.5419H186.033V78.906H145.159V80.2648V83.0103H131.768V176.985C132.878 176.579 134.036 176.366 135.215 176.366C139.355 176.366 143.133 178.964 144.616 182.832C145.58 185.342 145.506 188.078 144.411 190.534C143.318 192.99 141.332 194.873 138.821 195.836L131.768 198.541V316.471H206.042V270.562C206.291 267.803 206.877 264.962 208.27 264.002C208.428 263.892 208.602 263.81 208.787 263.746C210.033 263.321 211.813 263.871 213.173 264.457C219.928 267.368 228.431 270.186 234.295 266.134C238.23 263.417 240.225 258.089 240.225 250.302C240.225 242.514 238.23 237.186 234.295 234.469C228.429 230.417 219.927 233.238 213.175 236.147C211.813 236.735 210.033 237.285 208.787 236.859C208.602 236.796 208.429 236.713 208.27 236.604C206.877 235.643 206.291 232.802 206.042 230.042ZM143.876 162.753H140.052V158.929H143.876V162.753ZM143.876 155.876H140.052V152.052H143.876V155.876ZM143.876 148.999H140.052V145.175H143.876V148.999ZM143.876 142.122H140.052V138.298H143.876V142.122ZM143.876 135.245H140.052V131.421H143.876V135.245ZM143.876 128.368H140.052V124.544H143.876V128.368ZM143.876 114.615H140.052V110.79H143.876V114.615ZM143.876 107.738H140.052V103.914H143.876V107.738ZM144.517 266.305H140.693V262.481H144.517V266.305ZM153.166 176.507V172.683H156.991V176.507H153.166ZM156.991 179.559V183.384H153.166V179.559H156.991ZM153.166 162.753V158.929H156.991V162.753H153.166ZM153.166 155.876V152.052H156.991V155.876H153.166ZM153.166 148.999V145.175H156.991V148.999H153.166ZM153.166 142.122V138.298H156.991V142.122H153.166ZM153.166 128.368V124.544H156.991V128.368H153.166ZM153.166 121.492V117.667H156.991V121.492H153.166ZM153.166 114.615V110.79H156.991V114.615H153.166ZM153.166 107.738V103.914H156.991V107.738H153.166ZM153.166 100.861V97.0367H156.991V100.861H153.166ZM146.609 155.876V152.052H150.433V155.876H146.609ZM150.433 165.806V169.63H146.609V165.806H150.433ZM146.609 148.999V145.175H150.433V148.999H146.609ZM146.609 135.245V131.421H150.433V135.245H146.609ZM146.609 128.368V124.544H150.433V128.368H146.609ZM146.609 121.492V117.667H150.433V121.492H146.609ZM146.609 114.615V110.79H150.433V114.615H146.609ZM181.872 142.122H178.048V138.298H181.872V142.122ZM181.872 128.368H178.048V124.544H181.872V128.368ZM181.872 98.9571H178.048V95.133H181.872V98.9571ZM188.429 128.368H184.605V124.544H188.429V128.368ZM188.429 98.9571H184.605V95.133H188.429V98.9571ZM194.987 142.122H191.162V138.298H194.987V142.122ZM194.987 128.368H191.162V124.544H194.987V128.368ZM194.987 98.9571H191.162V95.133H194.987V98.9571ZM201.544 142.122H197.72V138.298H201.544V142.122ZM146.609 193.313H150.433V197.137H146.609V193.313ZM151.074 266.305H147.25V262.481H151.074V266.305ZM151.074 259.428H147.25V255.604H151.074V259.428ZM151.074 252.551H147.25V248.727H151.074V252.551ZM153.166 193.313H156.991V197.137H153.166V193.313ZM157.632 273.182H153.808V269.358H157.632V273.182ZM157.632 266.305H153.808V262.481H157.632V266.305ZM157.632 259.428H153.808V255.604H157.632V259.428ZM157.632 252.551H153.808V248.727H157.632V252.551ZM163.548 204.014H159.724V200.19H163.548V204.014ZM163.548 197.137H159.724V193.313H163.548V197.137ZM163.548 176.507H159.724V172.683H163.548V176.507ZM163.548 169.63H159.724V165.806H163.548V169.63ZM163.548 162.753H159.724V158.929H163.548V162.753ZM163.548 148.999H159.724V145.175H163.548V148.999ZM163.548 142.122H159.724V138.298H163.548V142.122ZM163.548 135.245H159.724V131.421H163.548V135.245ZM163.548 121.492H159.724V117.667H163.548V121.492ZM163.548 114.615H159.724V110.79H163.548V114.615ZM163.548 107.738H159.724V103.914H163.548V107.738ZM163.548 100.861H159.724V97.0367H163.548V100.861ZM170.105 155.876H166.281V152.052H170.105V155.876ZM170.105 142.122H166.281V138.298H170.105V142.122ZM170.105 121.492H166.281V117.667H170.105V121.492ZM170.105 114.615H166.281V110.79H170.105V114.615ZM170.105 107.738H166.281V103.914H170.105V107.738ZM181.872 293.454H178.048V289.63H181.872V293.454ZM181.872 279.701H178.048V275.876H181.872V279.701ZM184.475 218.352H180.651V214.528H184.475V218.352ZM188.429 279.701H184.605V275.876H188.429V279.701ZM191.033 218.352H187.209V214.528H191.033V218.352ZM191.033 211.475H187.209V207.651H191.033V211.475ZM191.033 204.599H187.209V200.774H191.033V204.599ZM194.987 293.454H191.162V289.63H194.987V293.454ZM194.987 279.701H191.162V275.876H194.987V279.701ZM197.59 225.229H193.766V221.405H197.59V225.229ZM197.59 218.352H193.766V214.528H197.59V218.352ZM197.59 211.475H193.766V207.651H197.59V211.475ZM197.59 204.599H193.766V200.774H197.59V204.599ZM201.544 293.454H197.72V289.63H201.544V293.454Z" fill="url(#paint2_linear_383_4093)"/>
<path d="M28.4473 214.193C28.1694 215.298 28.0531 216.462 28.1399 217.66L31.1769 259.76L2.09385 299.842C-1.46778 304.751 -0.37557 311.618 4.53288 315.181C6.48128 316.594 8.738 317.275 10.9742 317.275C14.3723 317.275 17.7239 315.703 19.8725 312.741L51.3087 269.416C52.8281 267.322 53.5592 264.758 53.3733 262.176L51.1559 231.441L62.0428 237.361L84.5995 262.298L85.8508 305.672C86.0304 311.876 91.115 316.782 97.2802 316.782C97.3919 316.782 97.5045 316.781 97.6162 316.778C103.932 316.596 108.904 311.328 108.722 305.012L107.349 257.421C107.271 254.7 106.224 252.096 104.398 250.077L77.857 220.735L86.9662 186.259L95.4739 202.572C96.7689 205.055 99.3099 206.509 101.968 206.509C102.842 206.509 103.729 206.352 104.588 206.023L137.838 193.273C141.613 191.825 143.501 187.59 142.053 183.815C140.605 180.039 136.368 178.151 132.595 179.6L105.439 190.013L93.689 167.481L89.593 159.627C88.3863 157.315 86.118 155.923 83.6968 155.722L79.3963 154.75L99.2104 148.876C100.352 148.537 101.394 147.926 102.246 147.094L129.022 120.945V101.35C128.097 101.695 127.226 102.231 126.474 102.965L97.2839 131.471C95.0924 142.244 85.6187 150.132 74.4459 150.132C73.5708 150.132 72.6833 150.082 71.8084 149.984C67.3748 149.484 63.3702 147.765 60.088 145.201L49.507 148.338C49.3636 148.38 49.2273 148.435 49.0886 148.485C47.0199 148.932 45.2522 150.431 44.6627 152.575C44.6565 152.599 44.6502 152.621 44.6449 152.644L40.4961 168.346L29.3839 210.4C28.8566 211.595 28.5456 212.879 28.4473 214.193Z" fill="url(#paint3_linear_383_4093)"/>
<path d="M94.9678 127.624C95.4114 116.263 86.5607 106.693 75.1993 106.249C63.8379 105.806 54.2681 114.656 53.8246 126.018C53.381 137.379 62.2317 146.949 73.5931 147.392C84.9545 147.836 94.5243 138.985 94.9678 127.624Z" fill="url(#paint4_linear_383_4093)"/>
<path d="M380.368 136.23C385.532 126.097 381.503 113.697 371.37 108.533C361.236 103.37 348.836 107.399 343.673 117.532C338.51 127.665 342.539 140.066 352.672 145.229C362.805 150.392 375.205 146.363 380.368 136.23Z" fill="url(#paint5_linear_383_4093)"/>
<defs>
<linearGradient id="paint0_linear_383_4093" x1="365.087" y1="102.226" x2="365.087" y2="317.275" gradientUnits="userSpaceOnUse">
<stop stop-color="#F68C59"/>
<stop offset="1" stop-color="#A70E13"/>
</linearGradient>
<linearGradient id="paint1_linear_383_4093" x1="260.435" y1="0" x2="260.435" y2="316.47" gradientUnits="userSpaceOnUse">
<stop stop-color="#F68C59"/>
<stop offset="1" stop-color="#A70E13"/>
</linearGradient>
<linearGradient id="paint2_linear_383_4093" x1="185.996" y1="29.4839" x2="185.996" y2="316.471" gradientUnits="userSpaceOnUse">
<stop stop-color="#F68C59"/>
<stop offset="1" stop-color="#A70E13"/>
</linearGradient>
<linearGradient id="paint3_linear_383_4093" x1="71.2702" y1="101.35" x2="71.2702" y2="317.275" gradientUnits="userSpaceOnUse">
<stop stop-color="#F68C59"/>
<stop offset="1" stop-color="#A70E13"/>
</linearGradient>
<linearGradient id="paint4_linear_383_4093" x1="53.8246" y1="126.018" x2="94.9678" y2="127.624" gradientUnits="userSpaceOnUse">
<stop stop-color="#F68C59"/>
<stop offset="1" stop-color="#A70E13"/>
</linearGradient>
<linearGradient id="paint5_linear_383_4093" x1="343.673" y1="117.532" x2="380.368" y2="136.23" gradientUnits="userSpaceOnUse">
<stop stop-color="#F68C59"/>
<stop offset="1" stop-color="#A70E13"/>
</linearGradient>
</defs>
</svg>
