<svg width="331" height="328" viewBox="0 0 331 328" fill="none" xmlns="http://www.w3.org/2000/svg">
<path d="M264.955 291.455C276.669 291.455 286.156 281.967 286.156 270.254V243.382L238.137 291.455H264.955Z" fill="url(#paint0_linear_412_3)"/>
<path d="M278.098 147.715C280.536 145.277 283.239 143.21 286.154 141.62V63.6016H0V270.254C0 281.967 9.48724 291.454 21.2005 291.454H149.305L155.347 270.36L278.098 147.715ZM164.304 95.1374H260.873C263.788 95.1374 266.173 97.5224 266.173 100.438C266.173 103.353 263.788 105.738 260.873 105.738H164.304C161.389 105.738 159.004 103.353 159.004 100.438C159.004 97.5224 161.389 95.1374 164.304 95.1374ZM164.304 116.603H260.873C263.788 116.603 266.173 118.935 266.173 121.903C266.173 124.818 263.788 127.203 260.873 127.203H164.304C161.389 127.203 159.004 124.818 159.004 121.903C159.004 118.935 161.389 116.603 164.304 116.603ZM164.304 137.591H260.873C263.788 137.591 266.173 139.977 266.173 142.892C266.173 145.807 263.788 148.192 260.873 148.192H164.304C161.389 148.192 159.004 145.807 159.004 142.892C159.004 139.977 161.389 137.591 164.304 137.591ZM164.304 159.004H204.002C206.917 159.004 209.302 161.389 209.302 164.304C209.302 167.272 206.917 169.604 204.002 169.604H164.304C161.389 169.604 159.004 167.272 159.004 164.304C159.004 161.389 161.389 159.004 164.304 159.004ZM80.0851 79.502C112.628 79.502 139.023 105.897 139.023 138.439C139.023 170.982 112.628 197.324 80.0851 197.324C47.5422 197.324 21.2005 170.982 21.2005 138.439C21.2005 105.897 47.5422 79.502 80.0851 79.502ZM141.143 270.254H21.2005V221.97H141.143V270.254Z" fill="url(#paint1_linear_412_3)"/>
<path d="M71.7113 169.233L109.024 143.316C113.052 140.878 113.052 135.949 109.024 133.563L71.7113 107.646C66.8352 104.731 59.998 107.593 59.998 112.522V164.357C59.998 169.286 66.8352 172.148 71.7113 169.233Z" fill="url(#paint2_linear_412_3)"/>
<path d="M149.889 327.76L201.724 312.867L164.782 275.925L149.889 327.76Z" fill="url(#paint3_linear_412_3)"/>
<path d="M322.46 155.188C312.284 145.012 295.748 145.012 285.518 155.188L273.752 166.954L310.694 203.896L322.46 192.13C332.636 181.954 332.636 165.417 322.46 155.188Z" fill="url(#paint4_linear_412_3)"/>
<path d="M286.154 21.2005C286.154 9.48724 276.667 0 264.954 0H21.2005C9.48724 0 0 9.48724 0 21.2005V53.0014H286.154V21.2005ZM37.048 39.751C31.2178 39.751 26.4477 34.9809 26.4477 29.1507C26.4477 23.3206 31.2178 18.5505 37.048 18.5505C42.8781 18.5505 47.6482 23.3206 47.6482 29.1507C47.6482 34.9809 42.9311 39.751 37.048 39.751ZM76.057 39.751C70.2268 39.751 65.4567 34.9809 65.4567 29.1507C65.4567 23.3206 70.2268 18.5505 76.057 18.5505C81.8871 18.5505 86.6572 23.3206 86.6572 29.1507C86.6572 34.9809 81.8871 39.751 76.057 39.751ZM115.013 39.751C109.183 39.751 104.413 34.9809 104.413 29.1507C104.413 23.3206 109.183 18.5505 115.013 18.5505C120.843 18.5505 125.613 23.3206 125.613 29.1507C125.613 34.9809 120.843 39.751 115.013 39.751Z" fill="url(#paint5_linear_412_3)"/>
<path d="M172.256 268.434L266.236 174.455L303.145 211.365L209.166 305.344L172.256 268.434Z" fill="url(#paint6_linear_412_3)"/>
<defs>
<linearGradient id="paint0_linear_412_3" x1="262.146" y1="243.382" x2="262.146" y2="291.455" gradientUnits="userSpaceOnUse">
<stop stop-color="#0280D0"/>
<stop offset="1" stop-color="#548FF9"/>
</linearGradient>
<linearGradient id="paint1_linear_412_3" x1="143.077" y1="63.6016" x2="143.077" y2="291.454" gradientUnits="userSpaceOnUse">
<stop stop-color="#0280D0"/>
<stop offset="1" stop-color="#548FF9"/>
</linearGradient>
<linearGradient id="paint2_linear_412_3" x1="86.0217" y1="106.474" x2="86.0217" y2="170.405" gradientUnits="userSpaceOnUse">
<stop stop-color="#0280D0"/>
<stop offset="1" stop-color="#548FF9"/>
</linearGradient>
<linearGradient id="paint3_linear_412_3" x1="175.806" y1="275.925" x2="175.806" y2="327.76" gradientUnits="userSpaceOnUse">
<stop stop-color="#0280D0"/>
<stop offset="1" stop-color="#548FF9"/>
</linearGradient>
<linearGradient id="paint4_linear_412_3" x1="301.922" y1="147.556" x2="301.922" y2="203.896" gradientUnits="userSpaceOnUse">
<stop stop-color="#0280D0"/>
<stop offset="1" stop-color="#548FF9"/>
</linearGradient>
<linearGradient id="paint5_linear_412_3" x1="143.077" y1="0" x2="143.077" y2="53.0014" gradientUnits="userSpaceOnUse">
<stop stop-color="#0280D0"/>
<stop offset="1" stop-color="#548FF9"/>
</linearGradient>
<linearGradient id="paint6_linear_412_3" x1="219.246" y1="221.444" x2="256.156" y2="258.354" gradientUnits="userSpaceOnUse">
<stop stop-color="#0280D0"/>
<stop offset="1" stop-color="#548FF9"/>
</linearGradient>
</defs>
</svg>
