<svg width="298" height="317" viewBox="0 0 298 317" fill="none" xmlns="http://www.w3.org/2000/svg">
<path d="M286.604 174.263L214.141 101.802C212.85 100.511 210.759 100.511 209.467 101.802L186.093 125.176C185.473 125.796 185.125 126.635 185.125 127.513C185.125 128.388 185.473 129.23 186.093 129.85L186.78 130.537L184.033 133.284C183.307 132.574 182.571 131.859 181.838 131.141L178.749 128.127C172.845 122.365 163.293 122.42 157.459 128.259L136.662 149.058C129.325 141.752 122.807 135.26 117.699 130.167L118.016 129.851C118.636 129.23 118.985 128.389 118.985 127.513C118.985 126.635 118.636 125.796 118.016 125.176L94.6422 101.803C93.4026 100.563 91.2077 100.563 89.9681 101.803L17.5074 174.265C16.2163 175.556 16.2163 177.647 17.5074 178.939L40.8793 202.312C41.4995 202.933 42.3384 203.281 43.2164 203.281C44.0943 203.281 44.934 202.933 45.5534 202.312L45.8893 201.977C46.2635 202.356 46.6152 202.712 47.0231 203.126C52.3253 208.52 60.9198 217.254 75.436 231.9L74.1191 233.217C67.8279 239.51 67.8179 249.76 74.0959 256.061C77.1999 259.171 81.5157 260.886 85.9419 260.808C85.8414 265.145 87.4783 269.439 90.6239 272.595C93.7232 275.707 98.0694 277.455 102.47 277.351C102.369 281.69 104.006 285.998 107.152 289.154C110.256 292.268 114.621 294.016 118.998 293.942C118.897 298.281 120.534 302.65 123.68 305.805C126.686 308.822 130.854 310.725 135.115 310.725H135.13C139.448 310.725 143.508 308.878 146.558 305.826L147.821 304.563C150.331 307.076 152.885 309.63 155.519 312.264C158.574 315.319 162.634 317 166.952 317C171.26 317 175.312 315.329 178.362 312.287C181.422 309.237 183.111 305.175 183.114 300.849C183.114 300.717 183.111 300.583 183.109 300.446C187.491 300.549 191.755 298.881 194.89 295.759C197.95 292.709 199.639 288.647 199.642 284.321C199.642 284.189 199.639 284.055 199.637 283.918C204.063 284.035 208.283 282.354 211.418 279.231C214.478 276.181 216.167 272.119 216.17 267.793C216.17 267.661 216.167 267.527 216.164 267.39C216.304 267.398 216.438 267.398 216.572 267.398C220.87 267.398 224.908 265.73 227.946 262.703C231.006 259.653 232.695 255.591 232.698 251.268C232.703 246.947 231.024 242.882 227.959 239.822L223.804 235.69L257.872 201.624L258.556 202.311C259.202 202.957 260.046 203.28 260.893 203.28C261.737 203.28 262.585 202.957 263.23 202.311L286.604 178.937C287.224 178.317 287.573 177.476 287.573 176.6C287.573 175.725 287.224 174.883 286.604 174.263ZM43.2164 195.301L24.5193 176.602L92.3018 108.814L111.004 127.513L43.2164 195.301ZM88.3067 253.733C84.7869 254.815 81.2076 253.816 78.7925 251.391C75.0817 247.669 75.0995 241.611 78.8183 237.889L80.1042 236.608C83.9314 240.466 88.1255 244.689 92.7249 249.314L88.3067 253.733ZM104.837 270.258C101.315 271.343 97.725 270.346 95.3079 267.919C92.8287 265.432 91.966 261.76 92.9887 258.402L97.3865 254.001C101.077 257.71 105.028 261.676 109.215 265.881L104.837 270.258ZM121.365 286.786C117.843 287.874 114.25 286.874 111.836 284.447C109.357 281.959 108.491 278.288 109.517 274.93L113.881 270.56C117.637 274.331 121.562 278.272 125.717 282.435L121.365 286.786ZM142.082 300.987C140.279 302.79 138.833 303.782 135.528 303.782V307.046V307.088L135.525 307.046L135.321 303.782C132.803 303.779 130.14 302.759 128.364 300.975C125.885 298.487 125.019 294.816 126.045 291.458L130.388 287.112C134.458 291.192 138.706 295.448 143.161 299.906L142.082 300.987ZM226.088 251.264C226.085 253.821 225.088 256.22 223.281 258.026C221.491 259.807 219.11 260.789 216.574 260.789C215.406 260.789 214.265 260.582 213.172 260.169C212.72 259.998 212.25 259.967 211.785 259.998L174.228 222.444L169.554 227.118L209.489 267.053C209.507 267.299 209.559 267.546 209.559 267.792C209.556 270.348 208.559 272.747 206.751 274.553C204.135 277.154 200.104 277.995 196.644 276.696C196.191 276.526 195.721 276.495 195.252 276.526L157.7 238.971L153.026 243.645L192.961 283.581C192.979 283.826 193.031 284.074 193.031 284.319C193.028 286.876 192.031 289.275 190.223 291.08C187.613 293.678 183.579 294.525 180.116 293.224C179.663 293.053 179.193 293.022 178.729 293.053L141.171 255.498L136.497 260.172L176.433 300.108C176.45 300.353 176.502 300.601 176.502 300.846C176.499 303.403 175.502 305.802 173.695 307.608C170.087 311.203 163.801 311.2 160.193 307.59C90.2669 237.659 63.2675 210.214 51.7389 198.49C51.3124 198.059 50.9535 197.697 50.5667 197.302L113.025 134.841C118.132 139.935 124.65 146.43 131.987 153.733L118.667 167.049C112.694 173.02 112.663 182.771 118.593 188.773L119.153 189.346C122.113 192.341 126.02 193.855 129.935 193.852C133.528 193.852 137.13 192.576 140.017 190.007L155.012 176.635C175.135 196.649 196.471 217.846 210.254 231.547L223.293 244.503C225.096 246.308 226.093 248.707 226.088 251.264ZM219.112 231.031L214.91 226.856C204.516 216.526 189.822 201.927 174.595 186.786C174.794 186.794 174.991 186.817 175.194 186.817C181.377 186.817 187.182 184.41 191.554 180.041L197.365 174.23L192.691 169.556L186.88 175.367C183.758 178.486 179.608 180.206 175.194 180.206C170.781 180.206 166.631 178.486 163.508 175.367L157.698 169.556L155.49 167.348L135.61 185.076C132.222 188.1 127.059 187.943 123.86 184.71L123.302 184.136C119.913 180.706 119.929 175.139 123.341 171.727L162.133 132.934C165.428 129.639 170.807 129.613 174.133 132.859L177.222 135.876C182.826 141.348 188.544 146.927 189.359 147.758L194.085 143.133C193.612 142.655 191.513 140.592 188.762 137.906L191.453 135.213L253.196 196.953L219.112 231.031ZM260.893 195.301L193.105 127.513L211.804 108.814L279.592 176.602L260.893 195.301Z" fill="url(#paint0_linear_383_4091)"/>
<path d="M93.5164 119.971L86.9062 126.582L91.5806 131.256L98.1907 124.646L93.5164 119.971Z" fill="url(#paint1_linear_383_4091)"/>
<path d="M210.573 119.977L205.898 124.651L212.509 131.261L217.183 126.587L210.573 119.977Z" fill="url(#paint2_linear_383_4091)"/>
<path d="M274.364 0H181.808C179.979 0 178.502 1.47958 178.502 3.3056V79.3343C178.502 81.1577 179.979 82.6399 181.808 82.6399H218.169V102.473C218.169 103.809 218.972 105.015 220.209 105.528C220.62 105.694 221.049 105.779 221.475 105.779C222.332 105.779 223.179 105.443 223.812 104.811L245.982 82.6399H294.198C296.026 82.6399 297.503 81.1577 297.503 79.3343V23.1365C297.503 10.3789 287.122 0 274.364 0ZM290.892 76.0287H244.614C243.736 76.0287 242.896 76.3771 242.277 76.9972L224.78 94.4911V79.3343C224.78 78.4563 224.432 77.6167 223.812 76.9972C223.192 76.3778 222.355 76.0287 221.477 76.0287H185.113V6.61119H274.364C283.478 6.61119 290.892 14.023 290.892 23.1365V76.0287Z" fill="url(#paint3_linear_383_4091)"/>
<path d="M115.696 0H23.1392C10.3816 0 0 10.3789 0 23.1365V79.3343C0 81.1577 1.47694 82.6399 3.3056 82.6399H51.521L73.6916 104.811C74.3243 105.443 75.1712 105.779 76.0287 105.779C76.4551 105.779 76.8835 105.694 77.2941 105.528C78.531 105.015 79.3343 103.808 79.3343 102.473V82.6399H115.696C117.524 82.6399 119.001 81.1577 119.001 79.3343V3.3056C119.001 1.47958 117.524 0 115.696 0ZM112.39 76.0287H76.026C75.1481 76.0287 74.3111 76.3771 73.6916 76.9972C73.0722 77.6174 72.7231 78.4563 72.7231 79.3343V94.4911L55.2266 76.9972C54.6065 76.3771 53.7675 76.0287 52.8895 76.0287H6.61119V23.1365C6.61119 14.023 14.0256 6.61119 23.1392 6.61119H112.39V76.0287Z" fill="url(#paint4_linear_383_4091)"/>
<path d="M262.111 20.8018L229.74 53.1735L217.201 40.6353L212.527 45.3094L227.403 60.1846C228.048 60.8305 228.893 61.1532 229.74 61.1532C230.586 61.1532 231.431 60.8305 232.077 60.1846L266.785 25.4759L262.111 20.8018Z" fill="url(#paint5_linear_383_4091)"/>
<path d="M59.4995 15.4795L33.0547 38.146V66.112H56.1939V46.2784H62.805V66.112H85.9442V38.146L59.4995 15.4795ZM79.333 59.5008H69.4162V39.6672H49.5827V59.5008H39.6659V41.1884L59.4995 24.1851L79.333 41.1884V59.5008Z" fill="url(#paint6_linear_383_4091)"/>
<defs>
<linearGradient id="paint0_linear_383_4091" x1="152.056" y1="100.833" x2="152.056" y2="317" gradientUnits="userSpaceOnUse">
<stop stop-color="#F68C59"/>
<stop offset="1" stop-color="#A70E13"/>
</linearGradient>
<linearGradient id="paint1_linear_383_4091" x1="90.2113" y1="123.276" x2="94.8856" y2="127.951" gradientUnits="userSpaceOnUse">
<stop stop-color="#F68C59"/>
<stop offset="1" stop-color="#A70E13"/>
</linearGradient>
<linearGradient id="paint2_linear_383_4091" x1="208.236" y1="122.314" x2="214.846" y2="128.924" gradientUnits="userSpaceOnUse">
<stop stop-color="#F68C59"/>
<stop offset="1" stop-color="#A70E13"/>
</linearGradient>
<linearGradient id="paint3_linear_383_4091" x1="238.003" y1="0" x2="238.003" y2="105.779" gradientUnits="userSpaceOnUse">
<stop stop-color="#F68C59"/>
<stop offset="1" stop-color="#A70E13"/>
</linearGradient>
<linearGradient id="paint4_linear_383_4091" x1="59.5007" y1="0" x2="59.5007" y2="105.779" gradientUnits="userSpaceOnUse">
<stop stop-color="#F68C59"/>
<stop offset="1" stop-color="#A70E13"/>
</linearGradient>
<linearGradient id="paint5_linear_383_4091" x1="239.656" y1="20.8018" x2="239.656" y2="61.1532" gradientUnits="userSpaceOnUse">
<stop stop-color="#F68C59"/>
<stop offset="1" stop-color="#A70E13"/>
</linearGradient>
<linearGradient id="paint6_linear_383_4091" x1="59.4995" y1="15.4795" x2="59.4995" y2="66.112" gradientUnits="userSpaceOnUse">
<stop stop-color="#F68C59"/>
<stop offset="1" stop-color="#A70E13"/>
</linearGradient>
</defs>
</svg>
