<svg width="330" height="330" viewBox="0 0 330 330" fill="none" xmlns="http://www.w3.org/2000/svg">
<path d="M165 315.268C165.005 320.515 163.445 325.645 160.519 330H312.321C317.008 329.995 321.502 328.13 324.816 324.816C328.13 321.502 329.994 317.008 330 312.321V294.643H155.121C158.205 297.123 160.694 300.264 162.403 303.833C164.113 307.403 165 311.31 165 315.268ZM229.821 306.429H241.607V318.214H229.821V306.429Z" fill="url(#paint0_linear_412_26)"/>
<path d="M294.643 88.3927C301.152 88.3927 306.429 83.1161 306.429 76.607C306.429 70.0979 301.152 64.8213 294.643 64.8213C288.134 64.8213 282.857 70.0979 282.857 76.607C282.857 83.1161 288.134 88.3927 294.643 88.3927Z" fill="url(#paint1_linear_412_26)"/>
<path d="M138.482 300.536H14.7321C10.8249 300.536 7.07776 302.088 4.31495 304.851C1.55213 307.614 0 311.361 0 315.268C0 319.175 1.55213 322.922 4.31495 325.685C7.07776 328.448 10.8249 330 14.7321 330H138.482C142.389 330 146.137 328.448 148.899 325.685C151.662 322.922 153.214 319.175 153.214 315.268C153.214 311.361 151.662 307.614 148.899 304.851C146.137 302.088 142.389 300.536 138.482 300.536Z" fill="url(#paint2_linear_412_26)"/>
<path d="M79.6389 164.16L53.0356 180.122V194.464C53.0257 201.917 50.1957 209.089 45.1142 214.54C40.0327 219.99 33.0764 223.316 25.6434 223.848L21.5825 226.892C16.7219 230.556 12.7759 235.296 10.0538 240.74C7.33167 246.184 5.90744 252.185 5.89272 258.272C5.87882 263.425 6.88728 268.531 8.85973 273.292C10.8322 278.053 13.7294 282.376 17.3838 286.01L20.1196 288.75H117.857C125.669 288.741 133.158 285.634 138.682 280.111C144.205 274.587 147.313 267.098 147.321 259.286V147.322C147.302 130.136 140.466 113.66 128.314 101.507C116.162 89.3553 99.6856 82.5197 82.4999 82.5002H76.607C75.0441 82.5002 73.5452 81.8793 72.4401 80.7742C71.335 79.6691 70.7141 78.1702 70.7141 76.6073C70.7071 70.3579 68.2215 64.3665 63.8025 59.9476C59.3835 55.5286 53.3921 53.0429 47.1427 53.0359V76.6073C47.1427 78.1702 46.5219 79.6691 45.4167 80.7742C44.3116 81.8793 42.8127 82.5002 41.2499 82.5002C31.8759 82.5109 22.8889 86.2395 16.2604 92.8679C9.632 99.4963 5.90344 108.483 5.89272 117.857V206.25C5.89447 207.813 6.51589 209.31 7.62064 210.415C8.72538 211.52 10.2232 212.141 11.7856 212.143H23.5713C28.2583 212.138 32.7519 210.274 36.0661 206.959C39.3804 203.645 41.2446 199.152 41.2499 194.464V176.786C41.2499 175.768 41.5134 174.768 42.0147 173.882C42.5161 172.997 43.2383 172.256 44.1108 171.733L70.7141 155.771V129.643H82.4999V159.107C82.4999 160.125 82.2364 161.125 81.735 162.011C81.2336 162.896 80.5115 163.637 79.6389 164.16ZM29.4641 258.273C29.4487 261.616 30.5174 264.875 32.51 267.559L23.0461 274.584C19.5405 269.87 17.6571 264.147 17.6784 258.273C17.6891 254.015 18.6855 249.817 20.5896 246.008C22.4938 242.199 25.2539 238.882 28.6539 236.318L35.7253 245.747C33.7859 247.21 32.2115 249.102 31.1253 251.276C30.0391 253.449 29.4705 255.844 29.4641 258.273ZM29.4641 159.107H17.6784V117.857H29.4641V159.107ZM41.2499 106.072C39.5928 106.075 37.955 106.426 36.4427 107.104C34.9305 107.781 33.5778 108.769 32.4725 110.004L23.6958 102.138C25.9068 99.6707 28.6126 97.6963 31.637 96.3434C34.6614 94.9906 37.9367 94.2895 41.2499 94.2859V106.072Z" fill="url(#paint3_linear_412_26)"/>
<path d="M294.643 170.893C301.152 170.893 306.429 165.616 306.429 159.107C306.429 152.598 301.152 147.321 294.643 147.321C288.134 147.321 282.857 152.598 282.857 159.107C282.857 165.616 288.134 170.893 294.643 170.893Z" fill="url(#paint4_linear_412_26)"/>
<path d="M82.5 70.7145C102.81 70.7375 122.282 78.8159 136.644 93.1776C151.006 107.539 159.084 127.011 159.107 147.322V243.858L170.893 237.966V141.429C170.866 117.994 161.545 95.526 144.974 78.9548C128.403 62.3837 105.935 53.0624 82.5 53.0359H73.4707C77.9332 58.0014 80.8941 64.132 82.0087 70.7145H82.5Z" fill="url(#paint5_linear_412_26)"/>
<path d="M312.323 0H159.108C154.421 0.00545859 149.928 1.86977 146.614 5.18396C143.299 8.49815 141.435 12.9916 141.43 17.6786V23.5714H330.001V17.6786C329.996 12.9916 328.131 8.49815 324.817 5.18396C321.503 1.86977 317.01 0.00545859 312.323 0Z" fill="url(#paint6_linear_412_26)"/>
<path d="M294.643 253.393C301.152 253.393 306.429 248.116 306.429 241.607C306.429 235.098 301.152 229.821 294.643 229.821C288.134 229.821 282.857 235.098 282.857 241.607C282.857 248.116 288.134 253.393 294.643 253.393Z" fill="url(#paint7_linear_412_26)"/>
<path d="M141.43 60.4689C154.204 69.7534 164.6 81.9283 171.769 95.999C178.939 110.07 182.677 125.637 182.68 141.429V241.607C182.68 242.701 182.375 243.774 181.8 244.705C181.224 245.636 180.401 246.388 179.422 246.878L159.108 257.035V259.286C159.115 267.72 156.519 275.952 151.676 282.857H330.001V35.3572H141.43V60.4689ZM294.644 53.0357C299.306 53.0357 303.863 54.4182 307.74 57.0083C311.616 59.5983 314.637 63.2797 316.421 67.5868C318.205 71.8939 318.672 76.6333 317.762 81.2057C316.853 85.7781 314.608 89.9782 311.311 93.2747C308.015 96.5712 303.815 98.8162 299.243 99.7257C294.67 100.635 289.931 100.168 285.624 98.3843C281.316 96.6003 277.635 93.5791 275.045 89.7028C272.455 85.8265 271.073 81.2692 271.073 76.6072C271.08 70.3578 273.565 64.3664 277.984 59.9474C282.403 55.5284 288.395 53.0428 294.644 53.0357ZM294.644 135.536C299.306 135.536 303.863 136.918 307.74 139.508C311.616 142.098 314.637 145.78 316.421 150.087C318.205 154.394 318.672 159.133 317.762 163.706C316.853 168.278 314.608 172.478 311.311 175.775C308.015 179.071 303.815 181.316 299.243 182.226C294.67 183.135 289.931 182.668 285.624 180.884C281.316 179.1 277.635 176.079 275.045 172.203C272.455 168.326 271.073 163.769 271.073 159.107C271.08 152.858 273.565 146.866 277.984 142.447C282.403 138.028 288.395 135.543 294.644 135.536ZM294.644 218.036C299.306 218.036 303.863 219.418 307.74 222.008C311.616 224.598 314.637 228.28 316.421 232.587C318.205 236.894 318.672 241.633 317.762 246.206C316.853 250.778 314.608 254.978 311.311 258.275C308.015 261.571 303.815 263.816 299.243 264.726C294.67 265.635 289.931 265.168 285.624 263.384C281.316 261.6 277.635 258.579 275.045 254.703C272.455 250.826 271.073 246.269 271.073 241.607C271.08 235.358 273.565 229.366 277.984 224.947C282.403 220.528 288.395 218.043 294.644 218.036ZM200.358 165V153.214H239.168L231.548 145.596L239.882 137.262L257.561 154.94C258.108 155.487 258.542 156.137 258.838 156.852C259.135 157.567 259.287 158.333 259.287 159.107C259.287 159.881 259.135 160.647 258.838 161.362C258.542 162.077 258.108 162.727 257.561 163.274L239.882 180.953L231.548 172.619L239.168 165H200.358ZM227.187 75.9847L232.458 65.4439L256.03 77.2296C257.427 77.9286 258.49 79.1543 258.984 80.6369C259.478 82.1196 259.363 83.7378 258.664 85.1356L246.879 108.707L236.338 103.436L241.192 93.7274L196.654 111.543L192.277 100.6L239.022 81.9019L227.187 75.9847ZM196.654 206.671L241.192 224.487L236.338 214.778L246.879 209.507L258.664 233.079C259.363 234.477 259.478 236.095 258.984 237.577C258.49 239.06 257.427 240.286 256.03 240.985L232.458 252.77L227.187 242.23L239.022 236.312L192.277 217.614L196.654 206.671Z" fill="url(#paint8_linear_412_26)"/>
<defs>
<linearGradient id="paint0_linear_412_26" x1="242.56" y1="294.643" x2="242.56" y2="330" gradientUnits="userSpaceOnUse">
<stop stop-color="#0480D1"/>
<stop offset="1" stop-color="#548FF9"/>
</linearGradient>
<linearGradient id="paint1_linear_412_26" x1="294.643" y1="64.8213" x2="294.643" y2="88.3927" gradientUnits="userSpaceOnUse">
<stop stop-color="#0480D1"/>
<stop offset="1" stop-color="#548FF9"/>
</linearGradient>
<linearGradient id="paint2_linear_412_26" x1="76.6071" y1="300.536" x2="76.6071" y2="330" gradientUnits="userSpaceOnUse">
<stop stop-color="#0480D1"/>
<stop offset="1" stop-color="#548FF9"/>
</linearGradient>
<linearGradient id="paint3_linear_412_26" x1="76.6069" y1="53.0359" x2="76.6069" y2="288.75" gradientUnits="userSpaceOnUse">
<stop stop-color="#0480D1"/>
<stop offset="1" stop-color="#548FF9"/>
</linearGradient>
<linearGradient id="paint4_linear_412_26" x1="294.643" y1="147.321" x2="294.643" y2="170.893" gradientUnits="userSpaceOnUse">
<stop stop-color="#0480D1"/>
<stop offset="1" stop-color="#548FF9"/>
</linearGradient>
<linearGradient id="paint5_linear_412_26" x1="122.182" y1="53.0359" x2="122.182" y2="243.858" gradientUnits="userSpaceOnUse">
<stop stop-color="#0480D1"/>
<stop offset="1" stop-color="#548FF9"/>
</linearGradient>
<linearGradient id="paint6_linear_412_26" x1="235.715" y1="0" x2="235.715" y2="23.5714" gradientUnits="userSpaceOnUse">
<stop stop-color="#0480D1"/>
<stop offset="1" stop-color="#548FF9"/>
</linearGradient>
<linearGradient id="paint7_linear_412_26" x1="294.643" y1="229.821" x2="294.643" y2="253.393" gradientUnits="userSpaceOnUse">
<stop stop-color="#0480D1"/>
<stop offset="1" stop-color="#548FF9"/>
</linearGradient>
<linearGradient id="paint8_linear_412_26" x1="235.715" y1="35.3572" x2="235.715" y2="282.857" gradientUnits="userSpaceOnUse">
<stop stop-color="#0480D1"/>
<stop offset="1" stop-color="#548FF9"/>
</linearGradient>
</defs>
</svg>
