<svg width="259" height="317" viewBox="0 0 259 317" fill="none" xmlns="http://www.w3.org/2000/svg">
<path fill-rule="evenodd" clip-rule="evenodd" d="M146.102 40.9748C159.819 46.8732 169.783 59.8274 171.432 75.2664C171.587 76.7083 171.121 78.1482 170.152 79.2276C169.181 80.3065 167.799 80.9226 166.349 80.9226H92.5024C91.0517 80.9226 89.6686 80.3058 88.6991 79.2264C87.7295 78.1469 87.2636 76.7064 87.4189 75.2632C89.0768 59.8248 99.0438 46.8719 112.757 40.9742C108.311 36.6308 105.544 30.5733 105.544 23.8913C105.544 10.7352 116.269 0 129.425 0C142.594 0 153.317 10.7358 153.317 23.8913C153.317 30.5733 150.551 36.6314 146.102 40.9748ZM129.425 47.7826C114.907 47.7826 102.645 57.448 98.7178 70.6968H160.137C156.216 57.4473 143.951 47.7826 129.425 47.7826ZM129.425 37.5568C136.957 37.5568 143.091 31.4162 143.091 23.8913C143.091 16.3664 136.957 10.2258 129.425 10.2258C121.902 10.2258 115.77 16.3677 115.77 23.8913C115.77 31.4156 121.902 37.5568 129.425 37.5568ZM232.948 51.4C246.665 57.2984 256.629 70.2526 258.278 85.691C258.432 87.1335 257.967 88.5734 256.997 89.6522C256.027 90.731 254.645 91.3471 253.195 91.3471H179.348C177.897 91.3471 176.515 90.731 175.545 89.6516C174.575 88.5721 174.11 87.1316 174.265 85.6884C175.923 70.25 185.89 57.2971 199.603 51.3994C195.156 47.056 192.39 40.9985 192.39 34.3165C192.39 21.1604 203.115 10.4252 216.271 10.4252C229.439 10.4252 240.162 21.161 240.162 34.3165C240.162 40.9985 237.396 47.0566 232.948 51.4ZM216.271 58.2079C201.753 58.2079 189.49 67.8725 185.564 81.122C185.564 81.122 246.982 81.1213 246.982 81.122C243.062 67.8725 230.797 58.2079 216.271 58.2079ZM216.271 47.9821C223.803 47.9821 229.937 41.8415 229.937 34.3165C229.937 26.7916 223.803 20.651 216.271 20.651C208.748 20.651 202.616 26.7923 202.616 34.3165C202.616 41.8402 208.748 47.9821 216.271 47.9821ZM58.7125 51.2831C72.4292 57.1814 82.393 70.135 84.0432 85.574C84.1972 87.0165 83.7313 88.4564 82.7617 89.5353C81.7922 90.6141 80.4098 91.2302 78.959 91.2302H5.11267C3.66189 91.2302 2.27948 90.6135 1.30931 89.534C0.339776 88.4545 -0.125497 87.014 0.0291686 85.5715C1.68703 70.1324 11.654 57.1795 25.3674 51.2818C20.9211 46.9384 18.1544 40.8809 18.1544 34.1989C18.1544 21.0428 28.88 10.3076 42.0362 10.3076C55.2038 10.3076 65.9275 21.0434 65.9275 34.1989C65.9275 40.8809 63.1608 46.939 58.7125 51.2831ZM42.0362 58.0903C27.5181 58.0903 15.2548 67.7556 11.3287 81.0044H72.7468C68.8265 67.7549 56.5619 58.0903 42.0362 58.0903ZM42.0362 47.8645C49.5681 47.8645 55.7017 41.7239 55.7017 34.1989C55.7017 26.6747 49.5681 20.5334 42.0362 20.5334C34.5119 20.5334 28.3802 26.6753 28.3802 34.1989C28.3802 41.7232 34.5119 47.8645 42.0362 47.8645ZM189.818 155.459H221.965C224.789 155.459 227.078 157.748 227.078 160.572V177.663C227.078 178.982 226.567 180.251 225.653 181.203L163.115 246.359V287.268C163.115 289.137 162.095 290.858 160.454 291.754L115.402 316.374C113.818 317.24 111.894 317.206 110.342 316.285C108.789 315.364 107.837 313.693 107.837 311.887V246.36L45.286 181.203C44.3715 180.251 43.8615 178.982 43.8615 177.663V160.572C43.8615 157.748 46.1501 155.459 48.9744 155.459H81.1218V133.906C81.1218 131.082 83.4104 128.793 86.2347 128.793H112.384C115.208 128.793 117.497 131.082 117.497 133.906V155.459H153.443V133.906C153.443 131.082 155.731 128.793 158.555 128.793H184.705C187.528 128.793 189.818 131.082 189.818 133.906V155.459ZM81.1218 165.685H54.0873V172.55H81.2783C81.1742 171.177 81.1218 169.789 81.1218 168.39V165.685ZM60.9705 182.775L116.639 240.762C117.552 241.714 118.063 242.982 118.063 244.302V303.267L152.889 284.235V244.302C152.889 242.982 153.4 241.714 154.314 240.762L209.97 182.775H187.89C181.578 205.8 160.486 222.738 135.469 222.738C110.453 222.738 89.3618 205.8 83.0487 182.775H60.9705ZM216.852 172.55V165.685H189.818V168.39C189.818 169.789 189.765 171.177 189.66 172.55H216.852ZM117.497 165.685V168.39C117.497 169.821 117.664 171.215 117.981 172.55H152.957C153.274 171.215 153.443 169.821 153.443 168.39V165.685H117.497ZM124.7 182.775C127.702 185.028 131.431 186.363 135.469 186.363C139.508 186.363 143.237 185.028 146.24 182.775H124.7ZM107.271 147.218V139.019H91.3476V147.218H107.271ZM163.668 157.444V168.39C163.668 183.953 151.033 196.589 135.469 196.589C119.906 196.589 107.271 183.953 107.271 168.39V157.444H91.3476V168.39C91.3476 192.742 111.118 212.512 135.469 212.512C159.822 212.512 179.592 192.742 179.592 168.39V157.444H163.668ZM179.592 147.218V139.019H163.668V147.218H179.592ZM131.733 99.2051C129.81 97.1401 129.926 93.9017 131.991 91.9792C134.057 90.0562 137.295 90.1718 139.217 92.2368C141.555 94.7479 143.683 97.3439 143.683 102.452C143.683 106.747 142.151 109.304 140.27 111.5C139.719 112.144 139.126 112.743 138.566 113.378C138.016 114.002 137.482 114.686 137.482 115.925C137.482 117.61 138.446 118.343 139.217 119.172C141.14 121.237 141.025 124.474 138.96 126.397C136.894 128.32 133.656 128.205 131.733 126.139C129.397 123.629 127.256 121.031 127.256 115.925C127.256 111.63 128.789 109.072 130.668 106.877C131.221 106.233 131.813 105.633 132.373 104.998C132.923 104.374 133.457 103.69 133.457 102.452C133.457 100.768 132.504 100.033 131.733 99.2051ZM185.652 99.4831C185.753 96.6627 188.124 94.4552 190.944 94.5561C193.764 94.6565 195.972 97.0276 195.871 99.848C195.749 103.276 195.418 106.617 191.807 110.228C188.77 113.266 185.877 113.991 182.995 114.213C182.15 114.279 181.307 114.284 180.462 114.337C179.631 114.388 178.77 114.495 177.894 115.37C176.702 116.562 176.867 117.762 176.826 118.894C176.725 121.713 174.354 123.921 171.534 123.82C168.714 123.72 166.506 121.348 166.607 118.529C166.729 115.101 167.053 111.75 170.663 108.14C173.701 105.103 176.593 104.377 179.475 104.155C180.32 104.09 181.163 104.085 182.008 104.032C182.839 103.98 183.7 103.874 184.576 102.998C185.766 101.807 185.612 100.614 185.652 99.4831ZM75.0674 99.848C74.9671 97.0276 77.1746 94.6565 79.995 94.5561C82.8148 94.4552 85.1865 96.6627 85.2869 99.4831C85.3271 100.614 85.1725 101.807 86.3638 102.998C87.2394 103.874 88.1009 103.98 88.9311 104.032C89.776 104.085 90.6183 104.09 91.4645 104.155C94.3463 104.377 97.2383 105.103 100.275 108.14C103.886 111.75 104.21 115.101 104.332 118.529C104.433 121.348 102.225 123.72 99.4055 123.82C96.5851 123.921 94.214 121.713 94.113 118.894C94.0728 117.762 94.2364 116.562 93.0451 115.37C92.1688 114.495 91.3079 114.388 90.4777 114.337C89.6322 114.284 88.7898 114.279 87.9437 114.213C85.0625 113.991 82.1699 113.266 79.1328 110.228C75.5212 106.617 75.1902 103.276 75.0674 99.848Z" fill="url(#paint0_linear_383_4060)"/>
<defs>
<linearGradient id="paint0_linear_383_4060" x1="129.154" y1="0" x2="129.154" y2="317" gradientUnits="userSpaceOnUse">
<stop stop-color="#F68C59"/>
<stop offset="1" stop-color="#A70E13"/>
</linearGradient>
</defs>
</svg>
