<svg width="330" height="330" viewBox="0 0 330 330" fill="none" xmlns="http://www.w3.org/2000/svg">
<path d="M0 324.31C0 325.819 0.599444 327.267 1.66646 328.334C2.73348 329.401 4.18067 330 5.68966 330H324.31C325.819 330 327.267 329.401 328.334 328.334C329.401 327.267 330 325.819 330 324.31V307.241H0V324.31Z" fill="url(#paint0_linear_412_23)"/>
<path d="M256.035 147.931V227.586H290.173V147.931C290.173 146.422 290.773 144.975 291.84 143.908C292.907 142.841 294.354 142.241 295.863 142.241H299.203L273.104 116.149L247.006 142.241H250.346C251.855 142.241 253.302 142.841 254.369 143.908C255.436 144.975 256.035 146.422 256.035 147.931Z" fill="url(#paint1_linear_412_23)"/>
<path d="M30.7988 142.241H34.1387C35.6476 142.241 37.0948 142.841 38.1618 143.908C39.2289 144.975 39.8283 146.422 39.8283 147.931V227.586H73.9662V147.931C73.9662 146.422 74.5657 144.975 75.6327 143.908C76.6997 142.841 78.1469 142.241 79.6559 142.241H82.9957L56.8973 116.149L30.7988 142.241Z" fill="url(#paint2_linear_412_23)"/>
<path d="M125.162 22.7585H91.0293V56.8965H125.162V22.7585Z" fill="url(#paint3_linear_412_23)"/>
<path d="M56.8975 45.5173H22.7539V56.8966H56.8975V45.5173Z" fill="url(#paint4_linear_412_23)"/>
<path d="M307.236 45.5173H159.311V56.8966H307.236V45.5173Z" fill="url(#paint5_linear_412_23)"/>
<path d="M56.8966 73.9654V68.2758H17.069C15.56 68.2758 14.1128 67.6763 13.0458 66.6093C11.9788 65.5423 11.3793 64.0951 11.3793 62.5861V39.8275C11.3793 38.3185 11.9788 36.8713 13.0458 35.8043C14.1128 34.7373 15.56 34.1379 17.069 34.1379H56.8966V22.7585H5.68966C4.18067 22.7585 2.73348 23.358 1.66646 24.425C0.599444 25.492 0 26.9392 0 28.4482V79.6551H51.2069C52.7159 79.6551 54.1631 79.0557 55.2301 77.9886C56.2971 76.9216 56.8966 75.4744 56.8966 73.9654Z" fill="url(#paint6_linear_412_23)"/>
<path d="M137.883 181.05L128.78 171.947L120.735 179.998L129.838 189.101C130.731 189.994 131.302 191.158 131.46 192.411C131.619 193.663 131.357 194.933 130.714 196.02C128.83 199.219 127.403 202.666 126.475 206.261C126.161 207.483 125.451 208.565 124.455 209.338C123.459 210.112 122.234 210.532 120.974 210.534H108.104V221.914H120.974C122.234 221.915 123.459 222.336 124.455 223.11C125.451 223.883 126.161 224.965 126.475 226.187C127.401 229.782 128.828 233.23 130.714 236.428C131.357 237.515 131.619 238.785 131.46 240.037C131.302 241.29 130.731 242.454 129.838 243.347L120.735 252.45L128.785 260.495L137.889 251.392C138.781 250.499 139.946 249.928 141.198 249.769C142.451 249.611 143.72 249.873 144.807 250.515C148.006 252.401 151.453 253.828 155.049 254.754C156.271 255.068 157.354 255.78 158.128 256.777C158.901 257.774 159.321 259 159.322 260.262V273.103H170.701V260.228C170.702 258.966 171.122 257.74 171.895 256.743C172.669 255.746 173.752 255.034 174.974 254.72C178.569 253.793 182.016 252.366 185.215 250.481C186.303 249.84 187.573 249.578 188.826 249.738C190.078 249.898 191.242 250.469 192.134 251.363L201.237 260.467L209.283 252.422L200.179 243.318C199.286 242.426 198.715 241.261 198.557 240.009C198.398 238.756 198.661 237.486 199.303 236.399C201.189 233.201 202.616 229.754 203.542 226.158C203.857 224.944 204.564 223.867 205.554 223.097C206.544 222.326 207.761 221.904 209.015 221.897H221.897V210.517H209.015C207.754 210.515 206.53 210.095 205.534 209.321C204.538 208.548 203.827 207.465 203.513 206.244C202.586 202.649 201.159 199.202 199.275 196.003C198.632 194.916 198.37 193.646 198.528 192.394C198.687 191.141 199.258 189.977 200.151 189.084L209.254 179.981L201.209 171.936L192.106 181.039C191.214 181.933 190.05 182.505 188.797 182.664C187.545 182.824 186.275 182.563 185.187 181.921C181.988 180.034 178.541 178.605 174.946 177.677C173.725 177.361 172.644 176.65 171.872 175.655C171.1 174.659 170.68 173.435 170.678 172.175V159.31H159.31V172.18C159.31 173.442 158.89 174.668 158.116 175.665C157.343 176.662 156.26 177.374 155.037 177.688C151.442 178.613 147.994 180.04 144.796 181.927C143.71 182.568 142.441 182.829 141.19 182.671C139.938 182.512 138.775 181.942 137.883 181.05ZM165 182.069C171.752 182.069 178.352 184.071 183.966 187.822C189.58 191.573 193.956 196.905 196.539 203.143C199.123 209.381 199.799 216.245 198.482 222.867C197.165 229.489 193.914 235.572 189.139 240.346C184.365 245.12 178.282 248.372 171.66 249.689C165.038 251.006 158.174 250.33 151.936 247.746C145.698 245.162 140.367 240.787 136.615 235.173C132.864 229.559 130.862 222.959 130.862 216.207C130.871 207.156 134.471 198.478 140.871 192.078C147.271 185.678 155.949 182.078 165 182.069Z" fill="url(#paint7_linear_412_23)"/>
<path d="M147.931 73.9655V5.68965C147.931 4.18066 147.332 2.73348 146.265 1.66646C145.198 0.599444 143.75 0 142.241 0H73.9655C72.4565 0 71.0093 0.599444 69.9423 1.66646C68.8753 2.73348 68.2759 4.18066 68.2759 5.68965V73.9655C68.2759 78.4925 66.4775 82.834 63.2765 86.0351C60.0754 89.2361 55.7339 91.0345 51.2069 91.0345H0V295.862H330V91.0345H165C160.473 91.0345 156.131 89.2361 152.93 86.0351C149.729 82.834 147.931 78.4925 147.931 73.9655ZM79.6552 17.069C79.6552 15.56 80.2546 14.1128 81.3216 13.0458C82.3886 11.9788 83.8358 11.3793 85.3448 11.3793H130.862C132.371 11.3793 133.818 11.9788 134.885 13.0458C135.952 14.1128 136.552 15.56 136.552 17.069V62.5862C136.552 64.0952 135.952 65.5424 134.885 66.6094C133.818 67.6764 132.371 68.2759 130.862 68.2759H85.3448C83.8358 68.2759 82.3886 67.6764 81.3216 66.6094C80.2546 65.5424 79.6552 64.0952 79.6552 62.5862V17.069ZM85.3448 233.276C85.3448 234.785 84.7454 236.232 83.6784 237.299C82.6114 238.366 81.1642 238.965 79.6552 238.965H34.1379C32.6289 238.965 31.1818 238.366 30.1147 237.299C29.0477 236.232 28.4483 234.785 28.4483 233.276V153.621H17.069C15.9422 153.623 14.8402 153.29 13.9026 152.665C12.9651 152.04 12.2343 151.151 11.8028 150.11C11.3713 149.069 11.2586 147.923 11.479 146.818C11.6994 145.713 12.2429 144.699 13.0407 143.903L52.8683 104.075C53.9576 103.049 55.3974 102.478 56.8937 102.478C58.39 102.478 59.8298 103.049 60.9191 104.075L100.747 143.903C101.544 144.698 102.088 145.712 102.308 146.817C102.529 147.921 102.416 149.066 101.986 150.107C101.555 151.148 100.825 152.037 99.8883 152.663C98.9517 153.288 97.8504 153.622 96.7241 153.621H85.3448V233.276ZM229.242 143.903L269.069 104.075C270.159 103.049 271.599 102.478 273.095 102.478C274.591 102.478 276.031 103.049 277.12 104.075L316.948 143.903C317.745 144.698 318.288 145.711 318.509 146.815C318.73 147.919 318.618 149.064 318.188 150.104C317.758 151.145 317.029 152.034 316.093 152.66C315.157 153.286 314.057 153.62 312.931 153.621H301.552V233.276C301.552 234.785 300.952 236.232 299.885 237.299C298.818 238.366 297.371 238.965 295.862 238.965H250.345C248.836 238.965 247.389 238.366 246.322 237.299C245.255 236.232 244.655 234.785 244.655 233.276V153.621H233.276C232.149 153.623 231.047 153.29 230.11 152.665C229.172 152.04 228.441 151.151 228.01 150.11C227.578 149.069 227.466 147.923 227.686 146.818C227.906 145.713 228.444 144.699 229.242 143.903ZM182.069 153.621V167.97C183.762 168.568 185.422 169.255 187.042 170.03L197.175 159.879C198.264 158.852 199.704 158.28 201.2 158.28C202.697 158.28 204.137 158.852 205.226 159.879L221.328 175.97C221.857 176.498 222.276 177.126 222.563 177.816C222.849 178.507 222.996 179.247 222.996 179.995C222.996 180.743 222.849 181.483 222.563 182.174C222.276 182.865 221.857 183.492 221.328 184.02L211.183 194.165C211.956 195.786 212.643 197.445 213.243 199.138H227.586C229.095 199.138 230.542 199.737 231.609 200.804C232.676 201.871 233.276 203.319 233.276 204.828V227.586C233.276 229.095 232.676 230.542 231.609 231.609C230.542 232.676 229.095 233.276 227.586 233.276H213.231C212.634 234.969 211.946 236.629 211.172 238.249L221.328 248.388C221.857 248.916 222.276 249.543 222.563 250.234C222.849 250.925 222.996 251.665 222.996 252.413C222.996 253.161 222.849 253.901 222.563 254.592C222.276 255.283 221.857 255.91 221.328 256.438L205.22 272.534C204.153 273.601 202.706 274.2 201.198 274.2C199.689 274.2 198.242 273.601 197.175 272.534L187.036 262.39C185.416 263.164 183.756 263.852 182.063 264.449V278.793C182.063 280.302 181.464 281.749 180.397 282.816C179.33 283.883 177.883 284.483 176.374 284.483H153.621C152.112 284.483 150.665 283.883 149.597 282.816C148.53 281.749 147.931 280.302 147.931 278.793V264.438C146.239 263.841 144.579 263.155 142.958 262.384L132.808 272.534C131.741 273.601 130.294 274.2 128.785 274.2C127.277 274.2 125.83 273.601 124.763 272.534L108.672 256.438C107.606 255.371 107.007 253.925 107.007 252.416C107.007 250.907 107.606 249.46 108.672 248.393L118.817 238.243C118.045 236.624 117.358 234.966 116.757 233.276H102.414C100.905 233.276 99.4576 232.676 98.3906 231.609C97.3236 230.542 96.7241 229.095 96.7241 227.586V204.828C96.7241 203.319 97.3236 201.871 98.3906 200.804C99.4576 199.737 100.905 199.138 102.414 199.138H116.757C117.357 197.445 118.044 195.786 118.817 194.165L108.672 184.015C107.606 182.948 107.007 181.501 107.007 179.992C107.007 178.484 107.606 177.037 108.672 175.97L124.763 159.879C125.852 158.854 127.292 158.282 128.788 158.282C130.284 158.282 131.724 158.854 132.814 159.879L142.958 170.024C144.579 169.253 146.239 168.567 147.931 167.97V153.621C147.931 152.112 148.53 150.665 149.597 149.597C150.665 148.53 152.112 147.931 153.621 147.931H176.379C177.888 147.931 179.335 148.53 180.403 149.597C181.47 150.665 182.069 152.112 182.069 153.621Z" fill="url(#paint8_linear_412_23)"/>
<path d="M165.001 238.965C169.502 238.965 173.902 237.631 177.645 235.13C181.387 232.629 184.304 229.075 186.027 224.916C187.75 220.758 188.2 216.182 187.322 211.767C186.444 207.352 184.276 203.297 181.094 200.114C177.911 196.931 173.856 194.764 169.441 193.886C165.026 193.007 160.45 193.458 156.291 195.181C152.133 196.903 148.578 199.82 146.078 203.563C143.577 207.305 142.242 211.706 142.242 216.207C142.242 222.243 144.64 228.032 148.908 232.3C153.176 236.568 158.965 238.965 165.001 238.965Z" fill="url(#paint9_linear_412_23)"/>
<path d="M324.311 22.7585H159.311V34.1379H312.931C314.44 34.1379 315.887 34.7373 316.954 35.8043C318.021 36.8713 318.621 38.3185 318.621 39.8275V62.5861C318.621 64.0951 318.021 65.5423 316.954 66.6093C315.887 67.6763 314.44 68.2758 312.931 68.2758H159.311V73.9654C159.311 75.4744 159.91 76.9216 160.977 77.9886C162.044 79.0557 163.491 79.6551 165 79.6551H330V28.4482C330 26.9392 329.401 25.492 328.334 24.425C327.267 23.358 325.82 22.7585 324.311 22.7585Z" fill="url(#paint10_linear_412_23)"/>
<defs>
<linearGradient id="paint0_linear_412_23" x1="165" y1="307.241" x2="165" y2="330" gradientUnits="userSpaceOnUse">
<stop stop-color="#0380D0"/>
<stop offset="1" stop-color="#548FF9"/>
</linearGradient>
<linearGradient id="paint1_linear_412_23" x1="273.104" y1="116.149" x2="273.104" y2="227.586" gradientUnits="userSpaceOnUse">
<stop stop-color="#0380D0"/>
<stop offset="1" stop-color="#548FF9"/>
</linearGradient>
<linearGradient id="paint2_linear_412_23" x1="56.8973" y1="116.149" x2="56.8973" y2="227.586" gradientUnits="userSpaceOnUse">
<stop stop-color="#0380D0"/>
<stop offset="1" stop-color="#548FF9"/>
</linearGradient>
<linearGradient id="paint3_linear_412_23" x1="108.095" y1="22.7585" x2="108.095" y2="56.8965" gradientUnits="userSpaceOnUse">
<stop stop-color="#0380D0"/>
<stop offset="1" stop-color="#548FF9"/>
</linearGradient>
<linearGradient id="paint4_linear_412_23" x1="39.8257" y1="45.5173" x2="39.8257" y2="56.8966" gradientUnits="userSpaceOnUse">
<stop stop-color="#0380D0"/>
<stop offset="1" stop-color="#548FF9"/>
</linearGradient>
<linearGradient id="paint5_linear_412_23" x1="233.273" y1="45.5173" x2="233.273" y2="56.8966" gradientUnits="userSpaceOnUse">
<stop stop-color="#0380D0"/>
<stop offset="1" stop-color="#548FF9"/>
</linearGradient>
<linearGradient id="paint6_linear_412_23" x1="28.4483" y1="22.7585" x2="28.4483" y2="79.6551" gradientUnits="userSpaceOnUse">
<stop stop-color="#0380D0"/>
<stop offset="1" stop-color="#548FF9"/>
</linearGradient>
<linearGradient id="paint7_linear_412_23" x1="165" y1="159.31" x2="165" y2="273.103" gradientUnits="userSpaceOnUse">
<stop stop-color="#0380D0"/>
<stop offset="1" stop-color="#548FF9"/>
</linearGradient>
<linearGradient id="paint8_linear_412_23" x1="165" y1="0" x2="165" y2="295.862" gradientUnits="userSpaceOnUse">
<stop stop-color="#0380D0"/>
<stop offset="1" stop-color="#548FF9"/>
</linearGradient>
<linearGradient id="paint9_linear_412_23" x1="165.001" y1="193.448" x2="165.001" y2="238.965" gradientUnits="userSpaceOnUse">
<stop stop-color="#0380D0"/>
<stop offset="1" stop-color="#548FF9"/>
</linearGradient>
<linearGradient id="paint10_linear_412_23" x1="244.655" y1="22.7585" x2="244.655" y2="79.6551" gradientUnits="userSpaceOnUse">
<stop stop-color="#0380D0"/>
<stop offset="1" stop-color="#548FF9"/>
</linearGradient>
</defs>
</svg>
