<svg width="538" height="640" viewBox="0 0 538 640" fill="none" xmlns="http://www.w3.org/2000/svg">
<path d="M393.106 610.804C409.098 628.851 436.36 630.803 436.36 630.803C436.36 630.803 437.684 603.505 421.692 585.511C405.701 567.516 378.421 565.53 378.421 565.53C378.421 565.53 377.097 592.775 393.106 610.804Z" fill="#FF9A6A"/>
<path opacity="0.6" d="M393.106 610.804C409.098 628.851 436.36 630.803 436.36 630.803C436.36 630.803 437.684 603.505 421.692 585.511C405.701 567.516 378.421 565.53 378.421 565.53C378.421 565.53 377.097 592.775 393.106 610.804Z" fill="white"/>
<path d="M415.928 546.681C415.928 588.263 448.869 621.97 448.869 621.97C448.869 621.97 481.81 588.263 481.81 546.681C481.81 505.1 448.869 471.375 448.869 471.375C448.869 471.375 415.928 505.082 415.928 546.681Z" fill="#FF9A6A"/>
<path opacity="0.6" d="M415.928 546.681C415.928 588.263 448.869 621.97 448.869 621.97C448.869 621.97 481.81 588.263 481.81 546.681C481.81 505.1 448.869 471.375 448.869 471.375C448.869 471.375 415.928 505.082 415.928 546.681Z" fill="white"/>
<path d="M448.869 621.97V471.375" stroke="#FF9A6A" stroke-miterlimit="10"/>
<path d="M448.868 524.906L430.42 508.81" stroke="#FF9A6A" stroke-miterlimit="10"/>
<path d="M449.164 549.8L472.002 516.702" stroke="#FF9A6A" stroke-miterlimit="10"/>
<path d="M448.868 564.136L421.641 539.835" stroke="#FF9A6A" stroke-miterlimit="10"/>
<path d="M449.164 583.455L476.095 559.45" stroke="#FF9A6A" stroke-miterlimit="10"/>
<path d="M449.164 600.143L428.086 583.455" stroke="#FF9A6A" stroke-miterlimit="10"/>
<path d="M436.361 630.803L378.422 565.478" stroke="#FF9A6A" stroke-miterlimit="10"/>
<path d="M399.012 588.698L384.832 588.803" stroke="#FF9A6A" stroke-miterlimit="10"/>
<path d="M408.715 599.377L405.893 576.243" stroke="#FF9A6A" stroke-miterlimit="10"/>
<path d="M414.115 605.718L392.949 605.648" stroke="#FF9A6A" stroke-miterlimit="10"/>
<path d="M421.676 613.975L424.115 593.21" stroke="#FF9A6A" stroke-miterlimit="10"/>
<path d="M428.085 621.222L412.529 622.093" stroke="#FF9A6A" stroke-miterlimit="10"/>
<path d="M477.036 584.918C460.243 602.216 460.33 629.548 460.33 629.548C460.33 629.548 487.662 628.834 504.455 611.536C521.248 594.238 521.161 566.906 521.161 566.906C521.161 566.906 493.846 567.498 477.036 584.918Z" fill="#FF9A6A"/>
<path opacity="0.6" d="M477.036 584.918C460.243 602.216 460.33 629.548 460.33 629.548C460.33 629.548 487.662 628.834 504.455 611.536C521.248 594.238 521.161 566.906 521.161 566.906C521.161 566.906 493.846 567.498 477.036 584.918Z" fill="white"/>
<path d="M460.33 629.461L521.161 566.819" stroke="#FF9A6A" stroke-miterlimit="10"/>
<path d="M499.542 589.082L498.375 574.937" stroke="#FF9A6A" stroke-miterlimit="10"/>
<path d="M489.613 599.551L512.468 595.022" stroke="#FF9A6A" stroke-miterlimit="10"/>
<path d="M483.691 605.404L482.176 584.291" stroke="#FF9A6A" stroke-miterlimit="10"/>
<path d="M476.008 613.557L496.912 614.445" stroke="#FF9A6A" stroke-miterlimit="10"/>
<path d="M469.267 620.507L467.246 605.038" stroke="#FF9A6A" stroke-miterlimit="10"/>
<path d="M94.3195 545.009C107.89 560.303 130.989 561.958 130.989 561.958C130.989 561.958 132.103 538.825 118.551 523.53C104.998 508.235 81.9687 506.598 81.9687 506.598C81.9687 506.598 80.7667 529.731 94.3195 545.009Z" fill="#FF9A6A"/>
<path opacity="0.6" d="M94.3195 545.009C107.89 560.303 130.989 561.958 130.989 561.958C130.989 561.958 132.103 538.825 118.551 523.53C104.998 508.235 81.9687 506.598 81.9687 506.598C81.9687 506.598 80.7667 529.731 94.3195 545.009Z" fill="white"/>
<path d="M113.742 490.659C113.742 525.899 141.614 554.468 141.614 554.468C141.614 554.468 169.486 525.899 169.486 490.659C169.486 455.418 141.614 426.849 141.614 426.849C141.614 426.849 113.742 455.418 113.742 490.659Z" fill="#FF9A6A"/>
<path opacity="0.6" d="M113.742 490.659C113.742 525.899 141.614 554.468 141.614 554.468C141.614 554.468 169.486 525.899 169.486 490.659C169.486 455.418 141.614 426.849 141.614 426.849C141.614 426.849 113.742 455.418 113.742 490.659Z" fill="white"/>
<path d="M141.58 554.468V426.849" stroke="#FF9A6A" stroke-miterlimit="10"/>
<path d="M141.579 472.211L125.953 458.571" stroke="#FF9A6A" stroke-miterlimit="10"/>
<path d="M141.824 493.306L161.178 465.26" stroke="#FF9A6A" stroke-miterlimit="10"/>
<path d="M141.58 505.465L118.516 484.875" stroke="#FF9A6A" stroke-miterlimit="10"/>
<path d="M141.824 521.84L164.662 501.494" stroke="#FF9A6A" stroke-miterlimit="10"/>
<path d="M141.824 535.985L123.969 521.84" stroke="#FF9A6A" stroke-miterlimit="10"/>
<path d="M130.988 561.958L81.8809 506.598" stroke="#FF9A6A" stroke-miterlimit="10"/>
<path d="M99.3362 526.265L87.3164 526.37" stroke="#FF9A6A" stroke-miterlimit="10"/>
<path d="M107.558 535.323L105.172 515.708" stroke="#FF9A6A" stroke-miterlimit="10"/>
<path d="M112.122 540.689L94.1973 540.637" stroke="#FF9A6A" stroke-miterlimit="10"/>
<path d="M118.533 547.709L120.606 530.098" stroke="#FF9A6A" stroke-miterlimit="10"/>
<path d="M123.968 553.841L110.781 554.572" stroke="#FF9A6A" stroke-miterlimit="10"/>
<path d="M165.463 522.99C151.231 537.658 151.301 560.826 151.301 560.826C151.301 560.826 174.452 560.216 188.684 545.549C202.916 530.881 202.847 507.73 202.847 507.73C202.847 507.73 179.695 508.27 165.463 522.99Z" fill="#FF9A6A"/>
<path opacity="0.6" d="M165.463 522.99C151.231 537.658 151.301 560.826 151.301 560.826C151.301 560.826 174.452 560.216 188.684 545.549C202.916 530.881 202.847 507.73 202.847 507.73C202.847 507.73 179.695 508.27 165.463 522.99Z" fill="white"/>
<path d="M151.301 560.826L202.847 507.73" stroke="#FF9A6A" stroke-miterlimit="10"/>
<path d="M184.52 526.596L183.527 514.611" stroke="#FF9A6A" stroke-miterlimit="10"/>
<path d="M176.105 535.48L195.477 531.63" stroke="#FF9A6A" stroke-miterlimit="10"/>
<path d="M171.088 540.427L169.816 522.537" stroke="#FF9A6A" stroke-miterlimit="10"/>
<path d="M164.592 547.343L182.291 548.092" stroke="#FF9A6A" stroke-miterlimit="10"/>
<path d="M158.877 553.231L157.152 540.131" stroke="#FF9A6A" stroke-miterlimit="10"/>
<path d="M40.0035 629.043C48.5045 638.624 62.9805 639.669 62.9805 639.669C62.9805 639.669 63.6773 625.176 55.1764 615.595C46.6754 606.014 32.1994 604.969 32.1994 604.969C32.1994 604.969 31.5026 619.462 40.0035 629.043Z" fill="#FF9A6A"/>
<path opacity="0.6" d="M40.0035 629.043C48.5045 638.624 62.9805 639.669 62.9805 639.669C62.9805 639.669 63.6773 625.176 55.1764 615.595C46.6754 606.014 32.1994 604.969 32.1994 604.969C32.1994 604.969 31.5026 619.462 40.0035 629.043Z" fill="white"/>
<path d="M52.127 594.987C52.127 617.075 69.547 635.053 69.547 635.053C69.547 635.053 86.967 617.145 86.967 594.987C86.967 572.828 69.547 555.008 69.547 555.008C69.547 555.008 52.127 572.898 52.127 594.987Z" fill="#FF9A6A"/>
<path opacity="0.6" d="M52.127 594.987C52.127 617.075 69.547 635.053 69.547 635.053C69.547 635.053 86.967 617.145 86.967 594.987C86.967 572.828 69.547 555.008 69.547 555.008C69.547 555.008 52.127 572.898 52.127 594.987Z" fill="white"/>
<path d="M69.6172 634.983V555.008" stroke="#FF9A6A" stroke-width="0.5" stroke-miterlimit="10"/>
<path d="M69.6182 583.42L59.8281 574.884" stroke="#FF9A6A" stroke-width="0.5" stroke-miterlimit="10"/>
<path d="M69.7734 596.642L81.8978 579.083" stroke="#FF9A6A" stroke-width="0.5" stroke-miterlimit="10"/>
<path d="M69.6168 604.255L55.1582 591.364" stroke="#FF9A6A" stroke-width="0.5" stroke-miterlimit="10"/>
<path d="M69.7734 614.515L84.0753 601.781" stroke="#FF9A6A" stroke-width="0.5" stroke-miterlimit="10"/>
<path d="M69.7753 623.381L58.5742 614.515" stroke="#FF9A6A" stroke-width="0.5" stroke-miterlimit="10"/>
<path d="M62.9804 639.669L32.1992 604.969" stroke="#FF9A6A" stroke-width="0.5" stroke-miterlimit="10"/>
<path d="M43.1386 617.302L35.5957 617.354" stroke="#FF9A6A" stroke-width="0.5" stroke-miterlimit="10"/>
<path d="M48.295 622.981L46.7969 610.682" stroke="#FF9A6A" stroke-width="0.5" stroke-miterlimit="10"/>
<path d="M51.1519 626.343L39.916 626.308" stroke="#FF9A6A" stroke-width="0.5" stroke-miterlimit="10"/>
<path d="M55.1758 630.733L56.4648 619.706" stroke="#FF9A6A" stroke-width="0.5" stroke-miterlimit="10"/>
<path d="M58.5909 634.583L50.3164 635.035" stroke="#FF9A6A" stroke-width="0.5" stroke-miterlimit="10"/>
<path d="M84.5815 615.246C75.6624 624.444 75.6973 638.955 75.6973 638.955C75.6973 638.955 90.2081 638.572 99.1272 629.391C108.046 620.211 108.011 605.683 108.011 605.683C108.011 605.683 93.5005 606.066 84.5815 615.246Z" fill="#FF9A6A"/>
<path opacity="0.6" d="M84.5815 615.246C75.6624 624.444 75.6973 638.955 75.6973 638.955C75.6973 638.955 90.2081 638.572 99.1272 629.391C108.046 620.211 108.011 605.683 108.011 605.683C108.011 605.683 93.5005 606.066 84.5815 615.246Z" fill="white"/>
<path d="M75.6973 638.955L108.011 605.683" stroke="#FF9A6A" stroke-width="0.5" stroke-miterlimit="10"/>
<path d="M96.5314 617.511L95.9043 610.003" stroke="#FF9A6A" stroke-width="0.5" stroke-miterlimit="10"/>
<path d="M91.2539 623.068L103.396 620.664" stroke="#FF9A6A" stroke-width="0.5" stroke-miterlimit="10"/>
<path d="M88.1175 626.169L87.2988 614.968" stroke="#FF9A6A" stroke-width="0.5" stroke-miterlimit="10"/>
<path d="M84.0234 630.506L95.1374 630.977" stroke="#FF9A6A" stroke-width="0.5" stroke-miterlimit="10"/>
<path d="M80.4531 634.199L79.373 625.995" stroke="#FF9A6A" stroke-width="0.5" stroke-miterlimit="10"/>
<path d="M326.266 556.785C334.749 566.366 349.225 567.411 349.225 567.411C349.225 567.411 349.939 552.918 341.438 543.337C332.937 533.756 318.461 532.71 318.461 532.71C318.461 532.71 317.799 547.204 326.266 556.785Z" fill="#FF9A6A"/>
<path opacity="0.6" d="M326.266 556.785C334.749 566.366 349.225 567.411 349.225 567.411C349.225 567.411 349.939 552.918 341.438 543.337C332.937 533.756 318.461 532.71 318.461 532.71C318.461 532.71 317.799 547.204 326.266 556.785Z" fill="white"/>
<path d="M338.461 522.729C338.461 544.817 355.881 562.795 355.881 562.795C355.881 562.795 373.301 544.887 373.301 522.729C373.301 500.571 355.881 482.75 355.881 482.75C355.881 482.75 338.461 500.658 338.461 522.729Z" fill="#FF9A6A"/>
<path opacity="0.6" d="M338.461 522.729C338.461 544.817 355.881 562.795 355.881 562.795C355.881 562.795 373.301 544.887 373.301 522.729C373.301 500.571 355.881 482.75 355.881 482.75C355.881 482.75 338.461 500.658 338.461 522.729Z" fill="white"/>
<path d="M355.916 562.725V482.75" stroke="#FF9A6A" stroke-width="0.5" stroke-miterlimit="10"/>
<path d="M355.915 511.179L346.107 502.626" stroke="#FF9A6A" stroke-width="0.5" stroke-miterlimit="10"/>
<path d="M356.072 524.384L368.197 506.824" stroke="#FF9A6A" stroke-width="0.5" stroke-miterlimit="10"/>
<path d="M355.916 532.014L341.457 519.105" stroke="#FF9A6A" stroke-width="0.5" stroke-miterlimit="10"/>
<path d="M356.072 542.274L370.374 529.522" stroke="#FF9A6A" stroke-width="0.5" stroke-miterlimit="10"/>
<path d="M356.072 551.123L344.871 542.274" stroke="#FF9A6A" stroke-width="0.5" stroke-miterlimit="10"/>
<path d="M349.26 567.411L318.496 532.71" stroke="#FF9A6A" stroke-width="0.5" stroke-miterlimit="10"/>
<path d="M329.437 545.044L321.895 545.114" stroke="#FF9A6A" stroke-width="0.5" stroke-miterlimit="10"/>
<path d="M334.594 550.722L333.096 538.441" stroke="#FF9A6A" stroke-width="0.5" stroke-miterlimit="10"/>
<path d="M337.451 554.085L326.215 554.05" stroke="#FF9A6A" stroke-width="0.5" stroke-miterlimit="10"/>
<path d="M341.475 558.475L342.764 547.448" stroke="#FF9A6A" stroke-width="0.5" stroke-miterlimit="10"/>
<path d="M344.87 562.324L336.613 562.777" stroke="#FF9A6A" stroke-width="0.5" stroke-miterlimit="10"/>
<path d="M370.878 542.988C361.959 552.186 361.994 566.697 361.994 566.697C361.994 566.697 376.505 566.314 385.424 557.133C394.343 547.953 394.291 533.425 394.291 533.425C394.291 533.425 379.797 533.808 370.878 542.988Z" fill="#FF9A6A"/>
<path opacity="0.6" d="M370.878 542.988C361.959 552.186 361.994 566.697 361.994 566.697C361.994 566.697 376.505 566.314 385.424 557.133C394.343 547.953 394.291 533.425 394.291 533.425C394.291 533.425 379.797 533.808 370.878 542.988Z" fill="white"/>
<path d="M361.994 566.697L394.291 533.425" stroke="#FF9A6A" stroke-width="0.5" stroke-miterlimit="10"/>
<path d="M382.811 545.253L382.201 537.745" stroke="#FF9A6A" stroke-width="0.5" stroke-miterlimit="10"/>
<path d="M377.551 550.81L389.693 548.406" stroke="#FF9A6A" stroke-width="0.5" stroke-miterlimit="10"/>
<path d="M374.397 553.928L373.596 542.709" stroke="#FF9A6A" stroke-width="0.5" stroke-miterlimit="10"/>
<path d="M370.322 558.248L381.419 558.718" stroke="#FF9A6A" stroke-width="0.5" stroke-miterlimit="10"/>
<path d="M366.75 561.941L365.67 553.736" stroke="#FF9A6A" stroke-width="0.5" stroke-miterlimit="10"/>
<path d="M520.342 252.527C529.558 251.622 536.317 243.591 536.317 243.591C536.317 243.591 528.129 237.024 518.897 237.929C517.775 238.035 516.666 238.251 515.587 238.574C517.194 235.952 518.05 232.939 518.06 229.864C516.265 230.012 514.502 230.435 512.834 231.118C515.691 205.702 506.668 179.903 485.868 157.954C486.691 158.106 487.523 158.205 488.359 158.25C497.975 158.668 506.093 151.387 506.093 151.387C506.093 151.387 499.125 144.018 490.014 143.112C492.1 141.946 494.056 140.562 495.85 138.984C508.236 127.957 509.542 109.196 509.542 109.196C509.542 109.196 490.763 108.325 478.378 119.351C476.877 120.699 475.496 122.173 474.249 123.759C473.81 118.26 471.869 112.988 468.64 108.516C467.575 109.428 466.579 110.418 465.661 111.478C453.136 70.6103 415.422 42.6512 365.252 38.1046C366.274 36.5695 367.127 34.9282 367.796 33.2096C367.796 33.2096 359.782 30.5617 352.745 33.5406C353.816 31.8578 354.704 30.0649 355.392 28.1926C360.078 15.2147 353.65 1 353.65 1C353.65 1 339.575 7.79379 334.889 20.7543C334.327 22.3351 333.902 23.9611 333.617 25.6145C331.123 21.7653 327.615 18.6791 323.479 16.6954C322.724 18.6753 322.215 20.7405 321.964 22.8447C299.986 9.1883 274.359 2.57556 248.517 3.89255C222.675 5.20954 197.853 14.3934 177.378 30.2133C177.348 26.3921 176.486 22.6231 174.852 19.1691C174.852 19.1691 167.431 23.2453 164.835 30.405C164.329 28.4784 163.622 26.6101 162.727 24.8306C156.421 12.6366 141.614 7.60217 141.614 7.60217C141.614 7.60217 136.981 22.5311 143.356 34.7948C144.119 36.285 145.017 37.702 146.039 39.0279C141.523 38.2395 136.878 38.7034 132.608 40.3692C133.157 41.5108 133.798 42.6061 134.524 43.6442C90.0162 51.5703 57.4756 78.2751 46.2572 115.293C44.8042 114.11 43.2475 113.06 41.606 112.157C41.606 112.157 37.2336 121.302 39.6724 130.134C37.8352 128.605 35.8376 127.279 33.7148 126.18C18.9774 118.585 1 124.125 1 124.125C1 124.125 6.94023 141.963 21.695 149.54C23.4925 150.463 25.3699 151.221 27.3042 151.805C22.3332 154.189 18.1145 157.896 15.1102 162.518C19.1289 164.67 23.5711 165.913 28.1229 166.159C-10.5843 210.249 -4.26083 267.056 46.3268 306.042C46.3268 309.526 46.3268 312.818 46.6752 316.128C42.449 315.742 38.1884 316.216 34.1503 317.521C34.1503 317.521 37.791 326.98 45.9088 331.231C43.5354 331.542 41.2004 332.096 38.9408 332.886C23.2628 338.425 15.0405 355.288 15.0405 355.288C15.0405 355.288 32.0947 363.179 47.7204 357.64C49.6232 356.968 51.4601 356.122 53.2077 355.114C52.6088 356.745 52.1996 358.44 51.9883 360.166C51.9788 360.357 51.9788 360.549 51.9883 360.74C51.6447 364.293 51.8919 367.878 52.72 371.349C56.7125 369.999 60.3959 367.867 63.5552 365.078H63.8514C64.1301 365.479 64.4262 365.862 64.7224 366.245C63.6958 367.177 62.7408 368.184 61.8655 369.259C53.26 380.042 54.8104 395.58 54.8104 395.58C54.8104 395.58 70.1922 393.647 78.9022 382.846L79.2506 382.359C81.5675 384.414 83.8321 386.086 86.358 387.95C87.4555 388.856 88.1 389.449 88.7794 389.884C111.042 405.562 140.708 413.819 174.625 412.095C226.99 458.606 302.07 457.09 351.908 408.523C382.986 408.854 410.091 400.928 430.873 386.94C432.199 389.708 434.26 392.058 436.831 393.734C438.492 390.7 439.14 387.215 438.677 383.787C439.636 384.723 440.693 385.553 441.831 386.261C449.704 391.121 459.947 388.804 459.947 388.804C459.947 388.804 457.404 378.631 449.495 373.771C448.931 373.427 448.35 373.113 447.753 372.83C448.485 372.063 449.199 371.297 449.896 370.53C451.363 369.493 452.666 368.243 453.763 366.82L453.31 366.541C468.257 348.006 476.078 324.193 474.336 297.366C490.014 284.18 500.815 269.338 507.068 253.816C507.867 255.729 509.116 257.42 510.709 258.746C513.708 260.808 517.325 261.774 520.952 261.481C520.439 258.065 518.845 254.903 516.406 252.458C517.712 252.616 519.031 252.639 520.342 252.527Z" fill="#FF9A6A" stroke="#263238" stroke-miterlimit="10"/>
<path opacity="0.1" d="M520.342 252.527C529.558 251.622 536.317 243.591 536.317 243.591C536.317 243.591 528.129 237.024 518.897 237.929C517.775 238.035 516.666 238.251 515.587 238.574C517.194 235.952 518.05 232.939 518.06 229.864C516.265 230.012 514.502 230.435 512.834 231.118C515.691 205.702 506.668 179.903 485.868 157.954C486.691 158.106 487.523 158.205 488.359 158.25C497.975 158.668 506.093 151.387 506.093 151.387C506.093 151.387 499.125 144.018 490.014 143.112C492.1 141.946 494.056 140.562 495.85 138.984C508.236 127.957 509.542 109.196 509.542 109.196C509.542 109.196 490.763 108.325 478.378 119.351C476.877 120.699 475.496 122.173 474.249 123.759C473.81 118.26 471.869 112.988 468.64 108.516C467.575 109.428 466.579 110.418 465.661 111.478C453.136 70.6103 415.422 42.6512 365.252 38.1046C366.274 36.5695 367.127 34.9282 367.796 33.2096C367.796 33.2096 359.782 30.5617 352.745 33.5406C353.816 31.8578 354.704 30.0649 355.392 28.1926C360.078 15.2147 353.65 1 353.65 1C353.65 1 339.575 7.79379 334.889 20.7543C334.327 22.3351 333.902 23.9611 333.617 25.6145C331.123 21.7653 327.615 18.6791 323.479 16.6954C322.724 18.6753 322.215 20.7405 321.964 22.8447C299.986 9.1883 274.359 2.57556 248.517 3.89255C222.675 5.20954 197.853 14.3934 177.378 30.2133C177.348 26.3921 176.486 22.6231 174.852 19.1691C174.852 19.1691 167.431 23.2453 164.835 30.405C164.329 28.4784 163.622 26.6101 162.727 24.8306C156.421 12.6366 141.614 7.60217 141.614 7.60217C141.614 7.60217 136.981 22.5311 143.356 34.7948C144.119 36.285 145.017 37.702 146.039 39.0279C141.523 38.2395 136.878 38.7034 132.608 40.3692C133.157 41.5108 133.798 42.6061 134.524 43.6442C90.0162 51.5703 57.4756 78.2751 46.2572 115.293C44.8042 114.11 43.2475 113.06 41.606 112.157C41.606 112.157 37.2336 121.302 39.6724 130.134C37.8352 128.605 35.8376 127.279 33.7148 126.18C18.9774 118.585 1 124.125 1 124.125C1 124.125 6.94023 141.963 21.695 149.54C23.4925 150.463 25.3699 151.221 27.3042 151.805C22.3332 154.189 18.1145 157.896 15.1102 162.518C19.1289 164.67 23.5711 165.913 28.1229 166.159C-10.5843 210.249 -4.26083 267.056 46.3268 306.042C46.3268 309.526 46.3268 312.818 46.6752 316.128C42.449 315.742 38.1884 316.216 34.1503 317.521C34.1503 317.521 37.791 326.98 45.9088 331.231C43.5354 331.542 41.2004 332.096 38.9408 332.886C23.2628 338.425 15.0405 355.288 15.0405 355.288C15.0405 355.288 32.0947 363.179 47.7204 357.64C49.6232 356.968 51.4601 356.122 53.2077 355.114C52.7577 356.317 52.4194 357.559 52.1974 358.824C51.9683 360.09 51.8344 361.371 51.7967 362.657C51.7284 363.817 51.7284 364.98 51.7967 366.141C51.7967 367.081 51.9709 368.022 52.1277 368.945C52.2148 369.555 52.3367 370.165 52.4761 370.687C52.4761 370.879 52.4761 371.053 52.598 371.245C56.5905 369.895 60.274 367.763 63.4333 364.973H63.7294C64.0081 365.374 64.3043 365.757 64.6004 366.141C63.5739 367.072 62.6189 368.079 61.7435 369.154C53.1381 379.937 54.6885 395.476 54.6885 395.476C54.6885 395.476 70.1922 393.647 78.9022 382.846L79.2506 382.359C81.5675 384.414 83.5185 385.843 86.027 387.724C87.438 388.752 88.1174 389.466 88.7794 389.884C111.042 405.562 140.708 413.819 174.625 412.095C226.99 458.606 302.07 457.09 351.908 408.523C382.986 408.854 410.091 400.928 430.873 386.94C432.199 389.708 434.26 392.058 436.831 393.734C438.492 390.7 439.14 387.215 438.677 383.787C439.636 384.723 440.693 385.553 441.831 386.261C449.704 391.121 459.947 388.804 459.947 388.804C459.947 388.804 457.404 378.631 449.495 373.771C448.931 373.427 448.35 373.113 447.753 372.83C448.485 372.063 449.199 371.297 449.896 370.53C451.363 369.493 452.666 368.243 453.763 366.82L453.31 366.541C468.257 348.006 476.078 324.193 474.336 297.366C490.014 284.18 500.815 269.338 507.068 253.816C507.867 255.729 509.116 257.42 510.709 258.746C513.708 260.808 517.325 261.774 520.952 261.481C520.439 258.065 518.845 254.903 516.406 252.458C517.712 252.616 519.031 252.639 520.342 252.527Z" fill="black"/>
<path d="M389.5 612.634C362.047 608.244 324.158 589.012 324.158 553.406C324.158 517.799 318.671 312.557 324.158 298.83C329.645 285.103 341.735 290.12 353.772 294.44C359.44 296.64 364.302 300.518 367.708 305.554C368.092 306.129 368.6 306.612 369.193 306.967C369.787 307.322 370.452 307.541 371.14 307.608C371.829 307.674 372.523 307.587 373.174 307.353C373.825 307.118 374.415 306.742 374.903 306.251C375.369 305.736 375.71 305.121 375.899 304.453C376.089 303.785 376.122 303.083 375.995 302.4C375.869 301.717 375.587 301.073 375.171 300.517C374.754 299.961 374.216 299.509 373.596 299.196C368.649 296.757 361.925 292.611 360.914 287.855C359.172 280.173 361.454 280.713 364.747 278.518C368.286 275.703 371.654 272.678 374.833 269.46C375.337 269.033 375.745 268.505 376.03 267.909C376.315 267.313 376.47 266.663 376.485 266.003C376.5 265.343 376.375 264.687 376.118 264.078C375.861 263.47 375.478 262.923 374.994 262.474C374.51 262.024 373.936 261.683 373.31 261.472C372.684 261.261 372.021 261.185 371.363 261.249C370.706 261.313 370.07 261.516 369.497 261.845C368.924 262.173 368.427 262.619 368.039 263.154C364.085 268.484 355.166 278.187 343.895 275.783C328.513 272.491 318.078 259.861 322.991 233.975C326.475 216.085 340.672 196.609 349.121 186.349C349.754 185.686 350.217 184.878 350.469 183.996C350.722 183.114 350.756 182.184 350.569 181.286C350.382 180.388 349.98 179.549 349.397 178.841C348.814 178.133 348.068 177.577 347.222 177.221C345.871 176.608 344.335 176.541 342.936 177.035C341.536 177.528 340.382 178.544 339.714 179.869C334.749 189.746 321.353 214.099 310.396 213.664C300.763 213.28 289.492 206.957 283.657 203.212C283.271 202.951 282.835 202.773 282.376 202.691C281.918 202.608 281.447 202.622 280.995 202.732C280.542 202.842 280.117 203.045 279.748 203.329C279.378 203.612 279.072 203.97 278.849 204.379C278.461 205.135 278.386 206.014 278.64 206.826C278.894 207.637 279.457 208.316 280.207 208.716C291.687 214.744 303.916 227.216 305.449 232.878C307.104 238.923 303.812 248.8 292.837 269.111C281.862 289.423 251.029 299.858 235.734 277.351C223.54 259.443 220.3 220.004 222.059 202.219C222.154 201.421 222.087 200.612 221.865 199.841C221.642 199.069 221.267 198.35 220.762 197.725C220.258 197.1 219.633 196.582 218.925 196.202C218.218 195.822 217.441 195.588 216.642 195.512C215.831 195.459 215.018 195.574 214.254 195.851C213.49 196.127 212.792 196.559 212.203 197.119C211.614 197.678 211.147 198.354 210.832 199.102C210.516 199.851 210.359 200.657 210.371 201.47C210.58 214.831 216.816 243.278 211.573 258.137C204.988 276.811 183.579 286.131 170.392 276.254C161.124 269.286 163.006 251.448 164.939 241.414C165.131 240.777 165.151 240.101 164.997 239.454C164.843 238.808 164.52 238.213 164.062 237.732C163.604 237.25 163.026 236.899 162.387 236.713C161.749 236.528 161.073 236.515 160.428 236.675C159.54 236.839 158.739 237.308 158.162 238.002C157.586 238.696 157.272 239.571 157.274 240.473C157.274 247.04 156.525 263.589 149.54 267.944C143.791 271.533 138.287 267.16 135.169 263.694C134.556 262.998 133.702 262.563 132.779 262.475C131.857 262.388 130.936 262.655 130.204 263.223C129.806 263.543 129.481 263.943 129.25 264.397C129.019 264.852 128.888 265.35 128.865 265.86C128.842 266.369 128.928 266.877 129.116 267.351C129.305 267.825 129.593 268.252 129.96 268.606C132.242 270.784 136.005 274.337 140.569 278.605C142.206 280.922 144.419 284.964 142.955 288.273C141.492 291.583 133.897 293.256 129.385 293.9C128.976 293.961 128.584 294.109 128.236 294.333C127.888 294.557 127.592 294.853 127.368 295.201C127.144 295.549 126.997 295.941 126.936 296.351C126.875 296.76 126.902 297.178 127.016 297.576V297.715C127.141 298.138 127.359 298.527 127.654 298.855C127.95 299.182 128.315 299.439 128.723 299.606C129.131 299.773 129.572 299.847 130.012 299.821C130.452 299.795 130.881 299.671 131.266 299.457C137.346 296.269 151.648 295.973 154.818 296.078C170.914 297.105 186.662 307.279 195.215 320.744C203.768 334.21 203.333 352.71 204.291 368.162C206.486 403.838 207.148 568.108 197.811 581.835C188.474 595.562 154.261 613.958 154.261 613.958" fill="white"/>
<path d="M389.5 612.634C362.047 608.244 324.158 589.012 324.158 553.406C324.158 517.799 318.671 312.557 324.158 298.83C329.645 285.103 341.735 290.12 353.772 294.44C359.44 296.64 364.302 300.518 367.708 305.554C368.092 306.129 368.6 306.612 369.193 306.967C369.787 307.322 370.452 307.541 371.14 307.608C371.829 307.674 372.523 307.587 373.174 307.353C373.825 307.118 374.415 306.742 374.903 306.251C375.369 305.736 375.71 305.121 375.899 304.453C376.089 303.785 376.122 303.083 375.995 302.4C375.869 301.717 375.587 301.073 375.171 300.517C374.754 299.961 374.216 299.509 373.596 299.196C368.649 296.757 361.925 292.611 360.914 287.855C359.172 280.173 361.454 280.713 364.747 278.518C368.286 275.703 371.654 272.678 374.833 269.46C375.337 269.033 375.745 268.505 376.03 267.909C376.315 267.313 376.47 266.663 376.485 266.003C376.5 265.343 376.375 264.687 376.118 264.078C375.861 263.47 375.478 262.923 374.994 262.474C374.51 262.024 373.936 261.683 373.31 261.472C372.684 261.261 372.021 261.185 371.363 261.249C370.706 261.313 370.07 261.516 369.497 261.845C368.924 262.173 368.427 262.619 368.039 263.154C364.085 268.484 355.166 278.187 343.895 275.783C328.513 272.491 318.078 259.861 322.991 233.975C326.475 216.085 340.672 196.609 349.121 186.349C349.754 185.686 350.217 184.878 350.469 183.996C350.722 183.114 350.756 182.184 350.569 181.286C350.382 180.388 349.98 179.549 349.397 178.841C348.814 178.133 348.068 177.577 347.222 177.221C345.871 176.608 344.335 176.541 342.936 177.035C341.536 177.528 340.382 178.544 339.714 179.869C334.749 189.746 321.353 214.099 310.396 213.664C300.763 213.28 289.492 206.957 283.657 203.212C283.271 202.951 282.835 202.773 282.376 202.691C281.918 202.608 281.447 202.622 280.995 202.732C280.542 202.842 280.117 203.045 279.748 203.329C279.378 203.612 279.072 203.97 278.849 204.379C278.461 205.135 278.386 206.014 278.64 206.826C278.894 207.637 279.457 208.316 280.207 208.716C291.687 214.744 303.916 227.216 305.449 232.878C307.104 238.923 303.812 248.8 292.837 269.111C281.862 289.423 251.029 299.858 235.734 277.351C223.54 259.443 220.3 220.004 222.059 202.219C222.154 201.421 222.087 200.612 221.865 199.841C221.642 199.069 221.267 198.35 220.762 197.725C220.258 197.1 219.633 196.582 218.926 196.202C218.218 195.822 217.441 195.588 216.642 195.512C215.831 195.459 215.018 195.574 214.254 195.851C213.49 196.127 212.792 196.559 212.203 197.119C211.614 197.678 211.147 198.354 210.832 199.102C210.516 199.851 210.359 200.657 210.371 201.47C210.58 214.831 216.816 243.278 211.573 258.137C204.988 276.811 183.579 286.131 170.392 276.254C161.124 269.286 163.006 251.448 164.939 241.414C165.131 240.777 165.151 240.101 164.997 239.454C164.843 238.808 164.52 238.213 164.062 237.732C163.604 237.25 163.026 236.899 162.387 236.713C161.749 236.528 161.073 236.515 160.428 236.675C159.54 236.839 158.739 237.308 158.162 238.002C157.586 238.696 157.272 239.571 157.274 240.473C157.274 247.04 156.525 263.589 149.54 267.944C143.791 271.533 138.287 267.16 135.169 263.694C134.556 262.998 133.702 262.563 132.779 262.475C131.857 262.388 130.936 262.655 130.204 263.223C129.806 263.543 129.481 263.943 129.25 264.397C129.019 264.852 128.888 265.35 128.865 265.86C128.842 266.369 128.928 266.877 129.116 267.351C129.305 267.825 129.593 268.252 129.96 268.606C132.242 270.784 136.005 274.337 140.569 278.605C142.206 280.922 144.419 284.964 142.955 288.273C141.492 291.583 133.897 293.256 129.385 293.9C128.976 293.961 128.584 294.109 128.236 294.333C127.888 294.557 127.592 294.853 127.368 295.201C127.144 295.549 126.997 295.941 126.936 296.351C126.875 296.76 126.902 297.178 127.016 297.576V297.715C127.141 298.138 127.359 298.527 127.654 298.855C127.95 299.182 128.315 299.439 128.723 299.606C129.131 299.773 129.572 299.847 130.012 299.821C130.452 299.795 130.881 299.671 131.266 299.457C137.346 296.269 151.648 295.973 154.818 296.078C170.914 297.105 186.662 307.279 195.215 320.744C203.768 334.21 203.333 352.71 204.291 368.162C206.486 403.838 207.148 568.108 197.811 581.835C188.474 595.562 154.261 613.958 154.261 613.958" stroke="#263238" stroke-width="0.75" stroke-linecap="round" stroke-linejoin="round"/>
<path d="M389.5 612.634C362.047 608.244 324.158 589.012 324.158 553.406C324.158 517.799 318.671 312.557 324.158 298.83C329.645 285.103 341.735 290.12 353.772 294.44C359.44 296.64 364.302 300.518 367.708 305.554C368.092 306.129 368.6 306.612 369.193 306.967C369.787 307.322 370.452 307.541 371.14 307.608C371.829 307.674 372.523 307.587 373.174 307.353C373.825 307.118 374.415 306.742 374.903 306.251C375.369 305.736 375.71 305.121 375.899 304.453C376.089 303.785 376.122 303.083 375.995 302.4C375.869 301.717 375.587 301.073 375.171 300.517C374.754 299.961 374.216 299.509 373.596 299.196C368.649 296.757 361.925 292.611 360.914 287.855C359.172 280.173 361.454 280.713 364.747 278.518C368.286 275.703 371.654 272.678 374.833 269.46C375.337 269.033 375.745 268.505 376.03 267.909C376.315 267.313 376.47 266.663 376.485 266.003C376.5 265.343 376.375 264.687 376.118 264.078C375.861 263.47 375.478 262.923 374.994 262.474C374.51 262.024 373.936 261.683 373.31 261.472C372.684 261.261 372.021 261.185 371.363 261.249C370.706 261.313 370.07 261.516 369.497 261.845C368.924 262.173 368.427 262.619 368.039 263.154C364.085 268.484 355.166 278.187 343.895 275.783C328.513 272.491 318.078 259.861 322.991 233.975C326.475 216.085 340.672 196.609 349.121 186.349C349.754 185.686 350.217 184.878 350.469 183.996C350.722 183.114 350.756 182.184 350.569 181.286C350.382 180.388 349.98 179.549 349.397 178.841C348.814 178.133 348.068 177.577 347.222 177.221C345.871 176.608 344.335 176.541 342.936 177.035C341.536 177.528 340.382 178.544 339.714 179.869C334.749 189.746 321.353 214.099 310.396 213.664C300.763 213.28 289.492 206.957 283.657 203.212C283.271 202.951 282.835 202.773 282.376 202.691C281.918 202.608 281.447 202.622 280.995 202.732C280.542 202.842 280.117 203.045 279.748 203.329C279.378 203.612 279.072 203.97 278.849 204.379C278.461 205.135 278.386 206.014 278.64 206.826C278.894 207.637 279.457 208.316 280.207 208.716C291.687 214.744 303.916 227.216 305.449 232.878C307.104 238.923 303.812 248.8 292.837 269.111C281.862 289.423 251.029 299.858 235.734 277.351C223.54 259.443 220.3 220.004 222.059 202.219C222.154 201.421 222.087 200.612 221.865 199.841C221.642 199.069 221.267 198.35 220.762 197.725C220.258 197.1 219.633 196.582 218.925 196.202C218.218 195.822 217.441 195.588 216.642 195.512C215.831 195.459 215.018 195.574 214.254 195.851C213.49 196.127 212.792 196.559 212.203 197.119C211.614 197.678 211.147 198.354 210.832 199.102C210.516 199.851 210.359 200.657 210.371 201.47C210.58 214.831 216.816 243.278 211.573 258.137C204.988 276.811 183.579 286.131 170.392 276.254C161.124 269.286 163.006 251.448 164.939 241.414C165.131 240.777 165.151 240.101 164.997 239.454C164.843 238.808 164.52 238.213 164.062 237.732C163.604 237.25 163.026 236.899 162.387 236.713C161.749 236.528 161.073 236.515 160.428 236.675C159.54 236.839 158.739 237.308 158.162 238.002C157.586 238.696 157.272 239.571 157.274 240.473C157.274 247.04 156.525 263.589 149.54 267.944C143.791 271.533 138.287 267.16 135.169 263.694C134.556 262.998 133.702 262.563 132.779 262.475C131.857 262.388 130.936 262.655 130.204 263.223C129.806 263.543 129.481 263.943 129.25 264.397C129.019 264.852 128.888 265.35 128.865 265.86C128.842 266.369 128.928 266.877 129.116 267.351C129.305 267.825 129.593 268.252 129.96 268.606C132.242 270.784 136.005 274.337 140.569 278.605C142.206 280.922 144.419 284.964 142.955 288.273C141.492 291.583 133.897 293.256 129.385 293.9C128.976 293.961 128.584 294.109 128.236 294.333C127.888 294.557 127.592 294.853 127.368 295.201C127.144 295.549 126.997 295.941 126.936 296.351C126.875 296.76 126.902 297.178 127.016 297.576V297.715C127.141 298.138 127.359 298.527 127.654 298.855C127.95 299.182 128.315 299.439 128.723 299.606C129.131 299.773 129.572 299.847 130.012 299.821C130.452 299.795 130.881 299.671 131.266 299.457C137.346 296.269 151.648 295.973 154.818 296.078C170.914 297.105 186.662 307.279 195.215 320.744C203.768 334.21 203.333 352.71 204.291 368.162C206.486 403.838 207.148 568.108 197.811 581.835C188.474 595.562 154.261 613.958 154.261 613.958" fill="white"/>
<g style="mix-blend-mode:multiply" opacity="0.5">
<path d="M381.367 612.669C376.588 611.306 371.927 609.558 367.431 607.443C367.431 607.443 364.591 605.944 360.323 603.209C347.415 596.781 335.622 587.305 329.194 574.658C328.758 573.996 328.34 573.352 327.939 572.69L327.748 571.54C325.341 565.767 324.109 559.573 324.125 553.319C324.125 549.73 324.125 544.417 323.968 537.797C323.323 528.913 322.94 519.315 323.201 510.274C323.201 507.678 323.306 503.933 323.341 499.317C322.452 449.095 321.233 378.631 321.86 335.778C321.703 324.925 321.616 318.271 321.616 318.271C321.616 318.271 321.86 317.382 322.365 316.023C322.748 306.913 323.323 300.763 324.107 298.743C329.594 285.016 341.684 290.033 353.721 294.353C359.389 296.553 364.251 300.43 367.657 305.467C368.326 306.43 369.325 307.115 370.464 307.391C371.604 307.667 372.806 307.515 373.841 306.965C371.124 304.666 367.622 301.6 362.64 297.732C348.425 286.671 332.625 278.779 319.195 289.841C305.764 300.903 295.486 328.548 295.486 345.132V488.934C295.486 488.934 297.855 500.78 289.964 496.042C282.073 491.303 293.117 455.749 283.64 439.165C274.164 422.581 275.749 448.659 277.491 466.044C279.233 483.43 277.491 525.272 274.321 529.244C271.15 533.216 268.799 508.706 267.213 516.615C265.628 524.523 268.799 557.691 268.799 563.231C268.799 568.77 271.952 572.707 279.86 574.292C287.769 575.877 287.769 588.507 291.706 598.785C294.371 605.753 300.242 612.233 303.325 613.139H304.527C305.224 612.825 305.503 611.798 305.137 609.864C303.569 601.154 287.612 591.886 295.591 581.905C303.569 571.923 317.784 582.985 319.369 585.389C320.954 587.793 346.283 601.798 349.802 604.655C353.32 607.512 358.808 606.153 353.948 612.878L381.367 612.669Z" fill="#FF9A6A"/>
</g>
<g style="mix-blend-mode:multiply" opacity="0.5">
<path d="M206.295 409.412C206.295 409.412 212.444 465.33 214.9 455.505C217.357 445.681 213.054 357.187 219.203 369.468C225.352 381.749 220.423 497.279 220.423 507.731C220.423 518.183 224.725 507.121 224.725 488.063C224.725 469.006 225.352 405.109 227.809 428.47C230.265 451.83 227.182 542.762 227.182 556.89C227.182 571.017 222.879 588.246 216.73 590.685C210.58 593.123 209.971 588.838 204.431 588.838C198.891 588.838 176.176 607.896 170.636 610.962C165.097 614.027 156.509 619.567 166.943 608.505C177.378 597.444 199.519 590.685 201.365 572.254C203.212 553.824 205.668 445.088 205.668 445.088L206.295 409.412Z" fill="#FF9A6A"/>
</g>
<path d="M389.5 612.634C362.047 608.244 324.158 589.012 324.158 553.406C324.158 517.799 318.671 312.557 324.158 298.83C329.645 285.103 341.735 290.12 353.772 294.44C359.44 296.64 364.302 300.518 367.708 305.554C368.092 306.129 368.6 306.612 369.193 306.967C369.787 307.322 370.452 307.541 371.14 307.608C371.829 307.674 372.523 307.587 373.174 307.353C373.825 307.118 374.415 306.742 374.903 306.251C375.369 305.736 375.71 305.121 375.899 304.453C376.089 303.785 376.122 303.083 375.995 302.4C375.869 301.717 375.587 301.073 375.171 300.517C374.754 299.961 374.216 299.509 373.596 299.196C368.649 296.757 361.925 292.611 360.914 287.855C359.172 280.173 361.454 280.713 364.747 278.518C368.286 275.703 371.654 272.678 374.833 269.46C375.337 269.033 375.745 268.505 376.03 267.909C376.315 267.313 376.47 266.663 376.485 266.003C376.5 265.343 376.375 264.687 376.118 264.078C375.861 263.47 375.478 262.923 374.994 262.474C374.51 262.024 373.936 261.683 373.31 261.472C372.684 261.261 372.021 261.185 371.363 261.249C370.706 261.313 370.07 261.516 369.497 261.845C368.924 262.173 368.427 262.619 368.039 263.154C364.085 268.484 355.166 278.187 343.895 275.783C328.513 272.491 318.078 259.861 322.991 233.975C326.475 216.085 340.672 196.609 349.121 186.349C349.754 185.686 350.217 184.878 350.469 183.996C350.722 183.114 350.756 182.184 350.569 181.286C350.382 180.388 349.98 179.549 349.397 178.841C348.814 178.133 348.068 177.577 347.222 177.221C345.871 176.608 344.335 176.541 342.936 177.035C341.536 177.528 340.382 178.544 339.714 179.869C334.749 189.746 321.353 214.099 310.396 213.664C300.763 213.28 289.492 206.957 283.657 203.212C283.271 202.951 282.835 202.773 282.376 202.691C281.918 202.608 281.447 202.622 280.995 202.732C280.542 202.842 280.117 203.045 279.748 203.329C279.378 203.612 279.072 203.97 278.849 204.379C278.461 205.135 278.386 206.014 278.64 206.826C278.894 207.637 279.457 208.316 280.207 208.716C291.687 214.744 303.916 227.216 305.449 232.878C307.104 238.923 303.812 248.8 292.837 269.111C281.862 289.423 251.029 299.858 235.734 277.351C223.54 259.443 220.3 220.004 222.059 202.219C222.154 201.421 222.087 200.612 221.865 199.841C221.642 199.069 221.267 198.35 220.762 197.725C220.258 197.1 219.633 196.582 218.926 196.202C218.218 195.822 217.441 195.588 216.642 195.512C215.831 195.459 215.018 195.574 214.254 195.851C213.49 196.127 212.792 196.559 212.203 197.119C211.614 197.678 211.147 198.354 210.832 199.102C210.516 199.851 210.359 200.657 210.371 201.47C210.58 214.831 216.816 243.278 211.573 258.137C204.988 276.811 183.579 286.131 170.392 276.254C161.124 269.286 163.006 251.448 164.939 241.414C165.131 240.777 165.151 240.101 164.997 239.454C164.843 238.808 164.52 238.213 164.062 237.732C163.604 237.25 163.026 236.899 162.387 236.713C161.749 236.528 161.073 236.515 160.428 236.675C159.54 236.839 158.739 237.308 158.162 238.002C157.586 238.696 157.272 239.571 157.274 240.473C157.274 247.04 156.525 263.589 149.54 267.944C143.791 271.533 138.287 267.16 135.169 263.694C134.556 262.998 133.702 262.563 132.779 262.475C131.857 262.388 130.936 262.655 130.204 263.223C129.806 263.543 129.481 263.943 129.25 264.397C129.019 264.852 128.888 265.35 128.865 265.86C128.842 266.369 128.928 266.877 129.116 267.351C129.305 267.825 129.593 268.252 129.96 268.606C132.242 270.784 136.005 274.337 140.569 278.605C142.206 280.922 144.419 284.964 142.955 288.273C141.492 291.583 133.897 293.256 129.385 293.9C128.976 293.961 128.584 294.109 128.236 294.333C127.888 294.557 127.592 294.853 127.368 295.201C127.144 295.549 126.997 295.941 126.936 296.351C126.875 296.76 126.902 297.178 127.016 297.576V297.715C127.141 298.138 127.359 298.527 127.654 298.855C127.95 299.182 128.315 299.439 128.723 299.606C129.131 299.773 129.572 299.847 130.012 299.821C130.452 299.795 130.881 299.671 131.266 299.457C137.346 296.269 151.648 295.973 154.818 296.078C170.914 297.105 186.662 307.279 195.215 320.744C203.768 334.21 203.333 352.71 204.291 368.162C206.486 403.838 207.148 568.108 197.811 581.835C188.474 595.562 154.261 613.958 154.261 613.958" stroke="#263238" stroke-width="0.75" stroke-linecap="round" stroke-linejoin="round"/>
<g style="mix-blend-mode:multiply" opacity="0.5">
<path d="M286.671 277.542C272.961 291.827 248.817 296.46 235.769 277.351C223.575 259.443 220.335 220.004 222.095 202.218C222.189 201.421 222.122 200.612 221.9 199.84C221.677 199.069 221.302 198.349 220.798 197.725C220.293 197.1 219.668 196.582 218.961 196.202C218.253 195.822 217.477 195.587 216.677 195.512C215.866 195.459 215.053 195.574 214.289 195.85C213.525 196.127 212.827 196.559 212.238 197.118C211.649 197.678 211.182 198.353 210.867 199.102C210.551 199.851 210.394 200.657 210.406 201.469C210.615 214.83 216.851 243.277 211.608 258.136C205.023 276.811 183.614 286.13 170.427 276.253C161.159 269.285 163.041 251.447 164.974 241.413C165.167 240.777 165.187 240.101 165.032 239.454C164.878 238.807 164.556 238.213 164.097 237.731C163.639 237.25 163.061 236.899 162.422 236.713C161.784 236.527 161.108 236.514 160.463 236.675C159.575 236.838 158.774 237.308 158.197 238.002C157.621 238.696 157.307 239.57 157.31 240.473C157.31 247.04 156.561 263.589 149.575 267.944C143.827 271.532 138.322 267.16 135.204 263.693C134.591 262.998 133.737 262.562 132.814 262.475C131.892 262.387 130.971 262.655 130.239 263.223C129.841 263.542 129.516 263.942 129.285 264.397C129.055 264.851 128.923 265.35 128.9 265.859C128.877 266.369 128.963 266.877 129.152 267.351C129.34 267.824 129.628 268.252 129.995 268.606C132.277 270.783 136.04 274.337 140.604 278.605C142.241 280.922 144.454 284.963 142.99 288.273C141.527 291.583 133.932 293.255 129.42 293.9C129.011 293.961 128.619 294.108 128.271 294.333C127.924 294.557 127.628 294.853 127.403 295.201C127.179 295.549 127.032 295.941 126.971 296.35C126.91 296.76 126.938 297.177 127.051 297.575V297.715C127.176 298.138 127.394 298.527 127.69 298.854C127.985 299.182 128.35 299.438 128.758 299.606C129.166 299.773 129.607 299.846 130.047 299.821C130.487 299.795 130.916 299.67 131.302 299.457C137.381 296.269 151.683 295.973 154.853 296.077C155.812 296.077 156.787 296.251 157.745 296.373C153.408 291.269 144.053 278.744 157.275 278.744C173.859 278.744 195.198 295.328 204.675 292.175C214.151 289.022 219.691 272.421 223.645 278.744C227.599 285.068 231.536 302.436 250.507 305.606C267.718 308.515 282.316 293.847 286.671 277.542Z" fill="#FF9A6A"/>
</g>
<g style="mix-blend-mode:multiply" opacity="0.5">
<path d="M280.243 208.647C291.722 214.674 303.951 227.147 305.484 232.808C306.791 237.599 304.979 244.793 298.743 257.649C298.882 276.637 300.763 252.597 311.372 232.895C313.624 228.898 316.33 225.174 319.438 221.799C318.753 223.617 318.172 225.472 317.696 227.356C312.173 250.28 312.173 263.711 320.065 272.404C327.956 281.096 338.234 281.88 347.728 280.295C351.403 279.685 355.323 276.201 359.068 272.003C356.94 273.636 354.493 274.803 351.886 275.43C349.278 276.057 346.568 276.13 343.93 275.644C328.548 272.352 318.114 259.722 323.026 233.836C324.768 225.126 328.966 215.963 333.879 207.706C337.934 200.99 342.426 194.548 347.327 188.422L347.449 188.265C348.024 187.551 348.581 186.854 349.191 186.21C349.492 185.843 349.755 185.446 349.975 185.025C350.062 184.868 350.114 184.712 350.184 184.555C350.254 184.398 350.393 184.05 350.463 183.806C350.526 183.589 350.572 183.368 350.602 183.144C350.602 182.952 350.602 182.778 350.689 182.586C350.706 182.325 350.706 182.063 350.689 181.802C350.698 181.669 350.698 181.535 350.689 181.402C350.636 181.108 350.566 180.817 350.48 180.531V180.304C350.367 179.988 350.221 179.684 350.045 179.398L349.957 179.276C349.765 178.956 349.531 178.663 349.261 178.405C348.739 177.862 348.118 177.425 347.432 177.116C346.08 176.503 344.544 176.437 343.145 176.93C341.746 177.424 340.591 178.439 339.924 179.764C334.959 189.641 321.563 213.995 310.606 213.559C300.972 213.176 289.702 206.852 283.866 203.107C283.48 202.846 283.044 202.669 282.586 202.586C282.127 202.504 281.657 202.518 281.204 202.628C280.751 202.738 280.327 202.941 279.957 203.224C279.588 203.508 279.281 203.865 279.058 204.274C278.645 205.013 278.538 205.885 278.759 206.702C278.981 207.519 279.513 208.217 280.243 208.647Z" fill="#FF9A6A"/>
</g>
<g style="mix-blend-mode:multiply" opacity="0.5">
<path d="M263.258 580.877C263.258 580.877 258.137 571.052 243.974 579.692C229.812 588.332 228.296 600.161 218.402 603.314C208.507 606.467 202.271 602.913 200.303 611.17C198.334 619.427 196.366 622.58 197.933 623.765C199.501 624.949 199.118 615.055 204.623 612.755C210.127 610.456 219.97 610.003 227.443 604.045C234.916 598.088 251.848 578.525 263.258 580.877Z" fill="#FF9A6A"/>
</g>
<path d="M184.189 301.948C193.503 307.157 200.434 315.774 203.526 325.987" stroke="#263238" stroke-width="0.75" stroke-linecap="round" stroke-linejoin="round"/>
<path d="M204.867 329.872C205.532 333.859 205.998 337.876 206.261 341.909" stroke="#263238" stroke-width="0.75" stroke-linecap="round" stroke-linejoin="round"/>
<path d="M208.508 359.294C208.508 359.294 212.427 473.326 209.344 516.475" stroke="#263238" stroke-width="0.75" stroke-linecap="round" stroke-linejoin="round"/>
<path d="M209.343 522.363C209.343 522.363 207.95 550.671 207.375 555.148" stroke="#263238" stroke-width="0.75" stroke-linecap="round" stroke-linejoin="round"/>
<path d="M220.266 383.108L220.84 404.116" stroke="#263238" stroke-width="0.75" stroke-linecap="round" stroke-linejoin="round"/>
<path d="M221.119 411.119C221.119 411.119 222.513 489.858 221.398 515.918" stroke="#263238" stroke-width="0.75" stroke-linecap="round" stroke-linejoin="round"/>
<path d="M230.352 482.019L231.205 528.53" stroke="#263238" stroke-width="0.75" stroke-linecap="round" stroke-linejoin="round"/>
<path d="M231.764 533.303L232.042 544.225" stroke="#263238" stroke-width="0.75" stroke-linecap="round" stroke-linejoin="round"/>
<path d="M308.533 229.55C308.533 229.55 310.275 232.634 309.665 239.358C309.072 244.11 307.744 248.741 305.729 253.085" stroke="#263238" stroke-width="0.75" stroke-linecap="round" stroke-linejoin="round"/>
<path d="M304.335 257.283C304.335 257.283 297.611 270.453 295.625 272.7" stroke="#263238" stroke-width="0.75" stroke-linecap="round" stroke-linejoin="round"/>
<path d="M203.734 277.751C200.539 280.687 196.667 282.786 192.463 283.862C188.26 284.938 183.855 284.957 179.643 283.918" stroke="#263238" stroke-width="0.75" stroke-linecap="round" stroke-linejoin="round"/>
<path d="M219.708 533.86V585.981C219.708 585.981 217.461 593.263 203.176 598.576C199.14 599.454 195.546 601.738 193.038 605.021C188.666 610.595 186.662 615.386 181.088 619.776" stroke="#263238" stroke-width="0.75" stroke-linecap="round" stroke-linejoin="round"/>
<path d="M230.927 476.653L228.523 351.072" stroke="#263238" stroke-width="0.75" stroke-linecap="round" stroke-linejoin="round"/>
<path d="M216.172 609.01C216.172 609.01 219.76 609.794 228.923 602.234C238.086 594.674 248.469 580.703 261.621 580.703C274.773 580.703 281.148 588.681 281.148 588.681" stroke="#263238" stroke-width="0.75" stroke-linecap="round" stroke-linejoin="round"/>
<path d="M282.717 591.468C284.164 594.482 285.106 597.713 285.504 601.032" stroke="#263238" stroke-width="0.75" stroke-linecap="round" stroke-linejoin="round"/>
<path d="M301.878 605.021C301.878 605.021 288.326 591.869 295.503 581.887C302.68 571.906 318.619 583.089 326.998 591.068" stroke="#263238" stroke-width="0.75" stroke-linecap="round" stroke-linejoin="round"/>
<path d="M332.973 595.057C332.973 595.057 333.373 597.844 349.713 604.62C349.713 604.62 357.291 608.209 352.518 614.584C348.942 619.088 344.934 623.231 340.55 626.953" stroke="#263238" stroke-width="0.75" stroke-linecap="round" stroke-linejoin="round"/>
<path d="M213.037 609.794C209.721 610.983 207.002 613.421 205.459 616.588C203.072 621.814 203.072 623.364 203.072 623.364" stroke="#263238" stroke-width="0.75" stroke-linecap="round" stroke-linejoin="round"/>
<path d="M382.812 622.563C382.812 622.563 371.245 616.588 363.65 616.588C356.055 616.588 350.898 627.737 350.898 627.737" stroke="#263238" stroke-width="0.75" stroke-linecap="round" stroke-linejoin="round"/>
<path d="M311.703 375.443V523.443" stroke="#263238" stroke-width="0.75" stroke-linecap="round" stroke-linejoin="round"/>
<path d="M317.888 550.758L317.383 476.514" stroke="#263238" stroke-width="0.75" stroke-linecap="round" stroke-linejoin="round"/>
<path d="M311.703 532.658C311.703 532.658 311.198 547.099 311.703 557.412C312.208 567.725 321.51 573.926 321.51 573.926" stroke="#263238" stroke-width="0.75" stroke-linecap="round" stroke-linejoin="round"/>
<path d="M302.418 365.13V416.694" stroke="#263238" stroke-width="0.75" stroke-linecap="round" stroke-linejoin="round"/>
<path d="M240.037 288.778C240.037 288.778 251.378 298.063 265.819 297.035C280.26 296.008 291.078 282.594 291.078 282.594" stroke="#263238" stroke-width="0.75" stroke-linecap="round" stroke-linejoin="round"/>
<path d="M220.946 375.443L220.005 338.321C220.53 328.137 217.445 318.095 211.295 309.961" stroke="#263238" stroke-width="0.75" stroke-linecap="round" stroke-linejoin="round"/>
<path d="M213.733 593.053C213.733 593.053 212.183 586.869 201.87 591.503C191.558 596.137 172.988 612.651 168.877 617.285" stroke="#263238" stroke-width="0.75" stroke-linecap="round" stroke-linejoin="round"/>
<path d="M186.244 190.843C186.244 190.843 212.949 214.116 243.73 188.108L186.244 190.843Z" fill="#FF9A6A"/>
<path d="M186.244 190.843C186.244 190.843 212.949 214.116 243.73 188.108" stroke="#263238" stroke-width="0.75" stroke-linecap="round" stroke-linejoin="round"/>
<path d="M147.207 236.031C147.207 236.031 158.861 250.42 173.912 233.296L147.207 236.031Z" fill="#FF9A6A"/>
<path d="M147.207 236.031C147.207 236.031 158.861 250.42 173.912 233.296" stroke="#263238" stroke-width="0.75" stroke-linecap="round" stroke-linejoin="round"/>
<path d="M134.891 255.89C134.891 255.89 141.737 273.693 119.822 271.568L134.891 255.89Z" fill="#FF9A6A"/>
<path d="M134.891 255.89C134.891 255.89 141.737 273.693 119.822 271.568" stroke="#263238" stroke-width="0.75" stroke-linecap="round" stroke-linejoin="round"/>
<path d="M121.197 289.44C121.197 289.44 134.889 292.924 129.402 305.885L121.197 289.44Z" fill="#FF9A6A"/>
<path d="M121.197 289.44C121.197 289.44 134.889 292.924 129.402 305.885" stroke="#263238" stroke-width="0.75" stroke-linecap="round" stroke-linejoin="round"/>
<path d="M261.568 203.856C261.568 203.856 261.568 210.702 275.26 210.702C288.953 210.702 285.538 195.634 285.538 195.634" fill="#FF9A6A"/>
<path d="M261.568 203.856C261.568 203.856 261.568 210.702 275.26 210.702C288.953 210.702 285.538 195.634 285.538 195.634" stroke="#263238" stroke-width="0.75" stroke-linecap="round" stroke-linejoin="round"/>
<path d="M329.35 170.322C329.35 170.322 327.295 185.391 344.419 190.181C361.543 194.972 371.803 178.527 371.803 178.527" fill="#FF9A6A"/>
<path d="M329.35 170.322C329.35 170.322 327.295 185.391 344.419 190.181C361.543 194.972 371.803 178.527 371.803 178.527" stroke="#263238" stroke-width="0.75" stroke-linecap="round" stroke-linejoin="round"/>
<path d="M369.815 251.778C369.815 251.778 360.914 259.321 367.76 268.223C374.606 277.124 382.811 273.693 382.811 273.693" fill="#FF9A6A"/>
<path d="M369.815 251.778C369.815 251.778 360.914 259.321 367.76 268.223C374.606 277.124 382.811 273.693 382.811 273.693" stroke="#263238" stroke-width="0.75" stroke-linecap="round" stroke-linejoin="round"/>
<path d="M388.979 299.039C388.979 299.039 378.074 289.04 369.12 302.523C360.166 316.006 376.663 325.813 376.663 325.813" fill="#FF9A6A"/>
<path d="M388.979 299.039C388.979 299.039 378.074 289.04 369.12 302.523C360.166 316.006 376.663 325.813 376.663 325.813" stroke="#263238" stroke-width="0.75" stroke-linecap="round" stroke-linejoin="round"/>
<path opacity="0.1" d="M186.244 190.843C186.244 190.843 212.949 214.116 243.73 188.108L186.244 190.843Z" fill="black"/>
<path opacity="0.1" d="M147.207 236.031C147.207 236.031 158.861 250.42 173.912 233.296L147.207 236.031Z" fill="black"/>
<path opacity="0.1" d="M134.891 255.89C134.891 255.89 141.737 273.693 119.822 271.568L134.891 255.89Z" fill="black"/>
<path opacity="0.1" d="M121.197 289.44C121.197 289.44 134.889 292.924 129.402 305.885L121.197 289.44Z" fill="black"/>
<path opacity="0.1" d="M261.568 203.856C261.568 203.856 261.568 210.702 275.26 210.702C288.953 210.702 285.538 195.634 285.538 195.634" fill="black"/>
<path opacity="0.1" d="M329.35 170.322C329.35 170.322 327.295 185.391 344.419 190.181C361.543 194.972 371.803 178.527 371.803 178.527" fill="black"/>
<path opacity="0.1" d="M369.815 251.778C369.815 251.778 360.914 259.321 367.76 268.223C374.606 277.124 382.811 273.693 382.811 273.693" fill="black"/>
<path opacity="0.1" d="M388.979 299.039C388.979 299.039 378.074 289.04 369.12 302.523C360.166 316.006 376.663 325.813 376.663 325.813" fill="black"/>
<path d="M257.492 168.058C248.252 168.058 239.391 164.387 232.857 157.854C226.323 151.32 222.652 142.458 222.652 133.218C222.652 123.978 226.323 115.116 232.857 108.582C239.391 102.049 248.252 98.3779 257.492 98.3779C266.732 98.3779 275.594 102.049 282.128 108.582C288.662 115.116 292.332 123.978 292.332 133.218C292.332 142.458 288.662 151.32 282.128 157.854C275.594 164.387 266.732 168.058 257.492 168.058Z" fill="#263238"/>
<path fill-rule="evenodd" clip-rule="evenodd" d="M277.595 132.329C277.437 127.484 275.412 122.887 271.943 119.499C268.475 116.111 263.832 114.195 258.984 114.15C254.136 114.105 249.458 115.935 245.927 119.258C242.397 122.58 240.287 127.139 240.038 131.981C240.038 132.26 240.038 132.521 240.038 132.8C240.017 136.194 240.921 139.53 242.651 142.45L239.271 152.449L249.723 149.14C252.575 150.712 255.786 151.517 259.043 151.475C262.299 151.433 265.488 150.545 268.298 148.9C271.108 147.254 273.443 144.906 275.073 142.087C276.702 139.268 277.572 136.073 277.595 132.817C277.605 132.655 277.605 132.492 277.595 132.329ZM258.817 148.478C255.721 148.491 252.69 147.588 250.107 145.882L244.027 147.816L245.996 141.997C244.052 139.324 243.004 136.105 242.999 132.8C242.973 132.295 242.973 131.789 242.999 131.284C243.425 127.383 245.284 123.78 248.218 121.173C251.151 118.567 254.949 117.144 258.872 117.181C262.796 117.218 266.566 118.712 269.45 121.373C272.334 124.034 274.126 127.672 274.477 131.58C274.477 131.981 274.477 132.382 274.477 132.8C274.477 136.955 272.828 140.94 269.891 143.879C266.955 146.819 262.972 148.473 258.817 148.478Z" fill="white"/>
<path fill-rule="evenodd" clip-rule="evenodd" d="M267.422 136.562C266.952 136.336 264.704 135.221 264.269 135.082C263.833 134.942 263.555 134.855 263.241 135.308C262.928 135.761 262.039 136.789 261.778 137.05C261.517 137.311 261.238 137.399 260.767 137.172C259.413 136.641 258.162 135.874 257.074 134.907C256.068 133.984 255.205 132.915 254.514 131.737C254.465 131.664 254.431 131.582 254.415 131.496C254.398 131.41 254.398 131.321 254.416 131.235C254.434 131.149 254.469 131.068 254.519 130.996C254.568 130.923 254.632 130.861 254.705 130.814C254.932 130.605 255.176 130.274 255.402 130.012L255.576 129.786C255.69 129.614 255.789 129.434 255.872 129.246C255.938 129.123 255.972 128.985 255.972 128.845C255.972 128.706 255.938 128.568 255.872 128.445C255.751 128.218 254.827 125.971 254.444 125.048C254.061 124.125 253.678 124.299 253.399 124.299C253.12 124.299 252.824 124.299 252.528 124.299C252.294 124.306 252.063 124.361 251.851 124.46C251.638 124.559 251.448 124.699 251.291 124.874C250.773 125.363 250.363 125.955 250.087 126.612C249.811 127.269 249.675 127.976 249.688 128.689C249.693 129.213 249.769 129.735 249.915 130.239C250.27 131.387 250.831 132.461 251.57 133.409C253.477 136.428 256.201 138.844 259.426 140.377C264.112 142.119 264.112 141.579 264.966 141.51C265.608 141.388 266.216 141.131 266.751 140.755C267.285 140.38 267.734 139.895 268.066 139.332C268.363 138.647 268.46 137.892 268.345 137.155C268.084 136.893 267.769 136.691 267.422 136.562Z" fill="white"/>
<path d="M433.731 314.909C424.49 314.909 415.629 311.238 409.095 304.704C402.561 298.17 398.891 289.309 398.891 280.069C398.891 270.828 402.561 261.967 409.095 255.433C415.629 248.899 424.49 245.229 433.731 245.229C442.971 245.229 451.832 248.899 458.366 255.433C464.9 261.967 468.571 270.828 468.571 280.069C468.571 289.309 464.9 298.17 458.366 304.704C451.832 311.238 442.971 314.909 433.731 314.909Z" fill="#263238"/>
<path d="M454.582 269.616C454.335 268.691 453.849 267.847 453.174 267.168C452.498 266.49 451.656 266 450.732 265.749C447.335 264.826 433.73 264.826 433.73 264.826C433.73 264.826 420.125 264.826 416.728 265.749C415.806 266 414.966 266.489 414.293 267.168C413.62 267.847 413.138 268.691 412.896 269.616C411.665 276.588 411.665 283.722 412.896 290.694C413.138 291.619 413.62 292.464 414.293 293.142C414.966 293.821 415.806 294.311 416.728 294.562C420.125 295.485 433.73 295.485 433.73 295.485C433.73 295.485 447.335 295.485 450.732 294.562C451.656 294.31 452.498 293.821 453.174 293.142C453.849 292.464 454.335 291.62 454.582 290.694C455.79 283.72 455.79 276.59 454.582 269.616Z" fill="white"/>
<path d="M429.289 286.531V273.605L440.664 280.068L429.289 286.531Z" fill="#263238"/>
<path d="M73.0314 305.85C63.7913 305.85 54.9296 302.179 48.3958 295.646C41.862 289.112 38.1914 280.25 38.1914 271.01C38.1914 261.77 41.862 252.908 48.3958 246.374C54.9296 239.841 63.7913 236.17 73.0314 236.17C82.2716 236.17 91.1333 239.841 97.667 246.374C104.201 252.908 107.871 261.77 107.871 271.01C107.871 280.25 104.201 289.112 97.667 295.646C91.1333 302.179 82.2716 305.85 73.0314 305.85Z" fill="#263238"/>
<path d="M67.5087 292.054H75.9922V270.784H81.9324L82.5596 263.659H75.9922V259.6C75.9922 257.858 76.3406 257.248 77.9607 257.248H82.5596V249.862H76.6716C70.3481 249.862 67.5087 252.65 67.5087 257.98V263.659H63.084V270.871H67.5087V292.054Z" fill="white"/>
<path d="M426.188 208.124C416.948 208.124 408.086 204.453 401.552 197.919C395.018 191.386 391.348 182.524 391.348 173.284C391.348 164.044 395.018 155.182 401.552 148.648C408.086 142.114 416.948 138.444 426.188 138.444C435.428 138.444 444.29 142.114 450.823 148.648C457.357 155.182 461.028 164.044 461.028 173.284C461.028 182.524 457.357 191.386 450.823 197.919C444.29 204.453 435.428 208.124 426.188 208.124Z" fill="#263238"/>
<path d="M426.188 157.536C431.292 157.536 431.901 157.536 433.922 157.658C435.112 157.671 436.291 157.889 437.406 158.303C438.228 158.628 438.974 159.119 439.597 159.745C440.221 160.372 440.708 161.12 441.03 161.944C441.443 163.06 441.667 164.237 441.692 165.428C441.779 167.448 441.796 168.041 441.796 173.162C441.796 178.283 441.796 178.876 441.692 180.896C441.671 182.087 441.447 183.265 441.03 184.38C440.728 185.217 440.24 185.974 439.601 186.593C438.984 187.225 438.234 187.713 437.406 188.021C436.29 188.435 435.112 188.658 433.922 188.683C431.901 188.683 431.292 188.788 426.188 188.788C421.084 188.788 420.474 188.788 418.453 188.683C417.263 188.658 416.086 188.435 414.969 188.021C414.141 187.713 413.392 187.225 412.774 186.593C412.136 185.974 411.647 185.217 411.346 184.38C410.928 183.265 410.704 182.087 410.684 180.896C410.597 178.876 410.562 178.266 410.562 173.162C410.562 168.058 410.562 167.448 410.684 165.428C410.709 164.237 410.933 163.06 411.346 161.944C411.667 161.12 412.155 160.372 412.778 159.745C413.402 159.119 414.147 158.628 414.969 158.303C416.085 157.889 417.263 157.671 418.453 157.658C420.474 157.554 421.084 157.536 426.188 157.536ZM426.188 154.052C420.962 154.052 420.335 154.052 418.296 154.174C416.707 154.203 415.134 154.503 413.645 155.063C412.378 155.559 411.228 156.312 410.265 157.274C409.303 158.237 408.55 159.387 408.053 160.654C407.494 162.143 407.194 163.716 407.165 165.306C407.078 167.344 407.061 167.988 407.061 173.197C407.061 178.405 407.061 179.033 407.165 181.088C407.196 182.672 407.496 184.239 408.053 185.722C408.536 187.001 409.291 188.16 410.266 189.119C411.219 190.088 412.372 190.837 413.645 191.314C415.132 191.88 416.706 192.18 418.296 192.202C420.335 192.307 420.997 192.324 426.188 192.324C431.379 192.324 432.041 192.324 434.079 192.202C435.664 192.183 437.233 191.882 438.713 191.314C439.993 190.842 441.153 190.092 442.11 189.119C443.084 188.16 443.839 187.001 444.322 185.722C444.87 184.236 445.17 182.671 445.21 181.088C445.297 179.033 445.315 178.388 445.315 173.197C445.315 168.006 445.315 167.344 445.21 165.306C445.171 163.717 444.871 162.146 444.322 160.654C443.825 159.385 443.07 158.232 442.105 157.269C441.139 156.307 439.984 155.555 438.713 155.063C437.23 154.503 435.663 154.202 434.079 154.174C432.041 154.087 431.379 154.052 426.188 154.052Z" fill="white"/>
<path d="M426.188 163.355C424.245 163.355 422.345 163.931 420.73 165.01C419.114 166.09 417.855 167.624 417.111 169.42C416.368 171.215 416.173 173.19 416.552 175.096C416.931 177.002 417.867 178.753 419.241 180.127C420.615 181.501 422.366 182.436 424.271 182.815C426.177 183.195 428.153 183 429.948 182.256C431.743 181.513 433.278 180.253 434.357 178.638C435.437 177.022 436.013 175.123 436.013 173.179C436.015 171.889 435.763 170.61 435.27 169.417C434.777 168.224 434.053 167.14 433.141 166.227C432.228 165.314 431.144 164.591 429.951 164.098C428.758 163.605 427.479 163.352 426.188 163.355ZM426.188 179.555C424.927 179.555 423.694 179.181 422.646 178.481C421.598 177.78 420.78 176.784 420.298 175.619C419.815 174.454 419.689 173.172 419.935 171.936C420.181 170.699 420.788 169.563 421.68 168.671C422.572 167.779 423.708 167.172 424.944 166.926C426.181 166.68 427.463 166.806 428.628 167.289C429.793 167.772 430.789 168.589 431.489 169.637C432.19 170.686 432.564 171.918 432.564 173.179C432.564 174.87 431.892 176.492 430.696 177.688C429.501 178.883 427.879 179.555 426.188 179.555Z" fill="white"/>
<path d="M438.695 163.006C438.698 163.462 438.566 163.908 438.315 164.288C438.065 164.669 437.707 164.966 437.287 165.143C436.867 165.32 436.404 165.368 435.957 165.281C435.51 165.194 435.099 164.977 434.775 164.656C434.452 164.335 434.231 163.925 434.141 163.479C434.051 163.032 434.096 162.569 434.269 162.148C434.443 161.726 434.737 161.366 435.116 161.113C435.494 160.859 435.94 160.724 436.395 160.724C437.002 160.724 437.584 160.964 438.015 161.391C438.446 161.819 438.69 162.399 438.695 163.006Z" fill="white"/>
<path d="M381.61 396.626C372.369 396.626 363.508 392.955 356.974 386.421C350.44 379.888 346.77 371.026 346.77 361.786C346.77 352.546 350.44 343.684 356.974 337.15C363.508 330.616 372.369 326.946 381.61 326.946C390.85 326.946 399.711 330.616 406.245 337.15C412.779 343.684 416.45 352.546 416.45 361.786C416.45 371.026 412.779 379.888 406.245 386.421C399.711 392.955 390.85 396.626 381.61 396.626Z" fill="#263238"/>
<path d="M376.402 374.99C377.327 374.812 378.204 374.441 378.975 373.901C379.747 373.36 380.395 372.663 380.879 371.855C381.615 370.688 381.996 369.332 381.976 367.953C382.018 366.688 381.685 365.439 381.018 364.364C380.345 363.353 379.351 362.598 378.196 362.221C378.904 361.886 379.538 361.412 380.06 360.828C380.853 359.798 381.254 358.52 381.192 357.222C381.229 355.892 380.838 354.585 380.077 353.494C379.302 352.589 378.323 351.882 377.22 351.431C376.118 350.979 374.924 350.797 373.737 350.898H361.926V375.286H372.935C374.098 375.309 375.26 375.21 376.402 374.99ZM366.803 355.131H372.116C373.094 355.11 374.07 355.239 375.008 355.515C375.44 355.702 375.8 356.023 376.035 356.431C376.271 356.839 376.369 357.312 376.315 357.779C376.358 358.193 376.289 358.611 376.114 358.988C375.939 359.365 375.666 359.688 375.322 359.922C374.534 360.357 373.643 360.568 372.744 360.532H366.803V355.131ZM366.803 371.088V364.573H372.813C373.652 364.542 374.488 364.685 375.27 364.991C375.768 365.211 376.186 365.581 376.464 366.049C376.742 366.518 376.866 367.061 376.82 367.604C376.886 368.214 376.769 368.83 376.484 369.373C376.198 369.916 375.757 370.362 375.217 370.653C374.436 370.981 373.59 371.129 372.744 371.088H366.803Z" fill="white"/>
<path d="M386.104 373.718C387.908 375.156 390.157 375.92 392.463 375.878C393.719 375.954 394.977 375.757 396.15 375.3C397.323 374.842 398.383 374.137 399.257 373.23C400.168 372.357 400.778 371.216 400.999 369.973H396.173C395.848 370.639 395.331 371.193 394.688 371.562C394.045 371.932 393.307 372.1 392.567 372.046C391.655 372.073 390.754 371.837 389.972 371.367C389.354 370.948 388.854 370.377 388.521 369.708C388.189 369.04 388.034 368.297 388.073 367.552H401.242C401.278 366.353 401.225 365.154 401.086 363.963C400.896 362.626 400.401 361.35 399.64 360.235C398.873 359.066 397.792 358.136 396.522 357.552C395.179 356.98 393.731 356.695 392.271 356.716C391.081 356.667 389.893 356.863 388.781 357.292C387.67 357.72 386.658 358.372 385.808 359.207C384.933 360.183 384.262 361.323 383.834 362.562C383.406 363.8 383.231 365.112 383.317 366.419C383.181 367.769 383.363 369.132 383.847 370.399C384.33 371.666 385.104 372.803 386.104 373.718ZM389.484 361.698C389.86 361.344 390.304 361.07 390.789 360.894C391.274 360.717 391.79 360.641 392.306 360.671C393.329 360.64 394.327 360.987 395.111 361.646C395.502 362.012 395.816 362.455 396.031 362.946C396.247 363.437 396.36 363.967 396.365 364.503H388.23C388.345 363.46 388.784 362.48 389.484 361.698Z" fill="white"/>
<path d="M397.306 352.292H386.68V354.765H397.306V352.292Z" fill="white"/>
<path d="M111.111 208.054C101.871 208.054 93.0097 204.383 86.4759 197.85C79.9421 191.316 76.2715 182.454 76.2715 173.214C76.2715 163.974 79.9421 155.112 86.4759 148.578C93.0097 142.045 101.871 138.374 111.111 138.374C120.352 138.374 129.213 142.045 135.747 148.578C142.281 155.112 145.951 163.974 145.951 173.214C145.951 182.454 142.281 191.316 135.747 197.85C129.213 204.383 120.352 208.054 111.111 208.054Z" fill="#263238"/>
<path d="M154.262 118.062C145.022 118.062 136.16 114.392 129.626 107.858C123.093 101.324 119.422 92.4625 119.422 83.2223C119.422 73.9822 123.093 65.1205 129.626 58.5867C136.16 52.053 145.022 48.3823 154.262 48.3823C163.502 48.3823 172.364 52.053 178.897 58.5867C185.431 65.1205 189.102 73.9822 189.102 83.2223C189.102 92.4625 185.431 101.324 178.897 107.858C172.364 114.392 163.502 118.062 154.262 118.062Z" fill="#263238"/>
<path d="M144.68 74.5996H137.451V97.925H144.68V74.5996Z" fill="white"/>
<path d="M141.039 71.5511C141.897 71.5615 142.738 71.3165 143.455 70.8474C144.173 70.3783 144.735 69.7062 145.069 68.9167C145.404 68.1273 145.496 67.2561 145.334 66.4142C145.172 65.5723 144.763 64.7977 144.159 64.1889C143.555 63.5802 142.784 63.1649 141.943 62.9959C141.103 62.8269 140.231 62.9118 139.439 63.2399C138.646 63.568 137.97 64.1243 137.495 64.8382C137.02 65.552 136.768 66.391 136.772 67.2484C136.769 67.8112 136.878 68.3689 137.091 68.8897C137.304 69.4104 137.618 69.8841 138.014 70.2837C138.411 70.6832 138.882 71.0008 139.401 71.2183C139.92 71.4358 140.477 71.5489 141.039 71.5511Z" fill="white"/>
<path d="M156.23 85.6788C156.23 82.4039 157.728 80.4528 160.62 80.4528C163.512 80.4528 164.557 82.3342 164.557 85.6788V97.8728H171.751V83.2226C171.751 76.9688 168.267 73.9377 163.25 73.9377C161.854 73.9271 160.479 74.2776 159.258 74.9552C158.037 75.6328 157.012 76.6145 156.282 77.805V74.652H149.314V97.9948H156.282L156.23 85.6788Z" fill="white"/>
<path d="M360.758 120.257C351.518 120.257 342.656 116.587 336.122 110.053C329.589 103.519 325.918 94.6573 325.918 85.4171C325.918 76.177 329.589 67.3153 336.122 60.7815C342.656 54.2478 351.518 50.5771 360.758 50.5771C365.333 50.5771 369.864 51.4783 374.091 53.2292C378.318 54.9801 382.158 57.5464 385.394 60.7815C388.629 64.0167 391.195 67.8575 392.946 72.0845C394.697 76.3114 395.598 80.8419 395.598 85.4171C395.598 89.9924 394.697 94.5228 392.946 98.7498C391.195 102.977 388.629 106.818 385.394 110.053C382.158 113.288 378.318 115.854 374.091 117.605C369.864 119.356 365.333 120.257 360.758 120.257Z" fill="#263238"/>
<path d="M341.091 85.4872C341.091 90.6432 343.139 95.588 346.785 99.2339C350.431 102.88 355.376 104.928 360.532 104.928C361.754 104.928 362.973 104.811 364.173 104.58C366.352 105.895 368.91 106.44 371.436 106.125C373.962 105.811 376.308 104.656 378.098 102.846C379.888 101.036 381.017 98.6764 381.303 96.1471C381.589 93.6177 381.016 91.0657 379.676 88.9015C379.878 87.7513 379.977 86.5853 379.973 85.4175C379.973 82.8654 379.47 80.3382 378.492 77.9805C377.515 75.6228 376.083 73.4809 374.277 71.677C372.472 69.8732 370.329 68.4428 367.97 67.4677C365.612 66.4926 363.084 65.9919 360.532 65.9942C359.334 65.9889 358.138 66.0997 356.961 66.3252C354.782 64.9833 352.213 64.4179 349.672 64.7209C347.131 65.0239 344.767 66.1774 342.964 67.994C341.162 69.8106 340.027 72.1835 339.743 74.7269C339.46 77.2703 340.046 79.8347 341.405 82.0032C341.201 83.1535 341.096 84.3191 341.091 85.4872ZM360.741 71.6906C367.012 72.0564 370.688 74.8088 371.036 77.3869C371.091 77.7819 371.055 78.1841 370.932 78.5633C370.809 78.9425 370.601 79.2886 370.324 79.5756C370.047 79.8625 369.708 80.0828 369.334 80.2197C368.959 80.3565 368.558 80.4065 368.162 80.3657C365.322 80.3657 365.026 76.5856 360.149 76.5856C357.954 76.5856 356.09 77.5089 356.09 79.4947C356.09 83.6407 371.768 81.2367 371.768 90.3822C371.768 95.6082 367.552 99.0922 361.316 99.0922C355.776 99.0922 350.202 96.5838 350.237 92.2636C350.217 91.6329 350.445 91.0196 350.871 90.5543C351.298 90.0891 351.889 89.8086 352.519 89.7725C355.776 89.7725 355.741 94.6153 360.932 94.6153C364.573 94.6153 365.827 92.6294 365.827 91.2358C365.827 86.2363 350.149 89.3022 350.149 79.8954C349.993 74.8087 354.139 71.2899 360.741 71.6906Z" fill="white"/>
<path d="M125.936 388.073C116.696 388.073 107.834 384.402 101.3 377.868C94.7663 371.334 91.0957 362.473 91.0957 353.233C91.0957 343.992 94.7663 335.131 101.3 328.597C107.834 322.063 116.696 318.393 125.936 318.393C135.176 318.393 144.038 322.063 150.571 328.597C157.105 335.131 160.776 343.992 160.776 353.233C160.776 362.473 157.105 371.334 150.571 377.868C144.038 384.402 135.176 388.073 125.936 388.073Z" fill="#263238"/>
<path fill-rule="evenodd" clip-rule="evenodd" d="M146.196 363.371C145.784 363.157 145.344 362.998 144.89 362.9C142.745 362.16 140.87 360.795 139.507 358.981C138.737 358.006 138.12 356.919 137.678 355.758C137.573 355.544 137.519 355.309 137.519 355.07C137.519 354.832 137.573 354.596 137.678 354.382C138.163 353.813 138.805 353.401 139.524 353.198C140.431 352.934 141.277 352.496 142.015 351.908C142.171 351.781 142.296 351.62 142.381 351.438C142.391 351.38 142.391 351.322 142.381 351.264C142.424 351.162 142.446 351.052 142.446 350.942C142.446 350.831 142.424 350.721 142.381 350.619C142.18 350.26 141.877 349.969 141.51 349.783C141.286 349.652 141.034 349.573 140.775 349.552C140.516 349.531 140.255 349.568 140.012 349.661C139.579 349.815 139.137 349.943 138.688 350.045C138.192 350.178 137.669 350.178 137.173 350.045C137.185 349.935 137.185 349.823 137.173 349.714C137.173 348.808 137.173 347.867 137.173 346.891C137.268 345.382 137.233 343.866 137.068 342.362C136.519 339.795 134.995 337.54 132.818 336.074C131.271 335.004 129.467 334.366 127.592 334.227C126.967 334.164 126.339 334.135 125.71 334.14C123.162 334.094 120.67 334.89 118.62 336.405C117.092 337.586 115.893 339.139 115.136 340.916C114.549 342.694 114.358 344.579 114.579 346.439C114.685 347.643 114.714 348.853 114.666 350.062C114.09 350.168 113.5 350.168 112.924 350.062C112.458 349.964 111.998 349.835 111.548 349.679C111.316 349.635 111.077 349.638 110.847 349.689C110.616 349.74 110.398 349.837 110.207 349.975C110.002 350.082 109.829 350.238 109.701 350.43C109.573 350.622 109.495 350.843 109.475 351.072V351.177C109.535 351.471 109.695 351.736 109.928 351.926L110.398 352.274C111.282 352.785 112.223 353.189 113.203 353.476C113.488 353.572 113.748 353.729 113.964 353.937C114.181 354.145 114.349 354.398 114.457 354.678C114.534 355.429 114.356 356.184 113.952 356.821C112.968 358.769 111.513 360.439 109.719 361.681C108.765 362.326 107.712 362.808 106.601 363.11C106.16 363.174 105.761 363.405 105.486 363.754V363.876C105.441 364.024 105.433 364.181 105.464 364.333C105.494 364.485 105.561 364.627 105.66 364.747C105.793 364.897 105.952 365.021 106.13 365.113C107.04 365.584 108.015 365.918 109.022 366.106C109.614 366.202 110.197 366.347 110.764 366.541L110.938 367.046C111.112 367.552 111.2 368.144 111.374 368.788C111.405 368.876 111.458 368.954 111.528 369.015C111.598 369.076 111.683 369.118 111.774 369.137C111.995 369.206 112.233 369.206 112.454 369.137C113.941 368.765 115.491 368.712 117 368.98C118.526 369.55 119.967 370.323 121.286 371.279C122.313 372.004 123.517 372.437 124.77 372.534C125.733 372.587 126.698 372.587 127.661 372.534C128.473 372.454 129.254 372.186 129.943 371.75C131.494 370.879 132.87 369.816 134.368 369.154C134.938 369.015 135.523 368.945 136.11 368.945C137.356 368.914 138.602 368.978 139.838 369.137H139.96C140.13 369.111 140.284 369.024 140.395 368.893C140.458 368.818 140.5 368.728 140.517 368.632C140.517 368.457 140.517 368.51 140.517 368.632V368.527C140.636 367.872 140.878 367.245 141.232 366.681C141.45 366.513 141.723 366.432 141.998 366.454C143.011 366.277 144.004 365.997 144.959 365.618C145.432 365.469 145.854 365.191 146.179 364.817C146.243 364.721 146.287 364.614 146.308 364.501C146.33 364.388 146.328 364.272 146.304 364.16C146.28 364.048 146.233 363.942 146.166 363.848C146.1 363.754 146.015 363.675 145.918 363.615L146.196 363.371Z" fill="white"/>
<path d="M125.747 187.43L114.286 170.78L126.991 156H124.084L121.597 158.88L112.99 168.897L104.793 156.987L104.113 156H94.0394L96.4963 159.57L107.396 175.408L94 191H96.9063L108.692 177.289L117.45 190.014L118.13 191H128.204L125.747 187.43ZM119.327 188.721L110.228 175.501L108.932 173.619L98.3742 158.279H102.916L111.454 170.685L112.75 172.567L123.869 188.721H119.327Z" fill="white"/>
</svg>
