<svg width="774" height="592" viewBox="0 0 774 592" fill="none" xmlns="http://www.w3.org/2000/svg">
<path d="M113.326 532.058C264.411 610.995 509.396 610.995 660.515 532.058C811.634 453.121 811.617 325.14 660.515 246.203C509.413 167.266 264.445 167.266 113.326 246.203C-37.7923 325.14 -37.7586 453.189 113.326 532.058Z" fill="#F5F5F5"/>
<path d="M104.925 382.645C126.359 382.645 143.735 374.365 143.735 364.152C143.735 353.939 126.359 345.659 104.925 345.659C83.491 345.659 66.1152 353.939 66.1152 364.152C66.1152 374.365 83.491 382.645 104.925 382.645Z" fill="#EBEBEB"/>
<path d="M547.811 407.336C576.418 407.336 599.608 396.281 599.608 382.645C599.608 369.008 576.418 357.954 547.811 357.954C519.204 357.954 496.014 369.008 496.014 382.645C496.014 396.281 519.204 407.336 547.811 407.336Z" fill="#EBEBEB"/>
<path d="M702.664 281.06C702.664 281.06 706.667 268.698 719.688 255.525C725.43 249.715 729.179 245.662 727.98 242.2C726.899 239.143 723.251 237.555 718.033 240.021C710.619 243.534 705.62 250.053 702.664 263.141V281.06Z" fill="#FF9A6A"/>
<path opacity="0.1" d="M702.664 281.06C702.664 281.06 706.667 268.698 719.688 255.525C725.43 249.715 729.179 245.662 727.98 242.2C726.899 239.143 723.251 237.555 718.033 240.021C710.619 243.534 705.62 250.053 702.664 263.141V281.06Z" fill="black"/>
<path d="M701.836 273.291H701.684C701.522 273.248 701.383 273.142 701.297 272.997C701.212 272.851 701.187 272.678 701.228 272.515C705.873 254.579 717.881 243.466 722.964 240.899C723.117 240.828 723.292 240.817 723.452 240.871C723.612 240.924 723.746 241.037 723.825 241.186C723.896 241.337 723.906 241.509 723.852 241.667C723.799 241.824 723.686 241.955 723.538 242.031C718.624 244.513 706.987 255.322 702.461 272.835C702.421 272.969 702.338 273.086 702.225 273.168C702.113 273.251 701.976 273.294 701.836 273.291Z" fill="white"/>
<path d="M702.664 296.412C702.664 296.412 708.22 285.518 714.925 279.726C721.63 273.933 730.243 268.022 722.947 263.496C715.651 258.97 703.644 267.853 702.681 276.618L702.664 296.412Z" fill="#FF9A6A"/>
<path d="M701.836 288.66H701.701C701.538 288.62 701.398 288.518 701.31 288.376C701.221 288.234 701.192 288.063 701.228 287.9C704.386 274.389 715.718 266.756 719.484 265.489C719.639 265.457 719.801 265.483 719.938 265.563C720.075 265.643 720.178 265.771 720.226 265.922C720.274 266.073 720.265 266.237 720.2 266.381C720.134 266.526 720.018 266.641 719.873 266.705C716.495 267.853 705.45 275.369 702.461 288.187C702.423 288.324 702.342 288.444 702.229 288.53C702.116 288.616 701.977 288.661 701.836 288.66Z" fill="white"/>
<path d="M208.741 405.9C208.741 405.9 206.174 400.192 195.45 397.777C185.013 395.429 179.828 397.777 172.785 396.561C165.743 395.345 167.584 382.189 186.533 383.557C203.877 384.806 208.741 398.452 208.741 398.452V405.9Z" fill="#FF9A6A"/>
<path d="M209.769 402.759C209.646 402.756 209.527 402.718 209.425 402.649C209.323 402.58 209.243 402.483 209.195 402.37C207.506 398.334 201.257 391.748 192.458 389.738C181.531 387.255 175.722 389.738 175.671 389.738C175.52 389.789 175.355 389.782 175.209 389.718C175.063 389.654 174.946 389.538 174.881 389.393C174.815 389.247 174.806 389.083 174.856 388.931C174.905 388.779 175.009 388.652 175.148 388.573C175.401 388.471 181.413 385.853 192.729 388.437C202.507 390.667 208.739 397.827 210.36 401.83C210.393 401.906 210.411 401.989 210.412 402.072C210.413 402.155 210.397 402.238 210.366 402.315C210.334 402.392 210.287 402.462 210.229 402.521C210.17 402.58 210.1 402.626 210.022 402.658L209.769 402.759Z" fill="white"/>
<path d="M208.741 399.398C206.603 395.57 203.866 392.109 200.634 389.147C190.501 379.317 176.99 376.227 170.235 370.856C162.804 365.063 171.806 358.376 181.364 358.798C186.836 359.051 192.612 362.665 195.787 365.266C206.968 374.403 208.808 389.147 208.808 389.147L208.741 399.398Z" fill="#FF9A6A"/>
<path opacity="0.5" d="M208.741 399.398C206.603 395.57 203.866 392.109 200.634 389.147C190.501 379.317 176.99 376.227 170.235 370.856C162.804 365.063 171.806 358.376 181.364 358.798C186.836 359.051 192.612 362.665 195.787 365.266C206.968 374.403 208.808 389.147 208.808 389.147L208.741 399.398Z" fill="white"/>
<path d="M209.77 398.402C209.619 398.4 209.473 398.344 209.359 398.245C209.245 398.147 209.169 398.011 209.145 397.861C207.814 390.761 204.594 384.151 199.823 378.727C191.851 369.657 178.222 364.794 178.07 364.743C177.916 364.685 177.79 364.571 177.718 364.424C177.645 364.276 177.633 364.106 177.682 363.949C177.708 363.869 177.751 363.796 177.806 363.733C177.862 363.67 177.929 363.619 178.005 363.583C178.08 363.547 178.163 363.526 178.246 363.522C178.33 363.518 178.414 363.531 178.492 363.561C179.067 363.746 192.578 368.627 200.768 377.882C205.736 383.478 209.071 390.331 210.412 397.692C210.424 397.776 210.418 397.861 210.397 397.942C210.375 398.024 210.337 398.1 210.284 398.166C210.232 398.232 210.167 398.287 210.094 398.328C210.02 398.368 209.938 398.393 209.855 398.402H209.77Z" fill="white"/>
<path d="M440.52 504.36C440.52 504.36 443.391 498.787 454.233 496.946C464.771 495.156 469.821 497.706 476.931 496.946C484.041 496.186 482.893 482.861 463.893 483.216C446.515 483.537 440.925 496.896 440.925 496.896L440.52 504.36Z" fill="#FF9A6A"/>
<path opacity="0.1" d="M440.52 504.36C440.52 504.36 443.391 498.787 454.233 496.946C464.771 495.156 469.821 497.706 476.931 496.946C484.041 496.186 482.893 482.861 463.893 483.216C446.515 483.537 440.925 496.896 440.925 496.896L440.52 504.36Z" fill="black"/>
<path d="M439.692 501.692C439.559 501.686 439.431 501.645 439.32 501.574C439.252 501.526 439.194 501.466 439.149 501.396C439.104 501.326 439.074 501.248 439.06 501.166C439.046 501.085 439.048 501.001 439.067 500.92C439.085 500.839 439.12 500.763 439.168 500.695C443.204 494.919 450.551 490.562 458.843 489.11C469.5 487.201 475.732 490.579 476.002 490.799C476.074 490.839 476.138 490.892 476.189 490.957C476.24 491.021 476.278 491.095 476.301 491.174C476.324 491.254 476.331 491.336 476.321 491.418C476.312 491.5 476.287 491.579 476.247 491.652C476.207 491.724 476.153 491.787 476.089 491.838C476.024 491.89 475.95 491.928 475.871 491.951C475.792 491.973 475.709 491.98 475.627 491.971C475.545 491.962 475.466 491.936 475.394 491.896C475.394 491.896 469.263 488.603 459.063 490.427C451.108 491.846 444.049 495.983 440.215 501.489C440.148 501.558 440.066 501.612 439.975 501.647C439.885 501.682 439.788 501.697 439.692 501.692Z" fill="white"/>
<path d="M441.278 496.541C443.731 493.456 446.517 490.653 449.587 488.182C460.278 478.927 473.806 477.424 480.966 472.425C488.701 467.037 480.071 459.876 470.495 459.792C465.024 459.792 459.062 463.051 455.735 465.483C448.645 470.795 443.343 478.142 440.535 486.543L441.278 496.541Z" fill="#FF9A6A"/>
<path opacity="0.5" d="M441.278 496.541C443.731 493.456 446.517 490.653 449.587 488.182C460.278 478.927 473.806 477.424 480.966 472.425C488.701 467.037 480.071 459.876 470.495 459.792C465.024 459.792 459.062 463.051 455.735 465.483C448.645 470.795 443.343 478.142 440.535 486.543L441.278 496.541Z" fill="white"/>
<path d="M439.691 496.406H439.455C439.3 496.348 439.172 496.235 439.097 496.088C439.022 495.941 439.005 495.771 439.049 495.612C441.689 488.363 445.859 481.768 451.277 476.275C457.153 470.215 464.787 466.156 473.097 464.672C473.178 464.661 473.261 464.665 473.34 464.686C473.419 464.707 473.494 464.744 473.558 464.795C473.623 464.845 473.677 464.908 473.717 464.98C473.756 465.052 473.781 465.131 473.789 465.213C473.801 465.296 473.796 465.381 473.774 465.463C473.752 465.544 473.714 465.62 473.662 465.686C473.61 465.753 473.545 465.808 473.471 465.848C473.397 465.889 473.316 465.914 473.232 465.922C465.231 467.441 457.883 471.365 452.172 477.17C446.925 482.512 442.893 488.924 440.35 495.967C440.305 496.103 440.216 496.22 440.096 496.3C439.977 496.38 439.834 496.417 439.691 496.406Z" fill="white"/>
<path d="M277.323 407.319V279.726H208.738V407.336C208.738 412.402 212.116 417.469 218.871 421.32C232.264 429.055 253.983 429.055 267.375 421.32C274.131 417.452 277.407 412.402 277.424 407.336L277.323 407.319Z" fill="#37474F"/>
<path d="M218.79 294.587C205.38 286.852 205.38 274.321 218.79 266.569C232.199 258.817 253.901 258.834 267.293 266.569C280.686 274.304 280.686 286.836 267.293 294.587C253.901 302.339 232.182 302.305 218.79 294.587Z" fill="#455A64"/>
<path d="M359.656 454.861V361.974H291.055V454.861C291.055 459.927 294.432 464.994 301.188 468.844C314.58 476.579 336.299 476.579 349.692 468.844C356.447 464.994 359.74 459.927 359.74 454.861H359.656Z" fill="#37474F"/>
<path d="M301.105 376.852C287.712 369.118 287.712 356.586 301.105 348.834C314.498 341.083 336.216 341.099 349.609 348.834C363.002 356.569 363.018 369.101 349.609 376.852C336.199 384.604 314.481 384.655 301.105 376.852Z" fill="#455A64"/>
<path d="M441.986 502.384V430.253H373.385V502.401C373.385 507.468 376.762 512.534 383.518 516.402C396.911 524.137 418.629 524.137 432.022 516.402C438.777 512.534 442.054 507.468 442.07 502.401L441.986 502.384Z" fill="#37474F"/>
<path d="M407.685 450.891C426.629 450.891 441.986 442.022 441.986 431.081C441.986 420.14 426.629 411.271 407.685 411.271C388.742 411.271 373.385 420.14 373.385 431.081C373.385 442.022 388.742 450.891 407.685 450.891Z" fill="#455A64"/>
<path d="M204.349 452.309L188.153 442.97L197.121 431.351C198.27 429.865 197.729 429.054 195.922 429.51L174.44 435.049L158.244 425.693C156.883 425.002 155.379 424.642 153.853 424.642C152.327 424.642 150.822 425.002 149.462 425.693L123.943 440.386C121.511 441.788 121.511 444.051 123.943 445.453L170.049 472.069C171.409 472.76 172.914 473.121 174.44 473.121C175.966 473.121 177.47 472.76 178.831 472.069L204.349 457.325C206.765 455.974 206.765 453.711 204.349 452.309Z" fill="#FF9A6A"/>
<path d="M178.443 446.585C178.707 446.558 178.973 446.558 179.237 446.585C179.499 446.618 179.752 446.704 179.98 446.838L182.294 448.172C182.45 448.248 182.571 448.381 182.632 448.544C182.632 448.679 182.632 448.797 182.395 448.881C182.34 448.897 182.282 448.897 182.226 448.881C182.143 448.901 182.056 448.901 181.973 448.881L149.885 451.415H148.973C148.709 451.375 148.457 451.283 148.23 451.145L145.916 449.81C145.76 449.734 145.639 449.601 145.578 449.439C145.578 449.304 145.578 449.185 145.815 449.101C145.87 449.086 145.928 449.086 145.983 449.101H146.237L178.443 446.585ZM168.107 444.44C167.421 444.898 166.704 445.31 165.963 445.673C165.364 445.977 164.736 446.22 164.088 446.399C163.409 446.57 162.711 446.655 162.011 446.652C160.447 446.656 158.912 446.236 157.569 445.436C156.928 445.122 156.354 444.686 155.88 444.153C155.572 443.802 155.399 443.353 155.39 442.886C155.397 442.445 155.558 442.021 155.846 441.687C156.182 441.251 156.594 440.879 157.062 440.589C157.383 440.357 157.715 440.143 158.059 439.947C158.38 439.762 158.768 439.559 159.19 439.356C159.798 439.05 160.438 438.812 161.099 438.647C162.502 438.298 163.969 438.298 165.371 438.647C166.152 438.859 166.901 439.171 167.601 439.576C168.21 439.894 168.75 440.33 169.188 440.859C169.5 441.21 169.679 441.658 169.695 442.126C169.673 442.564 169.514 442.984 169.239 443.325C168.93 443.76 168.547 444.137 168.107 444.44ZM171.299 457.647C170.645 458.135 169.957 458.575 169.239 458.964C168.636 459.267 168.001 459.505 167.347 459.673C166.671 459.86 165.972 459.951 165.27 459.943C164.522 459.94 163.779 459.838 163.058 459.639C162.276 459.441 161.525 459.134 160.828 458.727C160.226 458.399 159.688 457.965 159.241 457.444C158.929 457.088 158.756 456.633 158.751 456.16C158.765 455.724 158.919 455.303 159.19 454.961C159.534 454.531 159.952 454.165 160.423 453.88C160.737 453.639 161.07 453.424 161.42 453.239C161.784 453.017 162.162 452.82 162.551 452.648C163.153 452.342 163.788 452.104 164.443 451.938C165.123 451.772 165.82 451.681 166.52 451.668C168.077 451.667 169.606 452.088 170.945 452.884C171.589 453.193 172.163 453.63 172.634 454.168C172.932 454.509 173.096 454.947 173.096 455.4C173.096 455.854 172.932 456.292 172.634 456.633C172.249 457.044 171.798 457.387 171.299 457.647ZM160.541 442.447C160.206 442.637 159.93 442.918 159.748 443.258C159.748 443.494 159.748 443.73 160.237 443.967C160.602 444.188 161.028 444.289 161.453 444.254C161.944 444.176 162.418 444.017 162.855 443.781C163.495 443.474 164.111 443.119 164.696 442.717C165.04 442.532 165.322 442.25 165.507 441.906C165.507 441.67 165.422 441.434 165.017 441.197C164.647 440.974 164.213 440.879 163.784 440.927C163.299 440.995 162.83 441.15 162.399 441.383C161.754 441.664 161.133 441.998 160.541 442.379V442.447ZM163.75 455.654C163.406 455.839 163.125 456.121 162.94 456.464C162.94 456.684 162.94 456.92 163.429 457.157C163.795 457.393 164.23 457.494 164.662 457.444C165.145 457.368 165.613 457.213 166.047 456.988C166.694 456.685 167.316 456.329 167.905 455.924C168.245 455.74 168.521 455.457 168.699 455.113C168.699 454.877 168.699 454.64 168.209 454.404C167.844 454.183 167.418 454.082 166.993 454.117C166.507 454.192 166.038 454.352 165.608 454.59C164.963 454.871 164.342 455.204 163.75 455.586V455.654Z" fill="white"/>
<path d="M293.556 503.786L277.326 494.43L286.293 482.828C287.425 481.341 286.885 480.514 285.077 480.987L263.595 486.509L247.399 477.17C246.042 476.479 244.54 476.119 243.017 476.119C241.493 476.119 239.992 476.479 238.634 477.17L213.149 491.897C210.734 493.299 210.734 495.578 213.149 496.963L259.255 523.597C260.618 524.28 262.121 524.636 263.646 524.636C265.171 524.636 266.674 524.28 268.037 523.597L293.556 508.853C295.987 507.451 295.987 505.188 293.556 503.786Z" fill="#FF9A6A"/>
<path d="M267.647 498.061H268.458C268.72 498.103 268.972 498.195 269.201 498.331L271.498 499.666C271.7 499.784 271.818 499.902 271.835 500.037C271.852 500.172 271.835 500.274 271.616 500.375C271.56 500.387 271.503 500.387 271.447 500.375H271.194L239.105 502.908C238.836 502.934 238.564 502.934 238.295 502.908C238.031 502.871 237.778 502.779 237.552 502.638L235.255 501.321C235.052 501.203 234.934 501.067 234.917 500.949C234.911 500.874 234.93 500.8 234.969 500.736C235.009 500.672 235.067 500.623 235.137 500.595H235.305H235.559L267.647 498.061ZM257.311 495.916C256.633 496.379 255.922 496.791 255.183 497.149C254.58 497.453 253.946 497.69 253.292 497.859C252.615 498.044 251.916 498.135 251.214 498.129C250.467 498.126 249.723 498.024 249.002 497.825C248.22 497.627 247.47 497.32 246.773 496.913C246.166 496.584 245.622 496.15 245.168 495.629C244.862 495.288 244.693 494.846 244.693 494.388C244.693 493.93 244.862 493.488 245.168 493.147C245.51 492.72 245.921 492.355 246.384 492.066C246.703 491.832 247.036 491.618 247.381 491.424C247.753 491.207 248.136 491.009 248.529 490.833C249.131 490.527 249.766 490.289 250.421 490.124C251.513 489.845 252.65 489.786 253.766 489.948C254.882 490.11 255.955 490.491 256.923 491.069C257.534 491.392 258.078 491.828 258.527 492.353C258.838 492.702 259.011 493.152 259.017 493.62C259.004 494.059 258.843 494.482 258.561 494.819C258.215 495.258 257.791 495.63 257.311 495.916ZM260.52 509.123C259.834 509.583 259.117 509.995 258.375 510.356C257.779 510.662 257.15 510.9 256.501 511.065C255.822 511.237 255.124 511.322 254.423 511.319C252.86 511.322 251.325 510.902 249.982 510.103C249.372 509.785 248.828 509.355 248.377 508.836C248.066 508.481 247.892 508.025 247.887 507.553C247.907 507.114 248.067 506.694 248.343 506.354C248.684 505.922 249.095 505.551 249.559 505.256C249.897 505.019 250.235 504.817 250.556 504.614C250.877 504.411 251.265 504.226 251.687 504.023C252.295 503.717 252.935 503.479 253.596 503.314C254.278 503.159 254.974 503.074 255.673 503.06C256.414 503.058 257.153 503.155 257.869 503.347C258.652 503.549 259.403 503.861 260.098 504.276C260.709 504.599 261.253 505.035 261.702 505.56C262.007 505.898 262.176 506.337 262.176 506.793C262.176 507.248 262.007 507.687 261.702 508.026C261.372 508.454 260.972 508.825 260.52 509.123ZM249.762 493.924C249.418 494.109 249.136 494.39 248.951 494.734C248.951 494.954 249.036 495.19 249.441 495.427C249.806 495.662 250.242 495.764 250.674 495.714C251.157 495.635 251.624 495.481 252.059 495.258C252.71 494.955 253.332 494.594 253.917 494.177C254.254 493.997 254.531 493.721 254.71 493.383C254.71 493.147 254.626 492.91 254.221 492.674C253.859 492.444 253.431 492.343 253.005 492.387C252.513 492.462 252.039 492.622 251.603 492.86C250.963 493.141 250.347 493.474 249.762 493.856V493.924ZM252.954 507.13C252.624 507.32 252.35 507.594 252.16 507.924C252.16 508.161 252.245 508.397 252.65 508.634C253.012 508.863 253.44 508.964 253.866 508.921C254.355 508.844 254.828 508.691 255.268 508.465C255.907 508.149 256.522 507.788 257.109 507.384C257.447 507.199 257.727 506.924 257.919 506.59C258.004 506.354 257.919 506.117 257.429 505.881C257.061 505.652 256.628 505.551 256.197 505.594C255.714 505.673 255.247 505.826 254.812 506.05C254.171 506.347 253.551 506.685 252.954 507.063V507.13Z" fill="white"/>
<path d="M382.692 555.229L366.496 545.89L375.481 534.254C376.612 532.785 376.072 531.957 374.265 532.43L352.783 537.952L336.587 528.613C335.226 527.922 333.722 527.562 332.196 527.562C330.669 527.562 329.165 527.922 327.804 528.613L302.286 543.407C299.871 544.809 299.871 547.089 302.286 548.474L348.392 575.107C349.754 575.791 351.258 576.147 352.783 576.147C354.307 576.147 355.811 575.791 357.174 575.107L382.692 560.296C385.124 558.945 385.124 556.682 382.692 555.229Z" fill="#FF9A6A"/>
<path d="M356.786 549.555H357.58C357.843 549.594 358.096 549.686 358.323 549.825L360.637 551.159C360.84 551.277 360.958 551.395 360.975 551.53C360.992 551.666 360.975 551.767 360.755 551.868H360.586H360.333L328.245 554.402C327.981 554.427 327.715 554.427 327.451 554.402C327.186 554.367 326.933 554.275 326.708 554.131L324.411 552.814C324.208 552.696 324.09 552.561 324.073 552.442C324.068 552.368 324.086 552.293 324.125 552.229C324.165 552.166 324.223 552.116 324.293 552.088H324.462C324.545 552.068 324.632 552.068 324.715 552.088L356.786 549.555ZM346.451 547.41C345.769 547.875 345.051 548.288 344.306 548.643C343.709 548.949 343.081 549.186 342.431 549.352C341.754 549.537 341.055 549.628 340.354 549.622C339.601 549.618 338.851 549.516 338.125 549.318C337.348 549.121 336.603 548.814 335.912 548.406C335.305 548.078 334.762 547.643 334.308 547.123C333.996 546.767 333.822 546.312 333.818 545.839C333.837 545.401 333.997 544.98 334.274 544.64C334.619 544.213 335.029 543.842 335.49 543.542C335.828 543.306 336.165 543.103 336.486 542.917C336.807 542.732 337.196 542.529 337.618 542.309C338.86 541.701 340.221 541.372 341.604 541.347C343.16 541.352 344.688 541.772 346.028 542.563C346.639 542.886 347.184 543.321 347.633 543.846C347.938 544.199 348.111 544.647 348.123 545.113C348.101 545.551 347.941 545.97 347.667 546.312C347.331 546.748 346.919 547.12 346.451 547.41ZM349.643 560.617C348.96 561.072 348.249 561.484 347.515 561.849C346.917 562.153 346.289 562.39 345.64 562.559C344.227 562.918 342.746 562.918 341.333 562.559C340.556 562.354 339.811 562.042 339.121 561.63C338.477 561.321 337.902 560.884 337.432 560.346C337.119 559.998 336.945 559.548 336.942 559.08C336.952 558.642 337.106 558.221 337.381 557.881C337.733 557.453 338.149 557.082 338.614 556.783C338.935 556.551 339.267 556.337 339.611 556.141C339.932 555.955 340.32 555.753 340.742 555.55C341.975 554.915 343.342 554.585 344.728 554.587C345.469 554.585 346.208 554.682 346.923 554.874C347.701 555.079 348.446 555.392 349.136 555.803C349.78 556.112 350.355 556.549 350.825 557.087C351.138 557.435 351.312 557.885 351.314 558.353C351.305 558.791 351.15 559.212 350.875 559.553C350.53 559.976 350.112 560.336 349.643 560.617ZM338.885 545.417C338.549 545.607 338.274 545.888 338.091 546.227C338.091 546.447 338.175 546.683 338.581 546.92C338.943 547.147 339.371 547.248 339.796 547.207C340.285 547.131 340.758 546.977 341.198 546.751C341.848 546.445 342.469 546.083 343.056 545.67C343.394 545.49 343.67 545.214 343.85 544.876C343.934 544.64 343.85 544.404 343.36 544.167C342.992 543.939 342.558 543.838 342.127 543.88C341.642 543.958 341.174 544.118 340.742 544.353C340.099 544.638 339.478 544.971 338.885 545.349V545.417ZM342.093 558.624C341.759 558.814 341.48 559.087 341.283 559.417C341.283 559.654 341.283 559.89 341.789 560.127C342.151 560.356 342.579 560.457 343.005 560.414C343.488 560.337 343.956 560.183 344.39 559.958C345.035 559.643 345.655 559.281 346.248 558.877C346.586 558.692 346.867 558.417 347.059 558.083C347.149 557.847 346.98 557.61 346.552 557.374C346.19 557.144 345.762 557.043 345.336 557.087C344.853 557.163 344.385 557.317 343.951 557.543C343.307 557.853 342.686 558.208 342.093 558.607V558.624Z" fill="white"/>
<path d="M613.491 276.619L586.047 260.777V181.553L613.491 197.395V276.619Z" fill="#37474F"/>
<path d="M613.49 276.619L640.934 260.777V181.553L613.49 197.395V276.619Z" fill="#455A64"/>
<path d="M586.047 181.552L613.491 197.394L640.935 181.552L613.491 165.711L586.047 181.552Z" fill="#455A64"/>
<path d="M551.749 240.967L524.305 225.125V66.6938L551.749 82.5353V240.967Z" fill="#37474F"/>
<path d="M551.748 240.967L579.192 225.125V66.6938L551.748 82.5353V240.967Z" fill="#455A64"/>
<path d="M524.305 66.694L551.749 82.5354L579.192 66.694L551.749 50.8525L524.305 66.694Z" fill="#455A64"/>
<path d="M490.002 205.315L462.559 189.474V134.029L490.002 149.87V205.315Z" fill="#37474F"/>
<path d="M490.002 205.315L517.446 189.474V134.029L490.002 149.87V205.315Z" fill="#455A64"/>
<path d="M462.559 134.029L490.002 149.87L517.446 134.029L490.002 118.188L462.559 134.029Z" fill="#455A64"/>
<path d="M675.235 312.27L647.791 296.412V145.918L675.218 161.759L675.235 312.27Z" fill="#37474F"/>
<path d="M675.219 312.27L702.663 296.412V145.918L675.219 161.759V312.27Z" fill="#455A64"/>
<path d="M647.791 145.918L675.218 161.759L702.662 145.918L675.235 130.06L647.791 145.918Z" fill="#455A64"/>
<g opacity="0.3">
<path d="M483.366 300.77L483.079 125.332C483.019 124.316 482.723 123.329 482.212 122.449C481.702 121.569 480.992 120.821 480.14 120.265L273.154 1.2856C271.465 0.356726 270.232 1.11671 270.232 2.97445L270.57 178.345C270.626 179.362 270.921 180.35 271.431 181.231C271.942 182.112 272.654 182.859 273.509 183.412L480.512 302.476C482.082 303.405 483.366 302.645 483.366 300.77Z" fill="white"/>
</g>
<path d="M481.78 303.708C481.183 303.685 480.602 303.511 480.091 303.202L273.088 184.137C272.1 183.515 271.277 182.664 270.689 181.655C270.101 180.647 269.765 179.511 269.71 178.345L269.39 2.97399C269.319 2.45968 269.403 1.93597 269.631 1.46944C269.858 1.00291 270.22 0.614633 270.669 0.353953C271.117 0.0932731 271.634 -0.0280375 272.152 0.00545417C272.67 0.0389458 273.166 0.225719 273.578 0.542034L480.581 119.505C481.567 120.129 482.389 120.981 482.976 121.989C483.564 122.997 483.901 124.132 483.959 125.298L484.246 300.736C484.286 301.248 484.19 301.761 483.968 302.224C483.745 302.687 483.404 303.082 482.979 303.37C482.617 303.588 482.203 303.705 481.78 303.708ZM271.855 1.65668C271.745 1.62732 271.628 1.62732 271.518 1.65668C271.353 1.79869 271.226 1.97977 271.149 2.18336C271.073 2.38694 271.048 2.60653 271.078 2.822L271.366 178.26C271.414 179.148 271.673 180.011 272.123 180.778C272.572 181.544 273.199 182.193 273.949 182.668L480.952 301.732C481.459 302.019 481.898 302.104 482.168 301.935C482.439 301.766 482.607 301.361 482.607 300.77L482.32 125.331C482.266 124.467 482.012 123.626 481.578 122.876C481.145 122.126 480.543 121.487 479.821 121.008L272.734 1.94379C272.47 1.77498 272.168 1.67617 271.855 1.65668Z" fill="#FF9A6A"/>
<path d="M463.705 262.061C458.217 258.16 455.008 254.63 452.829 227.507L452.643 225.194C450.6 199.709 449.266 182.888 437.646 175.947C432.073 172.569 427.615 175.947 422.903 179.611C418.63 182.871 414.239 186.215 409.291 183.394C400.593 178.328 399.157 168.296 396.455 149.989C396.117 147.726 395.78 145.345 395.391 142.845C394.8 138.944 394.294 135.313 393.821 131.901C391.152 112.682 389.531 101.063 379.702 95.1349C378.734 94.449 377.619 93.9986 376.446 93.8197C375.273 93.6409 374.075 93.7385 372.946 94.1047C365.499 96.7056 359.672 112.463 353.508 129.165C353.035 130.398 352.579 131.699 352.089 132.999C347.614 145.311 342.547 159.278 335.538 161.862C334.547 162.224 333.487 162.358 332.437 162.253C331.387 162.147 330.375 161.806 329.475 161.254C322.5 157.302 321.251 146.493 320.051 136.022C318.852 125.551 317.687 115.03 311.101 111.061C310.542 110.7 309.903 110.482 309.241 110.426C308.578 110.37 307.912 110.478 307.301 110.74C299.127 113.915 291.881 138.099 291.814 138.336L290.125 137.863C290.429 136.833 297.674 112.648 306.608 109.152C307.461 108.799 308.387 108.656 309.307 108.735C310.227 108.815 311.114 109.114 311.894 109.608C319.173 113.966 320.44 125.061 321.673 135.786C322.906 146.51 324.02 156.221 330.269 159.75C330.95 160.183 331.723 160.453 332.525 160.538C333.328 160.623 334.14 160.521 334.897 160.24C341.162 157.927 346.313 143.774 350.451 132.391C350.941 131.074 351.397 129.79 351.87 128.54C358.456 110.723 364.147 95.3376 372.338 92.4665C373.696 92.0264 375.137 91.9056 376.549 92.1136C377.961 92.3216 379.306 92.8527 380.479 93.6656C390.983 100.016 392.655 111.922 395.391 131.648C395.864 135.026 396.371 138.674 396.962 142.558C397.35 145.074 397.688 147.456 398.026 149.702C400.61 167.502 402.045 177.298 410.034 181.891C414.002 184.171 417.6 181.418 421.771 178.243C426.5 174.629 431.904 170.559 438.406 174.46C450.752 181.858 452.137 199.033 454.214 225.025L454.4 227.338C456.629 255.002 459.973 257.366 464.533 260.66L463.705 262.061Z" fill="#FF9A6A"/>
<g opacity="0.4">
<path d="M463.707 262.061C458.219 258.16 455.01 254.63 452.831 227.507L452.645 225.193C450.602 199.708 449.268 182.887 437.648 175.946C432.075 172.568 427.617 175.946 422.905 179.611C418.632 182.87 414.241 186.214 409.293 183.394C400.595 178.327 399.159 168.296 396.457 149.988C396.119 147.725 395.782 145.344 395.393 142.845C394.802 138.943 394.295 135.312 393.823 131.901C391.154 112.682 389.533 101.062 379.704 95.1345C378.736 94.4485 377.621 93.9981 376.448 93.8192C375.275 93.6404 374.077 93.738 372.948 94.1042C365.501 96.7051 359.674 112.462 353.51 129.165C353.037 130.398 352.581 131.698 352.091 132.999C347.616 145.31 342.549 159.277 335.54 161.861C334.549 162.224 333.489 162.358 332.439 162.252C331.389 162.147 330.376 161.805 329.477 161.253C322.502 157.301 321.253 146.492 320.053 136.022C318.854 125.551 317.689 115.029 311.103 111.06C310.544 110.699 309.905 110.481 309.243 110.425C308.58 110.369 307.914 110.477 307.303 110.739C299.129 113.914 291.883 138.099 291.816 138.335L290.127 137.862C290.431 136.832 297.676 112.648 306.61 109.152C307.463 108.799 308.389 108.656 309.309 108.735C310.229 108.814 311.116 109.114 311.896 109.608C319.175 113.965 320.442 125.061 321.675 135.785C322.908 146.509 324.022 156.22 330.271 159.75C330.952 160.183 331.725 160.452 332.527 160.537C333.33 160.622 334.142 160.52 334.898 160.24C341.164 157.926 346.315 143.773 350.453 132.391C350.943 131.073 351.399 129.79 351.871 128.54C358.458 110.723 364.149 95.3371 372.34 92.4661C373.698 92.0259 375.139 91.9052 376.551 92.1131C377.963 92.3211 379.308 92.8522 380.481 93.6651C390.985 100.015 392.657 111.922 395.393 131.647C395.866 135.025 396.373 138.673 396.964 142.557C397.352 145.074 397.69 147.455 398.028 149.701C400.612 167.502 402.047 177.297 410.036 181.891C414.004 184.171 417.602 181.418 421.773 178.243C426.502 174.629 431.906 170.559 438.408 174.46C450.754 181.857 452.139 199.033 454.216 225.024L454.402 227.338C456.631 255.001 459.975 257.366 464.535 260.659L463.707 262.061Z" fill="black"/>
</g>
<path d="M435.148 168.482C436.404 169.305 437.45 170.41 438.204 171.709C438.957 173.008 439.397 174.465 439.488 175.964C439.488 178.716 437.546 179.831 435.165 178.463C433.903 177.646 432.852 176.542 432.098 175.242C431.344 173.942 430.907 172.482 430.824 170.981C430.824 168.296 432.699 167.181 435.148 168.482Z" fill="#FF9A6A"/>
<g opacity="0.2">
<path d="M435.15 168.481C436.406 169.304 437.452 170.409 438.206 171.708C438.959 173.007 439.399 174.464 439.49 175.963C439.49 178.716 437.548 179.831 435.166 178.463C433.905 177.645 432.854 176.542 432.1 175.242C431.346 173.942 430.909 172.482 430.826 170.981C430.826 168.296 432.701 167.181 435.15 168.481Z" fill="black"/>
</g>
<path d="M380.142 89.4262C381.399 90.2462 382.446 91.3508 383.197 92.6506C383.948 93.9504 384.383 95.4089 384.465 96.9078C384.465 99.6607 382.54 100.775 380.159 99.4073C378.896 98.5913 377.845 97.4879 377.09 96.1876C376.336 94.8872 375.9 93.4268 375.818 91.9257C375.818 89.1053 377.744 88.0582 380.142 89.4262Z" fill="#FF9A6A"/>
<g opacity="0.5">
<path d="M380.142 89.4267C381.399 90.2467 382.446 91.3513 383.197 92.6511C383.948 93.9509 384.383 95.4093 384.465 96.9083C384.465 99.6611 382.54 100.776 380.159 99.4078C378.896 98.5918 377.845 97.4884 377.09 96.1881C376.336 94.8877 375.9 93.4273 375.818 91.9262C375.818 89.1058 377.744 88.0587 380.142 89.4267Z" fill="white"/>
</g>
<path d="M311.559 105.387C312.821 106.199 313.872 107.299 314.627 108.597C315.381 109.895 315.817 111.353 315.899 112.851C315.899 115.621 313.974 116.736 311.576 115.368C310.319 114.547 309.273 113.442 308.522 112.142C307.771 110.843 307.336 109.385 307.252 107.886C307.235 105.133 309.177 104.002 311.559 105.387Z" fill="#FF9A6A"/>
<path opacity="0.65" d="M373.371 293.034V117.596C373.315 116.582 373.021 115.595 372.514 114.715C372.006 113.835 371.299 113.086 370.449 112.53L191.076 8.96919C189.387 8.04032 188.154 8.8003 188.154 10.658V186.096C188.209 187.111 188.502 188.098 189.01 188.979C189.517 189.859 190.225 190.607 191.076 191.163L370.449 294.723C372.071 295.669 373.371 294.909 373.371 293.034Z" fill="white"/>
<path d="M371.766 295.973C371.169 295.95 370.588 295.776 370.077 295.467L190.653 191.906C189.668 191.277 188.847 190.422 188.26 189.411C187.672 188.401 187.335 187.264 187.276 186.096V10.6583C187.209 10.1454 187.296 9.62415 187.525 9.16049C187.754 8.69683 188.116 8.31149 188.564 8.05311C189.012 7.79473 189.527 7.6749 190.043 7.70873C190.559 7.74257 191.054 7.92857 191.464 8.24324L370.837 111.804C371.822 112.429 372.643 113.281 373.231 114.289C373.819 115.297 374.156 116.431 374.215 117.597V293.035C374.256 293.547 374.16 294.06 373.937 294.523C373.715 294.986 373.374 295.381 372.948 295.669C372.588 295.872 372.18 295.977 371.766 295.973ZM189.775 9.42543C189.664 9.39683 189.548 9.39683 189.438 9.42543C189.273 9.56743 189.146 9.74852 189.069 9.9521C188.993 10.1557 188.968 10.3753 188.998 10.5907V186.096C189.051 186.964 189.305 187.807 189.738 188.56C190.172 189.313 190.774 189.956 191.498 190.437L370.871 293.997C371.043 294.132 371.246 294.221 371.462 294.256C371.677 294.292 371.898 294.272 372.104 294.2C372.374 294.048 372.526 293.626 372.526 293.035V117.597C372.475 116.731 372.222 115.89 371.788 115.139C371.354 114.389 370.751 113.75 370.027 113.273L190.653 9.72943C190.395 9.54796 190.091 9.44264 189.775 9.42543Z" fill="#FF9A6A"/>
<path d="M342.515 253.161V137.711C342.486 137.203 342.338 136.709 342.082 136.269C341.827 135.829 341.472 135.455 341.046 135.177L323.397 125.044C322.586 124.571 321.928 124.943 321.928 125.889V241.271C321.953 241.78 322.099 242.276 322.355 242.716C322.61 243.157 322.968 243.53 323.397 243.805L341.046 253.938C341.856 254.478 342.515 254.09 342.515 253.161Z" fill="#FF9A6A"/>
<g opacity="0.3">
<path d="M342.513 253.16V137.71C342.484 137.202 342.336 136.708 342.081 136.268C341.825 135.828 341.47 135.454 341.044 135.177L323.395 125.044C322.584 124.571 321.926 124.943 321.926 125.888V241.271C321.951 241.78 322.097 242.275 322.353 242.716C322.608 243.157 322.966 243.53 323.395 243.804L341.044 253.937C341.854 254.478 342.513 254.089 342.513 253.16Z" fill="black"/>
</g>
<path d="M308.216 233.351V173.363C308.187 172.855 308.039 172.361 307.784 171.921C307.528 171.481 307.173 171.107 306.747 170.829L289.081 160.696C288.288 160.24 287.629 160.696 287.629 161.541V221.546C287.659 222.052 287.805 222.544 288.057 222.983C288.309 223.423 288.66 223.798 289.081 224.079L306.747 234.212C307.557 234.668 308.216 234.347 308.216 233.351Z" fill="#FF9A6A"/>
<g opacity="0.2">
<path d="M308.216 233.351V173.363C308.187 172.855 308.039 172.361 307.784 171.921C307.528 171.481 307.173 171.107 306.747 170.829L289.081 160.696C288.288 160.24 287.629 160.696 287.629 161.541V221.546C287.659 222.052 287.805 222.544 288.057 222.983C288.309 223.423 288.66 223.798 289.081 224.079L306.747 234.212C307.557 234.668 308.216 234.347 308.216 233.351Z" fill="white"/>
</g>
<path d="M273.947 213.557V121.869C273.917 121.362 273.769 120.868 273.514 120.427C273.259 119.987 272.904 119.614 272.477 119.336L254.812 109.203C254.018 108.73 253.359 109.102 253.359 110.047V201.718C253.386 202.225 253.532 202.718 253.784 203.158C254.037 203.598 254.388 203.972 254.812 204.252L272.477 214.385C273.254 214.858 273.947 214.486 273.947 213.557Z" fill="#FF9A6A"/>
<g opacity="0.2">
<path d="M273.948 213.557V121.869C273.919 121.361 273.771 120.867 273.516 120.427C273.261 119.987 272.906 119.613 272.479 119.336L254.814 109.203C254.02 108.73 253.361 109.101 253.361 110.047V201.718C253.388 202.224 253.534 202.717 253.786 203.157C254.038 203.597 254.39 203.972 254.814 204.251L272.479 214.384C273.256 214.857 273.948 214.486 273.948 213.557Z" fill="black"/>
</g>
<path d="M239.596 193.815V62.456C239.57 61.9492 239.425 61.4557 239.173 61.0156C238.92 60.5754 238.568 60.201 238.143 59.9227L220.478 49.7896C219.684 49.3167 219.025 49.7896 219.025 50.634V181.926C219.055 182.431 219.202 182.923 219.454 183.363C219.706 183.802 220.056 184.178 220.478 184.459L238.143 194.592C238.954 195.065 239.596 194.676 239.596 193.815Z" fill="#FF9A6A"/>
<path d="M604.338 214.806C604.102 213.54 597.903 199.117 595.353 193.442L582.434 199.488L587.382 210.821L600.758 221.173C602.059 220.777 603.158 219.894 603.824 218.708C604.491 217.522 604.675 216.124 604.338 214.806Z" fill="#FFA8A7"/>
<path d="M578.601 365.875H568.637V380.399H578.601V365.875Z" fill="#FFA8A7"/>
<path d="M543.501 347.936L533.543 348.278L534.042 362.794L544.001 362.451L543.501 347.936Z" fill="#FFA8A7"/>
<path d="M545.991 157.875C542.385 157.959 538.859 158.953 535.741 160.767C532.622 162.58 530.013 165.152 528.157 168.245C522.651 176.436 512.957 190.436 512.957 190.436L531.112 196.195L545.991 157.875Z" fill="#FF9A6A"/>
<g opacity="0.7">
<path d="M545.991 157.875C542.385 157.959 538.859 158.953 535.741 160.767C532.622 162.58 530.013 165.152 528.157 168.245C522.651 176.436 512.957 190.436 512.957 190.436L531.112 196.195L545.991 157.875Z" fill="white"/>
</g>
<path d="M577.941 224.213C577.941 233.739 579.174 295.331 579.174 295.331C579.411 298.067 581.978 303.117 581.42 313.638C580.66 327.943 579.427 367.682 579.427 367.682C579.427 367.682 574.749 372.326 568.146 367.682C568.146 367.682 559.11 313.723 557.337 299.553C555.767 287.191 553.132 253.616 553.132 253.616L543.894 293.152C543.894 293.152 545.583 302.441 545.87 308.994C546.157 315.547 544.181 353.444 544.181 353.444C542.564 354.454 540.712 355.025 538.807 355.099C536.903 355.173 535.012 354.748 533.322 353.867C533.322 353.867 525.317 298.506 524.286 292.578C523.256 286.65 531.312 224.213 531.312 224.213H577.941Z" fill="#FF9A6A"/>
<path opacity="0.2" d="M577.941 224.213C577.941 233.739 579.174 295.331 579.174 295.331C579.411 298.067 581.978 303.117 581.42 313.638C580.66 327.943 579.427 367.682 579.427 367.682C579.427 367.682 574.749 372.326 568.146 367.682C568.146 367.682 559.11 313.723 557.337 299.553C555.767 287.191 553.132 253.616 553.132 253.616L543.894 293.152C543.894 293.152 545.583 302.441 545.87 308.994C546.157 315.547 544.181 353.444 544.181 353.444C542.564 354.454 540.712 355.025 538.807 355.099C536.903 355.173 535.012 354.748 533.322 353.867C533.322 353.867 525.317 298.506 524.286 292.578C523.256 286.65 531.312 224.213 531.312 224.213H577.941Z" fill="black"/>
<path d="M562.946 158.179C571.88 160.324 583.212 163.938 587.198 172.18C591.184 180.421 597.331 193.78 597.331 193.78L582.537 202.528L577.943 194.625V224.213C570.951 231.813 546.564 235.36 531.297 224.213V175.507C531.297 167.755 535.62 158.416 547.527 157.723L562.946 158.179Z" fill="#FF9A6A"/>
<path opacity="0.7" d="M562.946 158.179C571.88 160.324 583.212 163.938 587.198 172.18C591.184 180.421 597.331 193.78 597.331 193.78L582.537 202.528L577.943 194.625V224.213C570.951 231.813 546.564 235.36 531.297 224.213V175.507C531.297 167.755 535.62 158.416 547.527 157.723L562.946 158.179Z" fill="white"/>
<path d="M566.306 118.423C567.108 118.331 567.92 118.423 568.681 118.692C569.442 118.962 570.132 119.401 570.697 119.977C572.588 121.902 572.2 125.483 570.697 133.691L564.854 134.366L566.306 118.423Z" fill="#263238"/>
<path d="M532.342 116.127C531.089 116.142 529.846 115.895 528.694 115.4C526.904 114.37 526.431 116.397 527.411 118.17C528.06 119.435 529.021 120.513 530.203 121.302C531.385 122.092 532.749 122.566 534.166 122.679C534.166 122.426 535.855 118.12 535.855 118.12L532.342 116.127Z" fill="#263238"/>
<path d="M563.57 134.366C564.431 134.889 565.664 133.218 566.728 132.103C567.148 131.623 567.683 131.259 568.283 131.042C568.883 130.826 569.528 130.766 570.158 130.867C570.787 130.969 571.381 131.228 571.883 131.621C572.385 132.015 572.778 132.529 573.027 133.116C574.801 136.849 570.781 141.831 568.417 143.469C567.756 144.04 566.932 144.388 566.061 144.464C565.191 144.539 564.319 144.339 563.57 143.891L562.945 158.179C561.901 160.468 560.306 162.463 558.302 163.984C556.297 165.505 553.947 166.505 551.461 166.893C543.016 168.025 544.79 161.117 547.542 157.723V152.521C545.446 152.975 543.291 153.089 541.159 152.859C540.061 152.572 537.46 149.481 535.771 145.884C533.88 141.915 530.705 134.873 533.542 122.966C536.548 110.182 550.278 109.793 558.486 114.944C566.694 120.095 563.57 134.366 563.57 134.366Z" fill="#FFA8A7"/>
<path d="M563.571 135.819C563.993 135.819 565.665 133.083 566.729 132.103C568.232 130.735 566.307 118.423 566.307 118.423C566.307 118.423 567.81 113.762 564.855 110.655C561.899 107.547 556.191 108.088 552.003 107.936C546.862 107.962 541.771 106.939 537.039 104.93C531.095 102.346 530.655 102.042 529.912 104.659C529.169 107.277 528.899 113.239 532.446 117.241L535.401 118.339C535.401 118.339 536.989 119.741 542.528 120.416C547.649 120.805 552.794 120.709 557.897 120.129C559.501 119.91 559.839 121.463 560.7 125.719C561.477 129.469 562.102 135.802 563.571 135.819Z" fill="#263238"/>
<path d="M566.29 119.387L571.526 116.566C571.359 116.215 571.123 115.901 570.831 115.643C570.539 115.386 570.198 115.19 569.829 115.069C569.459 114.947 569.069 114.902 568.681 114.936C568.293 114.97 567.917 115.082 567.574 115.266C566.871 115.656 566.345 116.302 566.106 117.069C565.867 117.837 565.933 118.667 566.29 119.387Z" fill="#263238"/>
<path d="M547.543 152.521C551.124 151.846 554.635 150.84 558.031 149.515C559.63 148.688 560.938 147.392 561.78 145.8C561.372 147.391 560.649 148.885 559.652 150.191C557.659 152.724 547.543 154.599 547.543 154.599V152.521Z" fill="#F28F8F"/>
<path d="M549.433 132.424C549.427 132.633 549.462 132.84 549.537 133.034C549.612 133.229 549.725 133.406 549.87 133.556C550.015 133.706 550.189 133.825 550.381 133.906C550.573 133.987 550.779 134.029 550.987 134.029C551.329 134.056 551.671 133.978 551.968 133.806C552.265 133.634 552.502 133.375 552.648 133.065C552.795 132.754 552.843 132.407 552.787 132.068C552.73 131.73 552.572 131.417 552.334 131.17C552.095 130.924 551.787 130.756 551.451 130.689C551.114 130.622 550.765 130.659 550.45 130.795C550.135 130.931 549.869 131.16 549.688 131.451C549.506 131.742 549.417 132.082 549.433 132.424Z" fill="#263238"/>
<path d="M551.072 126.547L554.45 128.388C554.684 127.93 554.734 127.4 554.589 126.907C554.445 126.414 554.117 125.995 553.673 125.736C553.451 125.609 553.206 125.529 552.951 125.501C552.697 125.473 552.44 125.498 552.196 125.574C551.952 125.65 551.726 125.776 551.533 125.943C551.339 126.11 551.182 126.316 551.072 126.547Z" fill="#263238"/>
<path d="M549.552 142.979L545.988 144.314C546.068 144.551 546.194 144.769 546.359 144.957C546.524 145.145 546.725 145.299 546.949 145.409C547.174 145.519 547.418 145.583 547.668 145.598C547.917 145.613 548.167 145.578 548.403 145.496C548.881 145.303 549.266 144.935 549.479 144.467C549.693 143.999 549.719 143.466 549.552 142.979Z" fill="#F28F8F"/>
<path d="M535.55 127.847L538.573 125.5C538.431 125.295 538.248 125.122 538.037 124.99C537.825 124.858 537.589 124.771 537.343 124.733C537.096 124.695 536.845 124.707 536.604 124.77C536.362 124.832 536.136 124.942 535.939 125.095C535.532 125.415 535.264 125.88 535.192 126.393C535.119 126.906 535.248 127.427 535.55 127.847Z" fill="#263238"/>
<path d="M536.483 131.985C536.483 132.189 536.523 132.391 536.601 132.58C536.679 132.768 536.793 132.94 536.938 133.084C537.082 133.228 537.253 133.343 537.442 133.421C537.63 133.499 537.832 133.539 538.036 133.539C538.24 133.539 538.442 133.499 538.631 133.421C538.819 133.343 538.991 133.228 539.135 133.084C539.279 132.94 539.394 132.768 539.472 132.58C539.55 132.391 539.59 132.189 539.59 131.985C539.597 131.777 539.562 131.57 539.487 131.375C539.412 131.181 539.298 131.003 539.153 130.854C539.008 130.704 538.835 130.585 538.643 130.504C538.451 130.423 538.245 130.381 538.036 130.381C537.618 130.39 537.22 130.563 536.93 130.864C536.639 131.164 536.478 131.567 536.483 131.985Z" fill="#263238"/>
<path d="M544.403 130.499L543.896 139.872L539.016 138.2L544.403 130.499Z" fill="#F28F8F"/>
<path d="M503.734 186.906L543.558 197.394L555.312 246.827L517.448 235.832L503.734 186.906Z" fill="#FF9A6A"/>
<path d="M521.095 219.62C520.394 220.871 519.333 221.883 518.05 222.524C516.768 223.165 515.322 223.407 513.9 223.217L513.326 221.173L521.095 219.62Z" fill="#FF9A6A"/>
<path d="M529.998 221.173C530.167 222.491 532.886 224.923 537.463 226.443C542.664 228.131 550.653 227.27 550.653 227.27L549.943 224.804L529.998 221.173Z" fill="#FF9A6A"/>
<path opacity="0.43" d="M515.454 194.067L515.116 192.547C514.947 191.703 517.278 191.669 520.352 192.463L526.212 193.983C529.286 194.794 531.903 196.111 532.089 196.955L532.427 198.475L515.454 194.067Z" fill="#455A64"/>
<path d="M512.619 188.342C512.517 187.818 513.463 187.683 514.747 188.038L517.145 188.747C517.145 188.747 516.452 185.369 521.62 186.602C522.999 186.806 524.302 187.362 525.403 188.217C526.504 189.072 527.365 190.197 527.903 191.483L530.385 192.192C531.753 192.581 532.986 193.307 533.155 193.881L533.442 194.827L512.923 189.423L512.619 188.342Z" fill="#37474F"/>
<path d="M515.455 189.98C517.329 190.436 518.106 190.69 518.393 191.973C518.68 193.257 518.849 194.54 518.849 194.54L527.918 196.938C527.918 196.938 527.479 195.064 527.344 194.338C527.209 193.611 527.513 193.172 529.033 193.544L529.151 192.97L514.914 189.355L515.455 189.98Z" fill="#37474F"/>
<path d="M515.136 194.219L514.815 192.699C514.629 191.855 516.96 191.821 520.034 192.615L525.894 194.135C528.968 194.929 531.602 196.246 531.788 197.09L532.109 198.61L515.136 194.219Z" fill="#37474F"/>
<path d="M600.76 221.174L587.384 210.821C587.384 210.821 559.349 216.09 556.191 216.343C553.033 216.597 550.534 213.472 549.335 210.365C548.135 207.257 545.704 207.646 545.704 207.646C545.704 207.646 546.632 211.598 546.936 212.848C547.24 214.097 539.928 215.128 535.722 213.709C531.517 212.29 525.42 214.351 529.187 220.093C532.953 225.835 540.316 226.477 545.416 226.494C547.551 226.473 549.683 226.326 551.8 226.054C553.489 225.852 555.178 225.683 556.749 225.565C567.186 224.822 596.015 222.66 600.76 221.174Z" fill="#FFA8A7"/>
<path d="M507.77 201.363L509.543 207.663C509.881 208.879 514.508 211.04 517.447 211.885C520.385 212.729 523.577 213.574 522.192 217.745C520.909 221.511 516.096 222.373 513.647 222.271C511.997 221.992 510.456 221.263 509.196 220.163C507.935 219.063 507.003 217.636 506.503 216.039C504.814 211.226 505.726 206.075 505.05 203.255C504.375 200.434 506.317 199.691 507.77 201.363Z" fill="#F28F8F"/>
<path d="M568.636 375.484V374.048C567.69 374.471 565.461 382.932 561.509 386.529C558.367 389.4 554.078 392.727 553.064 395.919C552.051 399.111 559.043 401.087 561.981 400.564C565.359 399.956 571.321 397.557 572.807 395.328C574.293 393.099 574.986 389.805 576.185 388.167C577.384 386.529 580.17 384.79 580.829 382.831C581.025 381.064 580.829 379.277 580.255 377.595C579.799 375.822 579.292 373.896 578.701 374.048C578.701 374.268 578.701 375.146 578.701 375.146C577.253 376.268 575.466 376.863 573.635 376.835C572.165 376.886 568.619 376.599 568.636 375.484Z" fill="#37474F"/>
<path d="M534.032 359.693C533.508 359.693 533.086 360.436 531.954 361.669C530.245 363.395 528.259 364.823 526.077 365.891C522.345 367.766 515.099 370.637 511.806 372.123C509.746 373.052 509.847 375.501 511.975 376.936C514.103 378.372 519.22 379.368 525.368 377.983C528.745 377.24 533.086 374.15 535.839 374.302C538.591 374.454 543.759 374.437 545.803 373.035C547.846 371.633 547.019 368.627 546.445 366.043C545.87 363.459 544.925 358.933 543.996 359.119V360.014C542.797 361.821 536.683 362.564 534.048 361.23L534.032 359.693Z" fill="#37474F"/>
<path d="M102.206 353.63L108.438 362.293C105.597 363.605 102.498 364.263 99.3687 364.219C93.7954 364.438 92.2586 362.53 92.0559 362.158C91.1102 360.149 92.5795 356.501 92.9848 353.359L102.206 353.63Z" fill="#37474F"/>
<path d="M92.0566 344.916C92.0566 344.916 93.0024 352.786 93.07 354.475C93.1375 356.164 100.754 356.721 102.207 353.63L102.426 344.004L92.0566 344.916Z" fill="#F28F8F"/>
<path d="M92.0559 189.862C86.8542 197.969 81.9228 205.062 80.8419 214.216C78.6126 233.452 85.9084 255.441 87.4791 269.661C84.5259 273.718 82.8182 278.548 82.5645 283.56C82.5645 289.437 92.0559 344.916 92.0559 344.916C92.0559 344.916 98.9464 347.027 102.425 344.004L108.944 241.947L105.567 229.517L92.0559 189.862Z" fill="#FF9A6A"/>
<path opacity="0.5" d="M92.0559 189.862C86.8542 197.969 81.9228 205.062 80.8419 214.216C78.6126 233.452 85.9084 255.441 87.4791 269.661C84.5259 273.718 82.8182 278.548 82.5645 283.56C82.5645 289.437 92.0559 344.916 92.0559 344.916C92.0559 344.916 98.9464 347.027 102.425 344.004L108.944 241.947L105.567 229.517L92.0559 189.862Z" fill="white"/>
<path d="M140.139 151.846L174.439 168.312L153.852 214.604L121.865 196.144L140.139 151.846Z" fill="#FF9A6A"/>
<path d="M170.402 169.157L152.635 208.608L128.012 194.422L141.979 155.595L170.402 169.157Z" fill="#FF9A6A"/>
<path d="M141.979 155.595L170.402 169.157L151.217 209.031L124.33 193.679L141.979 155.595Z" fill="white"/>
<path d="M148.158 161.303L148.817 159.885C149.188 159.108 151.536 159.429 154.069 160.628L158.916 162.924C161.449 164.107 163.189 165.728 162.834 166.505L162.159 167.923L148.158 161.303Z" fill="#E0E0E0"/>
<path d="M80.42 168.481C77.9205 175.608 72.9722 186.923 74.5597 189.203C76.1472 191.483 85.6723 190.993 90.9753 190.79C97.7308 190.537 103.338 190.267 103.338 190.267L102.206 178.445H92.6135L96.8357 166.488L80.42 168.481Z" fill="#F28F8F"/>
<path d="M90.028 143.148C86.5321 148.891 79.4727 169.157 79.4727 169.157C81.434 171.381 84.0356 172.945 86.9205 173.632C89.4399 174.405 92.1171 174.51 94.6892 173.936L102.492 154.514L90.028 143.148Z" fill="#FF9A6A"/>
<path opacity="0.4" d="M90.028 143.148C86.5321 148.891 79.4727 169.157 79.4727 169.157C81.434 171.381 84.0356 172.945 86.9205 173.632C89.4399 174.405 92.1171 174.51 94.6892 173.936L102.492 154.514L90.028 143.148Z" fill="black"/>
<path d="M124.938 146.763C131.068 148.604 134.801 148.924 141.573 159.345C148.345 169.765 163.174 190.436 164.643 192.919C166.686 196.297 167.565 200.485 165.808 203.66C164.052 206.835 159.374 205.349 152.652 199.421C145.93 193.493 133.264 177.601 133.264 177.601C133.264 177.601 120.057 162.722 124.938 146.763Z" fill="#FFA8A7"/>
<path d="M120.039 133.252L118.384 147.894L103.928 149.566L106.022 130.127L120.039 133.252Z" fill="#FFA8A7"/>
<path d="M89.1172 111.854C90.3163 98.3427 97.5615 92.7526 103.32 91.4184C114.754 88.7162 124.955 92.8708 129.582 100.893C130.798 103.004 132.842 110.908 128.771 115.569C124.701 120.23 89.1172 111.854 89.1172 111.854Z" fill="#263238"/>
<path d="M130.713 116.616C130.713 116.616 133.72 121.683 133.264 122.257C132.464 122.721 131.59 123.041 130.68 123.203L130.713 116.616Z" fill="#F28F8F"/>
<path d="M121.593 100.319C124.7 102.159 130.037 105.52 130.763 117.342C131.523 129.485 129.21 133.217 127.386 134.704C126.22 135.717 120.242 135.379 117.252 134.281C113.588 132.897 105.43 129.13 101.918 122.679C97.8644 115.096 97.5097 105.284 102.88 101.754C105.618 99.9398 108.775 98.8556 112.05 98.6043C115.325 98.3531 118.61 98.9432 121.593 100.319Z" fill="#FFA8A7"/>
<path d="M122.506 100.927C122.506 100.927 124.651 112.09 120.935 118.846C120.935 118.846 119.246 114.438 115.463 115.468C111.68 116.498 111.731 121.463 114.518 124.166C115.224 124.935 116.132 125.488 117.139 125.763C118.146 126.038 119.21 126.023 120.209 125.719C119.684 129.196 118.063 132.415 115.582 134.907C111.643 135.818 107.527 135.598 103.708 134.271C99.8894 132.944 96.5233 130.565 93.998 127.408C85.5537 117.376 87.7661 100.387 101.159 96.7386C114.551 93.0907 122.506 100.927 122.506 100.927Z" fill="#263238"/>
<path d="M108.085 358.14C108.085 358.14 115.651 357.65 120.869 356.991C126.088 356.333 130.226 358.883 128.993 361.045C127.76 363.206 124.889 364.98 120.413 366.483C116.58 367.783 111.969 368.712 107.983 369.86C103.998 371.009 101.228 372.495 98.9143 371.701C96.3303 370.806 95.2157 369.776 95.4352 367.885C95.9992 365.194 96.6981 362.533 97.5294 359.913L108.085 358.14Z" fill="#37474F"/>
<path d="M99.7224 349.762L97.0034 361.702C97.0034 361.702 96.7501 363.155 102.965 364.084C109.18 365.013 118.942 360.841 120.614 359.98C122.286 359.118 122.471 357.446 116.358 357.784C110.244 358.122 108.082 358.139 108.082 358.139L110.126 352.836L99.7224 349.762Z" fill="#FFA8A7"/>
<path d="M108.945 241.946L105.568 229.516C99.1004 227.814 92.8626 225.336 86.9902 222.136C86.9902 222.136 90.5031 228.537 100.501 232.032L105.753 248.009L106.209 284.556L108.945 241.946Z" fill="#FF9A6A"/>
<path d="M92.0568 189.862C89.2702 194.405 82.6161 202.191 84.0178 209.656C85.7067 218.725 90.6212 225.075 105.517 229.517L119.501 280.182C119.501 280.182 112.222 286.938 109.992 293.473C107.763 300.009 99.7242 349.814 99.7242 349.814C99.7242 349.814 102.207 353.867 110.06 352.887C110.06 352.887 137.436 290.4 139.378 286.33C141.696 282.231 142.514 277.454 141.692 272.819C140.831 266.249 131.559 194.524 131.559 194.524L92.0568 189.862Z" fill="#FF9A6A"/>
<path opacity="0.5" d="M92.0568 189.862C89.2702 194.405 82.6161 202.191 84.0178 209.656C85.7067 218.725 90.6212 225.075 105.517 229.517L119.501 280.182C119.501 280.182 112.222 286.938 109.992 293.473C107.763 300.009 99.7242 349.814 99.7242 349.814C99.7242 349.814 102.207 353.867 110.06 352.887C110.06 352.887 137.436 290.4 139.378 286.33C141.696 282.231 142.514 277.454 141.692 272.819C140.831 266.249 131.559 194.524 131.559 194.524L92.0568 189.862Z" fill="white"/>
<path d="M89.5217 144.196C90.6025 141.324 94.0478 138.926 97.1553 139.771C106.9 142.422 122.049 145.918 124.937 146.763C124.937 146.763 123.653 168.718 134.867 175.27C134.344 179.442 131.49 194.405 131.49 194.405C131.49 194.405 117.979 200.958 106.9 197.783C95.8211 194.608 92.0549 189.913 92.0549 189.913L97.6113 180.861C96.4291 177.905 91.8354 167.924 88.8799 158.635C87.793 153.852 88.0147 148.864 89.5217 144.196Z" fill="#FF9A6A"/>
<path opacity="0.2" d="M89.5217 144.196C90.6025 141.324 94.0478 138.926 97.1553 139.771C106.9 142.422 122.049 145.918 124.937 146.763C124.937 146.763 123.653 168.718 134.867 175.27C134.344 179.442 131.49 194.405 131.49 194.405C131.49 194.405 117.979 200.958 106.9 197.783C95.8211 194.608 92.0549 189.913 92.0549 189.913L97.6113 180.861C96.4291 177.905 91.8354 167.924 88.8799 158.635C87.793 153.852 88.0147 148.864 89.5217 144.196Z" fill="black"/>
<path opacity="0.25" d="M96.0918 177.246C100.71 180.024 105.551 182.413 110.565 184.39C106.015 184.302 101.561 183.071 97.6118 180.81L96.0918 177.246Z" fill="#FF9A6A"/>
<path d="M98.9633 94.4247C98.9633 94.4247 94.3358 86.5378 83.0036 88.5813C71.6714 90.6248 67.0777 102.649 67.2466 110.266C67.4155 117.883 69.9657 123.203 63.1427 132.221C61.7979 134 60.8503 136.046 60.3638 138.222C59.8773 140.398 59.8633 142.653 60.3228 144.835C60.7822 147.017 61.7043 149.075 63.027 150.87C64.3496 152.665 66.0419 154.155 67.9897 155.24C77.0926 160.307 79.305 151.491 77.194 143.959C74.762 135.329 83.7974 133.826 86.2125 127.29C88.6275 120.754 83.8818 107.024 86.9218 102.362C90.2995 97.2958 94.8594 98.0051 97.0549 99.7277L98.9633 94.4247Z" fill="#263238"/>
<path d="M124.938 146.763C127.966 147.406 130.925 148.345 133.77 149.566C137.486 151.39 151.976 174.139 151.976 174.139C151.976 174.139 150.946 182.701 139.09 186.096L132.082 177.247C132.082 177.247 121.779 161.861 124.938 146.763Z" fill="#FF9A6A"/>
<path opacity="0.1" d="M124.938 146.763C127.966 147.406 130.925 148.345 133.77 149.566C137.486 151.39 151.976 174.139 151.976 174.139C151.976 174.139 150.946 182.701 139.09 186.096L132.082 177.247C132.082 177.247 121.779 161.861 124.938 146.763Z" fill="black"/>
<path d="M134.144 179.915C131.03 176.29 128.68 172.074 127.236 167.519C127.236 167.519 127.236 177.348 133.705 182.431L134.144 179.915Z" fill="#FF9A6A"/>
<path opacity="0.4" d="M134.144 179.915C131.03 176.29 128.68 172.074 127.236 167.519C127.236 167.519 127.236 177.348 133.705 182.431L134.144 179.915Z" fill="black"/>
<path d="M149.392 155.19C149.612 154.7 150.642 154.734 151.689 155.19L153.581 156.119C153.581 156.119 155.05 153.062 159.441 154.903C163.832 156.744 162.481 160.273 162.481 160.273L164.491 161.303C165.605 161.861 166.348 162.722 166.179 163.229L165.842 164.124L148.953 156.017L149.392 155.19Z" fill="#455A64"/>
<path d="M151.114 157.115C152.701 157.824 153.309 158.162 152.802 159.378C152.296 160.594 151.57 161.759 151.57 161.759L159.034 165.339C159.034 165.339 159.828 163.651 160.166 162.907C160.504 162.164 161.112 161.877 162.294 162.451L162.8 161.945L150.979 156.456L151.114 157.115Z" fill="#455A64"/>
<path d="M148.023 160.881L148.699 159.462C149.071 158.669 151.418 159.006 153.951 160.205L158.798 162.502C161.315 163.684 163.071 165.289 162.7 166.083L162.024 167.501L148.023 160.881Z" fill="#455A64"/>
</svg>
